<?xml version="1.0" encoding="utf-8"?>
<!-- Generator: Adobe Illustrator 30.0.0, SVG Export Plug-In . SVG Version: 9.03 Build 0)  -->
<svg version="1.0" id="Layer_1" xmlns="http://www.w3.org/2000/svg" xmlns:xlink="http://www.w3.org/1999/xlink" x="0px" y="0px"
	 viewBox="0 0 2400 2400" style="enable-background:new 0 0 2400 2400;" xml:space="preserve">
<g transform="translate(0.000000,2400.000000) scale(0.100000,-0.100000)">
	<path d="M13303.4,23981.9c-60.9-26.9-130.3-110.4-154.3-188.3c-11.3-38.2-31.2-93.5-42.5-124.6c-12.7-35.4-21.2-107.6-22.7-191.2
		c0-202.5,45.3-346.9,150.1-475.8c25.5-32.6,216.6-194,423.4-359.7c206.7-164.3,375.2-307.3,375.2-315.8
		c-1.4-46.7-293.1-1285.7-303-1287.1c-7.1,0-216.6,169.9-465.9,379.5s-477.2,395.1-505.5,410.6c-29.7,17-147.3,102-263.4,188.3
		c-242.1,184.1-294.5,213.8-393.6,222.3c-56.6,5.7-82.1,1.4-117.5-21.2c-51-32.6-110.4-137.4-134.5-239.3
		c-18.4-77.9-22.7-226.6-7.1-259.1c9.9-18.4-25.5-32.6-212.4-89.2c-250.6-75-332.8-120.4-419.1-232.2
		c-65.1-86.4-161.4-290.3-179.8-380.9c-7.1-36.8-19.8-90.6-28.3-117.5c-26.9-94.9-8.5-196.8,49.6-267.6
		c42.5-49.6,94.9-60.9,169.9-36.8c31.2,9.9,298.8,76.5,593.3,148.7c294.5,70.8,549.4,134.5,563.6,143c15.6,8.5,36.8,11.3,48.1,7.1
		c22.7-8.5,1062-866.6,1074.7-886.4c7.1-11.3-355.4-1485.4-366.7-1498.1c-2.8-1.4-264.8,211-580.6,474.4
		c-317.2,263.4-604.6,497-638.6,519.7c-110.4,70.8-253.5,68-341.3-8.5c-63.7-56.6-77.9-83.5-93.5-186.9
		c-39.6-267.6-29.7-351.2,63.7-539.5c121.8-243.6,178.4-301.6,817-829.8c303-250.6,548-461.6,543.7-471.5
		c-7.1-22.7-331.3-1505.2-331.3-1517.9c0-7.1-29.7,17-66.6,53.8c-48.1,45.3-693.8,594.7-722.2,611.7c-1.4,1.4,5.7,53.8,17,114.7
		c41.1,232.2,17,437.5-76.5,637.2c-70.8,152.9-169.9,233.6-284.6,233.6c-102,0-235.1-116.1-324.3-281.8
		c-25.5-46.7-53.8-86.4-63.7-86.4c-9.9,0-63.7,35.4-120.4,77.9c-134.5,102-220.9,126-328.5,90.6c-60.9-21.2-133.1-89.2-154.3-145.8
		c-9.9-24.1-29.7-73.6-43.9-110.4c-32.6-80.7-35.4-239.3-5.7-351.2c28.3-107.6,93.5-233.6,177-344.1l72.2-96.3l-127.4-311.5
		c-93.5-226.6-138.8-321.4-165.7-342.7c-43.9-34-76.5-104.8-76.5-168.5c-1.4-25.5-9.9-62.3-19.8-79.3l-18.4-34l-56.6,69.4
		c-43.9,52.4-862.3,1093.1-911.9,1159.7c-7.1,8.5,120.4,294.5,307.3,693.8c203.9,430.5,329.9,716.5,346.9,783
		c18.4,69.4,26.9,152.9,26.9,247.8c-1.4,276.1-66.6,458.8-212.4,594.7c-144.4,133.1-249.2,138.8-368.2,18.4
		c-86.4-85-114.7-141.6-443.2-859.5c-162.8-354-300.2-649.9-305.9-655.6c-8.5-8.5-834,1019.5-961.5,1196.5
		c-17,24.1,11.3,96.3,260.5,644.3c154.3,338.4,287.4,617.4,295.9,620.2c7.1,1.4,36.8,11.3,63.7,21.2c26.9,8.5,304.4,70.8,616,135.9
		c311.5,65.1,583.4,126,604.6,134.5c62.3,25.5,102,77.9,100.5,133.1c-1.4,51-65.1,164.3-118.9,213.8c-17,14.2-41.1,49.6-55.2,76.5
		c-75,148.7-322.8,314.3-516.8,345.5c-39.6,7.1-127.4-4.2-281.8-34c-123.2-24.1-225.1-42.5-226.6-39.6s-11.3,32.6-21.2,68
		c-9.9,35.4-42.5,90.6-70.8,121.8c-28.3,32.6-63.7,80.7-79.3,106.2c-80.7,134.5-280.4,135.9-407.8,2.8
		c-21.2-22.7-76.5-127.4-124.6-232.2c-46.7-104.8-103.4-228-126-274.7c-22.7-46.7-160-341.3-305.9-655.6
		c-211-455.9-269-567.8-281.8-552.2c-59.5,63.7-804.3,1025.2-804.3,1037.9c0,7.1,93.5,216.6,208.2,464.4
		c230.8,502.7,250.6,567.8,223.7,726.4s-174.2,427.6-288.9,523.9c-128.9,107.6-223.7,135.9-297.4,87.8
		c-32.6-21.2-117.5-195.4-441.8-909.1l-51-111.9l-60.9,63.7c-144.4,155.8-366.7,188.3-574.9,86.4
		c-111.9-53.8-274.7-215.2-328.5-324.3c-39.6-80.7-43.9-99.1-38.2-199.7c4.2-87.8,14.2-130.3,49.6-205.3l45.3-96.3l-52.4-12.7
		c-28.3-8.5-256.3-62.3-505.5-121.8c-249.2-60.9-470.1-117.5-491.3-128.9c-114.7-59.5-107.6-160,21.2-314.3
		c32.6-39.6,75-97.7,94.9-131.7c48.1-82.1,184.1-191.2,311.5-252c167.1-79.3,216.6-77.9,764.6,32.6c252,52.4,470.1,93.5,484.3,93.5
		c14.2,0,186.9-198.2,450.3-518.2c233.6-286,423.4-521.1,420.5-523.9c-2.8-2.8-278.9-56.6-613.1-118.9
		c-334.2-62.3-625.9-118.9-649.9-128.9c-22.7-8.5-124.6-34-226.6-56.6c-100.5-21.2-228-49.6-283.2-62.3
		c-185.5-41.1-270.5-114.7-267.6-230.8c1.4-128.9,133.1-311.5,271.9-379.5l83.5-41.1l-110.4-223.7
		c-104.8-211-111.9-230.8-111.9-317.2c0-109,62.3-311.5,130.3-420.5c62.3-102,206.7-260.5,274.7-300.2
		c79.3-46.7,148.7-45.3,203.9,5.7c22.7,21.2,75,104.8,114.7,186.9c242.1,491.3,437.5,911.9,446,954.4c4.2,28.3,17,56.6,25.5,63.7
		c22.7,18.4,1335.3,274.7,1359.3,266.2c29.7-11.3,972.8-1217.8,961.5-1227.7c-7.1-5.7-307.3-66.6-669.8-133.1
		c-362.5-68-693.8-133.1-736.3-144.4c-211-59.5-354-184.1-354-307.3c0-79.3,147.3-290.3,252-359.7
		c174.2-116.1,482.9-177,683.9-133.1c42.5,9.9,392.2,77.9,777.4,150.1c549.4,104.8,705.2,130.3,717.9,116.1
		c39.6-39.6,953-1206.4,953-1216.3c0-5.7-28.3-11.3-62.3-11.3c-46.7,0-652.8-117.5-909.1-177c-24.1-5.7-42.5,12.7-97.7,93.5
		c-158.6,232.2-375.2,352.6-634.4,352.6c-116.1,0-184.1-21.2-243.5-72.2c-111.9-99.1-121.8-264.8-22.7-443.2
		c32.6-58.1,58.1-111.9,58.1-118.9c0-7.1-29.7-21.2-66.6-31.2c-167.1-42.5-245-75-301.6-123.2c-150.1-128.9-128.9-301.6,58.1-480
		c161.4-152.9,308.7-208.2,569.2-209.6l168.5-1.4l161.4-304.4c140.2-264.8,161.4-312.9,161.4-372.4c0-85,15.6-114.7,97.7-189.7
		l65.1-59.5l-809.9-1.4h-811.4l-345.5,691c-379.5,756.1-410.6,805.7-606,958.6c-152.9,121.8-286,179.8-423.4,188.3
		c-144.4,8.5-201.1-4.2-260.5-55.2c-69.4-62.3-97.7-145.8-89.2-270.5c8.5-100.5,17-118.9,356.8-800
		c191.2-385.1,348.3-702.3,348.3-705.2c0-4.2-355.4-7.1-788.7-7.1l-790.1,1.4l-297.4,617.4c-162.8,338.4-295.9,624.5-293.1,632.9
		c2.8,8.5,133.1,263.4,288.9,566.4c305.9,590.5,317.2,621.6,262,708c-14.2,21.2-56.6,53.8-92,69.4c-58.1,26.9-92,31.2-264.8,31.2
		c-220.9,0-305.9-15.6-446-82.1c-145.8-68-219.5-154.3-312.9-363.9c-51-116.1-85-175.6-99.1-174.2c-11.3,1.4-55.2,15.6-97.7,31.2
		c-52.4,19.8-113.3,28.3-185.5,29.7c-138.8,0-215.2-36.8-264.8-128.9c-29.7-55.2-32.6-76.5-28.3-186.9l5.7-124.6l406.4-812.8
		l406.4-814.2h-658.4h-658.4l-232.2,464.4c-219.5,440.4-236.5,468.7-315.8,540.9c-145.8,133.1-332.8,196.8-579.1,198.2
		c-312.9,0-448.9-77.9-402.1-232.2c9.9-31.2,118.9-260.5,243.5-508.3c123.2-249.2,223.7-453.1,220.9-454.5
		c-2.8-2.8-48.1-11.3-102-21.2c-160-28.3-253.5-93.5-317.2-222.3c-65.1-130.3-76.5-405-22.7-569.2
		c49.6-151.5,191.2-260.5,362.5-280.4c45.3-5.7,82.1-11.3,82.1-14.2c0-2.8-102-209.6-226.6-457.4
		c-124.6-249.2-232.2-481.4-242.1-515.4c-21.2-87.8,8.5-143,97.7-182.7c85-38.2,358.2-51,508.3-25.5
		c135.9,22.7,284.6,94.9,382.3,186.9c72.2,69.4,97.7,113.3,310.1,539.5l232.2,463h658.4h658.4l-383.7-767.5
		c-212.4-423.4-396.5-802.9-410.6-845.3c-60.9-175.6-19.8-356.8,94.9-422c80.7-46.7,252-45.3,382.3,1.4l93.5,34l28.3-65.1
		c109-253.5,167.1-354,239.3-419.1c41.1-36.8,104.8-82.1,140.2-100.5c259.1-131.7,732.1-113.3,808.5,31.2
		c49.6,92,28.3,143-389.4,943l-191.2,365.3l301.6,618.8l300.2,618.8l788.7,4.2c433.3,1.4,788.7,0,788.7-4.2
		c0-4.2-148.7-305.9-331.3-669.8c-182.7-363.9-341.3-696.7-354-739.1c-51-169.9-8.5-331.3,103.4-393.6
		c76.5-43.9,263.4-43.9,379.5-1.4c169.9,63.7,378.1,226.6,492.8,386.6c32.6,48.1,211,388,395.1,756.1l334.2,668.3h809.9
		c771.7,0,807.1-1.4,785.9-25.5c-12.7-12.7-121.8-223.7-242.1-467.3l-219.5-441.8h-167.1c-196.8,0-315.8-26.9-437.5-100.5
		c-82.1-49.6-218.1-186.9-254.9-256.3c-29.7-58.1-39.6-157.2-21.2-213.8c36.8-110.4,269-264.8,397.9-264.8c31.2,0,56.6-2.8,56.6-5.7
		s-26.9-56.6-59.5-118.9c-113.3-220.9-77.9-407.8,94.9-485.7c72.2-32.6,250.6-35.4,368.2-5.7c171.3,45.3,337,171.3,448.9,342.7
		c34,49.6,66.6,87.8,75,85c7.1-4.2,161.4-36.8,339.8-73.6c267.6-55.2,337-75,389.4-109c45.3-29.7,73.6-39.6,99.1-32.6
		c19.8,4.2,63.7,11.3,97.7,17c51,7.1,59.5,4.2,49.6-11.3c-19.8-32.6-899.2-1149.8-931.7-1185.2l-31.2-32.6l-679.7,128.9
		c-372.4,70.8-720.7,137.4-773.1,148.7c-327.1,72.2-739.1-65.1-860.9-287.4c-17-28.3-45.3-73.6-63.7-100.5
		c-25.5-34-35.4-66.6-35.4-110.4c0-52.4,8.5-70.8,59.5-126c62.3-68,151.5-120.4,273.3-161.4c38.2-12.7,378.1-89.2,754.7-169.9
		c375.2-80.7,681.1-152.9,679.7-158.6c-2.8-7.1-218.1-276.1-478.6-599c-331.3-409.2-482.9-586.2-502.7-586.2
		c-45.3-1.4-1326.8,250.6-1339.5,263.4c-5.7,5.7-118.9,243.5-250.6,528.2c-295.9,638.6-320,686.8-359.7,713.7
		c-77.9,55.2-186.9,4.2-280.4-130.3c-26.9-38.2-69.4-80.7-93.5-92c-87.8-42.5-218.1-356.8-218.1-526.7c0-82.1,8.5-104.8,111.9-314.3
		l111.9-225.1l-87.8-45.3c-145.8-76.5-250.6-229.4-252-372.4c0-102,46.7-168.5,161.4-223.7c97.7-48.1,484.3-143,582-143
		c53.8,0,1203.6-242.1,1260.2-266.2c21.2-8.5-41.1-92-386.6-512.6c-226.6-276.1-422-511.2-431.9-522.5c-17-17-89.2-4.2-509.8,97.7
		c-557.9,133.1-593.3,135.9-757.6,60.9c-113.3-52.4-249.2-154.3-301.6-226.6c-215.2-297.4-229.4-329.9-185.5-422
		c46.7-100.5,102-121.8,553.7-211c223.7-45.3,437.5-87.8,474.4-94.9l65.1-14.2l-43.9-93.5c-32.6-72.2-45.3-120.4-49.6-202.5
		c-8.5-157.2,32.6-246.4,186.9-392.2c167.1-160,329.9-229.4,498.4-212.4c99.1,9.9,154.3,41.1,242.1,134.5
		c41.1,43.9,76.5,76.5,79.3,73.6c4.2-4.2,100.5-213.8,216.6-467.3c114.7-253.5,220.9-477.2,235.1-497
		c38.2-56.6,99.1-76.5,167.1-56.6c72.2,21.2,220.9,134.5,250.6,189.7c11.3,24.1,46.7,79.3,76.5,124.6
		c66.6,96.3,118.9,232.2,133.1,338.4c15.6,131.7-11.3,229.4-157.2,546.6c-75,162.8-169.9,369.6-211,461.6l-75,164.3l409.2,519.7
		c223.7,286,410.6,522.5,413.5,525.3c9.9,9.9,533.8-1124.3,533.8-1154c0-15.6,8.5-34,19.8-39.6c11.3-5.7,55.2-93.5,99.1-195.4
		c116.1-269,134.5-300.2,202.5-361.1c68-59.5,164.3-90.6,237.9-76.5c58.1,9.9,152.9,89.2,177,145.8c9.9,24.1,29.7,46.7,43.9,51
		c34,11.3,65.1,70.8,77.9,148.7c8.5,51,14.2,58.1,39.6,51c17-2.8,118.9-24.1,228-45.3c169.9-32.6,209.6-35.4,277.5-22.7
		c167.1,31.2,329.9,134.5,477.2,303c189.7,219.5,223.7,386.6,89.2,455.9c-45.3,24.1-1190.8,267.6-1256,269H8203l-280.4,632.9
		l-278.9,634.4l393.6,499.8c216.6,274.7,434.7,552.2,485.7,617.4c49.6,63.7,96.3,111.9,102,106.2c5.7-7.1,143-301.6,304.4-655.6
		c295.9-651.4,375.2-800,470.1-877.9c104.8-86.4,226.6-85,332.8,1.4c56.6,46.7,154.3,212.4,188.3,320
		c29.7,94.9,42.5,363.9,21.2,474.4c-29.7,152.9-55.2,213.8-371,887.8c-262,553.7-307.3,659.9-291.7,679.7
		c127.4,177,953,1205,964.3,1200.8c8.5-2.8,22.7-32.6,32.6-68c8.5-34,96.3-239.3,195.4-455.9l178.4-395.1l-72.2-104.8
		c-138.8-201.1-198.2-369.6-198.2-563.6c0-82.1,5.7-111.9,28.3-140.2c15.6-19.8,28.3-43.9,28.3-53.8c0-45.3,73.6-138.8,131.7-167.1
		c120.4-58.1,252-25.5,397.9,96.3c36.8,32.6,75,58.1,85,58.1c8.5,0,36.8-38.2,62.3-85c58.1-106.2,178.4-239.3,239.3-264.8
		c90.6-36.8,192.6-14.2,283.2,65.1c17,14.2,60.9,83.5,96.3,152.9c83.5,164.3,106.2,311.5,80.7,532.4
		c-8.5,79.3-19.8,158.6-25.5,175.6c-7.1,25.5,32.6,62.3,276.1,257.7c155.8,126,293.1,228,305.9,228c35.4,0,102,38.2,111.9,63.7
		c4.2,12.7,8.5,35.4,8.5,49.6c0,29.7,63.7,110.4,76.5,97.7c5.7-4.2,85-351.2,177-768.9l167.1-760.4l-560.7-463
		c-590.5-488.5-654.2-550.8-773.1-760.4c-92-161.4-126-278.9-116.1-407.8c21.2-273.3,53.8-355.4,157.2-409.2
		c123.2-65.1,250.6-31.2,412.1,107.6c76.5,66.6,1054.9,875.1,1091.7,903.4c11.3,8.5,70.8-209.6,203.9-739.1
		c103.4-413.5,185.5-753.3,182.7-756.1c-2.8-1.4-246.4-202.5-540.9-446l-533.8-441.8l-46.7,15.6
		c-117.5,39.6-1169.6,283.2-1223.4,283.2c-46.7,0-70.8-9.9-106.2-41.1c-45.3-39.6-46.7-45.3-46.7-152.9
		c0-256.3,75-474.4,218.1-630.1c92-100.5,165.7-137.4,416.3-211c192.6-56.6,206.7-63.7,198.2-90.6c-15.6-39.6-11.3-182.7,7.1-271.9
		c18.4-90.6,45.3-141.6,102-195.4c39.6-38.2,53.8-42.5,140.2-42.5c138.8,0,260.5,63.7,468.7,246.4c89.2,77.9,169.9,143,178.4,143
		c8.5,0,235.1,184.1,502.7,409.2c392.2,328.5,488.5,405,498.4,386.6c18.4-43.9,294.5-1268.7,287.4-1285.7
		c-2.8-8.5-191.2-172.8-417.7-365.3c-437.5-371-463-400.7-502.7-553.7c-29.7-109-28.3-334.2,0-410.6c11.3-31.2,29.7-90.6,41.1-131.7
		c59.5-212.4,148.7-273.3,290.3-201.1c31.2,15.6,228,174.2,437.5,352.6l380.9,324.3l15.6-58.1c46.7-188.3,245-335.6,447.5-335.6
		c205.3,1.4,351.2,62.3,502.7,212.4c121.8,120.4,148.7,177,147.3,308.7c0,86.4,2.8,100.5,21.2,94.9
		c141.6-41.1,931.7-220.9,982.7-222.3c143-4.2,191.2,83.5,165.7,300.2c-32.6,269-68,383.7-155.8,492.8
		c-97.7,123.2-141.6,143-719.3,304.4c-290.3,80.7-529.6,150.1-532.4,152.9c-2.8,2.8-70.8,288.9-148.7,635.8
		c-79.3,346.9-147.3,640-151.5,652.8c-4.2,18.4,117.5-8.5,591.9-124.6c329.9-82.1,601.8-154.3,607.5-161.4
		c4.2-8.5,121.8-39.6,262-72.2c304.4-69.4,489.9-80.7,567.8-32.6c75,45.3,94.9,103.4,82.1,253.5c-8.5,110.4-17,143-66.6,240.7
		l-58.1,114.7l184.1,177c124.6,120.4,196.8,201.1,220.9,249.2c75,148.7,86.4,406.4,24.1,569.2c-62.3,161.4-97.7,228-144.4,262
		c-68,49.6-107.6,55.2-172.8,24.1c-104.8-51-974.2-788.7-978.4-831.2c-1.4-4.2-1339.5,332.8-1346.6,338.4
		c-8.5,9.9-375.2,1516.5-371,1526.4c2.8,4.2,338.4-73.6,747.6-174.2c648.5-158.6,759-182.7,870.8-184.1
		c239.3-4.2,294.5,70.8,254.9,337c-34,233.6-165.7,424.8-373.8,546.6c-109,65.1-124.6,69.4-1005.4,305.9l-727.8,195.4l-158.6,722.2
		c-87.8,397.9-162.8,742-168.5,767.5c-9.9,43.9-9.9,45.3,29.7,32.6c21.2-7.1,252-65.1,511.2-128.9
		c436.1-106.2,470.1-117.5,470.1-145.8c0-62.3,60.9-245,117.5-355.4c70.8-135.9,222.3-297.4,327.1-346.9
		c73.6-35.4,182.7-52.4,240.7-36.8c58.1,14.2,130.3,87.8,164.3,167.1c25.5,58.1,34,110.4,39.6,225.1l5.7,151.5l65.1-28.3
		c90.6-41.1,262-49.6,354-19.8c77.9,26.9,151.5,96.3,167.1,160c5.7,21.2,2.8,65.1-5.7,99.1c-9.9,34-17,79.3-17,102
		c0,53.8-83.5,216.6-162.8,315.8c-75,93.5-215.2,203.9-344.1,267.6l-89.2,45.3l5.7,369.6c4.2,203.9,11.3,395.1,17,426.2
		c7.1,42.5,1.4,76.5-19.8,131.7c-15.6,39.6-25.5,73.6-22.7,73.6c12.7,0,1387.7-652.8,1397.6-662.7c4.2-5.7,18.4-359.7,31.2-788.7
		c24.1-876.5,26.9-902,137.3-1121.5c83.5-167.1,185.5-273.3,331.3-345.5c148.7-73.6,223.7-83.5,311.5-41.1
		c48.1,24.1,75,49.6,106.2,103.4c72.2,126,75,182.7,52.4,994c-11.3,405-19.8,737.7-17,740.6c1.4,1.4,322.8-147.3,713.7-332.8
		l709.4-335.6l-2.8-708c-4.2-708-4.2-709.4-34-713.7c-43.9-5.7-994-761.8-1018.1-809.9c-28.3-55.2-26.9-93.5,8.5-150.1
		c63.7-104.8,298.8-232.2,495.6-269c152.9-29.7,324.3-21.2,405,19.8c32.6,17,137.4,90.6,235.1,164.3l175.6,134.5l35.4-38.2
		c19.8-21.2,46.7-55.2,59.5-75c12.7-21.2,63.7-59.5,111.9-85c75-41.1,102-48.1,186.9-48.1c109,0,148.7,18.4,205.3,102
		c86.4,127.4,96.3,308.7,65.1,1284.3c-12.7,396.5-21.2,723.6-17,726.4c2.8,2.8,273.3-128.9,601.8-291.7
		c519.7-260.5,596.1-303,596.1-331.3c1.4-209.6,45.3-1043.6,56.6-1088.9c24.1-89.2,72.2-165.7,158.6-247.8
		c76.5-70.8,218.1-154.3,301.6-175.6c24.1-5.7,80.7-26.9,127.4-46.7c89.2-38.2,174.2-46.7,220.9-22.7
		c66.6,36.8,69.4,63.7,69.4,631.5v532.4l39.6-11.3c21.2-7.1,90.6-12.7,154.3-11.3c103.4,0,126,5.7,219.5,51
		c113.3,56.6,182.7,121.8,250.6,230.8c83.5,135.9,92,161.4,92,297.4c1.4,201.1-66.6,351.2-189.7,420.5
		c-31.2,18.4-56.6,36.8-56.6,42.5c0,4.2,179.8,145.8,400.7,314.3c252,192.6,412.1,324.3,434.7,358.2c43.9,68,46.7,162.8,7.1,222.3
		c-35.4,52.4-184.1,150.1-230.8,150.1c-18.4,0-93.5,24.1-164.3,53.8c-120.4,49.6-138.8,52.4-277.5,52.4
		c-131.7,0-157.2-4.2-226.6-36.8c-42.5-21.2-262-178.4-487.1-351.2c-225.1-172.8-412.1-312.9-414.9-312.9
		c-1.4,0-273.3,134.5-600.4,298.8c-501.3,249.2-594.7,301.6-577.7,317.2c77.9,73.6,970,743.4,991.2,743.4c14.2,0,31.2,8.5,36.8,18.4
		s87.8,76.5,181.2,147.3c181.2,135.9,245,198.2,288.9,284.6c58.1,113.3,55.2,212.4-8.5,287.4c-56.6,66.6-220.9,143-329.9,152.9
		l-92,8.5l-24.1,262c-24.1,277.5-41.1,345.5-109,443.2c-80.7,116.1-269,264.8-337,264.8c-17,0-79.3,15.6-137.4,35.4
		c-165.7,55.2-256.3,43.9-303-41.1c-21.2-38.2-24.1-114.7-28.3-648.5c-2.8-525.3-1.4-610.3,18.4-648.5l21.2-42.5l-80.7-62.3
		c-45.3-35.4-291.7-222.3-548-417.7c-450.3-341.3-468.7-352.6-502.7-334.2c-19.8,9.9-335.6,160-702.3,332.8
		c-365.3,172.8-669.8,318.6-674,322.8c-5.7,5.7,232.2,195.4,529.6,420.5c607.5,463,700.9,543.7,751.9,648.5
		c68,134.5,41.1,266.2-65.1,327.1c-25.5,14.2-59.5,38.2-75,52.4s-70.8,36.8-120.4,49.6c-120.4,31.2-359.7,19.8-506.9-21.2
		c-196.8-56.6-298.8-123.2-894.9-580.6c-315.8-242.1-577.7-439-583.4-436.1c-4.2,1.4-324.3,152.9-710.8,335.6l-700.9,331.3
		l59.5,26.9c32.6,15.6,209.6,145.8,392.2,290.3c182.7,144.4,339.8,267.6,348.3,274.7c9.9,7.1,56.6-7.1,120.4-38.2
		c201.1-94.9,424.8-121.8,593.3-73.6c117.5,34,294.5,154.3,321.4,219.5c55.2,131.7-42.5,342.7-202.5,436.1l-65.1,38.2l107.6,100.5
		c161.4,151.5,213.8,291.7,154.3,414.9c-28.3,62.3-185.5,167.1-303,203.9c-107.6,34-294.5,35.4-413.5,4.2
		c-46.7-11.3-133.1-43.9-191.2-72.2l-104.8-49.6l-66.6,48.1c-362.5,254.9-495.6,359.7-495.6,389.4c-1.4,49.6-58.1,103.4-121.8,113.3
		c-31.2,5.7-73.6,19.8-93.5,31.2c-36.8,22.7-28.3,26.9,658.4,351.2c382.3,181.2,702.3,331.3,712.2,332.8
		c8.5,2.8,267.6-188.3,574.9-423.4c307.3-236.5,596.1-450.3,642.9-477.2c45.3-26.9,143-69.4,216.6-94.9
		c110.4-36.8,164.3-46.7,298.8-52.4c206.7-8.5,287.4,9.9,412.1,90.6c114.7,75,144.4,123.2,135.9,223.7
		c-8.5,94.9-56.6,189.7-137.4,267.6c-35.4,35.4-314.3,253.5-617.4,485.7c-304.4,233.6-553.7,430.5-553.7,437.5
		c0,19.8,1383.4,675.4,1410.3,668.3c21.2-5.7,1015.3-753.3,1067.7-804.3c25.5-24.1,25.5-26.9,2.8-62.3
		c-21.2-32.6-24.1-93.5-19.8-669.8c4.2-565,7.1-637.2,28.3-676.8c56.6-102,171.3-97.7,400.7,14.2c199.7,97.7,305.9,177,375.2,281.8
		c72.2,107.6,80.7,141.6,107.6,420.5c11.3,128.9,24.1,242.1,26.9,252c2.8,8.5,24.1,17,45.3,18.4c49.6,1.4,104.8,22.7,195.4,75
		c196.8,113.3,233.6,154.3,233.6,260.5c0,128.9-97.7,250.6-361.1,450.3c-107.6,80.7-201.1,147.3-208.2,147.3
		c-14.2,0-992.6,751.9-985.5,757.6c2.8,1.4,271.9,137.4,600.4,301.6l594.7,297.4l407.8-308.7c485.7-371,491.3-373.8,744.8-373.8
		c164.3-1.4,182.7,1.4,260.5,38.2c45.3,21.2,97.7,38.2,117.5,38.2c51,0,168.5,65.1,230.8,127.4c97.7,97.7,87.8,206.7-26.9,315.8
		c-28.3,26.9-218.1,167.1-422,312.9c-205.3,145.8-372.4,273.3-372.4,284.6c0,9.9,28.3,35.4,63.7,55.2
		c111.9,66.6,185.5,199.7,201.1,368.2c14.2,152.9-19.8,252-144.4,423.4c-97.7,134.5-315.8,233.6-472.9,218.1
		c-43.9-4.2-93.5-12.7-110.4-18.4l-31.2-8.5l-4.2,533.8l-4.2,533.8l-46.7,41.1c-56.6,51-141.6,55.2-264.8,12.7
		c-45.3-15.6-92-28.3-103.4-28.3c-34,0-216.6-128.9-301.6-213.8c-46.7-46.7-99.1-118.9-124.6-171.3l-45.3-90.6l-21.2-550.8
		c-11.3-303-24.1-555.1-28.3-559.3c-11.3-9.9-1186.6-562.1-1192.3-559.3c-2.8,2.8,7.1,331.3,19.8,730.7
		c24.1,784.5,21.2,1080.4-15.6,1197.9c-46.7,154.3-140.2,208.1-287.4,167.1c-43.9-12.7-109-28.3-143-34
		c-52.4-9.9-75-26.9-141.6-99.1l-79.3-86.4l-169.9,127.4c-206.7,157.2-294.5,189.7-502.7,189.7c-116.1,0-147.3-5.7-226.6-39.6
		c-51-21.2-117.5-43.9-150.1-49.6c-72.2-12.7-167.1-68-229.4-133.1c-85-87.8-70.8-211,35.4-308.7c63.7-59.5,951.5-720.7,967.1-720.7
		c9.9,0,12.7-247.8,11.3-700.9l-4.2-702.3l-705.2-332.8c-388-184.1-708-331.3-709.4-328.5c-2.8,1.4,4.2,341.3,15.6,753.3
		c15.6,572.1,15.6,773.1,4.2,845.3c-46.7,276.1-181.2,339.8-446,212.4c-206.7-100.5-332.8-252-419.1-502.7
		c-55.2-158.6-63.7-280.4-83.5-1105.9c-9.9-365.3-17-665.5-18.4-666.9c-46.7-24.1-1394.7-657-1400.4-657s-2.8,21.2,4.2,45.3
		c7.1,25.5,12.7,250.6,12.7,499.8v453.1l107.6,56.6c257.7,135.9,434.7,349.7,495.6,599c19.8,83.5,21.2,111.9,8.5,157.2
		c-29.7,96.3-133.1,174.2-259.1,192.6c-70.8,9.9-225.1-12.7-284.6-43.9l-39.6-21.2v126c0,228-59.5,368.2-172.8,402.1
		c-48.1,14.2-70.8,12.7-144.4-8.5c-46.7-14.2-111.9-28.3-141.6-32.6c-85-11.3-240.7-172.8-318.6-331.3
		c-58.1-118.9-114.7-288.9-114.7-348.3c0-18.4-1.4-32.6-4.2-32.6s-157.2-32.6-342.7-70.8c-186.9-39.6-375.2-73.6-419.1-75
		c-51-2.8-92-12.7-118.9-31.2c-45.3-32.6-126-76.5-130.3-72.2c-2.8,1.4,70.8,346.9,162.8,766l168.5,761.8l515.4,140.2
		c283.2,76.5,637.2,171.3,784.5,209.6c332.8,87.8,464.4,148.7,590.5,273.3c145.8,143,206.7,281.8,232.2,526.7
		c9.9,97.7-25.5,152.9-131.7,201.1c-128.9,59.5-212.4,46.7-1037.9-157.2c-393.6-96.3-717.9-174.2-719.3-171.3
		c-5.7,5.7,362.5,1525,372.4,1533.5c2.8,2.8,307.3,80.7,675.4,172.8l668.3,167.1l24.1-38.2c26.9-43.9,902-774.5,967.1-805.7
		c100.5-51,222.3,51,284.6,236.5c66.6,192.6,79.3,314.3,49.6,468.7c-28.3,151.5-70.8,213.8-270.5,407.8l-185.5,181.2l58.1,116.1
		c31.2,63.7,58.1,131.7,58.1,151.5c0,21.2,7.1,65.1,15.6,99.1c12.7,52.4,11.3,69.4-12.7,124.6c-24.1,52.4-42.5,72.2-103.4,103.4
		c-107.6,53.8-216.6,51-497-14.2c-121.8-28.3-232.2-51-246.4-51s-35.4-8.5-46.7-19.8c-18.4-17-1205-325.7-1213.5-315.8
		c-2.8,2.8,293.1,1304.1,298.8,1309.8c1.4,1.4,215.2,53.8,474.4,116.1c522.5,126,590.5,152.9,715.1,276.1
		c127.4,128.9,185.5,273.3,218.1,552.2c25.5,219.5-18.4,304.4-154.3,304.4c-38.2,0-281.8-51-539.5-113.3
		c-259.1-62.3-472.9-113.3-475.8-113.3c-1.4,0,0,36.8,4.2,83.5c12.7,113.3-32.6,209.6-147.3,321.4
		c-154.3,150.1-259.1,198.2-463,213.8c-126,8.5-194-9.9-301.6-80.7c-93.5-63.7-151.5-137.4-185.5-239.3l-22.7-68l-379.5,322.8
		c-209.6,177-399.3,328.5-423.4,337C13392.6,24005.9,13355.8,24004.5,13303.4,23981.9z M12213.1,15065.4
		c46.7-46.7,94.9-90.6,107.6-94.9c19.8-8.5,5.7-79.3-107.6-548l-128.9-538.1l-138.8-18.4c-76.5-9.9-195.4-36.8-264.8-58.1l-126-41.1
		l-48.1,59.5c-25.5,31.2-178.4,226.6-338.4,430.5l-291.7,373.8l34,68c19.8,38.2,41.1,72.2,46.7,76.5c7.1,4.2,223.7,58.1,482.9,120.4
		l470.1,113.3l102,70.8c56.6,38.2,104.8,70.8,109,70.8C12125.3,15151.8,12166.4,15113.5,12213.1,15065.4z M13983.1,14457.9
		c211-150.1,395.1-287.4,412.1-304.4c24.1-25.5,102-62.3,186.9-86.4c11.3-2.8,17-46.7,17-154.3v-148.7l-505.5-250.6
		c-278.9-137.4-516.8-253.5-528.2-259.1c-14.2-7.1-36.8,11.3-75,58.1c-29.7,38.2-114.7,114.7-188.3,169.9
		c-110.4,83.5-134.5,106.2-128.9,131.7c4.2,15.6,63.7,264.8,133.1,552.2c117.5,491.3,126,522.5,160,535.2
		c19.8,8.5,45.3,19.8,56.6,26.9c11.3,7.1,34,9.9,49.6,8.5C13588,14734.1,13773.5,14609.5,13983.1,14457.9z M10329.8,13522
		l321.4-396.5l-53.8-80.7c-59.5-89.2-185.5-331.3-222.3-423.4l-24.1-60.9h-509.8h-509.8v34c0,19.8-15.6,53.8-35.4,76.5l-34,41.1
		l219.5,480c203.9,443.2,220.9,488.5,228,582l8.5,102l79.3,15.6c43.9,8.5,86.4,18.4,93.5,21.2c8.5,2.8,36.8,5.7,65.1,5.7
		C10007,13919.9,10012.6,13912.8,10329.8,13522z M15165.4,12709.2l70.8-35.4V12174c1.4-495.6,1.4-498.4,36.8-597.5
		c18.4-53.8,38.2-109,42.5-120.4c4.2-15.6-15.6-38.2-60.9-70.8c-36.8-26.9-90.6-69.4-118.9-94.9l-49.6-45.3l-502.7,242.1
		c-274.7,131.7-506.9,249.2-512.6,260.5c-5.7,11.3-24.1,19.8-38.2,19.8c-26.9,0-28.3,11.3-28.3,247.8c0,236.5,1.4,247.8,28.3,247.8
		c14.2,0,32.6,8.5,38.2,18.4c9.9,15.6,982.7,458.8,1013.8,461.6C15090.4,12744.6,15127.2,12729,15165.4,12709.2z M10368.1,11426.3
		c29.7-85,138.8-297.4,211-409.2c51-80.7,68-118.9,58.1-131.7c-7.1-8.5-148.7-192.6-314.3-406.4c-165.7-213.8-304.4-389.4-310.1-388
		c-25.5,1.4-99.1,24.1-138.8,41.1c-41.1,18.4-68,65.1-260.5,448.9c-205.3,409.2-219.5,433.3-308.7,519.7l-92,89.2l59.5,116.1
		c32.6,62.3,59.5,126,59.5,140.2c0,22.7,34,24.1,511.2,24.1h509.8L10368.1,11426.3z M14103.4,10496l488.5-226.6l4.2-96.3l4.2-97.7
		l-337-283.2c-184.1-155.8-359.7-301.6-388-322.8c-29.7-21.2-79.3-80.7-111.9-131.7c-42.5-68-65.1-90.6-82.1-85
		c-12.7,4.2-52.4,14.2-87.8,22.7c-109,26.9-155.8,46.7-162.8,69.4c-11.3,39.6-262,1081.8-262,1091.7c0,5.7,43.9,42.5,96.3,82.1
		c53.8,39.6,137.4,116.1,188.3,169.9l90.6,97.7l35.4-32.6C13599.3,10735.3,13835.8,10619.2,14103.4,10496z M11696.2,10195.8
		c73.6-15.6,191.2-34,260.5-39.6l126-9.9l130.3-538.1c123.2-511.2,128.9-538.1,102-549.4c-14.2-5.7-29.7-22.7-34-38.2
		c-4.2-17-25.5-38.2-48.1-51c-38.2-19.8-69.4-14.2-455.9,65.1c-226.6,46.7-460.2,99.1-518.3,116.1
		c-106.2,31.2-117.5,31.2-243.6-11.3c-17-5.7-36.8,24.1-80.7,121.8c-58.1,127.4-59.5,130.3-35.4,162.8
		c60.9,80.7,648.5,798.6,655.6,798.6C11557.5,10224.1,11621.2,10211.4,11696.2,10195.8z"/>
</g>
</svg>
