<?xml version="1.0" encoding="utf-8"?>
<!-- Generator: Adobe Illustrator 30.0.0, SVG Export Plug-In . SVG Version: 9.03 Build 0)  -->
<svg version="1.0" id="Layer_1" xmlns="http://www.w3.org/2000/svg" xmlns:xlink="http://www.w3.org/1999/xlink" x="0px" y="0px"
	 viewBox="0 0 2400 2400" style="enable-background:new 0 0 2400 2400;" xml:space="preserve">
<g transform="translate(0.000000,2400.000000) scale(0.100000,-0.100000)">
	<path d="M11763.2,23094.3l-252.4-594.2l-7.2-690.9l-7.2-690.9l-715.4,741.4c-392.3,408.2-754.3,783.2-803.4,835.1l-88,93.8v-822.1
		l-1.4-822.1l777.4-1140.9l776-1142.3l-11.5-595.7c-5.8-328.9-11.5-722.6-11.5-875.5c-1.4-154.3-7.2-276.9-14.4-274
		c-5.8,2.9-552.4,627.4-1214.4,1389L8986.8,19888l-4.3-816.4l-2.9-816.4l1198.6-1699.1l1200-1700.5l-10.1-771.6
		c-5.8-424-14.4-791.8-20.2-816.4l-10.1-44.7l-151.4,167.3c-109.6,122.6-285.6,359.1-641.8,869.7
		c-269.7,386.5-496.2,702.4-501.9,702.4c-24.5,2.9-1096.2-770.2-1191.4-856.7c-15.9-15.9,86.5-157.2,620.2-852.4
		c689.4-897.1,702.4-914.4,676.5-914.4c-10.1,0-304.3,90.9-653.4,203.4c-350.5,111.1-699.5,220.7-777.4,240.9l-138.5,38.9
		l-1244.7,1668.8l-1243.3,1668.8l-763,255.3c-419.7,139.9-765.9,251-768.8,248.1s412.5-715.4,924.5-1582.2
		c512-866.8,927.4-1579.3,924.5-1583.7c-7.2-5.8-1573.6,473.1-1632.7,499c-15.9,7.2-402.4,501.9-858.2,1101.9l-829.3,1087.5
		l-783.2,242.3c-431.3,132.7-786.1,238-789,235.1c-1.4-1.4,238-448.6,535.1-990.9c295.7-543.8,536.5-990.9,533.7-992.3
		c-2.9-2.9-288.5,82.2-634.6,188.9l-628.9,196.2l-617.3-43.3c-338.9-23.1-637.5-43.3-663.5-43.3s-44.7-5.8-38.9-13
		c4.3-8.7,235.1-200.5,512-428.4l504.8-415.4l615.9-220.7c340.4-121.2,626-223.6,637.5-227.9c17.3-7.2-1518.8-754.3-1974.5-962
		c-67.8-30.3-88-46.2-72.1-53.4c11.5-7.2,366.4-116.8,787.5-246.6l764.4-235.1l1298.1,377.9c714,206.3,1306.7,376.4,1316.8,376.4
		c11.5,0,357.7-111.1,771.6-246.6c413.9-134.1,783.2-255.3,820.7-268.3c38.9-11.5,64.9-26,57.7-31.7
		c-5.8-5.8-768.8-334.6-1694.7-729.8c-926-396.6-1681.8-721.2-1680.3-724c2.9-1.4,354.8-118.3,781.7-258.2
		c582.7-190.4,789-252.4,822.1-245.2c23.1,4.3,921.6,276.9,1996.2,604.3l1954.4,598.6l93.8-27.4
		c131.3-36.1,1371.7-478.9,1371.7-488.9c0-4.3-401-124-889.9-265.4c-490.4-141.3-957.7-276.9-1037-300l-147.1-43.3l113.9-341.8
		c63.5-187.5,164.4-501.9,223.6-701c60.6-197.6,113.9-364.9,119.7-370.7c4.3-5.8,356.3,102.4,780.3,242.3
		c758.7,248.1,776,253.8,1067.3,301.4c163,26,297.1,46.2,298.6,44.7c2.9-1.4-168.8-239.4-379.3-529.3
		c-212-288.5-421.2-581.3-467.3-649l-85.1-124l-256.7-89.4c-141.3-49-1029.8-356.3-1976-683.7l-1717.8-594.2L4850.2,6346
		c-265.4-364.9-481.7-664.9-480.3-667.8c2.9-1.4,804.8,178.8,1784.2,401c979.3,222.1,1787,402.4,1795.7,401
		c8.7-2.9-207.7-321.6-480.3-709.6l-496.2-706.7L5682.4,4608l-1292.3-455.8l-480.3-662c-265.4-363.5-480.3-663.5-477.4-666.4
		c2.9-2.9,509.1,89.4,1126.5,204.8c617.3,115.4,1125,207.7,1126.5,204.8c2.9-1.4-171.6-255.3-388-562.5L4905,2112.7l-164.4-628.9
		c-89.4-344.7-160.1-630.3-158.7-631.7c2.9-2.9,255.3,151.4,561.1,341.8l555.3,346.2l403.9,538c222.1,297.1,406.7,539.4,411.1,539.4
		s75-514.9,157.2-1142.3c82.2-628.9,150-1145.2,151.4-1146.7c1.4-1.4,220.7,297.1,487.5,664.9l484.6,666.4l31.7,1368.8l30.3,1368.8
		l529.3,711.1c291.4,390.9,530.8,702.4,533.7,692.3c1.4-10.1,77.9-838,167.3-1839c90.9-1002.4,167.3-1824.5,170.2-1828.9
		c5.8-4.3,918.8,1243.3,956.3,1305.3c8.7,14.4,26,846.6,43.3,2115.9l30.3,2094.3l64.9,76.4c36.1,43.3,255.3,330.3,486.1,639
		c398.1,530.8,421.2,558.2,431.3,519.2c13-47.6,11.5-960.6-2.9-1667.3l-8.7-473.1h742.8h744.2v256.7c0,139.9-7.2,611.5-14.4,1047.1
		c-10.1,607.2-8.7,800.5,4.3,833.7c17.3,41.8,18.8,38.9,392.3-474.5c206.3-282.7,424-576.9,484.6-653.4l109.6-137l30.3-2081.3
		l30.3-2081.3l484.6-663.5c265.4-366.4,486.1-656.3,488.9-646.2c2.9,11.5,72.1,827.9,152.9,1815.9
		c79.3,988,147.1,1804.4,148.6,1815.9c2.9,14.4,1003.9-1282.2,1054.3-1365.9c7.2-11.5,33.2-634.6,57.7-1386.1l44.7-1364.4
		l481.7-660.6c263.9-363.5,484.6-657.7,487.5-653.4c4.3,4.3,67.8,507.7,139.9,1117.8c73.6,611.5,137,1114.9,141.3,1119.2
		c4.3,4.3,191.8-236.5,416.8-536.5l409.6-543.8l553.9-343.3c304.3-188.9,555.3-341.8,556.7-340.4c1.4,2.9-73.6,289.9-164.4,639
		l-168.8,634.6l-376.4,555.3c-206.3,305.8-375,556.7-373.6,558.2c2.9,2.9,501.9-90.9,1112-204.8
		c608.7-115.4,1109.1-207.7,1113.5-204.8c2.9,2.9-212,304.3-477.4,667.8l-481.7,662l-1272.1,454.3L17037.8,5032l-53.4,73.6
		c-181.7,245.2-967.8,1367.3-962,1373.1c4.3,4.3,804.8-181.7,1778.4-412.5c973.6-230.8,1771.2-418.3,1774.1-415.4
		c1.4,1.4-206.3,301.4-464.4,666.4l-467.3,663.5l-1971.7,682.2c-1097.6,379.3-1978.9,690.9-1987.5,703.9
		c-7.2,11.5-213.5,304.3-455.8,651.9c-243.8,346.2-441.4,631.7-439.9,631.7c0,1.4,92.3-11.5,203.4-28.8
		c183.2-30.3,279.8-59.1,1037-315.9c458.7-155.8,838-284.1,843.8-284.1s20.2,30.3,33.2,69.2c13,37.5,121.2,356.3,240.9,708.2
		c119.7,351.9,216.3,641.8,214.9,643.3c-2.9,2.9-455.8,138.5-1006.7,302.9c-931.7,278.4-1127.9,343.3-1100.5,367.8
		c7.2,5.8,304.3,105.3,663.5,222.1c357.7,115.4,693.8,229.3,744.2,252.4l93.8,41.8l1991.9-637.5l1991.9-639l768.8,236.5
		c421.2,129.8,777.4,239.4,789,243.8c11.5,4.3-739.9,340.4-1668.8,745.7c-930.3,406.7-1693.3,742.8-1697.6,745.7
		c-4.3,5.8,1316.8,468.8,1598.1,561.1c60.6,18.8,62,18.8,1354.3-386.5c709.6-222.1,1303.9-405.3,1318.3-405.3
		c24.5,0,1526,457.2,1553.4,473.1c7.2,4.3-445.7,238-1008.2,517.8c-561.1,281.3-1015.4,516.4-1008.2,522.1
		c7.2,7.2,292.8,105.3,633.2,217.8l620.2,206.3l509.1,418.3c278.4,230.8,503.4,422.6,499,426.9c-4.3,4.3-294.2,27.4-644.7,51.9
		l-637.5,44.7l-651.9-197.6l-651.9-196.2l28.8,56.3c15.9,30.3,259.6,484.6,540.9,1009.6c281.3,523.6,509.1,954.8,506.3,957.7
		s-349-103.8-771.6-236.5l-765.9-240.9l-819.2-1052.9c-450-579.8-833.7-1071.6-851-1093.3c-28.8-36.1-111.1-63.5-849.5-278.4
		c-448.6-131.3-822.1-236.5-829.3-233.7c-5.8,2.9,415.4,708.2,937.5,1569.3c522.1,861.1,947.6,1566.4,946.2,1569.3
		c-2.9,2.9-356.3-103.8-789-238l-784.6-240.9l-1259.2-1655.8l-1260.6-1654.3l-116.8-44.7c-89.4-34.6-1165.4-343.3-1383.2-398.1
		c-38.9-8.7-37.5-4.3,44.7,103.8c46.2,63.5,323.1,438.5,615.9,835.1c291.3,396.6,545.2,741.4,564,764.4l33.2,43.3l-269.7,187.5
		c-148.6,103.8-421.2,300-605.8,438.5c-285.6,213.5-338.9,248.1-356.3,230.8c-10.1-11.5-259.6-373.6-555.3-806.3
		c-327.4-478.9-569.7-819.2-620.2-869.7l-82.2-85.1l-8.7,265.4c-5.8,144.2-13,513.5-18.8,819.2l-7.2,555.3l1197.1,1694.7
		l1197.1,1694.7v822.1v822.1l-38.9-44.7c-21.6-26-564-650.5-1207.2-1389L12607,17111.5l-8.7,126.9c-5.8,69.2-14.4,464.4-20.2,876.9
		l-10.1,750l773.1,1136.6l773.1,1138l-2.9,816.4l-4.3,816.4l-778.9-823.6c-428.4-452.9-781.7-820.7-786.1-816.4
		c-4.3,2.9-14.4,310.1-21.6,679.3l-15.9,673.6l-235.1,584.1c-129.8,321.6-239.4,591.4-243.8,601.5
		C12020,23679.9,11901.7,23420.2,11763.2,23094.3z"/>
</g>
</svg>
