<?xml version="1.0" encoding="utf-8"?>
<!-- Generator: Adobe Illustrator 30.0.0, SVG Export Plug-In . SVG Version: 9.03 Build 0)  -->
<svg version="1.0" id="Layer_1" xmlns="http://www.w3.org/2000/svg" xmlns:xlink="http://www.w3.org/1999/xlink" x="0px" y="0px"
	 viewBox="0 0 2400 2400" style="enable-background:new 0 0 2400 2400;" xml:space="preserve">
<g transform="translate(0.000000,2400.000000) scale(0.100000,-0.100000)">
	<path d="M13507.4,24015.9c-50.4-38.9-100.7-129.5-136.7-243.2c-15.8-51.8-38.9-122.3-51.8-156.9c-13-34.5-25.9-133.8-31.7-223.1
		c-8.6-174.1,13-305.1,67.6-413c17.3-31.7,138.1-171.2,270.5-310.8c132.4-139.6,292.1-309.4,356.9-377l116.6-123.8l-154-692.2
		c-84.9-381.3-158.3-710.9-164-732.5c-10.1-40.3-21.6-28.8-407.2,354c-217.3,217.3-420.2,424.5-450.4,461.9
		c-83.5,103.6-372.7,355.4-453.3,394.3c-128.1,61.9-246.1,34.5-309.4-69.1c-61.9-102.2-100.7-256.1-100.7-400v-136.7l-143.9-41.7
		c-200-57.6-277.7-96.4-356.9-178.4c-118-123.8-251.8-387.1-277.7-546.8c-21.6-141-31.7-299.3-21.6-352.6
		c14.4-76.3,72-139.6,128.1-139.6c64.8,1.4,1086.5,365.5,1123.9,401.5c17.3,17.3,38.9,30.2,46,30.2s224.5-211.5,482.1-470.6
		l470.6-472l-194.3-856.2c-107.9-470.6-197.1-859.1-201.5-863.4c-8.6-10.1-651.9,638.9-651.9,659.1c0,30.2-57.6,136.7-97.9,179.9
		c-25.9,27.3-51.8,38.9-86.3,38.9c-38.9,0-66.2,15.8-136.7,80.6c-145.3,132.4-269.1,174.1-375.6,128.1c-23-10.1-25.9-7.2-18.7,13
		c37.4,97.9,20.1,381.3-34.5,574.2c-36,122.3-105,205.8-158.3,192.8c-48.9-13-66.2-31.7-292.1-309.4
		c-110.8-136.7-205.8-243.2-211.5-237.4c-5.8,7.2-51.8,201.5-105,431.7c-51.8,231.7-106.5,446.1-122.3,477.8
		c-64.8,125.2-169.8,172.7-331,148.2c-181.3-27.3-260.5-109.4-260.5-272c0-50.4,36-243.2,93.5-492.1
		c51.8-225.9,93.5-417.3,93.5-427.4c0-10.1-136.7,43.2-319.5,125.2c-192.8,86.3-335.3,142.5-356.9,139.6
		c-57.6-7.2-76.3-86.3-57.6-240.3c23-181.3,169.8-519.5,261.9-604.4c25.9-24.5,187.1-112.2,356.9-197.1
		c169.8-83.5,312.3-155.4,315.1-156.9c8.6-8.6,100.7-446.1,95-451.9c-2.9-2.9-113.7,46-244.6,106.5l-237.4,112.2l-15.8,59
		c-43.2,171.2-131,326.7-241.8,428.8c-146.8,136.7-280.6,142.5-398.6,18.7c-57.6-59-69.1-87.8-286.4-742.5
		c-125.2-375.6-231.7-687.9-237.4-693.6c-11.5-13-1093.7,1318.1-1103.7,1355.6c-2.9,13,87.8,295,202.9,627.4l207.2,604.4l623.1,76.3
		c618.8,74.8,624.5,74.8,659.1,113.7c30.2,34.5,33.1,48.9,25.9,128.1c-8.6,112.2-82,257.6-148.2,296.4
		c-25.9,15.8-73.4,63.3-107.9,106.5c-122.3,159.7-272,269.1-410.1,302.2c-61.9,14.4-115.1,13-282-2.9
		c-257.6-24.5-299.3-24.5-299.3-1.4c0,8.6-17.3,53.2-37.4,96.4c-107.9,231.7-259,374.1-395.7,374.1c-53.2,0-69.1-8.6-120.9-61.9
		c-48.9-51.8-77.7-107.9-155.4-308c-53.2-133.8-96.4-257.6-96.4-274.9c0-17.3-82-261.9-181.3-545.4
		c-100.7-283.5-190-536.8-198.6-564.1l-17.3-48.9l-476.3,588.6l-474.9,588.6l164,489.3c120.9,364.1,162.6,508,162.6,561.2
		c0,146.8-86.3,378.5-188.5,506.5c-247.5,305.1-328.1,378.5-415.9,378.5c-99.3,0-119.4-38.9-286.4-561.2
		c-82-257.6-151.1-470.6-154-473.4c-2.9-2.9-41.7,27.3-84.9,69.1c-43.2,41.7-122.3,95-175.6,120.9c-84.9,38.9-113.7,44.6-220.2,46
		c-100.7,0-135.3-5.8-191.4-34.5c-38.9-18.7-73.4-44.6-79.1-57.6c-4.3-13-36-54.7-69.1-92.1c-80.6-90.7-113.7-187.1-112.2-333.9
		c0-123.8,28.8-211.5,99.3-303.6l36-47.5l-46-7.2c-25.9-4.3-247.5-28.8-493.6-53.2c-482.1-47.5-505.1-53.2-528.1-136.7
		c-30.2-106.5,34.5-260.5,174.1-414.4c175.6-194.3,346.8-318,502.2-362.6c72-21.6,100.7-20.1,571.3,28.8
		c272,28.8,508,51.8,523.8,51.8c20.1,0,161.2-169.8,497.9-598.6c259-329.5,467.7-601.5,463.4-604.4c-2.9-2.9-276.3-28.8-608.7-56.1
		c-331-27.3-613-56.1-626-63.3s-118-24.5-233.1-37.4c-293.6-31.7-394.3-73.4-447.5-184.2c-47.5-100.7-18.7-192.8,99.3-326.7
		c36-40.3,74.8-89.2,87.8-109.4c13-20.1,54.7-53.2,90.7-73.4c36-21.6,69.1-40.3,70.5-41.7c2.9-1.4-28.8-96.4-69.1-208.7
		c-41.7-112.2-79.1-228.8-82-257.6c-14.4-107.9,69.1-336.7,188.5-515.2c126.6-188.5,351.1-391.4,434.6-391.4
		c13,0,43.2,21.6,69.1,47.5c37.4,38.9,77.7,135.3,237.4,592.9c106.5,300.8,197.1,552.6,204.3,559.8
		c10.1,11.5,1207.3,166.9,1286.5,165.5c40.3,0,87.8-56.1,594.3-697.9c315.1-400,542.5-699.4,532.4-702.2
		c-10.1-4.3-236-25.9-500.8-51.8c-367-34.5-496.5-41.7-545.4-30.2c-64.8,14.4-93.5,10.1-131-20.1c-11.5-10.1-67.6-21.6-122.3-25.9
		c-190-14.4-355.4-106.5-375.6-210.1l-8.6-44.6l-84.9,77.7c-95,87.8-240.3,181.3-283.5,181.3c-15.8,0-70.5,20.1-122.3,43.2
		c-122.3,57.6-184.2,67.6-215.9,36c-13-13-24.5-34.5-24.5-48.9c0-13,31.7-181.3,70.5-372.7c37.4-191.4,67.6-348.2,64.8-348.2
		c-1.4,0-168.4,77.7-368.4,174.1c-200,95-402.9,182.8-449,195.7c-198.6,50.4-371.3-41.7-411.6-221.6
		c-27.3-120.9,18.7-247.5,116.6-320.9c27.3-18.7,223-122.3,437.5-227.4l388.5-192.8l-326.7-164
		c-290.7-145.3-328.1-168.4-328.1-198.6c0-41.7,110.8-146.8,202.9-192.8c210.1-102.2,339.6-146.8,466.2-156.9l100.7-8.6l-61.9-25.9
		c-125.2-53.2-149.7-182.8-64.8-352.6c24.5-47.5,202.9-339.6,397.2-649c195.7-310.8,355.4-568.4,355.4-572.7
		c0-4.3-397.2-7.2-880.7-7.2H4656l-356.9,554l-356.9,552.6l41.7,54.7c76.3,96.4,597.2,915.2,627.4,985.7
		c34.5,84.9,23,132.4-46,178.4c-67.6,46-166.9,63.3-364.1,63.3c-200,0-348.2-25.9-497.9-87.8c-149.7-63.3-213-126.6-341-342.5
		l-110.8-185.6l-53.2,21.6c-126.6,53.2-444.7,48.9-541.1-7.2c-24.5-14.4-59-48.9-77.7-76.3c-48.9-70.5-40.3-185.6,21.6-282
		c24.5-37.4,84.9-139.6,135.3-227.4c48.9-86.3,106.5-177,128.1-201.5c23-23,132.4-188.5,244.6-367
		c113.7-178.4,250.4-392.9,303.6-477.8l99.3-155.4h-755.5H2001l-274.9,414.4c-151.1,227.4-292.1,431.7-313.7,453.3
		c-129.5,139.6-426,220.2-761.2,208.7c-159.7-5.8-195.7-11.5-256.1-41.7c-89.2-43.2-116.6-95-93.5-171.2
		c8.6-30.2,128.1-234.6,266.2-454.7l250.4-401.5l-80.6-10.1c-154-20.1-218.7-51.8-320.9-154c-115.1-115.1-148.2-195.7-146.8-362.6
		c1.4-253.3,174.1-444.7,446.1-492.1l99.3-17.3l-254.7-410.1c-141-224.5-259-430.3-264.8-454.7c-27.3-146.8,158.3-221.6,503.7-202.9
		c236,13,450.4,79.1,578.5,177c28.8,21.6,168.4,217.3,336.7,467.7l286.4,430.3h748.3c411.6,0,748.3-4.3,748.3-8.6
		c0-14.4-592.9-945.4-636-998.7c-21.6-27.3-40.3-54.7-40.3-61.9c0-5.8-48.9-87.8-107.9-181.3c-136.7-217.3-165.5-279.2-165.5-369.8
		c0-84.9,38.9-154,109.4-195.7c97.9-57.6,335.3-60.4,516.6-5.8c38.9,13,74.8,17.3,80.6,11.5s61.9-89.2,125.2-185.6
		c64.8-96.4,138.1-191.4,164-210.1c145.3-109.4,342.5-166.9,601.5-178.4c355.4-15.8,518,56.1,477.8,211.5
		c-14.4,57.6-581.4,954.1-647.6,1024.6c-33.1,36-34.5,41.7-14.4,72c11.5,18.7,172.7,267.7,356.9,555.5l336.7,520.9h883.6
		c486.4,0,880.7-5.8,877.8-11.5c-1.4-5.8-168.4-272-368.4-591.4c-200-318-377-608.7-392.9-646.1c-64.8-151.1-48.9-264.8,47.5-335.3
		l59-41.7H5718c-61.9,0-303.6-63.3-365.5-95c-197.1-102.2-241.8-129.5-282-168.4c-48.9-46-57.6-79.1-33.1-126.6
		c8.6-15.8,149.7-95,326.7-182.8l310.8-155.4l-250.4-113.7c-405.8-181.3-447.5-204.3-528.1-273.4
		c-132.4-118-182.8-246.1-146.8-381.3c41.7-158.3,227.4-247.5,404.4-197.1c43.2,13,243.2,102.2,443.2,197.1
		c201.5,95,367,171.2,368.4,169.8c1.4-2.9-28.8-155.4-69.1-341c-82-390-82-404.4,23-404.4c139.6,0,436,138.1,558.3,260.5l82,82
		l8.6-56.1c15.8-100.7,136.7-185.6,264.8-185.6c63.3,0,188.5-27.3,244.6-53.2c40.3-17.3,59-18.7,116.6-2.9
		c61.9,15.8,123.8,10.1,549.7-43.2c264.8-33.1,489.3-63.3,497.9-66.2c18.7-5.8-1063.4-1357-1098-1370
		c-20.1-7.2-1293.7,118-1312.4,131c-7.2,4.3-18.7,31.7-23,59c-5.8,28.8-90.7,279.2-190,558.3c-197.1,555.5-217.3,592.9-312.3,590
		c-74.8-1.4-136.7-41.7-253.3-161.2c-227.4-234.6-381.3-556.9-355.4-745.4c4.3-36,41.7-148.2,82-251.8l74.8-187.1l-48.9-37.4
		c-76.3-57.6-187.1-175.6-253.3-269.1c-97.9-138.1-99.3-220.2-5.8-310.8c37.4-34.5,82-59,139.6-73.4
		c182.8-48.9,528.1-99.3,1110.9-161.2c335.3-34.5,613-67.6,615.9-70.5c5.8-5.8-863.4-1098-921-1158.4
		c-14.4-15.8-109.4-8.6-513.7,33.1c-272,28.8-523.8,48.9-556.9,44.6c-34.5-4.3-100.7-28.8-146.8-53.2
		c-100.7-53.2-303.6-214.4-346.8-273.4c-15.8-24.5-54.7-59-83.5-77.7c-40.3-24.5-69.1-63.3-113.7-154
		c-76.3-152.5-87.8-220.2-46-273.4c17.3-23,48.9-41.7,76.3-46c25.9-4.3,250.4-34.5,499.3-67.6c249-33.1,454.7-61.9,457.6-64.8
		c2.9-1.4-11.5-27.3-31.7-59c-40.3-61.9-80.6-200-80.6-277.7c0-80.6,36-207.2,76.3-277.7c63.3-107.9,107.9-151.1,202.9-197.1
		c76.3-37.4,107.9-44.6,191.4-44.6c56.1,0,120.9,4.3,142.5,10.1c76.3,18.7,181.3,79.1,251.8,145.3c38.9,36,73.4,63.3,76.3,60.4
		c2.9-2.9,67.6-197.1,145.3-430.3c77.7-233.1,149.7-441.8,159.7-463.4c48.9-95,129.5-122.3,227.4-76.3c56.1,27.3,190,159.7,259,259
		c158.3,224.5,185.6,270.5,217.3,361.2c66.2,187.1,59,230.2-128.1,791.5l-162.6,490.7l469.1,584.2
		c257.6,320.9,472,584.2,476.3,584.2c13,1.4,402.9-1110.9,402.9-1146.9c0-17.3,28.8-105,63.3-192.8c34.5-89.2,73.4-191.4,86.3-227.4
		c53.2-151.1,115.1-207.2,223-205.8c171.2,2.9,390,215.9,427.4,415.9c11.5,59,8.6,59,241.8,18.7c218.7-37.4,287.8-30.2,444.7,47.5
		c100.7,50.4,143.9,84.9,299.3,240.3c148.2,148.2,191.4,200,233.1,287.8c82,162.6,63.3,266.2-51.8,302.2
		c-24.5,7.2-308,37.4-628.9,66.2c-320.9,28.8-587.1,57.6-591.4,61.9c-13,13-415.9,1228.9-415.9,1252c0,10.1,247.5,325.2,549.7,697.9
		c302.2,374.1,549.7,680.7,552.6,683.5c1.4,2.9,105-302.2,228.8-676.3c125.2-374.1,238.9-703.7,251.8-731
		c46-90.7,105-133.8,192.8-141c100.7-8.6,192.8,38.9,290.7,152.5c99.3,113.7,135.3,177,185.6,325.2l44.6,129.5l236,110.8
		c131,60.4,238.9,109.4,240.3,106.5c5.8-2.9-90.7-482.1-97.9-487.8c-2.9-1.4-143.9-64.8-313.7-139.6
		c-348.2-152.5-391.4-185.6-483.5-359.8c-74.8-143.9-107.9-246.1-129.5-411.6c-27.3-202.9-2.9-277.7,92.1-277.7
		c14.4,0,165.5,67.6,332.4,151.1l305.1,152.5l-10.1-54.7c-4.3-30.2-44.6-207.2-89.2-392.9c-109.4-463.4-115.1-569.9-37.4-663.4
		c44.6-51.8,228.8-142.5,292.1-142.5c56.1,0,141,34.5,184.2,76.3c63.3,59,89.2,138.1,184.2,561.2c53.2,230.2,99.3,424.5,105,431.7
		c5.8,5.8,102.2-95,213-223c223-259,241.8-277.7,289.2-292.1c51.8-15.8,120.9,67.6,158.3,190c56.1,185.6,73.4,444.7,37.4,575.6
		c-8.6,31.7-7.2,31.7,37.4,17.3c96.4-34.5,260.5,17.3,381.3,120.9c31.7,27.3,82,53.2,110.8,59c79.1,14.4,184.2,148.2,184.2,234.6
		c0,14.4,143.9,169.8,328.1,352.6l326.7,328.1l197.1-867.7l195.7-866.3l-473.4-474.9c-372.7-374.1-476.3-470.6-490.7-456.2
		c-8.6,8.6-27.3,17.3-38.9,17.3c-13,0-259,83.5-548.3,185.6c-289.2,103.6-541.1,191.4-561.2,195.7c-59,14.4-113.7-15.8-139.6-74.8
		c-23-56.1-21.6-97.9,23-378.5c30.2-192.8,165.5-453.3,300.8-577c72-67.6,113.7-90.7,280.6-156.9l197.1-79.1v-135.3
		c0-118,5.8-149.7,46-250.4c79.1-198.6,166.9-254.7,320.9-205.8c59,18.7,116.6,59,269.1,192.8c107.9,92.1,204.3,185.6,214.4,205.8
		c24.5,47.5,846.1,839,857.7,827.4c5.8-4.3,82-333.9,171.2-731l161.2-723.8l-349.7-352.6c-207.2-208.7-361.2-375.6-378.5-410.1
		c-113.7-231.7-125.2-508-31.7-752.6c96.4-247.5,159.7-333.9,249-333.9c38.9,0,87.8,43.2,407.2,361.2l361.2,359.8l18.7-66.2
		c38.9-138.1,192.8-323.8,312.3-375.6c80.6-34.5,263.3-20.1,369.8,27.3c214.4,99.3,345.4,348.2,297.9,571.3
		c-8.6,41.7-14.4,77.7-13,79.1c2.9,2.9,211.5-73.4,464.8-166.9s480.6-171.2,505.1-171.2c67.6,0,123.8,70.5,142.5,182.8
		c10.1,61.9-18.7,261.9-60.4,407.2c-56.1,202.9-208.7,440.3-331,518c-37.4,24.5-260.5,106.5-523.8,194.3l-456.2,152.5l-28.8,125.2
		c-145.3,638.9-293.6,1328.2-286.4,1335.4c8.6,8.6,1059.1-354,1109.5-384.2c15.8-8.6,133.8-47.5,264.8-86.3
		c469.1-139.6,587.1-82,551.1,266.2c-10.1,103.6-23,148.2-70.5,244.6l-59,116.6l148.2,151.1c82,83.5,159.7,171.2,172.7,197.1
		c57.6,112.2,87.8,352.6,66.2,508c-8.6,59-21.6,146.8-27.3,194.3c-18.7,125.2-73.4,277.7-123.8,343.9c-54.7,72-105,90.7-168.4,60.4
		c-27.3-13-195.7-177-374.1-365.5c-179.9-187.1-371.3-385.7-426-440.3l-100.7-97.9l-615.9,225.9
		c-339.6,125.2-618.8,228.8-620.2,230.2c-7.2,4.3-394.3,1724-388.5,1728.3c10.1,10.1,1041.9-371.3,1089.3-404.4
		c27.3-18.7,83.5-38.9,122.3-43.2c40.3-5.8,103.6-18.7,142.5-30.2c95-27.3,162.6-24.5,233.1,7.2c116.6,53.2,143.9,136.7,115.1,336.7
		c-23,148.2-36,179.9-132.4,331c-34.5,53.2-63.3,107.9-63.3,122.3c0,13,28.8,133.8,61.9,267.7l61.9,243.2l146.8-197.1l148.2-197.1
		l-73.4-348.2c-87.8-410.1-87.8-407.2,34.5-664.8c80.6-168.4,187.1-310.8,284.9-382.8c67.6-47.5,112.2-53.2,145.3-15.8
		c13,14.4,60.4,165.5,105,335.3c44.6,169.8,84.9,316.6,90.7,326.7c7.2,13,92.1-84.9,249-287.8c187.1-240.3,257.6-320.9,323.8-365.5
		c116.6-80.6,162.6-96.4,263.3-89.2c96.4,7.2,136.7,30.2,207.2,118c41.7,50.4,44.6,61.9,44.6,171.2c0,165.5-40.3,241.8-320.9,600.1
		l-230.2,295l342.5,7.2c364.1,7.2,388.5,13,388.5,80.6c0,84.9-132.4,308-236,398.6c-99.3,86.3-251.8,191.4-305.1,211.5l-41.7,17.3
		l57.6,18.7c106.5,37.4,151.1,132.4,151.1,320.9c0,99.3,0,100.7,50.4,131c77.7,44.6,73.4,103.6-15.8,224.5
		c-36,47.5-67.6,99.3-72,115.1c-8.6,40.3-132.4,933.9-128.1,939.7c1.4,1.4,1590.1-771.3,1600.2-780
		c2.9-1.4,162.6-1282.2,162.6-1302.3c0-8.6-11.5-15.8-27.3-15.8c-14.4,0-155.4-79.1-312.3-174.1
		c-725.3-441.8-713.8-434.6-742.5-489.3c-36-70.5-23-118,53.2-192.8c76.3-73.4,331-205.8,510.9-267.7
		c110.8-37.4,161.2-46,266.2-47.5c158.3-1.4,211.5,17.3,436,152.5c89.2,53.2,168.4,97.9,175.6,97.9c8.6,0,38.9-23,69.1-50.4
		c87.8-77.7,282-169.8,381.3-177s154,13,211.5,77.7c70.5,80.6,77.7,138.1,53.2,411.6c-13,132.4-33.1,272-46,309.4
		c-20.1,66.2-145.3,1151.2-133.8,1164.2c11.5,10.1,1355.6-637.5,1365.6-657.6c5.8-11.5,33.1-231.7,60.4-489.3
		c53.2-513.7,63.3-549.7,177-705.1c118-161.2,485-381.3,663.4-397.2c175.6-15.8,249,21.6,249,129.5c0,33.1-20.1,244.6-43.2,469.1
		c-24.5,225.9-43.2,424.5-43.2,441.8v33.1l83.5-28.8c276.3-95,486.4-7.2,617.3,257.6c50.4,99.3,54.7,119.4,54.7,225.9
		c0,87.8-8.6,131-33.1,185.6c-44.6,99.3-123.8,190-213,247.5c-41.7,27.3-79.1,53.2-83.5,60.4c-2.9,5.8,177,126.6,401.5,266.2
		c224.5,141,421.6,273.4,438.9,293.6c15.8,20.1,28.8,56.1,28.8,79.1c0,110.8-341.1,319.5-615.9,378.5
		c-129.5,27.3-365.5,28.8-450.4,2.9c-34.5-11.5-236-128.1-446.1-259c-210.1-132.4-391.4-243.2-404.4-247.5
		c-17.3-7.2-1338.3,608.7-1367.1,638.9c-5.8,5.8,223,152.5,508,325.2c887.9,541.1,991.5,615.9,1043.3,748.3
		c47.5,125.2-7.2,211.5-197.1,312.3c-47.5,25.9-107.9,59-132.4,72c-25.9,14.4-63.3,25.9-84.9,25.9s-54.7,5.8-73.4,13
		c-38.9,14.4-37.4,11.5-83.5,282c-37.4,217.3-70.5,279.2-221.6,421.6c-264.8,250.4-660.5,414.4-781.4,323.8
		c-72-53.2-72-86.3,1.4-699.4c37.4-308,74.8-569.9,84.9-581.4c8.6-10.1,11.5-23,7.2-28.8c-5.8-4.3-256.1-168.4-558.3-364.1
		l-549.7-355.4l-795.8,390c-438.9,214.4-797.2,392.9-797.2,397.2c0,4.3,192.8,122.3,428.8,261.9
		c356.9,211.5,443.2,256.1,515.2,269.1c107.9,20.1,151.1,51.8,178.4,132.4c11.5,34.5,31.7,69.1,43.2,76.3
		c11.5,8.6,54.7,46,96.4,84.9c169.8,161.2,125.2,290.7-151.1,431.7c-148.2,76.3-197.1,93.5-338.2,115.1l-106.5,17.3l-139.6,168.4
		c-76.3,93.5-138.1,172.7-138.1,177s107.9,7.2,241.8,7.2h240.3l200-267.7c110.8-146.8,221.6-283.5,247.5-302.2
		c112.2-86.3,322.3-126.6,615.9-118c210.1,5.8,296.4,28.8,296.4,76.3c0,11.5-96.4,149.7-215.9,309.4
		c-118,158.3-215.9,290.7-215.9,295c0,2.9,208.7,7.2,464.8,10.1c461.9,4.3,463.4,4.3,533.9,40.3c40.3,20.1,92.1,60.4,115.1,90.7
		c40.3,50.4,44.6,67.6,48.9,174.1c7.2,145.3-15.8,205.8-97.9,266.2c-90.7,64.8-161.2,73.4-633.2,73.4c-237.4,0-431.7,2.9-431.7,7.2
		s95,133.8,211.5,289.2c207.2,276.3,211.5,283.5,190,319.5c-11.5,20.1-43.2,50.4-70.5,66.2c-44.6,27.3-74.8,30.2-273.4,30.2
		c-191.4,0-237.4-4.3-325.2-31.7c-174.1-54.7-220.2-96.4-451.9-402.9l-208.7-277.7h-240.3c-133.8,0-241.8,2.9-241.8,7.2
		s66.2,95,145.3,201.5l145.3,194.3h70.5c165.5,0,378.5,70.5,477.8,158.3c73.4,63.3,96.4,113.7,96.4,205.8
		c0,87.8-51.8,184.2-128.1,238.9c-24.5,17.3-56.1,60.4-72,95c-33.1,73.4-60.4,90.7-175.6,109.4c-77.7,13-133.8,43.2-518.1,283.5
		c-236,148.2-428.8,273.4-430.3,277.7c0,10.1,1584.4,755.5,1597.3,751.2c15.8-4.3,1086.5-667.7,1099.4-680.7
		c8.6-8.6,7.2-25.9-2.9-46c-17.3-33.1-146.8-1028.9-146.8-1126.8c0-61.9,31.7-129.5,70.5-151.1c44.6-23,148.2-17.3,236,13
		c125.2,43.2,333.9,156.9,454.7,246.1c179.9,133.8,260.5,241.8,282,374.1c4.3,36,23,138.1,38.9,225.9l28.8,162.6l53.2,7.2
		c139.6,23,322.3,103.6,410.1,179.9c90.7,80.6,100.7,188.5,28.8,312.3c-44.6,77.7-122.3,139.6-306.5,241.8
		c-86.3,47.5-152.5,93.5-155.4,109.4c-4.3,14.4-21.6,30.2-38.9,36c-34.5,10.1-1028.9,613-1030.3,624.5
		c0,10.1,1342.6,647.6,1365.6,647.6c10.1,0,195.7-110.8,411.6-246.1c217.3-135.3,424.5-256.1,463.4-267.7
		c47.5-15.8,126.6-24.5,256.1-24.5c158.3-1.4,204.3,4.3,295,31.7c310.8,97.9,549.7,315.1,486.4,441.8
		c-13,28.8-139.6,115.1-440.3,303.6l-423.1,261.9l99.3,72c112.2,82,181.3,171.2,221.6,283.5c37.4,105,34.5,182.8-10.1,310.8
		c-54.7,158.3-120.9,237.4-249,297.9c-69.1,31.7-89.2,34.5-194.3,27.3c-63.3-4.3-155.4-21.6-201.5-37.4
		c-47.5-17.3-86.3-28.8-87.8-27.3c-1.4,2.9,18.7,198.6,44.6,436c64.8,582.8,63.3,610.1-7.2,646.1c-100.7,51.8-224.5,38.9-400-41.7
		c-309.4-142.5-515.2-342.5-571.3-556.9c-13-48.9-44.6-290.7-70.5-536.8l-46-446.1l-683.5-325.2
		c-375.6-179.9-686.4-323.8-687.9-322.3c-11.5,10.1,113.7,1070.6,133.8,1136.8c30.2,99.3,69.1,502.2,57.6,590
		c-20.1,154-113.7,244.6-250.4,243.2c-120.9,0-302.2-84.9-400-187.1c-41.7-43.2-77.7-77.7-82-77.7c-2.9,0-82,46-175.6,100.7
		c-210.1,125.2-283.5,148.2-472,148.2c-184.2,0-284.9-27.3-489.3-129.5c-313.7-155.4-390-269.1-263.3-388.5
		c54.7-53.2,992.9-623.1,1024.6-623.1c11.5,0,21.6-5.8,21.6-14.4c0-56.1-162.6-1332.5-169.8-1335.4
		c-5.8-2.9-365.5-171.2-801.5-375.6c-434.6-205.8-792.9-371.3-792.9-371.3c-1.4,1.4,27.3,213,61.9,470.6
		c57.6,411.6,69.1,472,99.3,510.9c83.5,110.8,99.3,223,41.7,292.1c-33.1,38.9-36,56.1-36,169.8c0,184.2-37.4,243.2-179.9,286.4
		c-23,7.2-11.5,17.3,57.6,50.4c174.1,83.5,374.1,283.5,454.7,453.3c43.2,90.7,54.7,184.2,24.5,204.3c-10.1,5.8-175.6,14.4-367,18.7
		l-349.7,7.2l246.1,316.6c138.1,177,266.2,355.4,289.2,405.8c46,96.4,56.1,205.8,25.9,264.8c-24.5,46-128.1,159.7-164,181.3
		c-51.8,30.2-175.6,23-250.4-15.8c-107.9-56.1-171.2-118-428.8-433.1c-192.8-234.6-246.1-290.7-253.3-270.5
		c-7.2,14.4-47.5,161.2-90.7,326.7c-44.6,166.9-90.7,313.7-103.6,328.1c-43.2,47.5-96.4,33.1-188.5-51.8
		c-89.2-83.5-158.3-185.6-257.6-382.8c-103.6-205.8-103.6-217.3-18.7-620.2l73.4-348.2l-33.1-46
		c-123.8-172.7-250.4-336.7-257.6-338.2c-10.1,0-128.1,459-128.1,496.5c0,11.5,24.5,53.2,54.7,93.5
		c90.7,119.4,129.5,233.1,141,405.8c13,190-8.6,244.6-107.9,289.2c-59,25.9-77.7,27.3-168.4,14.4c-56.1-8.6-123.8-25.9-149.7-38.9
		s-69.1-23-96.4-23c-27.3,0-73.4-13-102.2-28.8c-70.5-38.9-1073.5-401.5-1077.8-390c-4.3,8.6,379.9,1715.3,388.5,1722.5
		c10.1,11.5,1220.3,451.9,1239,451.9c11.5,0,25.9-14.4,31.7-31.7c10.1-36,689.3-729.6,801.5-818.8c115.1-92.1,194.3-72,266.2,67.6
		c72,142.5,126.6,428.8,123.8,660.5c-2.9,221.6-28.8,276.3-233.1,485L16561,20332l30.2,41.7c77.7,110.8,133.8,402.9,103.6,539.6
		c-28.8,122.3-126.6,168.4-296.4,141c-93.5-15.8-382.8-119.4-546.8-195.7c-113.7-51.8-1072.1-385.7-1082.1-375.6
		c-7.2,7.2,274.9,1351.2,306.5,1464.9c5.8,17.3,135.3,66.2,466.2,177c581.4,194.3,610.1,213,756.9,487.8
		c82,155.4,105,220.2,129.5,381.3c25.9,171.2,25.9,276.3,0,339.6c-21.6,50.4-84.9,93.5-138.1,93.5c-15.8,0-233.1-74.8-483.5-168.4
		c-249-92.1-456.2-164-459-159.7c-4.3,4.3,0,41.7,8.6,83.5c43.2,198.6-60.4,423.1-234.6,508c-204.3,97.9-211.5,100.7-297.9,90.7
		c-93.5-11.5-204.3-59-273.4-118c-64.8-54.7-151.1-188.5-174.1-272l-18.7-66.2l-346.8,345.4
		C13621.1,24057.6,13589.4,24080.7,13507.4,24015.9z M11603.6,18618.1c-20.1-105-11.5-385.7,14.4-453.3l23-60.4l-125.2-158.3
		c-69.1-87.8-128.1-158.3-132.4-159.7c-15.8,0-102.2,474.9-90.7,495c28.8,50.4,300.8,395.7,310.8,397.2
		C11610.8,18678.6,11610.8,18651.2,11603.6,18618.1z M12664.1,15879.7c-103.6-467.7-192.8-864.9-198.6-883.6l-11.5-36l-28.8,41.7
		c-36,53.2-95,113.7-204.3,208.7l-90.7,79.1l57.6,168.4c73.4,217.3,93.5,352.6,82,538.2c-17.3,266.2-77.7,424.5-230.2,597.2
		c-164,185.6-251.8,211.5-364.1,109.4c-18.7-15.8-34.5-27.3-37.4-23c-2.9,2.9-18.7,51.8-34.5,109.4l-28.8,103.6l260.5,295
		l260.5,293.6l378.5-377l378.5-377L12664.1,15879.7z M10551.6,16905.7l398.6-175.6l31.7-135.3c15.8-73.4,27.3-136.7,24.5-139.6
		c-2.9-2.9-38.9,11.5-80.6,31.7c-143.9,70.5-249,57.6-323.8-41.7c-57.6-76.3-82-174.1-90.7-362.6c-10.1-200,5.8-292.1,84.9-477.8
		c66.2-156.9,131-251.8,286.4-415.9l129.5-136.7l-10.1-67.6c-8.6-56.1-21.6-79.1-73.4-126.6l-63.3-59l8.6-93.5
		c8.6-82,7.2-89.2-13-70.5c-18.7,18.7-945.4,1188.6-1049,1325.3l-40.3,50.4l172.7,518c201.5,604.4,182.8,552.6,197.1,552.6
		C10147.3,17081.2,10331.5,17002.1,10551.6,16905.7z M15045.7,16498.4c51.8-211.5,93.5-397.2,93.5-413c0-14.4-41.7-89.2-92.1-164
		l-92.1-138.1l-23,77.7c-66.2,231.7-201.5,279.2-449,156.9c-253.3-126.6-479.2-410.1-552.6-697.9c-14.4-56.1-33.1-174.1-43.2-263.3
		l-17.3-161.2l-72-14.4c-38.9-8.6-90.7-15.8-113.7-15.8c-51.8,0-92.1-18.7-143.9-67.6c-21.6-20.1-51.8-33.1-66.2-30.2
		c-27.3,4.3-17.3,54.7,164,860.5c106.5,470.6,198.6,860.5,204.3,866.3c10.1,11.5,1100.9,398.6,1106.6,392.9
		C14950.7,16885.5,14995.4,16710,15045.7,16498.4z M17168.3,16750.3c-11.5-7.2-33.1-14.4-47.5-14.4c-73.4,0-223-113.7-355.4-269.1
		l-89.2-105h-201.5c-169.8,0-200,2.9-194.3,21.6c4.3,10.1,69.1,100.7,142.5,200l133.8,179.9h316.6
		C17083.4,16764.7,17182.7,16758.9,17168.3,16750.3z M16394.1,15078.1c-34.5-310.8-67.6-569.9-73.4-575.6
		c-10.1-11.5-1603.1-745.4-1606-741.1c-1.4,1.4,7.2,95,18.7,207.2l21.6,204.3l174.1,59c207.2,69.1,320.9,138.1,461.9,279.2
		c125.2,126.6,205.8,250.4,289.2,441.8c74.8,171.2,84.9,286.4,34.5,369.8c-31.7,51.8-100.7,100.7-161.2,113.7
		c-23,4.3-40.3,10.1-40.3,14.4c0,2.9,34.5,47.5,76.3,97.9l74.8,92.1h397.2l395.7,1.4L16394.1,15078.1z M6860.5,15417.7
		c44.6-30.2,128.1-72,182.8-93.5l102.2-38.9l46-185.6c25.9-100.7,46-195.7,43.2-208.7c-2.9-20.1-37.4-10.1-217.3,67.6
		c-118,51.8-217.3,96.4-221.6,100.7c-8.6,8.6-87.8,428.8-89.2,472c0,21.6,7.2,17.3,36-15.8
		C6762.7,15491.1,6815.9,15447.9,6860.5,15417.7z M9534.3,14691c300.8-379.9,548.3-696.5,551.1-702.2c1.4-5.8-66.2-15.8-151.1-20.1
		c-84.9-5.8-187.1-13-227.4-17.3c-72-8.6-72-8.6-113.7,51.8c-168.4,250.4-205.8,299.3-251.8,348.2
		c-118,126.6-343.9,247.5-539.6,290.7c-82,18.7-152.5,23-259,18.7c-227.4-10.1-315.1-70.5-316.6-214.4c-1.4-38.9-5.8-70.5-10.1-70.5
		c-5.8,0-40.3,13-79.1,28.8l-72,30.2l-80.6,405.8c-44.6,223-79.1,407.2-76.3,410.1c4.3,4.3,988.6,128.1,1043.3,131
		C8981.7,15383.2,9063.7,15285.3,9534.3,14691z M6744,14351.4l207.2-112.2l-227.4-113.7l-227.4-113.7l-122.3,60.4
		c-118,57.6-272,100.7-372.7,102.2c-43.2,1.4-8.6,23,230.2,143.9c154,77.7,286.4,142.5,293.6,142.5
		C6532.4,14462.2,6630.3,14411.8,6744,14351.4z M7901,13794.5l93.5-48.9l-60.4-24.5c-34.5-13-82-47.5-106.5-76.3
		c-41.7-46-44.6-57.6-38.9-131c8.6-112.2,59-204.3,169.8-308c177-168.4,410.1-293.6,618.8-335.3c106.5-21.6,143.9-21.6,295-7.2
		c95,10.1,195.7,21.6,223,24.5c50.4,8.6,51.8,5.8,84.9-63.3c18.7-38.9,28.8-79.1,24.5-87.8c-20.1-33.1,10.1-74.8,79.1-109.4
		c38.9-20.1,70.5-38.9,70.5-41.7c0-4.3,4.3-15.8,8.6-28.8c8.6-21.6-74.8-23-873.5-23H7606l-287.8,449
		c-158.3,246.1-289.2,453.3-292.1,459c-4.3,10.1,751.2,400,774.2,400C7804.5,13842,7849.2,13820.4,7901,13794.5z M17248.9,13302.4
		c263.3-165.5,479.2-305.1,480.6-312.3c0-5.8-102.2-155.4-225.9-333.9l-227.4-323.8H17115h-161.2l43.2,80.6
		c87.8,168.4,37.4,273.4-187.1,385.7c-185.6,92.1-230.2,102.2-483.5,100.7c-210.1,0-240.3-2.9-345.4-38.9
		c-103.6-34.5-152.5-61.9-385.7-221.6l-54.7-37.4l-63.3,30.2c-37.4,18.7-73.4,48.9-86.3,73.4c-25.9,51.8-89.2,87.8-151.1,87.8
		c-24.5,0-54.7,8.6-64.8,20.1c-17.3,15.8,103.6,79.1,774.2,408.7c437.5,214.4,800.1,388.5,807.3,385.7
		C16765.4,13606,16987,13467.8,17248.9,13302.4z M17505,11374.1c217.3-296.4,227.4-313.7,201.5-332.4
		c-93.5-69.1-949.8-600.1-961.3-597.2c-8.6,1.4-369.8,177-803,388.5l-785.7,384.2l73.4,36c41.7,20.1,125.2,70.5,185.6,112.2
		c60.4,40.3,118,74.8,126.6,74.8c10.1,0,70.5-38.9,136.7-86.3c204.3-146.8,345.4-197.1,597.2-211.5c113.7-5.8,181.3-1.4,272,15.8
		c125.2,25.9,333.9,113.7,414.4,175.6c112.2,84.9,118,205.8,14.4,319.5l-28.8,31.7h164h164L17505,11374.1z M9338.5,11459
		c-17.3-30.2-67.6-118-110.8-197.1l-79.1-141l-51.8,7.2c-28.8,4.3-129.5,15.8-224.5,25.9c-151.1,14.4-188.5,14.4-295-7.2
		c-151.1-28.8-369.8-133.8-508-241.8c-54.7-41.7-123.8-93.5-154-116.6c-40.3-28.8-63.3-61.9-84.9-119.4c-59-156.9-25.9-272,95-329.5
		c33.1-15.8,60.4-33.1,61.9-37.4c0-5.8-41.7-36-92.1-69.1l-92.1-60.4l-391.4,195.7c-214.4,107.9-388.5,200-385.7,207.2
		c2.9,5.8,133.8,218.7,292.1,473.4l287.8,463.4h882.1h883.6L9338.5,11459z M15516.3,9907.7c437.5-210.1,800.1-387.1,804.4-392.9
		c5.8-5.8,36-243.2,69.1-528.1c33.1-284.9,63.3-532.4,66.2-549.7l7.2-33.1h-394.3h-395.7l-82,96.4l-82,97.9l59,10.1
		c131,21.6,175.6,82,175.6,234.6c0,181.3-141,470.6-323.8,663.4c-128.1,135.3-221.6,190-470.6,273.4l-201.5,66.2l7.2,89.2
		c4.3,47.5,13,110.8,17.3,139.6c7.2,36,2.9,66.2-13,97.9c-30.2,57.6-53.2,116.6-44.6,116.6
		C14717.6,10289,15078.8,10117.8,15516.3,9907.7z M9790.4,10057.4c64.8-33.1,118-34.5,174.1-5.8c37.4,20.1,123.8,30.2,123.8,14.4
		c0-2.9-247.5-319.5-548.3-700.8c-302.2-382.8-549.7-696.5-551.1-697.9c-2.9-2.9-1077.8,96.4-1082.1,100.7
		c-1.4,1.4,33.1,185.6,77.7,407.2L8065,9581l74.8,44.6c41.7,24.5,79.1,44.6,83.5,44.6c4.3,0,4.3-18.7,0-40.3
		c-13-66.2,18.7-154,72-201.5c69.1-60.4,168.4-80.6,345.4-70.5c152.5,8.6,243.2,33.1,382.8,103.6c223,113.7,369.8,250.4,512.3,480.6
		l99.3,161.2l50.4-8.6C9712.7,10089,9760.2,10073.2,9790.4,10057.4z M6732.5,9889l218.7-110.8l-214.4-97.9l-213-97.9l-286.4,142.5
		l-286.4,143.9l72,8.6c103.6,14.4,228.8,46,345.4,86.3c56.1,18.7,110.8,36,122.3,36S6611.6,9949.4,6732.5,9889z M11009.3,9008.3
		c0-11.5-48.9-70.5-109.4-129.5c-194.3-192.8-308-384.2-368.4-623.1c-25.9-100.7-28.8-143.9-21.6-292.1
		c20.1-402.9,169.8-535.3,438.9-387.1c44.6,24.5,60.4,28.8,60.4,14.4c0-28.8-41.7-211.5-56.1-244.6c-14.4-36-803-420.2-821.7-401.5
		c-5.8,7.2-86.3,247.5-178.4,533.9c-92.1,287.8-171.2,531-175.6,541.1c-7.2,18.7,76.3,125.2,834.6,1059.1l273.4,338.2l61.9-192.8
		C10981.9,9119.1,11009.3,9021.3,11009.3,9008.3z M13556.3,9247.2c51.8-18.7,142.5-53.2,201.5-77.7l107.9-43.2l25.9-177
		c13-97.9,34.5-214.4,47.5-257.6c50.4-178.4,221.6-431.7,369.8-548.3c40.3-33.1,132.4-87.8,204.3-125.2
		c141-70.5,228.8-84.9,300.8-46c46,24.5,100.7,110.8,123.8,198.6l15.8,61.9l93.5-122.3c50.4-67.6,92.1-133.8,92.1-148.2
		c0-36-181.3-780-191.4-791.5c-5.8-4.3-257.6,79.1-559.8,185.6l-551.1,194.3l-182.8,804.4c-100.7,441.8-188.5,831.8-195.7,866.3
		c-7.2,33.1-10.1,60.4-4.3,60.4C13458.5,9281.7,13504.5,9265.9,13556.3,9247.2z M7239,9162.3c0-27.3-86.3-417.3-93.5-426
		c-4.3-2.9-51.8-23-105-44.6c-120.9-47.5-247.5-129.5-306.5-200c-38.9-46-43.2-48.9-36-15.8c4.3,20.1,24.5,126.6,44.6,237.4
		c21.6,110.8,40.3,213,44.6,227.4c4.3,15.8,92.1,67.6,218.7,132.4c116.6,59,215.9,106.5,223,106.5
		C7234.7,9181,7239,9172.4,7239,9162.3z M12474.2,8991c8.6-34.5,97.9-424.5,197.1-866.3l182.8-804.4l-372.7-372.7
		c-204.3-204.3-377-369.8-384.2-367s-128.1,133.8-267.7,290.7l-254.7,286.4l30.2,90.7c15.8,50.4,34.5,90.7,41.7,90.7
		s28.8-13,48.9-28.8c99.3-77.7,211.5-40.3,348.2,118c149.7,171.2,208.7,328.1,225.9,607.3c14.4,225.9-18.7,397.2-129.5,672
		c-5.8,13,10.1,47.5,40.3,86.3c44.6,59,53.2,64.8,99.3,59c40.3-4.3,54.7,1.4,80.6,33.1c15.8,21.6,30.2,59,30.2,83.5
		c0,37.4,31.7,80.6,59,82C12455.5,9051.5,12465.5,9024.1,12474.2,8991z M16725.1,7622.5c61.9-97.9,197.1-217.3,310.8-274.9
		c57.6-28.8,103.6-54.7,103.6-59c0-4.3-129.5-7.2-287.8-7.2h-286.4l-152.5,201.5l-152.5,201.5h213h213L16725.1,7622.5z
		 M11517.2,6100l120.9-151.1l-27.3-107.9c-21.6-84.9-25.9-136.7-20.1-250.4c4.3-79.1,11.5-162.6,17.3-187.1
		c8.6-37.4,7.2-40.3-11.5-24.5c-13,10.1-87.8,105-168.4,210.1l-146.8,192.8l47.5,238.9c25.9,131,50.4,237.4,56.1,236
		C11390.6,6254,11449.6,6184.9,11517.2,6100z"/>
</g>
</svg>
