<?xml version="1.0" encoding="utf-8"?>
<!-- Generator: Adobe Illustrator 30.0.0, SVG Export Plug-In . SVG Version: 9.03 Build 0)  -->
<svg version="1.0" id="Layer_1" xmlns="http://www.w3.org/2000/svg" xmlns:xlink="http://www.w3.org/1999/xlink" x="0px" y="0px"
	 viewBox="0 0 2400 2400" style="enable-background:new 0 0 2400 2400;" xml:space="preserve">
<g transform="translate(0.000000,2400.000000) scale(0.100000,-0.100000)">
	<path d="M13083.8,23874.8c-259.2-86.4-363.5-129.6-360.5-143c3-11.9,269.7-654.1,594.5-1427.3l591.5-1406.4l-58.1-292
		c-31.3-160.9-61.1-305.4-67-320.3c-7.4-22.3-93.9,87.9-402.3,521.5c-216,302.4-396.3,555.7-403.8,563.2
		c-8.9,10.4-890.9-184.7-953.5-211.6c-20.9-8.9,98.3-230.9,669-1253l694.3-1242.6l26.8,58.1c14.9,31.3,26.8,53.6,26.8,47.7
		c0-16.4-146-624.3-152-628.7c-1.5-1.5-38.7-25.3-80.5-50.7c-201.1-126.6-385.9-402.3-460.4-683.8c-31.3-114.7-31.3-371-1.5-500.6
		c25.3-108.8,92.4-256.3,153.5-335.2l37.2-49.2l-175.8-736c-96.8-405.2-180.3-737.5-184.7-737.5s-83.4,183.3-177.3,406.7
		c-93.9,222-171.3,408.2-174.3,409.7c-1.5,3-113.2-44.7-245.8-107.3c-193.7-90.9-245.8-110.3-260.7-95.4
		c-8.9,10.4-31.3,86.4-49.2,168.4c-19.4,81.9-37.2,160.9-41.7,177.3s-1.5,23.8,7.4,17.9c16.4-10.4,844.8,1448.2,829.9,1463
		c-8.9,8.9-563.2,137.1-567.6,132.6c-1.5-1.5-107.3-150.5-235.4-330.8c-129.6-180.3-238.4-326.3-244.3-324.8
		c-17.9,4.5-104.3,397.8-92.4,421.6c44.7,89.4,731.5,1656.7,728.5,1659.7c-11.9,10.4-476.8,160.9-481.2,156.4
		c-3-3-123.7-230.9-269.7-505.1c-146-274.1-271.2-506.6-281.6-515.5c-8.9-8.9-59.6-31.3-111.7-49.2c-87.9-28.3-99.8-29.8-131.1-7.4
		c-19.4,11.9-227.9,168.4-463.3,347.1c-235.4,177.3-436.5,329.3-445.5,335.2c-19.4,10.4-396.3-327.8-388.9-348.6
		c3-6,320.3-277.1,707.7-601.9c385.9-324.8,706.2-601.9,710.7-615.3c20.9-71.5,84.9-366.5,80.5-378.4c-3-6-168.4,80.5-369.5,195.2
		l-363.5,205.6l-46.2-37.2c-183.3-156.4-409.7-351.6-406.7-354.6c3-1.5,315.9-219,695.8-484.2c444-309.9,694.3-475.3,700.2-463.3
		c6,8.9,29.8-64.1,52.1-163.9l41.7-180.3l-34.3-35.8c-32.8-35.8-35.8-35.8-336.7-35.8h-302.4v-70c1.5-40.2,13.4-238.4,28.3-444
		c16.4-204.1,26.8-374,25.3-376.9c-3-1.5-220.5,262.2-482.7,588.5l-479.7,590l8.9,144.5c22.3,321.8-110.2,603.4-411.2,883.5
		c-140,129.6-287.5,201.1-475.3,232.4l-143,23.8l-211.6,256.3c-117.7,141.5-208.6,257.7-204.1,257.7s26.8-13.4,47.7-31.3l40.2-31.3
		l10.4,43.2c7.5,29.8,163.9,2733.9,160.9,2792c0,7.4-953.5-207.1-965.4-219c-3-1.5-55.1-311.4-116.2-686.8
		c-61.1-375.4-111.7-686.8-114.7-692.8c-3-11.9-397.8,499.1-415.7,537.8c-6,13.4-38.7,718.1-73,1565.9
		c-34.3,847.7-62.6,1543.5-64.1,1545c-3,3-800.1-126.6-806-132.6c-4.5-4.5-96.8-1856.4-96.8-1936.8c0-34.3-23.8-59.6-146-152
		l-147.5-110.2l-972.9,177.3c-534.9,98.3-974.4,175.8-975.9,174.3c-17.9-20.9-286.1-765.8-278.6-773.2
		c6-4.5,676.4-189.2,1489.9-409.7l1480.9-400.8l220.5-268.2l222-268.2l-47.7-4.5c-26.8-1.5-335.2,16.4-686.8,41.7
		c-353.1,23.8-645.1,40.2-651.1,34.3c-19.4-22.3-447-856.7-442.5-862.6c7.4-6,2757.7-512.5,2789-512.5c19.4,0,19.4,8.9-7.4,71.5
		c-38.7,89.4-29.8,79,199.6-222l187.7-248.8l-13.4-86.4c-43.2-259.2,98.3-637.7,326.3-874.6c190.7-199.6,376.9-293.5,601.9-305.4
		l131.1-6l461.9-590c253.3-323.3,458.9-590,457.4-591.5c-3-3-195.2,44.7-429.1,105.8c-232.4,59.6-427.6,104.3-432.1,98.3
		c-6-6-35.8-123.7-67-263.7c-31.3-138.6-62.6-259.2-68.5-266.7c-10.4-11.9-356.1,119.2-356.1,135.6c0,3,13.4,1.5,29.8-3
		c16.4-4.5,29.8-4.5,29.8,0c0,14.9-657,1548-669,1561.4c-11.9,11.9-432.1-309.9-444-341.2c-3-10.4,41.7-190.7,99.8-400.8
		c58.1-210.1,102.8-385.9,99.8-390.3c-4.5-4.5-84.9,26.8-177.3,70l-168.4,76l-350.1,664.5c-192.2,365-388.9,737.5-436.5,825.4
		l-86.4,160.9l-196.7-119.2c-108.8-67-202.6-126.6-208.6-132.6c-7.4-6,87.9-257.7,213.1-560.2l225-546.8l-35.8-98.3l-35.8-98.3
		l-570.6-159.4c-312.9-87.9-572.1-162.4-576.6-166.9c-10.4-10.4,11.9-448.5,23.8-466.3c6-10.4,345.6,43.2,928.2,146L7330,14152
		l175.8-80.5l174.3-80.5l-50.7-23.8c-28.3-11.9-201.1-84.9-385.9-162.4l-335.2-138.6l-4.5-295c-3-232.4,0-292,14.9-287.5
		c10.4,4.5,382.9,107.3,826.9,229.4c792.6,216,807.5,220.5,782.2,248.8c-32.8,37.2-26.8,35.8,165.4-68.5l160.9-86.4l-99.8-144.5
		c-55.1-79-135.6-196.7-180.3-259.2l-79-114.7l368-257.7l369.5-257.7l-752.4-4.5l-750.9-3l-90.9,87.9
		c-49.2,47.7-116.2,104.3-149,125.1c-90.9,55.1-256.3,110.2-394.8,131.1c-152,20.9-433.6,8.9-558.7-23.8
		c-141.5-38.7-287.5-123.7-391.8-226.5l-92.4-93.9l-332.2,1.5c-260.7,1.5-315.9,4.5-259.2,16.4c38.7,8.9,70,20.9,67,26.8
		c-11.9,31.3-2146.9,1893.6-2157.3,1883.2c-7.4-7.4-104.3-210.1-216-451.4l-204.1-436.5l80.5-84.9
		c44.7-46.2,233.9-247.3,421.6-448.5c187.7-201.1,371-396.3,408.2-435l67-71.5H3571h-357.6l-1250,910.3
		c-686.8,499.1-1250,907.3-1253,904.4c-31.3-40.2-409.7-701.7-406.7-710.7c3-7.4,338.2-302.4,744.9-657l742-643.6v-174.3v-172.8
		l-744.9-646.6c-409.7-356.1-744.9-652.6-744.9-658.5c0-6,90.9-165.4,202.6-356.1c134.1-226.5,210.1-341.2,223.5-336.7
		c10.4,4.5,572.1,417.2,1248.5,917.8l1229.1,908.8l353.1-3l354.6-4.5l-461.9-491.7c-253.3-271.2-469.3-503.6-478.2-515.5
		c-16.4-19.4,16.4-98.3,186.2-464.8c111.7-242.8,210.1-442.5,217.5-444c20.9-4.5,2157.3,1883.2,2143.9,1895.1
		c-6,6-31.3,13.4-56.6,17.9c-23.8,3,98.3,7.4,274.1,8.9l318.8,1.5l114.7-110.2c202.6-193.7,405.2-269.7,715.1-268.2
		c312.9,1.5,542.3,87.9,736,278.6l102.8,99.8l752.4-3l750.9-4.5l-71.5-52.1c-40.2-28.3-205.6-149-368-269.7l-293.5-217.5
		l193.7-242.8c105.8-132.6,190.7-247.3,186.2-253.3c-4.5-7.5-53.6-37.2-108.8-67c-55.1-31.3-137.1-76-181.8-101.3
		c-67-37.2-77.5-40.2-55.1-13.4c28.3,31.3,28.3,31.3-74.5,61.1c-914.8,269.7-1527.1,448.5-1539,448.5c-8.9,0-14.9-114.7-14.9-303.9
		V10329l387.4-146c213.1-80.5,387.4-147.5,387.4-149c0-13.4-336.7-186.2-360.5-186.2c-14.9,0-430.6,77.5-923.7,172.8
		c-677.9,131.1-898.4,168.4-905.8,154.9c-11.9-19.4-37.2-490.2-28.3-497.6c3-3,241.4-62.6,527.4-134.1
		c671.9-166.9,633.2-156.4,633.2-178.8c0-10.4,13.4-53.6,31.3-95.4l31.3-76l-227.9-551.3c-123.7-303.9-223.5-555.7-220.5-557.2
		c50.7-40.2,403.8-278.6,411.2-278.6c7.4,0,207.1,369.5,444,820.9l432.1,819.4l171.3,93.9c93.9,52.1,172.8,90.9,175.8,83.4
		c1.5-6-43.2-178.8-101.3-384.4c-56.6-205.6-104.3-382.9-104.3-393.3c0-16.4,424.6-391.8,442.5-391.8c6,0,674.9,1552.4,674.9,1567.3
		c0,3-22.3,3-47.7-1.5c-29.8-6,22.3,26.8,126.6,80.5c98.3,50.7,187.7,89.4,201.1,86.4c16.4-3,38.7-74.5,84.9-284.6
		c34.3-153.5,65.6-281.6,68.5-284.6c3-1.5,193.7,52.1,423.1,120.7c229.4,68.5,421.6,122.2,426.1,120.7c6-3-196.7-269.7-451.4-593
		l-460.4-588.5l-99.8-11.9c-421.6-47.7-770.3-363.5-919.2-829.9c-40.2-128.1-56.6-351.6-32.8-426.1c8.9-25.3-28.3-81.9-184.7-287.5
		c-107.3-141.5-198.2-253.3-201.1-250.3c-3,3,4.5,31.3,17.9,62.6c22.3,55.1,22.3,55.1-11.9,47.7c-19.4-4.5-643.6-113.2-1390-241.4
		C5582.3,6613.2,4962.6,6506,4952.1,6503c-11.9-4.5,56.6-156.4,207.1-457.4c123.7-248.8,226.5-451.4,227.9-452.9
		c0,0,309.9,20.9,686.8,47.7c376.9,26.8,686.8,46.2,689.8,43.2c8.9-8.9-432.1-536.4-457.4-546.8c-13.4-6-683.8-190.7-1491.4-408.2
		c-807.5-219-1469-399.3-1472-400.8c-1.5-1.5,62.6-175.8,143-388.9c104.3-278.6,152-384.4,166.9-382.9
		c11.9,1.5,449.9,80.5,972.9,175.8l949,174.3l125.1-77.5c70-43.2,135.6-87.9,147.5-101.3c17.9-20.9,31.3-217.5,70-1023.5
		c26.8-548.3,49.2-999.7,50.7-1001.2c4.5-4.5,800.1-96.8,804.5-92.4c3,3,34.3,695.8,70,1540.5l62.6,1534.6l210.1,272.6
		c143,187.7,211.6,266.7,216,247.3c3-13.4,53.6-315.9,111.7-671.9c59.6-354.6,111.7-649.6,117.7-654.1
		c13.4-13.4,950.5-262.2,959.5-254.8c7.4,7.4-141.5,2742.8-153.5,2823.3c-7.4,50.7-7.4,50.7-38.7,22.3
		c-17.9-14.9,58.1,81.9,168.4,216l198.2,241.4h68.5c183.3,0,402.3,105.8,573.6,275.6c272.6,268.2,396.3,564.7,375.4,892.4
		l-8.9,135.6l448.5,551.3c245.8,303.9,460.4,567.6,475.3,587c16.4,19.4,31.3,32.8,34.3,29.8c1.5-3-8.9-201.1-26.8-441
		c-16.4-239.9-26.8-438-23.8-441c4.5-4.5,141.5-14.9,305.4-23.8c280.1-14.9,299.5-17.9,332.2-50.7l34.3-34.3l-41.7-166.9
		c-22.3-92.4-44.7-157.9-49.2-144.5c-6,16.4-186.2-105.8-703.2-479.7l-695.8-500.6l196.7-156.4c108.8-84.9,211.6-165.4,229.4-177.3
		c31.3-20.9,55.1-10.4,391.8,166.9c198.2,104.3,363.5,184.7,368,180.3s-11.9-86.4-34.3-183.3c-32.8-134.1-52.1-184.7-80.5-211.6
		c-20.9-19.4-341.2-296.5-710.7-616.8c-371-320.3-674.9-585.5-674.9-591.5c0-7.4,371-320.3,379.9-320.3c3,0,868.6,622.8,926.7,667.5
		c10.4,7.4,61.1,6,129.6-4.5l110.2-17.9l272.6-531.9c149-292,272.6-531.9,274.1-533.4c3-6,460.4,147.5,473.8,159.4
		c6,4.5-154.9,393.3-359.1,862.6l-371,855.2l46.2,183.3c25.3,101.3,49.2,184.7,55.1,184.7c6,0,116.2-147.5,244.3-327.8
		c128.1-180.3,242.8-327.8,251.8-327.8c26.8,0,548.3,117.7,557.2,125.1c7.4,8.9,28.3-31.3-432.1,803l-402.3,727.1l32.8,137.1
		c19.4,76,41.7,146,53.6,157.9c16.4,17.9,55.1,3,257.7-92.4c211.6-98.3,241.4-110.2,253.3-87.9c7.4,13.4,84.9,196.7,172.8,405.2
		c87.9,208.6,163.9,385.9,168.4,393.3s87.9-318.8,184.7-725.6l175.8-740.5l-65.6-89.4c-111.7-152-135.6-229.4-135.6-454.4
		c0-168.4,7.4-217.5,47.7-376.9c26.8-101.3,73-233.9,102.8-295c68.5-138.6,195.2-271.2,317.3-332.2c49.2-25.3,92.4-58.1,96.8-71.5
		c11.9-41.7,128.1-557.2,128.1-567.6c-1.5-6-8.9,7.4-19.4,31.3c-16.4,38.7-44.7-7.4-643.6-1095.1
		c-344.2-624.3-657-1193.4-695.8-1263.4l-70-129.6l487.2-113.2c268.2-61.1,487.2-111.7,488.7-110.3c28.3,49.2,803,1156.1,806,1153.2
		c6-7.4,123.7-625.7,123.7-657c0-14.9-265.2-658.5-590-1430.3c-324.8-770.3-593-1409.4-597.4-1418.4c-4.5-11.9,134.1-64.1,378.4-146
		c302.4-101.3,387.4-123.7,400.8-108.8c8.9,8.9,219,396.3,467.8,859.7c247.3,463.3,460.4,853.7,472.3,867.1
		c13.4,14.9,92.4,41.7,186.2,62.6l162.4,38.7l783.7-575.1c430.6-317.3,791.1-576.6,801.5-578.1c10.4,0,153.5,119.2,318.8,265.2
		l301,268.2l-41.7,40.2c-22.3,20.9-552.7,479.7-1177,1017.6c-624.3,537.8-1138.3,981.8-1142.7,989.3c-8.9,16.4-131.1,660-125.1,666
		c3,3,269.7-144.5,593-329.3c323.3-183.3,594.5-332.2,600.4-329.3c19.4,6,768.8,597.4,768.8,606.4c0,4.5-520,375.4-1156.1,825.4
		c-797.1,564.7-1159.1,812-1165.1,797.1c-3-10.4-35.8,107.3-71.5,265.2l-64.1,284.6l50.7,76c174.3,259.2,180.3,755.4,13.4,1104
		c-70,146-225,305.4-357.6,366.5c-52.1,23.8-96.8,53.6-99.8,65.6c-4.5,11.9-74.5,338.2-157.9,722.6
		c-83.4,385.9-153.5,709.2-156.4,719.6c-4.5,8.9-4.5,17.9,0,17.9c3,0,153.5-128.1,335.2-283.1c183.3-156.4,336.7-283.1,342.7-280.1
		c7.5,3,96.8,96.8,201.1,208.6c236.9,257.7,239.9,259.2,372.5,90.9c111.7-143,135.6-175.8,117.7-163.9
		c-13.4,7.4-117.7-1685-105.8-1697c10.4-10.4,555.7,119.2,569.1,135.6c8.9,10.4,41.7,192.2,73,403.8
		c32.8,213.1,62.6,391.8,68.5,397.8c8.9,10.4,204.1-217.5,244.3-286.1c7.5-10.4,26.8-438,44.7-949c17.9-509.5,35.8-931.2,38.7-934.1
		c4.5-3,119.2,7.4,256.3,23.8c245.8,31.3,248.8,31.3,256.3,68.5c4.5,22.3,11.9,269.7,16.4,552.7c4.5,283.1,11.9,539.3,16.4,570.6
		c7.4,46.2,22.3,67,84.9,114.7l77.5,58.1l566.2-111.7c311.4-61.1,575.1-108.8,587-105.8c26.8,4.5,213.1,472.3,190.7,479.7
		c-10.4,4.5-417.2,113.2-904.3,242.8l-886.5,236.9l-131.1,160.9c-71.5,87.9-128.1,160.9-126.6,163.9c3,1.5,189.2-11.9,414.2-29.8
		c225-17.9,414.2-28.3,420.1-23.8c11.9,10.4,250.3,520,250.3,534.9c0,8.9-1570.3,286.1-1659.7,293.5
		c-44.7,3-217.5,227.9-217.5,283.1c0,41.7,13.4,52.1,230.9,175.8l229.4,131.1l-105.8,181.8c-59.6,99.8-159.4,271.2-223.5,381.4
		c-64.1,110.3-114.7,201.1-113.2,202.6c3,3,312.9-140,689.8-315.9l685.3-318.8l95.4-195.2c80.5-165.4,110.2-211.6,193.7-293.5
		c107.3-107.3,281.6-204.1,505.1-280.1c213.1-71.5,473.8-61.1,645.1,26.8l56.6,28.3l275.6-144.5c150.5-80.5,272.6-147.5,269.7-150.5
		c-3-3-19.4,3-37.2,11.9s-35.8,14.9-38.7,10.4c-4.5-4.5,907.3-2221.4,1078.7-2622.2c8.9-20.9,74.5,25.3,397.8,281.6
		c271.2,214.5,385.9,314.4,382.9,330.8c-3,13.4-87.9,315.9-190.7,671.9c-101.3,356.1-181.8,651.1-178.8,654.1
		c4.5,3,138.6-56.6,301-132.6c253.3-120.7,298-146,324.8-192.2c17.9-28.3,347.1-646.6,733-1373.7c384.4-728.5,703.2-1323,710.7-1323
		c19.4,0,666,436.5,666,449.9c0,7.4-171.3,421.6-381.4,920.7l-382.9,907.3l76,146c41.7,80.5,83.4,150.5,95.4,157.9
		c10.4,6,441,125.1,956.5,263.7c517,140,938.6,254.8,940.1,257.7c3,3-64.1,835.8-65.6,838.8c-1.5,0-685.3-123.7-1522.6-274.1
		L20589.8,8413l-306.9,138.6c-169.8,74.5-312.9,141.5-320.3,147.5c-6,6,283.1,125.1,640.6,265.2l652.6,253.3l4.5,502.1
		c1.5,275.6-1.5,500.6-7.4,500.6c-16.4,0-2722-762.8-2729.4-770.3c-4.5-3,16.4-29.8,44.7-59.6c47.7-50.7,38.7-47.7-187.7,70
		c-360.5,186.2-347.1,177.3-366.5,236.9c-96.8,298-378.4,555.7-773.2,704.7c-117.7,44.7-140,47.7-312.9,49.2
		c-171.3,0-193.7-3-283.1-41.7c-53.6-22.3-99.8-43.2-105.8-44.7c-4.5-1.5-317.3,141.5-697.3,317.3
		c-551.3,256.3-682.4,321.8-654.1,330.8c19.4,4.5,216,41.7,436.5,80.5c222,38.7,406.7,74.5,412.7,79c6,6-10.4,120.7-35.8,256.3
		l-46.2,247.3l32.8,55.1l34.3,53.6l210.1-1.5c163.9-1.5,199.6-4.5,160.9-16.4c-28.3-7.4-44.7-19.4-37.2-26.8
		c135.6-125.1,1279.8-1114.4,1285.8-1110c3,4.5,62.6,126.6,131.1,271.2c120.7,254.8,123.7,263.7,98.3,293.5
		c-14.9,17.9-146,156.4-293.5,309.9l-265.2,280.1h213.1l214.5-1.5l759.8-549.8c417.2-302.4,759.8-548.3,761.3-546.8
		c34.3,43.2,214.5,405.2,210.1,418.7c-4.5,11.9-199.6,190.7-433.6,397.8l-426.1,378.4v113.2v114.7l438,388.9l438,388.9l-107.3,201.1
		c-59.6,110.2-111.7,204.1-116.2,210.1c-4.5,4.5-351.6-241.4-771.8-543.8l-762.8-552.7h-199.6c-110.2,0-199.6,4.5-199.6,11.9
		c0,6,84.9,104.3,187.7,219c104.3,114.7,230.9,256.3,284.6,315.9l95.4,105.8l-128.1,254.8c-70,140-129.6,254.8-134.1,254.8
		c-4.5,0-296.5-253.3-649.6-561.7l-642.1-561.7l49.2-16.4c41.7-11.9,16.4-14.9-143-19.4l-192.2-4.5l-52.1,52.1l-52.1,52.1
		l47.7,256.3c25.3,141.5,46.2,259.2,43.2,260.7c-1.5,1.5-202.6,38.7-447,81.9c-242.8,43.2-438,83.4-432.1,89.4
		c7.5,6,317.3,159.4,689.8,339.7l676.4,330.8l86.4-37.2c169.8-74.5,363.5-84.9,549.8-29.8c122.2,35.8,411.2,177.3,500.6,244.3
		c102.8,77.5,213.1,226.5,299.5,400.8l70,140l274.1,132.6c150.5,71.5,277.1,131.1,283.1,131.1c4.5-1.5-10.4-16.4-34.3-35.8
		l-41.7-35.8l49.2-14.9c28.3-8.9,637.7-181.8,1354.3-382.9c716.6-201.1,1312.6-369.5,1323-372.5c13.4-4.5,17.9,96.8,17.9,481.2
		v487.2l-593,229.4c-324.8,126.6-621.3,242.8-658.5,259.2l-67,28.3l321.8,160.9l321.8,162.4l1516.7-290.5
		c832.8-159.4,1519.7-286.1,1524.1-281.6c13.4,13.4,74.5,817.9,64.1,828.4c-4.5,4.5-424.6,120.7-932.7,257.7
		c-508,137.1-934.1,251.8-946.1,254.8c-22.3,7.5-178.8,302.4-178.8,336.7c0,8.9,171.3,414.2,379.9,902.9
		c208.6,487.2,379.9,892.4,379.9,899.9s-150.5,113.2-335.2,236.9c-332.2,222-335.2,223.5-354.6,189.2
		c-11.9-17.9-341.2-630.2-731.5-1360.2l-710.7-1327.5l-301-143c-165.4-77.5-302.4-140-305.4-137.1c-4.5,3,332.2,1168.1,369.5,1276.8
		c13.4,40.2,3,49.2-375.4,347.1c-213.1,169.8-390.3,305.4-391.8,302.4c-11.9-11.9-1096.5-2607.3-1092.1-2611.7c3-3,31.3,0,64.1,7.5
		c32.8,7.4,59.6,11.9,62.6,10.4c1.5-3-129.6-65.6-290.5-143l-293.5-138.6l-89.4,31.3c-159.4,55.1-311.4,68.5-475.3,40.2
		c-274.1-46.2-499.1-157.9-679.4-336.7c-117.7-116.2-172.8-204.1-229.4-360.5l-32.8-93.9l-682.4-332.2
		c-374-183.3-683.8-330.8-686.8-329.3c-3,3,93.9,183.3,216,400.8l222,394.8l-230.9,116.2c-280.1,140-277.1,134.1-134.1,332.2
		l96.8,134.1l837.3,144.5c460.4,79,840.3,147.5,843.3,150.5c3,3-52.1,120.7-122.2,262.2l-128.1,256.3l-92.4-8.9
		c-210.1-20.9-712.2-55.1-724.1-50.7c-7.4,1.5,43.2,81.9,111.7,177.3l125.1,171.3l882,236.9c485.7,129.6,895.4,239.9,908.8,244.3
		c20.9,7.4,11.9,38.7-73,235.4c-55.1,131.1-104.3,223.5-113.2,220.5c-10.4-3-271.2-53.6-581-113.2l-563.2-108.8l-62.6,62.6
		c-35.8,34.3-71.5,62.6-81.9,62.6s-19.4,1.5-19.4,4.5c-1.5,1.5-10.4,269.7-19.4,594.5s-19.4,594.5-23.8,597.4
		c-11.9,11.9-496.1,70-505.1,61.1c-4.5-4.5-23.8-420.1-40.2-922.2l-31.3-914.8l-123.7-153.5c-67-84.9-126.6-153.5-131.1-153.5
		s-37.2,175.8-71.5,391.8c-34.3,216-65.6,394.8-68.5,397.8c-11.9,11.9-563.2,160.9-570.6,153.5c-11.9-11.9,86.4-1688,98.3-1692.5
		c7.5-3-34.3-64.1-92.4-135.6c-80.5-101.3-117.7-135.6-159.4-147.5c-41.7-13.4-58.1-13.4-71.5,1.5c-8.9,8.9-95.4,110.2-192.2,223.5
		l-174.3,204.1l-99.8-87.9c-53.6-49.2-205.6-186.2-336.7-303.9c-131.1-119.2-239.9-216-239.9-214.5c-3,3,295,1378.1,314.4,1451.1
		c4.5,17.9,32.8,47.7,62.6,65.6c345.6,208.6,563.2,683.8,511,1112.9c-20.9,157.9-61.1,283.1-128.1,393.3l-50.7,83.4l65.6,274.1
		c35.8,149,67,260.7,70,245.8c4.5-20.9,251.8,150.5,1153.2,801.5c631.7,455.9,1153.2,834.3,1159.1,840.3
		c7.4,7.4-162.4,150.5-375.4,318.8l-387.4,306.9l-590-336.7c-324.8-183.3-594.5-332.2-597.4-327.8c-4.5,4.5,19.4,147.5,53.6,318.8
		l62.6,311.4l1184.4,1020.6l1183,1019.1l-242.8,235.4c-134.1,129.6-272.6,260.7-309.9,292l-67,56.6l-788.1-578.1
		c-433.6-318.8-797.1-579.6-807.5-579.6s-77.5,13.4-147.5,29.8c-70,16.4-143,29.8-162.4,29.8c-31.3,0-87.9,98.3-502.1,871.6
		c-306.9,570.6-475.3,871.6-490.2,870.1C13459.3,24000,13285,23943.4,13083.8,23874.8z"/>
</g>
</svg>
