<?xml version="1.0" encoding="utf-8"?>
<!-- Generator: Adobe Illustrator 30.0.0, SVG Export Plug-In . SVG Version: 9.03 Build 0)  -->
<svg version="1.0" id="Layer_1" xmlns="http://www.w3.org/2000/svg" xmlns:xlink="http://www.w3.org/1999/xlink" x="0px" y="0px"
	 viewBox="0 0 2400 2400" style="enable-background:new 0 0 2400 2400;" xml:space="preserve">
<g transform="translate(0.000000,2400.000000) scale(0.100000,-0.100000)">
	<path d="M11779.8,23990.4c-443.2-80-820.3-435.5-929.6-877.2c-29.2-121.6-26.2-429.4,7.7-554c63.1-235.5,227.8-467.9,432.5-607.9
		c55.4-40,83.1-67.7,78.5-83.1c-4.6-13.9-10.8-257-16.9-540.2c-4.6-283.2-12.3-547.9-16.9-586.4l-9.2-70.8l-106.2,20
		c-423.2,80-709.5,175.4-1068.1,352.4c-320.1,157-404.8,187.8-454,161.6c-36.9-20-38.5-55.4-7.7-195.5
		c66.2-314,215.5-575.6,472.5-831.1c300.1-297,658.7-523.3,1026.5-643.3l81.6-26.2l-9.2-149.3c-4.6-81.6-13.9-270.9-18.5-420.1
		c-7.7-201.6-15.4-273.9-29.2-273.9c-40,0-410.9,80-603.3,130.8c-381.7,100-798.7,253.9-1320.5,484.8
		c-358.6,158.5-387.8,167.8-403.2,129.3c-15.4-41.6,20-290.9,64.6-444.8c50.8-175.4,166.2-418.6,272.4-572.5
		c44.6-66.2,150.8-192.4,235.5-280.1c406.3-420.1,1011.1-801.8,1566.7-985c90.8-30.8,103.1-38.5,103.1-73.9
		c0-81.6-33.9-874.2-36.9-878.8c-9.2-7.7-443.2,123.1-595.6,180.1c-166.2,61.6-292.4,120-509.4,237
		c-157,84.6-244.7,110.8-290.9,86.2c-29.2-15.4-32.3-24.6-21.5-110.8c35.4-315.5,249.3-701.8,517.1-934.2
		c267.8-232.4,434-344.7,698.7-470.9c177-86.2,178.5-86.2,170.8-135.4c-4.6-26.2-20-297-32.3-601.8c-13.9-304.7-30.8-578.7-35.4-611
		l-10.8-55.4l-584.8,301.6l-584.8,300.1v355.5c0,306.3-4.6,381.7-35.4,540.2c-83.1,432.5-213.9,689.5-477.1,932.6
		c-232.4,215.5-258.6,193.9-281.6-210.8c-15.4-294-53.9-529.4-138.5-852.6c-33.9-130.8-63.1-238.5-66.2-241.6
		c-1.5-1.5-178.5,86.2-392.4,198.5l-389.4,201.6l9.2,55.4c61.6,352.4,63.1,364.7,61.6,824.9c0,401.7-4.6,490.9-33.9,684.9
		c-93.9,603.3-269.3,988-598.7,1318.9c-115.4,117-273.9,235.5-314,235.5c-67.7,0-95.4-109.3-152.4-615.6
		c-75.4-671-181.6-1158.9-355.5-1649.8l-47.7-133.9l-372.4,186.2c-203.1,101.6-372.4,186.2-374,187.8s10.8,81.6,27.7,178.5
		c27.7,150.8,30.8,221.6,24.6,484.8c-9.2,361.7-50.8,591-149.3,844.9c-100,255.5-321.7,560.2-490.9,678.7
		c-56.9,38.5-67.7,41.6-86.2,21.5c-15.4-15.4-46.2-180.1-93.9-490.9c-38.5-258.6-83.1-537.1-100-618.7
		c-27.7-141.6-140-527.9-157-544.8c-3.1-4.6-249.3,113.9-546.3,261.6l-538.7,269.3l-10.8,104.7c-16.9,170.8-50.8,297-118.5,435.5
		c-86.2,178.5-284.7,378.6-469.4,474c-243.2,126.2-497.1,157-754.1,95.4c-250.9-60-438.6-170.8-621.8-366.3
		c-243.2-258.6-349.4-535.6-330.9-857.2c9.2-186.2,38.5-298.6,117-461.7c110.8-229.3,289.3-401.7,546.3-531
		c161.6-80,277-109.3,447.9-109.3c164.7-1.5,290.9,27.7,455.5,104.7l120,55.4l494-329.3c272.4-181.6,501.7-334,511-340.1
		c20-12.3-109.3-163.1-335.5-389.4c-217-218.5-358.6-332.4-603.3-486.3c-341.7-215.5-381.7-281.6-212.4-349.4
		c223.2-90.8,541.7-118.5,792.6-70.8c300.1,56.9,760.3,263.2,1114.2,501.7c117,78.5,221.6,149.3,232.4,157
		c12.3,9.2,127.7-63.1,350.9-220.1c183.1-129.3,334-240.1,334-246.2c0-6.2-56.9-80-126.2-164.7
		c-270.9-329.3-564.8-586.4-1314.3-1148.1c-193.9-146.2-343.2-269.3-347.8-286.3c-15.4-53.9,29.2-90.8,167.8-141.6
		c529.4-190.8,1023.4-172.4,1614.4,60c463.2,183.1,952.6,475.6,1255.8,754.1l89.3,81.6l384.8-235.5
		c210.8-127.7,384.8-243.2,384.8-253.9c0-26.2-330.9-340.1-517.1-489.4c-86.2-67.7-230.9-169.3-323.2-224.7
		c-184.7-110.8-283.2-195.5-283.2-241.6c0-36.9,92.3-81.6,273.9-130.8c97-26.2,161.6-32.3,349.4-32.3c210.8,0,247.8,4.6,415.5,49.2
		c307.8,81.6,591,203.1,872.6,374l150.8,89.3l554-349.4c303.2-193.9,551-357,549.4-363.2c-1.5-7.7-252.4-170.8-557.1-364.7
		l-552.5-350.9l-55.4,43.1c-141.6,112.3-401.7,257-627.9,347.8c-467.9,189.3-861.8,210.8-1218.9,64.6
		c-135.4-55.4-153.9-67.7-153.9-104.7c0-36.9,101.6-123.1,220.1-184.7c257-135.4,504.8-327.8,768-594.1l149.3-152.4l-378.6-246.2
		c-207.8-135.4-383.2-247.8-390.9-250.9s-70.8,46.2-140,107.7c-350.9,310.9-735.6,544.8-1188.1,721.8
		c-372.4,144.7-629.5,190.8-991.1,178.5c-260.1-9.2-449.4-44.6-658.7-127.7c-117-46.2-140-60-161.6-100
		c-23.1-44.6,35.4-97,352.4-318.6c475.6-334,860.3-654.1,1100.4-917.2c157-172.4,334-386.3,334-403.2c0-7.7-150.8-110.8-335.5-230.9
		l-334-217l-53.9,41.6c-120,93.9-372.4,247.8-546.3,335.5c-609.4,303.2-1020.4,364.7-1479,217c-78.5-24.6-149.3-55.4-160.1-67.7
		c-50.8-60,26.2-141.6,277-292.4c207.8-126.2,352.4-238.5,544.8-423.2c213.9-206.2,429.4-447.9,414-463.2
		c-6.2-6.2-235.5-153.9-507.9-326.3l-497.1-314l-126.2,50.8c-324.7,129.3-617.1,130.8-884.9,6.2c-289.3-133.9-494-349.4-598.7-631
		c-257-686.4,140-1437.4,855.7-1617.5c177-44.6,420.1-36.9,574,21.5c283.2,104.7,558.7,341.7,681.8,583.3
		c46.2,90.8,93.9,267.8,106.2,397.1l9.2,101.6l541.7,287.8l541.7,286.3l35.4-103.1c80-233.9,130.8-470.9,210.8-1001.9
		c47.7-309.3,89.3-566.4,93.9-574c15.4-24.6,41.6-12.3,138.5,64.6c401.7,320.1,606.4,838.8,606.4,1532.9
		c0,197-27.7,477.1-55.4,563.3c-6.2,21.5,61.6,61.6,361.7,212.4c204.7,101.6,374,184.7,377.1,184.7c10.8,0,90.8-217,147.7-392.4
		c113.9-357,198.5-804.9,269.3-1408.2c21.5-181.6,46.2-370.9,55.4-418.6c20-98.5,61.6-155.4,103.1-140
		c101.6,36.9,337,252.4,470.9,430.9c341.7,455.5,486.3,1052.7,466.3,1928.4c-4.6,218.5-18.5,432.5-30.8,507.9
		c-12.3,72.3-27.7,158.5-33.9,192.4l-9.2,61.6l377.1,197c207.8,107.7,384.8,195.5,392.4,195.5c16.9,0,46.2-97,107.7-357
		c69.3-289.3,92.3-457.1,107.7-752.6c16.9-334,38.5-389.4,129.3-341.7c67.7,33.9,273.9,244.7,347.8,355.5
		c137,204.7,227.8,443.2,287.8,757.2c20,110.8,27.7,233.9,29.2,507.9l3.1,361.7l581.7,281.6c318.6,155.4,584.8,278.6,587.9,273.9
		c7.7-6.2,50.8-741.8,69.3-1163.5l4.6-115.4l-130.8-67.7c-300.1-153.9-627.9-397.1-844.9-626.4c-209.3-220.1-337-464.8-397.1-749.5
		c-32.3-163.1-23.1-187.8,69.3-186.2c46.2,0,138.5,38.5,360.1,149.3c163.1,81.6,377.1,175.4,474,207.8
		c210.8,70.8,489.4,149.3,498.6,140c12.3-12.3,41.6-864.9,29.2-874.2c-6.2-6.2-81.6-38.5-166.2-70.8
		c-631-244.7-1363.6-757.2-1679.1-1175.8c-101.6-135.4-209.3-327.8-267.8-478.6c-50.8-132.4-106.2-380.1-118.5-520.2l-9.2-126.2h40
		c21.5,0,198.5,69.3,390.9,155.4c421.7,186.2,948,397.1,1128.1,450.9c175.4,52.3,434,109.3,629.5,138.5
		c89.3,13.9,163.1,21.5,164.7,20c9.2-12.3,33.9-804.9,24.6-812.6c-6.2-6.2-58.5-29.2-118.5-52.3
		c-447.9-175.4-935.7-531-1180.4-860.3c-117-157-203.1-338.6-250.9-524.8c-43.1-166.2-47.7-238.5-20-266.2
		c49.2-49.2,209.3-4.6,423.2,117c167.8,95.4,369.4,181.6,594.1,255.5c246.2,81.6,607.9,172.4,623.3,157
		c6.2-6.2,18.5-280.1,27.7-606.4l15.4-595.6l-38.5-30.8c-173.9-141.6-227.8-192.4-289.3-273.9c-86.2-115.4-150.8-253.9-184.7-392.4
		c-35.4-146.2-35.4-455.5,1.5-587.9c100-367.8,374-649.5,755.7-778.7c104.7-35.4,155.4-43.1,338.6-47.7
		c267.8-9.2,392.4,13.9,584.8,109.3c474,235.5,707.9,700.2,617.1,1223.5c-55.4,312.4-223.2,569.4-486.3,741.8l-36.9,24.6l32.3,603.3
		c18.5,332.4,36.9,607.9,40,612.5c24.6,23.1,587.9-135.4,841.8-237c97-38.5,283.2-124.7,412.5-192.4
		c201.6-104.7,244.7-121.6,300.1-117c61.6,4.6,64.6,7.7,69.3,56.9c7.7,77-50.8,312.4-109.3,447.9
		c-193.9,444.8-695.6,880.3-1325.1,1148.1c-144.7,63.1-155.4,69.3-153.9,109.3c6.2,146.2,58.5,752.6,66.2,761.8
		c13.9,13.9,343.2-41.6,555.6-95.4c300.1-75.4,683.3-221.6,1332.8-509.4c190.8-83.1,361.7-152.4,381.7-152.4
		c60,0,75.4,35.4,64.6,143.1c-30.8,310.9-187.8,683.3-407.8,975.7c-314,415.5-1020.4,914.2-1660.6,1171.2
		c-104.7,43.1-193.9,80-197,84.6c-7.7,7.7,24.6,861.8,32.3,871.1c10.8,10.8,175.4-35.4,450.9-124.7
		c204.7-67.7,358.6-130.8,561.7-232.4c324.7-160.1,400.1-178.5,407.8-92.3c6.2,67.7-49.2,290.9-106.2,429.4
		c-153.9,369.4-577.1,778.7-1114.2,1077.3c-130.8,73.9-130.8,73.9-130.8,135.4c0,107.7,61.6,1214.3,67.7,1220.4
		c3.1,3.1,260.1-121.6,572.5-277l566.4-283.2l1.5-360.1c3.1-398.6,27.7-584.8,115.4-848c87.7-263.2,244.7-510.9,427.8-674.1
		c210.8-190.8,264.7-152.4,264.7,184.7c0,321.7,46.2,651,141.6,997.3c24.6,93.9,52.3,172.4,60,172.4c12.3,0,783.4-380.1,797.2-394
		c3.1-3.1-9.2-100-26.2-217c-47.7-317-50.8-361.7-50.8-700.2c0-901.9,155.4-1440.5,543.3-1893c95.4-109.3,315.5-295.5,367.8-309.3
		c73.9-20,101.6,64.6,143.1,423.2c73.9,627.9,141.6,1028.1,230.9,1352.8c50.8,186.2,166.2,524.8,192.4,564.8
		c9.2,15.4,100-23.1,386.3-166.2c338.6-169.3,370.9-189.3,364.7-220.1c-27.7-110.8-44.6-427.8-36.9-634.1
		c30.8-715.6,218.5-1177.3,597.1-1460.5c155.4-117,177-77,198.5,364.7c18.5,380.1,93.9,749.5,241.6,1175.8l27.7,80l541.7-286.3
		l541.7-287.8l9.2-100c13.9-143.1,63.1-315.5,120-424.8c104.7-198.5,409.4-443.2,698.7-558.7c95.4-36.9,123.1-40,320.1-40
		c204.7,0,221.6,1.5,343.2,47.7c178.5,67.7,300.1,146.2,435.5,281.6c269.3,264.7,397.1,581.7,378.6,938.8
		c-18.5,372.4-193.9,692.6-489.4,892.6c-330.9,226.2-680.2,260.1-1045,103.1l-120-52.3l-524.8,321.7l-524.8,323.2l49.2,63.1
		c90.8,118.5,526.3,543.3,651,637.1c67.7,49.2,189.3,130.8,269.3,180.1c252.4,155.4,326.3,233.9,277,294
		c-26.2,30.8-272.4,107.7-420.1,130.8c-153.9,24.6-406.3,10.8-577.1-30.8c-337-81.6-780.3-297-1072.7-523.3
		c-67.7-50.8-127.7-92.3-135.4-92.3c-23.1,0-703.3,421.7-703.3,435.5c0,29.2,203.2,261.6,407.8,466.3
		c237,238.5,544.8,490.9,969.6,791c369.4,263.2,426.3,312.4,420.1,375.5c-4.6,40-16.9,53.9-76.9,81.6
		c-95.4,46.2-312.4,107.7-481.7,138.5c-206.2,35.4-606.4,20-823.4-32.3c-578.7-137-1162-441.7-1612.9-840.3
		c-78.5-69.3-147.7-123.1-155.4-120c-6.2,3.1-183.1,115.4-392.4,250.9l-378.6,246.2l204.7,201.6
		c232.4,229.3,446.3,395.5,664.9,515.6c183.1,101.6,272.4,175.4,266.2,220.1c-6.2,38.5-130.8,101.6-294,149.3
		c-158.5,46.2-438.6,55.4-617.1,21.5c-344.7-64.6-828-280.1-1086.5-484.8l-55.4-43.1l-552.5,350.9
		c-304.7,193.9-555.6,357-557.1,364.7c-1.5,6.2,246.2,169.3,549.4,363.2l554,349.4l149.3-89.3c283.2-170.8,566.4-292.4,874.2-374
		c167.8-44.6,204.7-49.2,415.5-49.2c244.7,0,367.8,21.5,544.8,98.5c61.6,26.2,78.5,40,78.5,67.7c0,47.7-92.3,126.2-269.3,230.9
		c-75.4,44.6-187.8,118.5-249.3,164.7c-210.8,157-604.8,523.3-604.8,563.3c0,7.7,173.9,118.5,384.8,247.8l386.3,233.9l87.7-80
		c364.7-335.5,1043.4-707.9,1549.8-851.1c464.8-130.8,892.6-123.1,1311.2,23.1c153.9,53.9,189.3,80,189.3,133.9
		c0,52.3-43.1,87.7-592.5,506.3c-577.1,440.2-663.3,511-863.4,715.6c-161.6,163.1-344.7,377.1-344.7,398.6
		c0,12.3,681.8,475.6,700.2,475.6c4.6,0,63.1-41.6,129.3-92.3c350.9-267.8,828-498.6,1186.6-572.5c263.2-55.4,597.1-23.1,835.7,78.5
		c135.4,58.5,84.6,135.4-220.1,326.3c-314,195.5-544.8,394-815.7,698.7c-86.2,98.5-155.4,180.1-152.4,183.1s240.1,157,526.3,340.1
		l520.2,335.5l133.9-63.1c169.3-78.5,253.9-98.5,418.6-97c161.6,0,278.6,29.2,438.6,109.3c260.1,129.3,435.5,300.1,546.3,531
		c155.4,321.7,163.1,667.9,21.5,974.2c-204.7,446.3-638.7,741.8-1091.2,741.8c-163.1,0-294-32.3-461.7-113.9
		c-404.8-197-604.8-481.7-646.4-921.9l-10.8-104.7l-538.7-269.3c-297-147.7-541.7-266.2-544.8-263.2
		c-12.3,12.3-130.8,386.3-166.2,527.9c-67.7,267.8-87.7,407.8-101.6,706.4c-24.6,500.2-50.8,527.9-281.6,295.5
		c-241.6-243.2-377.1-507.9-450.9-872.6c-77-384.8-87.7-834.1-27.7-1162l7.7-46.2l-377.1-187.8l-377.1-187.8l-92.3,280.1
		c-169.3,517.1-223.2,797.2-340.1,1749.9c-33.9,267.8-61.6,358.6-117,366.3c-69.3,9.2-340.1-229.3-495.6-440.2
		c-300.1-406.3-435.5-948-435.5-1757.5c0-314,15.4-512.5,56.9-746.4c10.8-67.7,21.5-135.4,21.5-149.3c0-20-104.7-80-401.7-229.3
		c-221.6-109.3-404.8-198.5-407.8-195.5c-1.5,3.1-29.2,98.5-58.5,212.4c-83.1,315.5-117,543.3-129.3,872.6
		c-10.8,255.5-16.9,300.1-41.6,327.8c-15.4,16.9-38.5,30.8-52.3,30.8c-73.9,0-307.8-215.5-424.8-392.4
		c-210.8-317-310.9-754.1-295.5-1300.5l6.2-270.9l-571-301.6c-314-166.2-572.5-301.6-574-298.6c-6.2,4.6-66.2,1171.2-66.2,1255.8
		l1.5,69.3l133.9,64.6c324.7,153.9,724.9,469.4,914.2,718.7c160.1,210.8,304.7,567.9,304.7,749.5c0,104.7-47.7,95.4-415.5-84.6
		c-277-137-497.1-221.6-784.9-301.6c-97-26.2-187.8-50.8-201.6-55.4c-21.5-6.2-26.2,23.1-35.4,250.9
		c-4.6,143.1-13.9,349.4-18.5,460.2l-10.8,203.1l106.2,33.9c303.2,100,611,252.4,914.2,452.5c566.4,372.4,929.6,766.4,1117.3,1211.2
		c104.7,249.3,170.8,571,127.7,623.3c-29.2,35.4-72.3,23.1-420.1-130.8c-664.9-295.5-1128.1-455.5-1651.4-569.4
		c-120-26.2-227.8-47.7-238.5-47.7c-16.9,0-27.7,80-49.2,366.3c-13.9,200.1-30.8,389.4-35.4,420.2l-7.7,55.4l120,41.6
		c574,201.6,1100.4,632.5,1329.7,1086.5c73.9,146.2,133.9,338.6,147.7,466.3c7.7,83.1,6.2,100-15.4,107.7
		c-40,15.4-192.4-41.6-375.5-143.1c-277-152.4-577.1-258.6-972.7-343.2c-289.3-63.1-258.6-69.3-267.8,56.9
		c-15.4,187.8-55.4,938.8-55.4,1034.2l1.5,90.8l77,52.3c121.6,83.1,278.6,261.6,341.7,389.4c167.8,341.7,153.9,752.6-38.5,1081.9
		c-78.5,135.4-294,349.4-427.8,427.8c-169.3,97-315.5,137-538.7,143.1C11946,24001.2,11824.4,23998.1,11779.8,23990.4z"/>
</g>
</svg>
