<?xml version="1.0" encoding="utf-8"?>
<!-- Generator: Adobe Illustrator 30.0.0, SVG Export Plug-In . SVG Version: 9.03 Build 0)  -->
<svg version="1.0" id="Layer_1" xmlns="http://www.w3.org/2000/svg" xmlns:xlink="http://www.w3.org/1999/xlink" x="0px" y="0px"
	 viewBox="0 0 2400 2400" style="enable-background:new 0 0 2400 2400;" xml:space="preserve">
<g transform="translate(0.000000,2400.000000) scale(0.100000,-0.100000)">
	<path d="M6923.3,23704.5c-119.6-30.9-284.1-105.5-379.8-170.2c-156.1-106.9-299.6-274.3-320.7-374.2
		c-14.1-70.3,11.3-132.2,109.7-261.6c50.6-66.1,136.4-195.5,191.3-288.4c54.9-92.8,121-196.9,149.1-233.5
		c26.7-35.2,49.2-67.5,49.2-71.7c0-4.2-42.2-63.3-94.2-130.8c-105.5-137.8-189.9-306.6-222.2-440.3c-26.7-113.9-26.7-341.8,0-465.6
		c123.8-588,714.6-967.7,1341.9-863.7c80.2,14.1,146.3,22.5,147.7,19.7c0-2.8,19.7-40.8,40.8-85.8c21.1-43.6,95.6-170.2,166-281.3
		l126.6-199.7l-53.5-9.8c-99.9-18.3-482.5-11.3-635.8,9.8c-296.8,43.6-649.9,143.5-1133.7,322.1c-184.3,67.5-288.4,35.2-288.4-88.6
		c0-204,205.4-561.2,469.8-813c192.7-187.1,239.1-199.7,586.6-174.4c420.6,32.4,775,101.3,1081.7,212.4
		c88.6,32.4,175.8,61.9,192.7,66.1c28.1,7,47.8-25.3,206.8-346c97.1-194.1,177.2-357.3,177.2-364.3c0-15.5-178.6-78.8-337.6-122.4
		c-209.6-54.9-402.3-77.4-682.2-77.4c-391,0-707.5,32.4-1280,129.4c-379.8,63.3-461.4,64.7-564.1,4.2
		c-63.3-36.6-118.2-126.6-118.2-192.7c0-112.5,128-371.3,263-528.9c149.1-174.4,360.1-310.9,540.1-348.8
		c118.2-23.9,175.8-16.9,645.6,87.2c676.6,149.1,1301.1,343.2,1766.7,548.6c9.8,4.2,137.8-263,320.7-663.9
		c167.4-368.5,302.4-671,301-673.8c-398.1-264.4-713.2-526.1-1039.5-859.4c-157.5-163.2-178.6-189.9-201.1-264.4
		c-21.1-64.7-23.9-108.3-18.3-198.3l8.4-116.7l-57.7-8.4c-30.9-5.6-106.9-28.1-168.8-52c-143.5-56.3-201.1-111.1-337.6-329.1
		c-220.8-350.2-364.3-640-475.4-960.7c-53.5-153.3-63.3-170.2-90-164.6c-15.5,2.8-85.8,15.5-156.1,28.1
		c-68.9,12.7-334.8,63.3-590.8,112.5c-254.6,50.6-512,98.5-569.7,109.7c-90,15.5-105.5,21.1-104.1,45c1.4,15.5,21.1,164.6,45,330.6
		c78.8,550,94.2,739.9,92.8,1223.8c0,495.1-19.7,786.3-61.9,907.3c-33.8,97.1-130.8,236.3-220.8,316.5
		c-215.2,191.3-482.5,299.6-742.7,301c-188.5,1.4-254.6-54.9-251.8-216.6c2.8-98.5,11.3-125.2,206.8-604.8
		c180-445.9,309.5-884.8,377-1280c30.9-188.5,52-665.3,35.2-804.6l-9.8-76l-164.6,43.6c-90,25.3-268.7,71.7-395.3,105.5l-229.3,60.5
		l8.4,64.7c59.1,416.4,43.6,824.3-49.2,1337.7c-36.6,204-61.9,261.6-163.2,367.1c-213.8,225.1-531.7,369.9-848.2,386.8
		c-150.5,8.4-213.8-12.7-253.2-81.6c-33.8-61.9,0-146.3,153.3-382.6c388.2-593.6,579.5-1036.7,627.3-1446c7-61.9,4.2-81.6-8.4-81.6
		c-9.8,0-154.7,39.4-323.5,87.2l-303.8,85.8l-8.4,121c-22.5,312.3-164.6,631.6-371.3,834.1c-139.3,137.8-275.7,213.8-474,264.4
		c-405.1,102.7-746.9-2.8-1064.8-332c-59.1-61.9-116.7-128-130.8-149.1l-23.9-36.6l-206.8,84.4c-113.9,46.4-279.9,118.2-368.5,160.4
		c-90,40.8-191.3,80.2-226.5,84.4c-185.7,25.3-341.8-118.2-465.6-430.4c-53.5-135-59.1-161.8-64.7-308
		c-9.8-236.3,32.4-386.8,139.3-490.9c61.9-60.5,99.9-68.9,350.2-78.8c199.7-8.4,573.9-43.6,616.1-57.7c8.4-2.8,16.9-25.3,16.9-47.8
		c0-57.7,63.3-271.5,106.9-357.3c106.9-213.8,263-362.9,490.9-474c195.5-95.6,289.8-118.2,485.3-118.2c129.4,0,182.9,5.6,267.3,32.4
		c310.9,95.6,595,327.7,753.9,616.1c29.5,53.5,53.5,97.1,56.3,99.9c2.8,5.6,628.8-83,637.2-90c8.4-8.4-95.6-182.9-161.8-271.5
		c-199.7-265.8-609.1-592.2-1073.2-853.8c-260.2-147.7-330.6-237.7-274.3-353.1c33.8-68.9,160.4-133.6,329.1-168.8
		c164.6-33.8,557-33.8,693.5,0c136.4,33.8,249,95.6,320.7,175.8c163.2,182.9,506.4,810.2,645.6,1181.6
		c54.9,146.3,81.6,198.3,95.6,192.7c46.4-18.3,246.2-63.3,368.5-84.4c164.6-28.1,368.5-77.4,385.4-92.8
		c29.5-26.7-168.8-450.1-319.3-678c-253.2-386.8-602-768-1081.7-1180.1c-279.9-241.9-344.6-336.2-332-486.7
		c7-71.7,12.7-84.4,67.5-132.2c146.3-130.8,555.6-177.2,842.6-95.6c167.4,47.8,253.2,94.2,353.1,195.5
		c78.8,78.8,112.5,132.2,234.9,367.1c177.2,340.4,296.8,599.2,431.8,939.6c95.6,239.1,278.5,765.2,317.9,914.3
		c9.8,38,22.5,59.1,38,59.1c38,0,873.5-220.8,1122.5-296.8c132.2-39.4,250.4-76,265.8-80.2c22.5-5.6,23.9-15.5,16.9-71.7
		c-60.5-431.8-39.4-891.8,61.9-1389.7c33.8-160.4,52-194.1,180-317.9l97.1-92.8l-46.4-116.7c-59.1-144.9-61.9-230.7-12.7-409.3
		c128-460,294-844,493.7-1142.2c87.2-132.2,88.6-136.4,63.3-158.9c-46.4-40.8-1002.9-866.5-1053.6-908.7l-49.2-42.2l-26.7,35.2
		c-302.4,379.8-675.2,716-1382.7,1247.7c-450.1,337.6-544.4,379.8-822.9,364.3c-239.1-12.7-445.9-101.3-627.3-268.7
		c-180-163.2-225.1-316.5-130.8-436c46.4-59.1,151.9-104.1,382.6-163.2c907.3-232.1,1623.2-579.5,2070.5-1004.3l112.5-106.9
		l-42.2-35.2c-22.5-19.7-123.8-92.8-225.1-160.4c-99.9-68.9-233.5-163.2-294-209.6l-111.1-85.8l-149.1,142.1
		c-379.8,361.5-708.9,597.8-1063.4,766.6c-97.1,46.4-118.2,50.6-222.2,49.2c-241.9-2.8-495.1-105.5-742.7-303.8
		c-209.6-167.4-270.1-271.5-218-371.3c33.8-66.1,91.4-88.6,267.3-102.7c538.7-45,974.8-135,1299.7-267.3
		c130.8-53.5,298.2-142.1,367.1-194.1l33.8-26.7l-272.9-181.5l-274.3-182.9l-76,54.9c-109.7,80.2-274.3,160.4-417.8,204
		c-108.3,32.4-149.1,36.6-327.7,38c-194.1,1.4-209.6-1.4-327.7-42.2c-289.8-104.1-517.6-303.8-642.8-561.2
		c-81.6-170.2-104.1-278.5-102.7-485.3c0-128,8.4-206.8,29.5-288.4c15.5-61.9,28.1-112.5,26.7-113.9c-1.4,0-109.7-57.7-241.9-128
		c-336.2-178.6-474-263-524.7-319.3c-97.1-111.1-87.2-313.7,28.1-543c47.8-97.1,85.8-144.9,194.1-254.6
		c108.3-108.3,156.1-144.9,251.8-192.7c99.9-50.6,130.8-59.1,204-59.1c54.9,0,102.7,8.4,132.2,25.3c50.6,26.7,332,322.1,492.3,516.2
		c57.7,70.3,106.9,129.4,109.7,132.2c2.8,2.8,12.7-1.4,22.5-8.4c9.8-8.4,64.7-35.2,122.4-59.1c326.3-137.8,672.4-149.1,928.4-29.5
		c204,95.6,451.5,329.1,540.1,509.2c83,168.8,101.3,257.4,99.9,489.5c0,227.9-15.5,306.6-99.9,502.2
		c-26.7,64.7-46.4,122.4-43.6,129.4c5.6,19.7,461.4,437.5,475.4,437.5c21.1,0,95.6-213.8,126.6-360.1c21.1-98.5,32.4-213.8,38-392.4
		c8.4-286.9-7-523.3-61.9-914.3c-22.5-168.8-32.4-286.9-26.7-320.7c23.9-130.8,119.6-142.1,319.3-43.6
		c112.5,56.3,151.9,85.8,265.8,201.1c230.7,233.5,374.2,476.8,389.6,656.9c7,92.8,4.2,106.9-87.2,357.3
		c-229.3,633-327.7,851-479.7,1073.2c-42.2,60.5-76,115.3-76,122.4c0,22.5,160.4,157.5,301,253.2c80.2,53.5,187.1,136.4,237.7,184.3
		l94.2,84.4l56.3-88.6c90-137.8,216.6-410.7,272.9-580.9c121-371.3,191.3-828.5,240.5-1547.3c11.3-170.2,26.7-336.2,35.2-369.9
		c35.2-146.3,125.2-258.8,219.4-278.5c104.1-21.1,268.7,71.7,443.1,249c91.4,91.4,122.4,136.4,181.5,256
		c83,170.2,112.5,285.5,112.5,440.3c0,136.4-16.9,196.9-128,458.6c-239.1,559.8-509.2,1055-860.8,1578.2l-147.7,219.4l240.5,194.1
		c226.5,182.9,617.5,478.2,827.1,624.5l92.8,66.1l83-85.8c99.9-101.3,320.7-284.1,483.9-399.5c249-177.2,637.2-405.1,742.7-436
		c70.3-21.1,216.6-25.3,309.5-7l60.5,11.3l29.5-57.7c45-90,121-182.9,192.7-237.7c106.9-81.6,578.1-244.8,936.8-324.9
		c168.8-38,441.7-78.8,526.1-78.8h53.5l9.8-136.4c5.6-76,15.5-375.6,22.5-665.3c7-289.8,16.9-566.9,22.5-616.1l9.8-87.2h-66.1
		c-105.5,0-600.6-53.5-845.4-91.4c-533.1-84.4-1337.7-270.1-1493.8-344.6c-296.8-144.9-514.8-628.8-458.6-1018.4
		c32.4-232.1,137.8-312.3,332-256c81.6,23.9,187.1,91.4,502.2,319.3c467,339,959.3,600.6,1394,741.3
		c173,56.3,492.3,129.4,566.9,129.4h36.6v-406.5v-407.9l-66.1-8.4c-371.3-50.6-768-156.1-1305.3-346
		c-149.1-53.5-177.2-68.9-239.1-130.8c-116.7-116.7-220.8-350.2-260.2-585.1c-11.3-57.7-19.7-181.5-19.7-274.3
		c0-271.5,50.6-386.8,170.2-386.8c26.7,0,61.9,7,78.8,16.9c16.9,8.4,128,109.7,247.6,226.5c407.9,396.7,753.9,679.4,967.7,793.3
		c98.5,52,257.4,112.5,357.3,136.4l35.2,7l-11.3-94.2c-5.6-52-16.9-198.3-23.9-324.9c-7-126.6-19.7-236.3-26.7-243.3
		c-7-7-50.6-22.5-95.6-33.8c-268.7-70.3-565.5-275.7-724.4-502.2c-136.4-195.5-189.9-388.2-177.2-641.4
		c14.1-284.1,108.3-482.5,332-704.7c95.6-94.2,173-156.1,261.6-206.8c70.3-40.8,135-78.8,144.9-84.4c12.7-8.4,14.1-30.9,2.8-95.6
		c-7-46.4-23.9-188.5-35.2-316.5c-12.7-128-32.4-281.3-42.2-340.4c-23.9-143.5-8.4-206.8,71.7-286.9
		c126.6-128,291.2-178.6,568.3-178.6c215.2,0,320.7,21.1,454.3,92.8c154.7,81.6,222.2,198.3,194.1,337.6
		c-8.4,40.8-28.1,185.7-43.6,323.5c-23.9,216.6-50.6,362.9-78.8,437.5c-5.6,14.1,22.5,35.2,90,70.3
		c234.9,125.2,481.1,357.3,585.1,555.6c147.7,281.3,144.9,637.2-8.4,934c-46.4,91.4-87.2,143.5-201.1,256
		c-85.8,84.4-180,163.2-239.1,198.3c-104.1,60.5-284.1,136.4-381.2,160.4c-32.4,8.4-63.3,23.9-67.5,36.6
		c-15.5,39.4-49.2,360.1-53.5,505l-4.2,140.7l42.2-4.2c68.9-8.4,277.1-91.4,391-157.5c213.8-122.4,537.3-389.6,917.1-759.6
		c116.7-113.9,226.5-216.6,246.2-229.3c18.3-12.7,60.5-23.9,92.8-23.9c104.1,0,151.9,85.8,168.8,302.4
		c25.3,324.9-98.5,751.1-271.5,936.8c-52,56.3-91.4,78.8-233.5,139.3c-447.3,189.9-898.8,310.9-1278.6,344.6l-109.7,9.8v406.5v406.5
		h40.8c87.2,0,354.5-60.5,550-126.6c465.6-153.3,950.9-417.8,1547.3-844c277.1-196.9,339-229.3,460-230.7
		c106.9-1.4,150.5,26.7,201.1,126.6c32.4,63.3,35.2,83,33.8,265.8c0,220.8-18.3,310.9-98.5,482.5c-90,196.9-212.4,337.6-354.5,409.3
		c-142.1,71.7-914.3,251.8-1451.6,339c-234.9,38-603.4,80.2-800.4,92.8l-160.4,9.8l9.8,367.1c8.4,336.2,21.1,588,45,976.2
		c5.6,87.2,15.5,147.7,25.3,150.5c8.4,1.4,104.1,14.1,212.4,26.7c323.5,38,689.2,132.2,1071.8,278.5
		c168.8,64.7,194.1,77.4,264.4,149.1c43.6,43.6,99.9,121,129.4,178.6l52,101.3l77.4-19.7c50.6-14.1,121-19.7,199.7-15.5
		c118.2,5.6,126.6,8.4,267.3,87.2c351.7,195.5,720.2,464.2,969.2,706.1l133.6,129.4l232.1-154.7
		c275.7-184.3,596.4-423.4,804.6-600.6l150.5-128L16733,8298c-249-351.7-413.5-634.4-656.9-1128.1
		c-98.5-201.1-226.5-472.6-282.7-604.8c-95.6-222.2-102.7-247.6-108.3-358.7c-8.4-160.4,14.1-256,95.6-419.2
		c84.4-167.4,175.8-282.7,316.5-395.3c226.5-181.5,351.7-199.7,464.2-67.5c83,97.1,106.9,198.3,121,530.3
		c15.5,362.9,35.2,590.8,68.9,820.1c77.4,505,222.2,946.6,427.6,1294.1l80.2,137.8l84.4-77.4c45-42.2,157.5-133.6,249-204
		c90-68.9,189.9-151.9,220.8-182.9l56.3-57.7l-46.4-81.6c-222.2-385.4-579.5-1268.8-579.5-1431.9c0-185.7,163.2-468.4,414.9-716
		c87.2-87.2,143.5-128,244.8-180c173-88.6,261.6-91.4,303.8-8.4c28.1,52,26.7,128-5.6,344.6c-15.5,99.9-36.6,257.4-46.4,350.2
		c-23.9,229.3-23.9,756.8,1.4,893.2c23.9,129.4,74.5,308,113.9,399.5l29.5,68.9l108.3-104.1c59.1-57.7,168.8-160.4,244.8-227.9
		l135-123.8l-40.8-90c-22.5-49.2-57.7-146.3-78.8-213.8c-32.4-108.3-36.6-149.1-38-320.7c-1.4-229.3,18.3-317.9,105.5-496.5
		c67.5-137.8,175.8-260.2,341.8-385.4c212.4-160.4,388.2-216.6,641.4-204c177.2,8.4,324.9,46.4,485.3,121l118.2,54.9l157.5-170.2
		c261.6-284.1,423.4-447.3,468.4-475.4c29.5-18.3,70.3-26.7,129.4-26.7c73.1,0,104.1,8.4,204,59.1
		c164.6,81.6,361.5,277.1,445.9,441.7c137.8,268.7,128,497.9-23.9,602c-81.6,54.9-389.6,227.9-561.2,315.1
		c-118.2,60.5-156.1,85.8-149.1,101.3c4.2,11.3,21.1,81.6,36.6,154.7c53.5,253.2,16.9,517.6-105.5,752.5
		c-101.3,195.5-357.3,419.2-569.7,499.3c-357.3,135-799,63.3-1128.1-182.9l-73.1-54.9l-274.3,182.9l-272.9,182.9l32.4,25.3
		c296.8,226.5,884.8,396.7,1562.7,452.9c247.6,19.7,299.6,32.4,350.2,83c29.5,30.9,39.4,53.5,39.4,94.2
		c0,87.2-64.7,171.6-234.9,306.6c-253.2,201.1-503.6,303.8-749.7,305.2c-150.5,1.4-206.8-19.7-450.1-166
		c-281.3-168.8-475.4-322.1-817.2-638.6l-161.8-151.9l-91.4,70.3c-49.2,39.4-181.5,133.6-294,209.6
		c-112.5,76-222.2,154.7-246.2,174.4l-42.2,35.2l105.5,99.9c438.9,413.5,1094.3,741.3,1931.3,970.6
		c118.2,32.4,246.2,67.5,285.5,77.4c167.4,46.4,285.5,158.9,286.9,274.3c0,121-166,320.7-358.7,427.6
		c-271.5,151.9-616.1,175.8-848.2,57.7c-126.6-63.3-873.5-634.4-1184.4-903c-160.4-137.8-440.3-423.4-554.2-564
		c-45-56.3-84.4-102.7-87.2-102.7c-7,0-1004.3,855.2-1069,917.1l-59.1,56.3l70.3,99.9c216.6,315.1,410.7,766.6,524.7,1222.3
		c43.6,175.8,36.6,251.8-33.8,388.2l-39.4,80.2l101.3,99.9c56.3,54.9,115.3,123.8,130.8,154.7c28.1,56.3,68.9,257.4,109.7,526.1
		c42.2,292.6,40.8,762.4-2.8,1039.5l-8.4,52l230.7,73.1c125.2,39.4,286.9,88.6,355.9,106.9c205.4,56.3,806,205.4,827.1,205.4
		c12.7,0,49.2-91.4,108.3-270.1c198.3-613.3,350.2-984.6,630.2-1537.4c227.9-447.3,272.9-506.4,458.6-597.8
		c329.1-163.2,874.9-140.7,1040.9,42.2c45,50.6,50.6,64.7,50.6,133.6c0,144.9-66.1,237.7-316.5,452.9
		c-638.6,550-1063.4,1057.8-1303.9,1559.9c-80.2,167.4-128,302.4-113.9,316.5c12.7,11.3,270.1,71.7,440.3,102.7
		c66.1,12.7,167.4,35.2,225.1,50.6c57.7,14.1,108.3,22.5,113.9,16.9c4.2-5.6,25.3-60.5,46.4-121
		c119.6-343.2,296.8-692.1,545.8-1073.2c123.8-188.5,177.2-244.8,285.5-294c144.9-67.5,237.7-81.6,492.3-83
		c437.5,0,710.3,98.5,710.3,257.4c0,94.2-60.5,149.1-375.6,337.6c-140.7,84.4-333.4,211-427.6,278.5
		c-196.9,143.5-458.6,388.2-561.2,524.7c-73.1,95.6-166,261.6-154.7,274.3c5.6,5.6,588,92.8,618.9,92.8c5.6,0,28.1-33.8,49.2-73.1
		c150.5-289.8,445.9-543,744.1-638.6c240.5-76,535.9-50.6,776.4,64.7c270.1,129.4,507.8,454.3,588,803.2
		c11.3,47.8,22.5,87.2,25.3,90c11.3,11.3,423.4,49.2,616.1,57.7c249,9.8,310.9,28.1,372.8,109.7c140.7,185.7,125.2,620.3-35.2,946.6
		c-91.4,185.7-220.8,272.9-371.3,253.2c-33.8-5.6-146.3-47.8-250.4-95.6c-102.7-47.8-275.7-121-382.6-161.8l-195.5-73.1l-52,64.7
		c-28.1,36.6-102.7,113.9-164.6,171.6c-249,233.5-559.8,347.4-839.7,308c-388.2-53.5-678-257.4-858-603.4
		c-85.8-164.6-121-296.8-130.8-486.7l-8.4-157.5l-299.6-85.8c-164.6-47.8-306.6-85.8-315.1-85.8c-19.7,0-16.9,119.6,5.6,243.3
		c64.7,336.2,312.3,856.6,644.2,1350.3c139.3,208.2,157.5,288.4,81.6,353.1c-54.9,45-116.7,56.3-251.8,46.4
		c-392.4-30.9-796.1-261.6-948.1-540.1c-40.8-76-59.1-182.9-95.7-566.9c-23.9-240.5-23.9-718.8,0-897.4
		c9.8-80.2,15.5-147.7,12.7-150.5c-4.2-4.2-164.6-47.8-357.3-98.5s-367.1-98.5-386.8-104.1c-36.6-12.7-38-11.3-46.4,59.1
		c-4.2,40.8-8.4,158.9-8.4,263c0,537.3,140.7,1140.8,438.9,1870.8c154.7,379.8,178.6,450.1,188.5,544.4
		c8.4,99.9-19.7,166-92.8,208.2c-119.6,68.9-490.9,5.6-713.2-121c-192.7-109.7-358.7-301-412.1-471.2c-42.2-136.4-60.5-543-52-1107
		c8.4-561.2,42.2-905.9,130.8-1340.5l8.4-42.2l-118.2-18.3c-63.3-9.8-319.3-57.7-566.9-106.9c-247.6-49.2-510.6-99.9-583.7-112.5
		c-73.1-12.7-147.7-26.7-164.6-30.9c-26.7-5.6-33.8,2.8-54.9,76c-33.8,118.2-160.4,427.6-234.9,575.3
		c-143.5,286.9-374.2,654.1-450.1,717.4c-60.5,50.6-170.2,99.9-288.4,129.4l-98.5,23.9l-5.6,133.6
		c-9.8,206.8-40.8,271.5-213.8,448.7c-270.1,277.1-561.2,526.1-849.6,728.6c-83,57.7-158.9,109.7-167.4,115.3
		c-12.7,7,67.5,198.3,285.5,676.6c167.4,367.1,305.2,669.5,306.6,671c0,1.4,102.7-38,226.5-88.6
		c499.3-199.7,1052.1-358.7,1793.4-513.4c270.1-56.3,382.6-57.7,505-8.4c267.3,108.3,486.7,320.7,631.6,613.3
		c59.1,116.7,66.1,143.5,66.1,225.1c0,74.6-7,101.3-32.4,139.3c-83,115.3-229.3,136.4-551.4,80.2
		c-603.4-104.1-856.6-133.6-1253.3-143.5c-340.4-8.4-497.9,2.8-723,54.9c-105.5,23.9-398.1,116.7-412.1,130.8
		c-2.8,1.4,78.8,168.8,178.6,369.9l184.3,367.1l73.1-32.4c329.1-144.9,915.7-260.2,1361.6-265.8c202.6-2.8,204-2.8,281.3,39.4
		c201.1,111.1,510.6,509.2,596.4,769.4c47.8,140.7,47.8,226.5,1.4,271.5c-49.2,50.6-112.5,45-302.4-22.5
		c-378.4-133.6-497.9-171.6-710.3-223.7c-123.8-30.9-292.6-64.7-374.2-77.4c-219.4-30.9-673.8-26.7-673.8,7
		c0,4.2,73.1,135,160.4,289.8c99.9,173,168.8,278.5,180,274.3c108.3-29.5,275.7-46.4,398.1-39.4
		c451.5,25.3,863.7,305.2,1014.2,687.8c81.6,206.8,104.1,471.2,56.3,658.3c-32.4,132.2-136.4,334.8-234.9,458.6l-85.8,106.9
		l57.7,78.8c30.9,45,95.6,146.3,143.5,227.9c47.8,81.6,129.4,205.4,182.9,275.7c101.3,135,125.2,181.5,125.2,241.9
		c-1.4,143.5-237.7,382.6-495.1,502.2c-230.7,105.5-460,136.4-583.7,76c-102.7-49.2-126.6-97.1-272.9-531.7l-135-402.3l-153.3-9.8
		c-353.1-22.5-644.2-156.1-832.7-379.8c-84.4-99.9-185.7-296.8-222.2-433.2c-35.2-126.6-35.2-393.9,0-527.5
		c38-147.7,147.7-365.7,243.3-485.3c64.7-83,199.7-212.4,256-249c5.6-4.2-223.7-583.7-239.1-600.6
		c-14.1-16.9-191.3,163.2-291.2,298.2c-206.8,279.9-389.6,675.2-524.7,1136.5c-144.9,496.5-320.7,510.6-547.2,40.8
		c-121-251.8-173-509.2-142.1-711.7c26.7-170.2,60.5-222.2,324.9-495.1c353.1-362.9,599.2-569.7,839.7-701.9
		c56.3-30.9,105.5-60.5,109.7-67.5c4.2-5.6-46.4-121-111.1-254.6c-66.1-135-139.3-301-163.2-371.3c-23.9-68.9-46.4-128-49.2-130.8
		c-7-7-108.3,59.1-229.3,147.7c-467,344.6-866.5,862.2-1295.5,1678.1c-128,243.3-196.9,334.8-286.9,378.4
		c-116.7,56.3-205.4,32.4-309.5-83c-140.7-156.1-225.1-400.9-225.1-661.1c-1.4-244.8,53.5-409.3,177.2-544.4
		c68.9-76,492.3-417.8,832.7-672.4c354.5-265.8,867.9-599.2,1052.1-683.6c21.1-9.8,38-22.5,38-28.1c0-40.8-617.5-1280-659.7-1325
		c-5.6-5.6-78.8,15.5-163.2,47.8c-294,111.1-661.1,189.9-1050.7,225.1c-264.4,23.9-392.4,14.1-497.9-40.8
		c-47.8-23.9-105.5-59.1-128-78.8c-23.9-19.7-50.6-36.6-57.7-36.6c-8.4,0-43.6,19.7-78.8,42.2c-128,87.2-216.6,118.2-353.1,123.8
		c-353.1,15.5-1000.1-105.5-1354.6-253.2c-99.9-40.8-104.1-42.2-123.8-16.9c-29.5,39.4-637.2,1260.3-641.4,1291.3
		c-2.8,21.1,35.2,49.2,178.6,130.8c392.4,225.1,845.4,544.4,1392.5,981.8c371.3,296.8,430.4,365.7,493.7,576.7
		c33.8,112.5,35.2,382.6,1.4,519c-53.5,211-192.7,436-310.9,496.5c-59.1,30.9-163.2,16.9-230.7-28.1
		c-80.2-56.3-149.1-156.1-279.9-407.9c-355.9-680.8-731.4-1185.8-1129.5-1517.7c-142.1-119.6-361.5-274.3-371.3-263
		c-4.2,4.2-64.7,142.1-136.4,308c-70.3,166-143.5,332-161.8,368.5c-18.3,36.6-33.8,68.9-33.8,73.1c0,2.8,36.6,26.7,81.6,52
		c271.5,154.7,436,288.4,806,658.3c337.6,339,369.9,385.4,396.7,571.1c30.9,212.4-39.4,521.9-168.8,751.1
		c-156.1,275.7-326.3,354.5-423.4,195.5c-15.5-25.3-57.7-144.9-92.8-264.4c-174.4-597.8-407.9-1052.1-689.2-1344.7
		c-66.1-68.9-123.8-121-128-115.3c-4.2,4.2-60.5,139.3-125.2,301l-118.2,292.6l130.8,126.6c149.1,144.9,253.2,298.2,315.1,455.7
		c119.6,312.3,113.9,604.8-19.7,887.6c-184.3,388.2-512,590.8-1005.7,618.9l-161.8,8.4l-43.6,154.7
		c-25.3,85.8-67.5,233.5-94.2,330.6c-91.4,326.3-132.2,402.3-241.9,451.5C7217.3,23739.7,7056.9,23739.7,6923.3,23704.5z
		 M7941.7,22127.7c106.9-36.6,160.4-71.7,241.9-161.8c85.8-94.2,113.9-175.8,113.9-332c0-360.1-306.6-658.3-675.2-658.3
		c-371.3,0-652.7,298.2-592.2,627.3c32.4,175.8,137.8,333.4,286.9,429C7522.5,22165.7,7737.7,22198.1,7941.7,22127.7z
		 M16399.6,22157.3c123.8-19.7,298.2-105.5,395.3-194.1c97.1-88.6,173-226.5,196.9-358.7c45-240.5-64.7-441.7-303.8-559.8
		c-104.1-52-132.2-59.1-241.9-64.7c-282.7-16.9-534.5,130.8-661.1,384c-52,106.9-53.5,112.5-53.5,264.4
		c0,192.7,28.1,265.8,142.1,374.2c84.4,80.2,163.2,119.6,291.2,147.7C16274.5,22174.2,16288.5,22174.2,16399.6,22157.3z
		 M10949,16573c156.1-18.3,310.9-47.8,488.1-94.2l137.8-36.6l-9.8-101.3c-7-91.4-5.6-104.1,22.5-132.2c39.4-39.4,85.8-38,229.3,12.7
		c156.1,54.9,208.2,56.3,319.3,8.4c49.2-21.1,122.4-42.2,161.8-46.4c64.7-7,78.8-2.8,115.3,28.1c38,33.8,40.8,40.8,38,133.6
		l-2.8,97.1l115.3,30.9c323.5,85.8,599.2,121,839.7,109.7c253.2-12.7,246.2,9.8,88.6-270.1c-285.5-507.8-569.7-964.9-1129.5-1814.5
		c-177.2-270.1-329.1-502.2-336.2-513.4s-15.5-18.3-18.3-14.1c-16.9,19.7-624.5,949.5-791.9,1209.7
		c-301,468.4-829.9,1360.2-815.8,1377.1C10425.8,16582.9,10764.8,16592.7,10949,16573z M10006.6,16063.8
		c305.2-780.7,572.5-1567,800.4-2351.9l77.4-265.8l-122.4,9.8c-303.8,23.9-1240.6,111.1-1592.3,150.5
		c-434.6,47.8-1281.4,164.6-1296.9,178.6c-5.6,5.6,32.4,73.1,83,150.5c112.5,168.8,381.2,443.1,583.7,596.4l136.4,102.7l64.7-56.3
		c35.2-30.9,80.2-60.5,98.5-64.7c74.5-18.3,150.5,54.9,189.9,181.5c9.8,30.9,22.5,63.3,28.1,70.3c7,8.4,15.5,38,21.1,67.5
		c5.6,28.1,18.3,52,28.1,52c28.1,0,187.1,112.5,239.1,170.2c26.7,30.9,49.2,70.3,49.2,88.6c0,42.2-42.2,95.6-106.9,135
		c-39.4,25.3-46.4,36.6-39.4,61.9c23.9,83,215.2,452.9,296.8,575.3c87.2,132.2,319.3,389.6,351.7,389.6
		C9903.9,16305.8,9953.1,16196.1,10006.6,16063.8z M14236.3,16211.5c132.2-129.4,195.5-227.9,372.8-588l149.1-305.2l-64.7-56.3
		c-54.9-46.4-66.1-63.3-66.1-104.1c0-61.9,67.5-137.8,192.7-216.6c88.6-56.3,92.8-61.9,157.5-202.6
		c105.5-225.1,182.9-270.1,285.5-161.8l54.9,56.3l94.2-66.1c271.5-192.7,510.6-431.8,640-640c43.6-71.7,76-135,70.3-140.7
		c-14.1-12.7-503.6-87.2-918.5-139.3c-530.3-67.5-2003-205.4-2067.7-194.1c-19.7,4.2,19.7,133.6,281.3,904.4
		c381.2,1122.5,680.8,1948.2,707.5,1948.2C14132.2,16305.8,14181.4,16263.6,14236.3,16211.5z M2463,15377.4
		c222.2-83,348.8-284.1,348.8-554.2c0-211-66.1-371.3-209.6-516.2c-143.5-142.1-285.5-195.5-454.3-167.4
		c-324.9,52-516.2,336.2-464.2,693.5c39.4,272.9,236.3,513.4,472.6,573.9C2225.2,15425.2,2375.7,15411.2,2463,15377.4z
		 M21978.3,15363.4c105.5-50.6,239.1-188.5,292.6-298.2c167.4-347.4,61.9-741.3-237.7-879.1c-166-76-416.4-59.1-571.1,39.4
		c-213.8,136.4-336.2,506.4-253.2,770.8C21314.3,15336.6,21678.6,15511,21978.3,15363.4z M12070.1,13246.4
		c60.5-50.6,289.8-182.9,348.8-201.1c26.7-8.4,76-19.7,109.7-23.9c47.8-8.4,59.1-15.5,59.1-39.4c1.4-150.5,32.4-303.8,90-448.7
		l63.3-156.1l-38-29.5c-166-126.6-294-289.8-340.4-434.6c-12.7-40.8-22.5-52-40.8-45c-129.4,52-362.9,61.9-528.9,22.5
		c-61.9-15.5-113.9-26.7-113.9-25.3c-1.4,1.4-33.8,66.1-73.1,143.5c-56.3,112.5-88.6,158.9-166,233.5
		c-53.5,50.6-111.1,101.3-129.4,113.9l-30.9,21.1l40.8,90c64.7,143.5,97.1,267.3,108.3,410.7l9.8,133.6l92.8,22.5
		c113.9,26.7,295.4,115.3,396.7,191.3c40.8,30.9,80.2,56.3,87.2,56.3C12022.3,13281.6,12047.6,13266.1,12070.1,13246.4z
		 M7986.7,13160.6c535.9-157.5,1195.6-379.8,1762.5-595c323.5-121,829.9-324.9,844-337.6s-316.5-371.3-704.7-766.6
		c-272.9-275.7-796.1-783.5-1325-1285.6l-92.8-88.6l-35.2,74.6c-90,189.9-123.8,405.1-123.8,786.3c0,320.7-4.2,308,90,308
		c60.5,0,140.7,54.9,146.3,98.5c8.4,56.3-21.1,130.8-97.1,244.8l-71.7,109.7l9.8,177.2c9.8,199.7,0,239.1-67.5,261.6
		c-29.5,11.3-57.7,8.4-111.1-11.3c-70.3-25.3-73.1-25.3-92.8,0c-38,52-226.5,451.5-270.1,575.3c-78.8,223.7-133.6,513.4-97.1,513.4
		C7758.8,13225.3,7865.7,13195.8,7986.7,13160.6z M16259,13214.1c0-5.6-7-64.7-15.5-129.4c-29.5-244.8-109.7-488.1-260.2-796.1
		l-91.4-184.3l-52,18.3c-101.3,36.6-161.8,23.9-194.1-40.8c-18.3-33.8-21.1-68.9-12.7-192.7l9.8-151.9l-78.8-149.1
		c-45-85.8-78.8-168.8-78.8-192.7c0-57.7,63.3-121,135-132.2c101.3-16.9,95.6,5.6,85.8-292.6c-8.4-295.4-32.4-479.7-88.6-685
		c-63.3-229.3,16.9-274.3-680.8,382.6c-336.2,317.9-728.6,694.9-872.1,839.7c-333.4,334.8-678,708.9-663.9,720.2
		c15.5,14.1,683.6,275.7,1022.6,399.5c450.1,166,942.4,333.4,1385.5,471.2C16204.1,13222.5,16259,13236.6,16259,13214.1z
		 M11424.5,11125.2c92.8-590.8,254.6-2063.5,299.6-2728.8l9.8-137.8l-40.8,9.8c-222.2,52-575.3,263-873.5,521.9l-87.2,76l33.8,64.7
		c43.6,81.6,45,136.4,2.8,178.6c-38,38-143.5,64.7-250.4,64.7c-85.8,0-150.5,32.4-249,125.2c-74.5,68.9-149.1,113.9-189.9,113.9
		c-36.6,0-97.1-59.1-122.4-121l-26.7-60.5L9842,9253c-430.4,99.9-768,225.1-966.3,360.1c-59.1,40.8-59.1,43.6-35.2,67.5
		c39.4,38,633,434.6,962.1,642.8c471.2,298.2,1559.9,946.6,1590.9,946.6C11397.7,11270.1,11413.2,11205.4,11424.5,11125.2z
		 M12863.4,11142.1c696.3-399.5,1339.1-797.5,1936.9-1198.4l419.2-281.3l-73.1-49.2c-97.1-64.7-324.9-171.6-483.9-227.9
		c-101.3-35.2-377-109.7-545.8-146.3c-18.3-4.2-30.9,8.4-47.8,49.2c-22.5,57.7-90,125.2-125.2,125.2c-36.6,0-123.8-52-174.4-105.5
		c-85.8-90-174.4-129.4-306.6-137.8c-215.2-14.1-277.1-78.8-209.6-226.5l35.2-77.4l-57.7-53.5c-157.5-144.9-454.3-353.1-621.7-437.5
		c-108.3-53.5-301-122.4-312.3-109.7c-28.1,26.7,168.8,1932.7,277.1,2681c23.9,158.9,42.2,296.8,42.2,306.6
		c0,8.4,5.6,16.9,11.3,16.9C12634.1,11270.1,12739.6,11212.4,12863.4,11142.1z M4264.8,6916.7c45-11.3,106.9-33.8,139.3-50.6
		c128-64.7,299.6-271.5,357.3-427.6c19.7-52,25.3-108.3,25.3-211c-1.4-181.5-33.8-270.1-142.1-386.8
		c-102.7-111.1-196.9-157.5-341.8-166c-257.4-15.5-450.1,91.4-616.1,340.4c-181.5,272.9-178.6,526.1,7,727.2
		c43.6,46.4,97.1,97.1,118.2,112.5C3923,6933.5,4105.9,6958.9,4264.8,6916.7z M20145.4,6891.3c105.5-52,223.7-173,279.9-288.4
		c40.8-83,46.4-105.5,45-206.8c-1.4-142.1-36.6-233.5-147.7-402.3c-158.9-236.3-343.2-334.8-604.8-319.3
		c-136.4,8.4-236.3,54.9-327.7,151.9c-234.9,251.8-208.2,625.9,66.1,904.4c151.9,156.1,278.5,208.2,489.5,202.6
		C20044.2,6929.3,20080.7,6922.3,20145.4,6891.3z M12265.6,3058.3c322.1-113.9,462.8-406.5,347.4-717.4
		c-35.2-92.8-164.6-234.9-261.6-288.4c-189.9-104.1-472.6-106.9-666.7-8.4c-88.6,45-212.4,170.2-258.8,261.6
		c-38,76-40.8,92.8-40.8,243.3c0,147.7,2.8,167.4,38,232.1c71.7,136.4,253.2,267.3,420.6,302.4
		C11940.7,3104.7,12175.6,3090.7,12265.6,3058.3z"/>
</g>
</svg>
