<?xml version="1.0" encoding="utf-8"?>
<!-- Generator: Adobe Illustrator 30.0.0, SVG Export Plug-In . SVG Version: 9.03 Build 0)  -->
<svg version="1.0" id="Layer_1" xmlns="http://www.w3.org/2000/svg" xmlns:xlink="http://www.w3.org/1999/xlink" x="0px" y="0px"
	 viewBox="0 0 2400 2400" style="enable-background:new 0 0 2400 2400;" xml:space="preserve">
<g transform="translate(0.000000,2400.000000) scale(0.100000,-0.100000)">
	<path d="M15061,23980.3c-51.8-20.4-823.3-639.3-861.5-691.1c-111.8-152.7-310.8-680.2-310.8-820.6c0-25.9-12.3-91.3-27.3-144.5
		c-15-54.5-27.3-126.8-27.3-160.8c-1.4-34.1-9.5-85.9-20.4-115.9c-10.9-30-20.4-72.2-20.4-95.4c0-21.8-16.4-114.5-35.4-204.5
		c-46.3-216.7-58.6-518-27.3-650.2c13.6-60,84.5-219.5,207.2-462.1l185.4-370.8l-207.2-928.3c-114.5-511.2-211.3-933.7-214-939.2
		c-4.1-5.5-149.9,282.2-323.1,640.7c-332.6,681.6-374.9,753.8-451.2,753.8c-87.2,0-193.6-163.6-227.6-354.4
		c-6.8-40.9-23.2-120-34.1-173.1c-10.9-54.5-24.5-149.9-30-211.3c-8.2-114.5,2.7-434.8,17.7-508.4c6.8-39.5-1.4-49.1-196.3-204.5
		c-268.5-216.7-329.9-310.8-468.9-722.5l-55.9-163.6v136.3c0,128.1-32.7,346.2-64.1,436.2c-8.2,23.2-19.1,77.7-24.5,122.7
		c-20.4,160.8-91.3,384.4-179.9,561.6c-47.7,96.8-68.2,115.9-377.6,357.1c-155.4,121.3-199,148.6-214,136.3
		c-25.9-21.8-24.5-155.4,1.4-230.4c10.9-31.4,20.4-75,20.4-95.4c0-51.8,84.5-294.4,151.3-432.1c50.4-107.7,58.6-115.9,205.8-230.4
		c84.5-65.4,156.8-121.3,160.8-124c2.7-2.7-28.6-76.3-70.9-164.9c-42.3-87.2-88.6-188.1-102.2-222.2c-21.8-58.6-25.9-62.7-55.9-51.8
		c-49.1,19.1-65.4,15-109-21.8c-23.2-19.1-43.6-34.1-47.7-34.1c-2.7,0-13.6,19.1-23.2,40.9c-12.3,28.6-68.2,76.3-185.4,158.1
		c-92.7,65.4-169,124-169,129.5c0,6.8,46.3,106.3,105,220.8c129.5,257.6,136.3,310.8,80.4,554.8c-20.4,85.9-42.3,184-50.4,216.7
		c-23.2,103.6-79.1,204.5-117.2,214c-20.4,5.5-40.9,1.4-51.8-9.5c-9.5-10.9-55.9-107.7-102.2-216.7
		c-46.3-109.1-106.3-239.9-132.2-293.1c-42.3-84.5-47.7-107.7-47.7-194.9c1.4-111.8,38.2-349,61.3-391.2
		c13.6-24.5,25.9-80.4,46.3-194.9c4.1-24.5,12.3-47.7,19.1-51.8s12.3-21.8,12.3-38.2c0-46.3,102.2-335.3,156.8-443
		c51.8-103.6,70.9-122.7,302.6-294.4l164.9-122.7l47.7-207.2l47.7-205.8l-36.8-73.6c-32.7-66.8-35.4-84.5-35.4-259
		c0-120-5.5-182.7-13.6-177.2c-6.8,4.1-103.6,77.7-212.6,162.2c-250.8,192.2-295.8,211.3-354.4,152.7
		c-31.4-31.4-31.4-50.4-1.4-223.6c15-81.8,105-290.3,181.3-419.8c31.4-51.8,53.2-95.4,50.4-98.1c-2.7-2.7-54.5,57.3-115.9,133.6
		c-411.7,513.9-636.6,734.7-1015.5,996.4l-133.6,92.7v141.8v141.8l133.6-88.6l132.2-88.6l530.3-109c474.4-99.5,533-109.1,550.7-90
		c17.7,17.7,17.7,30,5.5,72.2c-20.4,68.2-126.8,253.5-190.8,334c-244,308.1-395.3,466.2-564.3,591.6
		c-140.4,103.6-194.9,124-421.2,162.2c-114.5,19.1-209.9,36.8-209.9,38.2c-1.4,1.4-21.8,54.5-46.3,118.6
		c-62.7,162.2-166.3,354.4-261.7,486.6c-45,62.7-88.6,132.2-96.8,156.8c-17.7,54.5-132.2,177.2-214,230.4
		c-103.6,66.8-175.8,50.4-223.6-53.2c-28.6-62.7-30-83.2-36.8-790.6l-6.8-726.5l-184,229c-100.9,125.4-369.4,459.4-597,741.5
		l-411.7,513.9l16.4,444.4c15,414.4,15,449.8-8.2,522.1c-46.3,151.3-193.6,396.7-370.8,617.5c-38.2,49.1-80.4,110.4-94.1,136.3
		c-13.6,25.9-43.6,72.2-68.2,102.2c-24.5,30-55.9,76.3-68.2,102.2c-13.6,25.9-62.7,87.2-107.7,136.3
		c-46.3,49.1-118.6,132.2-159.5,184c-148.6,186.7-404.8,413-545.3,481.2c-69.5,34.1-1004.6,238.5-1059.1,231.7
		c-110.4-12.3,5.5-252.2,293.1-608c203.1-249.5,475.7-466.2,655.7-520.7c76.3-21.8,572.5-136.3,595.7-136.3
		c4.1,0,6.8-155.4,6.8-343.5c0-331.2,1.4-347.6,32.7-422.6c30-73.6,31.4-79.1,6.8-79.1c-55.9,0-162.2-30-162.2-46.3
		c0-9.5-12.3-28.6-27.3-42.3c-15-13.6-31.4-49.1-35.4-77.7c-5.5-28.6-12.3-51.8-15-51.8s-25.9,15-49.1,34.1
		c-43.6,32.7-73.6,39.5-636.6,155.4l-115.9,23.2l-6.8,366.7l-6.8,368l-49.1,111.8c-178.6,403.5-563,914.7-759.3,1010.1
		c-40.9,20.4-46.3,20.4-66.8-1.4c-19.1-19.1-24.5-90-40.9-523.4c-12.3-344.9-13.6-523.4-4.1-569.8c30-145.9,220.8-486.6,393.9-700.6
		c38.2-47.7,69.5-92.7,69.5-99.5c0-8.2,57.3-73.6,126.8-148.6c178.6-192.2,244-265.8,314.9-364c149.9-204.5,346.2-388.5,492.1-460.7
		c77.7-38.2,167.7-61.3,483.9-128.1c214-45,402.1-84.5,418.5-88.6c19.1-4.1,245.4-274,624.3-745.6
		c325.8-404.8,591.6-740.2,587.5-742.9c-2.7-2.7-323.1,62.7-712.9,147.2c-388.5,83.2-726.5,151.3-752.4,151.3
		c-65.4,0-90-31.4-88.6-110.4c1.4-139,159.5-376.2,398-598.4c64.1-60,305.3-246.7,436.2-336.7c30-21.8,30-27.3,30-301.3
		c0-269.9,1.4-283.5,35.4-370.8c65.4-166.3,309.4-556.2,447.1-717c215.4-249.5,305.3-327.2,372.1-319l38.2,4.1l4.1,545.3
		c4.1,609.3,4.1,605.2-99.5,834.2c-27.3,57.3-46.3,106.3-43.6,109c2.7,2.7,66.8-9.5,143.1-24.5l136.3-30l30-90
		c49.1-152.7,145.9-368,238.5-538.4c94.1-169,275.4-449.8,357.1-550.7c45-54.5,45-57.3,12.3-43.6c-58.6,21.8-141.8,66.8-151.3,81.8
		s-174.5,68.2-211.3,68.2c-43.6,0-72.2-40.9-64.1-94.1c4.1-27.3,73.6-189.5,155.4-362.6c96.8-203.1,143.1-314.9,132.2-317.6
		c-9.5-2.7-49.1,12.3-87.2,31.4c-81.8,40.9-253.5,88.6-325.8,88.6c-32.7,1.4-132.2,39.5-294.4,115.9l-245.4,114.5l-111.8,242.6
		c-61.3,133.6-129.5,265.8-154,294.4c-54.5,64.1-179.9,149.9-308.1,208.6c-54.5,25.9-103.6,53.2-107.7,60
		c-4.1,8.2-17.7,13.6-30,13.6s-81.8,30-152.7,66.8c-144.5,73.6-369.4,156.8-503,185.4c-87.2,19.1-88.6,17.7-413-58.6
		c-200.4-46.3-325.8-83.2-325.8-92.7c0-25.9,87.2-95.4,171.8-135c43.6-20.4,95.4-49.1,114.5-62.7c42.3-31.4,342.1-132.2,426.7-143.1
		c39.5-5.5,114.5,1.4,216.7,21.8c84.5,16.4,181.3,31.4,214,32.7l60,1.4l73.6-163.6c40.9-90,90-179.9,109.1-200.4l36.8-38.2l-30-31.4
		c-16.4-17.7-30-39.5-30-47.7c0-9.5-9.5-32.7-21.8-50.4c-17.7-27.3-19.1-38.2-5.5-54.5c15-17.7,6.8-20.4-55.9-20.4
		c-40.9,0-156.8-21.8-257.6-47.7s-184-45-185.4-43.6c-1.4,1.4-39.5,88.6-87.2,193.6c-46.3,105-99.5,209.9-118.6,234.5
		c-95.4,129.5-610.7,389.9-715.6,361.2c-15-2.7-24.5-19.1-24.5-36.8c0-32.7,265.8-541.2,321.7-616.1
		c64.1-84.5,324.4-263.1,383-263.1c43.6,0,196.3-68.2,237.2-105c19.1-17.7,50.4-31.4,69.5-31.4c19.1,0,80.4-20.4,137.7-46.3
		c124-57.3,252.2-96.8,343.5-109c55.9-6.8,110.4,2.7,313.5,57.3l245.4,66.8l193.6-96.8c186.7-91.3,193.6-98.1,215.4-154
		c28.6-75,149.9-186.7,272.6-252.2c70.9-36.8,87.2-50.4,66.8-55.9c-13.6-4.1-136.3-34.1-271.3-65.4
		c-324.4-75-376.2-100.9-355.8-182.7c15-60,290.3-218.1,429.4-245.4c68.2-15,39.5-16.4-264.4-24.5
		c-475.7-10.9-768.8-60-1098.7-181.3l-103.6-38.2l-103.6,88.6c-55.9,47.7-103.6,91.3-103.6,95.4c-1.4,4.1,49.1,21.8,110.4,38.2
		c62.7,17.7,137.7,45,169,60c95.4,50.4,850.6,651.6,850.6,677.5c0,30-49.1,62.7-147.2,98.1c-66.8,24.5-117.2,30-368,35.4
		c-310.8,5.5-475.7-6.8-672-53.2c-148.6-34.1-249.5-85.9-462.1-237.2l-170.4-120l-54.5,16.4c-289,83.2-425.3,102.2-742.9,102.2
		c-282.2,1.4-339.4-6.8-423.9-64.1c-57.3-38.2-68.2-96.8-25.9-148.6c15-20.4,282.2-245.4,593-501.6
		c310.8-256.3,565.7-468.9,565.7-471.6c0-2.7-428-5.5-952.8-5.5h-951.5l-346.2,276.7c-229,182.7-373.5,287.6-429.4,312.2
		c-178.6,80.4-441.7,120-800.2,120c-133.6,0-279.4,8.2-365.3,21.8c-105,15-190.8,19.1-332.6,12.3
		c-361.2-16.4-609.3-69.5-749.7-158.1c-77.7-49.1-727.9-553.4-793.3-616.1c-79.1-73.6-50.4-133.6,80.4-169
		c102.2-28.6,509.8-38.2,734.7-19.1c328.5,28.6,534.3,83.2,618.9,164.9c23.2,21.8,144.5,121.3,272.6,223.6
		c197.7,158.1,233.1,181.3,252.2,166.3c162.2-137.7,539.8-434.8,588.9-463.5l64.1-36.8l-25.9-43.6c-34.1-55.9-34.1-136.3,0-212.6
		c15-32.7,27.3-61.3,27.3-65.4c0-2.7-40.9-24.5-91.3-46.3c-75-35.4-358.5-249.5-556.2-422.6c-25.9-23.2-35.4-17.7-298.5,193.6
		c-244,193.6-280.8,219.5-374.9,250.8c-137.7,45-317.6,83.2-489.4,102.2c-193.6,23.2-571.2,10.9-670.7-20.4
		c-98.1-30-166.3-81.8-160.8-120c2.7-20.4,121.3-122.7,365.3-313.5c451.2-354.4,456.6-358.5,584.8-404.8
		c201.7-73.6,312.2-87.2,696.6-87.2c726.5,2.7,1165.5,40.9,1419,124c95.4,31.4,129.5,54.5,443,305.3l339.4,271.3h958.3h959.6
		l-39.5-31.4c-20.4-17.7-275.4-219.5-564.3-449.8c-290.3-229-542.5-436.2-563-459.4c-68.2-81.8-35.4-163.6,90-219.5
		c62.7-27.3,99.5-32.7,274-36.8c319-9.5,575.2,35.4,823.3,141.8l111.8,49.1l186.7-170.4c144.5-132.2,204.5-177.2,261.7-199
		c201.7-77.7,691.1-134.9,997.8-117.2c235.8,13.6,408.9,60,408.9,109c0,10.9-145.9,140.4-323.1,289
		c-178.6,147.2-364,301.3-413,342.1c-109.1,92.7-136.3,103.6-314.9,133.6c-77.7,12.3-149.9,27.3-159.5,32.7
		c-16.4,8.2,68.2,90,177.2,174.5c17.7,15,50.4,8.2,199-36.8c188.1-57.3,422.6-110.4,622.9-139c134.9-19.1,605.2-24.5,777-8.2
		l109.1,9.5l-136.3-34.1c-199-50.4-309.4-88.6-342.1-117.2c-15-15-32.7-25.9-38.2-25.9c-5.5,0-42.3-21.8-83.2-47.7
		c-81.8-51.8-99.5-100.9-47.7-129.5c15-8.2,166.3-50.4,336.7-95.4c171.8-45,319-84.5,328.5-88.6c10.9-4.1-35.4-42.3-105-88.6
		c-66.8-45-158.1-121.3-201.7-169c-66.8-73.6-110.4-103.6-283.5-196.3l-204.5-110.4l-252.2,66.8c-139,38.2-274,68.2-299.9,68.2
		c-99.5,0-429.4-100.9-509.8-155.4c-23.2-15-70.9-40.9-103.6-54.5c-317.6-134.9-421.2-196.3-568.4-332.6
		c-81.8-75-88.6-87.2-201.7-344.9c-64.1-147.2-115.9-280.8-115.9-297.2c0-42.3,32.7-49.1,125.4-23.2
		c166.3,46.3,477.1,227.6,573.9,335.3c27.3,30,92.7,140.4,145.9,245.4c61.3,121.3,103.6,190.8,117.2,190.8
		c10.9,0,106.3-21.8,209.9-47.7s211.3-47.7,237.2-47.7c46.3,0,47.7-1.4,34.1-36.8c-17.7-46.3-9.5-66.8,40.9-96.8
		c40.9-24.5,40.9-25.9,17.7-58.6c-12.3-17.7-61.3-118.6-107.7-222.2s-87.2-190.8-88.6-192.2c-2.7-2.7-77.7,16.4-167.7,42.3
		c-90,24.5-194.9,45-233.1,46.3c-91.3,0-248.1-42.3-402.1-109.1c-69.5-30-141.8-54.5-159.5-54.5c-65.4,0-261.7-128.1-261.7-171.8
		c0-32.7,42.3-47.7,355.8-121.3c305.3-73.6,323.1-76.3,400.8-61.3c106.3,21.8,368,114.5,429.4,155.4c115.9,75,159.5,99.5,194.9,109
		c20.4,4.1,36.8,15,36.8,21.8c0,8.2,16.4,13.6,36.8,13.6c43.6,0,186.7,76.3,291.7,158.1c132.2,100.9,178.6,166.3,286.3,399.4
		l99.5,218.1l212.6,95.4c164.9,75,230.4,96.8,299.9,103.6c110.4,10.9,227.6,40.9,332.6,83.2c45,17.7,83.2,30,85.9,27.3
		s-57.3-141.8-133.6-309.4c-75-167.7-140.4-317.6-144.5-334c-9.5-39.5,27.3-64.1,95.4-62.7c69.5,1.4,147.2,28.6,261.7,88.6l84.5,45
		l-60-72.2c-200.4-246.7-468.9-715.6-564.3-985.5l-50.4-143.1l-99.5-23.2c-55.9-12.3-120-25.9-143.1-30l-42.3-8.2l51.8,100.9
		c75,149.9,81.8,219.5,77.7,768.8c-4.1,447.1-5.5,483.9-28.6,500.3c-55.9,39.5-196.3-47.7-314.9-196.3
		c-100.9-124-343.5-488-434.8-650.2c-118.6-211.3-132.2-264.4-132.2-528.9v-223.6l-64.1-38.2c-185.4-106.3-329.9-229-528.9-449.8
		c-186.7-207.2-282.2-407.6-235.8-496.2c24.5-45,107.7-72.2,192.2-61.3c35.4,4.1,359.9,77.7,721.1,164.9
		c361.2,85.9,662.5,154,667.9,152.7c9.5-4.1-1104.1-1402.7-1166.8-1466.7c-9.5-9.5-207.2-62.7-438.9-118.6
		c-467.6-113.1-519.4-133.6-700.6-271.3c-164.9-124-432.1-410.3-490.7-526.2c-17.7-34.1-70.9-107.7-118.6-163.6
		s-113.1-132.2-145.9-170.4c-117.2-137.7-338.1-492.1-411.7-661.1l-39.5-88.6l-4.1-538.4c-4.1-602.5-5.5-597,80.4-580.7
		c159.5,30,501.6,452.6,722.5,895.6c100.9,200.4,107.7,239.9,107.7,614.8v324.4l31.4,6.8c16.4,4.1,155.4,34.1,309.4,66.8
		c203.1,42.3,302.6,69.5,364,100.9c100.9,51.8,113.1,53.2,113.1,13.6c0-39.5,49.1-120,70.9-120c9.5,0,25.9-12.3,35.4-28.6
		c15-23.2,28.6-27.3,79.1-23.2c57.3,4.1,61.3,2.7,51.8-23.2c-5.5-15-12.3-203.1-15-417.1L6675,3588l-321.7-84.5
		c-177.2-46.3-353.1-98.1-391.2-115.9c-295.8-137.7-742.9-621.6-875.1-948.7c-42.3-106.3-35.4-149.9,23.2-149.9
		c64.1,0,965.1,229,1045.5,265.8c155.4,70.9,370.8,242.6,505.7,404.8c50.4,60,128.1,151.3,173.1,201.7
		c45,49.1,102.2,129.5,128.1,178.6c24.5,47.7,84.5,126.8,130.9,175.8c149.9,155.4,383,538.4,458,753.8l39.5,111.8v433.5v433.5
		l583.4,744.3l582.1,744.3l9.5-339.4c5.5-186.7,15-527.5,21.8-757.9c9.5-392.6,12.3-422.6,38.2-456.6
		c39.5-53.2,110.4-57.3,189.5-10.9c62.7,36.8,211.3,200.4,324.4,358.5c84.5,117.2,185.4,323.1,249.5,509.8
		c31.4,94.1,57.3,148.6,72.2,152.7c12.3,4.1,120,25.9,239.9,49.1c259,50.4,299.9,64.1,415.8,147.2c103.6,72.2,460.7,428,515.3,511.2
		c20.4,31.4,75,107.7,121.3,170.4c129.5,170.4,199,323.1,169,369.4c-6.8,10.9-30,19.1-51.8,17.7c-49.1-1.4-1051-244-1072.8-259
		c-8.2-5.5-69.5-54.5-137.7-106.3c-66.8-53.2-130.9-100.9-139-106.3c-13.6-8.2-17.7,23.2-17.7,132.2v143.1l91.3,58.6
		c344.9,223.6,865.6,741.5,1007.4,1001.9c34.1,62.7,72.2,126.8,85.9,144.5l24.5,30l9.5-30c6.8-21.8-4.1-51.8-38.2-107.7
		c-118.6-199-208.6-606.6-141.8-648.8c34.1-23.2,87.2,8.2,347.6,197.7c125.4,92.7,235.8,173.1,244,178.6
		c10.9,6.8,13.6-39.5,9.5-171.8c-6.8-155.4-4.1-190.8,19.1-259l27.3-79.1l-49.1-223.6l-49.1-223.6l-227.6-170.4
		c-174.5-130.9-235.8-185.4-264.4-233.1c-42.3-75-95.4-235.8-109-332.6c-4.1-38.2-17.7-76.3-27.3-84.5
		c-10.9-8.2-19.1-35.4-19.1-58.6c0-23.2-13.6-79.1-30-124c-15-45-32.7-111.8-38.2-149.9c-5.5-36.8-20.4-126.8-34.1-197.7
		c-15-84.5-20.4-164.9-16.4-231.7c6.8-98.1,13.6-117.2,151.3-392.6c92.7-185.4,152.7-289,164.9-289c28.6,0,70.9,73.6,96.8,163.6
		c10.9,40.9,32.7,99.5,46.3,129.5c16.4,35.4,31.4,114.5,40.9,227.6c21.8,244,8.2,321.7-95.4,528.9c-45,90-81.8,167.7-81.8,174.5
		c0,5.5,69.5,64.1,155.4,129.5c84.5,66.8,169,134.9,185.4,154c31.4,31.4,31.4,32.7,50.4,5.5c21.8-30,87.2-36.8,145.9-13.6
		c34.1,12.3,35.4,10.9,35.4-45c0-45,20.4-95.4,95.4-234.5c53.2-96.8,95.4-179.9,95.4-185.4c0-4.1-69.5-61.3-152.7-125.4
		c-84.5-64.1-170.4-129.5-190.8-145.9c-49.1-38.2-100.9-147.2-133.6-286.3c-15-64.1-40.9-155.4-55.9-205.8
		c-35.4-113.1-39.5-276.7-9.5-308.1c20.4-19.1,25.9-19.1,62.7,4.1c98.1,61.3,489.4,404.8,523.4,458
		c42.3,69.5,84.5,188.1,107.7,310.8c8.2,49.1,23.2,98.1,32.7,109.1c17.7,21.8,32.7,85.9,46.3,211.3c5.5,45,16.4,94.1,24.5,109.1
		c24.5,43.6,49.1,299.9,42.3,422.6c-6.8,105-12.3,118.6-132.2,359.9l-125.4,249.5l62.7,241.3c39.5,148.6,76.3,254.9,95.4,280.8
		c35.4,49.1,105,182.7,144.5,283.5c16.4,38.2,35.4,85.9,42.3,105c12.3,31.4,30,2.7,186.7-313.5c155.4-313.5,175.8-347.6,205.8-347.6
		c28.6,0,42.3,15,79.1,90c25.9,51.8,50.4,125.4,57.3,178.6c20.4,137.7,28.6,148.6,50.4,64.1c85.9-342.1,274-802.9,430.7-1049.6
		l73.6-117.2l-65.4-128.1c-51.8-105-66.8-122.7-75-100.9c-23.2,62.7-130.9,209.9-204.5,280.8c-72.2,69.5-618.9,520.7-722.5,597
		c-94.1,69.5-136.3,0-133.6-223.6c1.4-136.3,8.2-169,65.4-364c83.2-283.5,130.9-410.3,219.5-590.2
		c85.9-173.1,84.5-171.8,298.5-359.9l160.8-143.1l-8.2-61.3c-19.1-148.6-24.5-395.3-9.5-497.5c17.7-121.3,111.8-430.7,160.8-531.6
		c64.1-126.8,132.2-159.5,203.1-99.5c23.2,20.4,158.1,274,368,692.5c182.7,362.6,331.2,655.7,331.2,650.2
		c1.4-4.1,94.1-413,205.8-906.5c113.1-493.5,205.8-909.2,207.2-924.2c1.4-24.5-94.1-231.7-324.4-708.8l-66.8-136.3v-224.9
		c0-179.9,8.2-272.6,38.2-463.5c23.2-141.8,50.4-263.1,68.2-299.9c16.4-35.4,32.7-106.3,38.2-170.4
		c23.2-256.3,40.9-362.6,87.2-507.1c64.1-200.4,130.9-355.8,205.8-477.1c57.3-92.7,85.9-117.2,425.3-383
		c479.8-376.2,492.1-384.4,515.3-384.4c32.7,0,60,87.2,60,188.1c0,133.6-24.5,312.2-54.5,391.2c-15,38.2-45,130.9-66.8,208.6
		c-77.7,264.4-175.8,479.8-278.1,612c-23.2,31.4-154,137.7-289,237.2c-135,98.1-246.7,181.3-249.5,182.7
		c-2.7,1.4,66.8,144.5,152.7,317.6c118.6,238.5,158.1,331.2,164.9,388.5l9.5,75l49.1-20.4c96.8-39.5,192.2-9.5,246.7,80.4l23.2,36.8
		l55.9-72.2c30-39.5,170.4-164.9,312.2-280.8c141.8-114.5,263.1-214,269.9-219.5c6.8-5.5-60-144.5-147.2-309.4
		c-95.4-182.7-163.6-328.5-173.1-372.1c-31.4-145.9,13.6-593,81.8-816.5c15-49.1,39.5-140.4,55.9-203.1
		c60-239.9,130.9-359.9,192.2-328.5c32.7,19.1,456.6,861.5,482.5,963.7c49.1,185.4,39.5,432.1-28.6,733.4
		c-17.7,81.8-32.7,167.7-32.7,190.8c0,21.8-20.4,105-46.3,184c-57.3,178.6-76.3,260.4-76.3,319c0,92.7-133.6,482.5-230.4,673.4
		c-76.3,148.6-114.5,186.7-468.9,452.6l-344.9,257.6l-207.2,929.7c-114.5,511.2-205.8,931-203.1,935.1
		c4.1,2.7,245.4-184,537.1-415.8c648.8-515.3,637.9-507.1,693.8-507.1c39.5,0,99.5,39.5,100.9,66.8c1.4,4.1,6.8,35.4,12.3,68.2
		c6.8,32.7,6.8,99.5,0,149.9c-6.8,49.1-17.7,136.3-24.5,193.6c-21.8,175.8-155.4,493.5-291.7,697.9l-62.7,92.7l107.7,234.5
		c58.6,129.5,113.1,259,121.3,289c9.5,30,19.1,137.7,24.5,238.5c9.5,237.2-17.7,448.5-91.3,697.9
		c-72.2,249.5-117.2,357.1-171.8,414.4c-38.2,42.3-49.1,46.3-73.6,32.7c-17.7-9.5-110.4-178.6-253.5-466.2
		c-215.4-430.7-226.3-455.3-237.2-561.6c-8.2-60-13.6-163.6-13.6-229c0-66.8-4.1-120-8.2-120s-53.2,38.2-109,85.9l-100.9,84.5
		l6.8,75c19.1,226.3,23.2,473,8.2,640.7c-31.4,351.7-102.2,699.3-184,903.8l-32.7,77.7h30c24.5,0,35.4-17.7,62.7-98.1
		c57.3-169,245.4-438.9,350.3-503c24.5-15,58.6-25.9,75-23.2c58.6,8.2,65.4,49.1,65.4,410.3v338.1l99.5-100.9
		c88.6-90,171.8-145.9,271.3-177.2c12.3-4.1,92.7-92.7,179.9-196.3l158.1-188.1v-252.2c0-354.4,28.6-447.1,211.3-689.7
		c49.1-64.1,129.5-177.2,177.2-250.8c47.7-72.2,122.7-164.9,166.3-204.5c87.2-80.4,275.4-223.6,329.9-250.8
		c53.2-27.3,582.1-148.6,606.6-140.4c57.3,21.8,0,132.2-192.2,372.1c-130.9,160.8-237.2,264.4-314.9,304
		c-31.4,16.4-107.7,38.2-170.4,50.4c-61.3,10.9-143.1,25.9-182.7,34.1l-70.9,13.6l-5.5,214c-2.7,117.2-9.5,230.4-15,249.5
		c-9.5,32.7-8.2,35.4,21.8,30c25.9-5.5,43.6,5.5,76.3,43.6c24.5,25.9,43.6,54.5,43.6,61.3c0,16.4,45,17.7,61.3,1.4
		c8.2-5.5,106.3-34.1,220.8-62.7l205.8-50.4l5.5-226.3c5.5-204.5,9.5-237.2,40.9-316.2c51.8-132.2,169-323.1,212.6-346.2
		c20.4-10.9,66.8-53.2,102.2-95.4c80.4-92.7,128.1-126.8,148.6-106.3c17.7,17.7,54.5,602.5,39.5,652.9
		c-36.8,128.1-245.4,451.2-380.3,590.2c-55.9,55.9-133.6,147.2-175.8,200.4c-90,120-192.2,211.3-283.5,256.3
		c-42.3,21.8-167.7,54.5-324.4,84.5l-256.3,51.8l-158.1,207.2c-143.1,186.7-160.8,215.4-177.2,291.7
		c-19.1,95.4-77.7,227.6-141.8,320.3c-34.1,50.4-38.2,61.3-17.7,54.5c154-45,696.6-170.4,715.6-164.9c30,9.5,46.3,60,32.7,105
		c-24.5,81.8-137.7,245.4-209.9,306.7c-42.3,35.4-81.8,69.5-90,75c-25.9,23.2,55.9-13.6,105-47.7c69.5-46.3,434.8-188.1,633.9-246.7
		c184-53.2,407.6-99.5,548-111.8l91.3-9.5l46.3-121.3c24.5-66.8,42.3-124,39.5-126.8s-64.1,5.5-136.3,16.4l-130.9,21.8l-516.6-106.3
		c-284.9-58.6-530.3-114.5-546.6-125.4c-68.2-40.9-27.3-105,136.3-214c357.1-237.2,834.2-417.1,1113.7-419.8
		c92.7-1.4,155.4,8.2,312.2,49.1l194.9,50.4l139-133.6c166.3-162.2,276.7-237.2,520.7-353c226.3-109.1,336.7-139,414.4-115.9
		c64.1,19.1,87.2,55.9,77.7,125.4c-4.1,28.6-130.9,320.3-282.2,648.8c-152.7,328.5-290.3,628.4-308.1,667.9l-31.4,70.9l398-194.9
		c219.5-107.7,606.6-297.2,861.5-422.6l464.8-227.6l193.6-388.5c214-428,235.8-458,432.1-613.4c159.5-124,294.4-203.1,621.6-368
		c160.8-79.1,317.6-162.2,347.6-184c178.6-122.7,644.8-271.3,849.2-271.3c99.5,0,1057.8,231.7,1089.1,264.4
		c17.7,16.4,17.7,27.3,5.5,54.5c-21.8,47.7-145.9,141.8-279.4,212.6c-61.3,32.7-136.3,76.3-167.7,96.8
		c-181.3,122.7-614.8,260.4-830.1,261.7c-94.1,1.4-148.6-9.5-407.6-83.2c-163.6-47.7-299.9-83.2-301.2-81.8
		c-2.7,2.7-72.2,141.8-156.8,310.8s-175.8,335.3-205.8,369.4l-51.8,64.1l77.7,45l77.7,46.3l4.1,99.5l4.1,98.1h87.2
		c64.1,0,174.5,23.2,403.5,83.2c173.1,45,316.2,80.4,317.6,77.7s61.3-129.5,132.2-283.5l128.1-279.4l143.1-143.1
		c201.7-203.1,418.5-343.5,756.5-488c190.8-83.2,297.2-114.5,370.8-109.1c58.6,4.1,65.4,8.2,69.5,39.5
		c2.7,21.8-69.5,192.2-200.4,477.1c-224.9,488-259,542.5-438.9,689.7c-212.6,173.1-448.5,310.8-654.3,378.9
		c-77.7,27.3-175.8,64.1-216.7,83.2c-87.2,42.3-100.9,47.7-334,149.9c-96.8,42.3-250.8,102.2-340.8,132.2
		c-242.6,83.2-308.1,80.4-830.1-34.1l-406.2-88.6l-857.4,403.5c-599.8,283.5-849.2,406.2-832.9,413c12.3,6.8,324.4,81.8,691.1,169
		c452.6,107.7,685.7,167.7,723.8,190.8c107.7,61.3,109,148.6,5.5,242.6c-84.5,76.3-144.5,107.7-482.5,249.5
		c-129.5,54.5-331.2,99.5-492.1,110.4l-149.9,9.5l-31.4,61.3c-16.4,34.1-69.5,144.5-117.2,246.7c-73.6,155.4-100.9,199-170.4,267.2
		c-211.3,211.3-651.6,475.7-936.5,563c-118.6,35.4-260.4,34.1-283.5-2.7c-12.3-20.4,27.3-109,218.1-490.7
		c128.1-257.6,259-498.9,289-537.1c30-38.2,105-107.7,164.9-152.7c126.8-95.4,133.6-80.4-66.8-125.4l-102.2-23.2l-109.1,102.2
		c-234.5,220.8-500.3,406.2-790.6,554.8c-95.4,49.1-189.5,99.5-208.6,114.5c-20.4,13.6-80.4,38.2-134.9,54.5
		c-53.2,16.4-111.8,40.9-129.5,54.5c-27.3,23.2-5.5,20.4,145.9-19.1c152.7-40.9,199-46.3,340.8-47.7c234.5,0,314.9,28.6,282.2,100.9
		c-8.2,17.7-145.9,139-305.3,268.5l-293.1,237.2l90,16.4c99.5,16.4,188.1,45,299.9,94.1c69.5,31.4,87.2,32.7,340.8,32.7l267.2-1.4
		l218.1-182.7c166.3-140.4,234.5-189.5,286.3-205.8c45-13.6,158.1-25.9,327.2-32.7c143.1-5.5,290.3-17.7,327.2-27.3
		c84.5-19.1,359.9-8.2,481.2,20.4c46.3,10.9,107.7,32.7,136.3,47.7c77.7,40.9,539.8,413,545.2,438.9c9.5,50.4-45,58.6-372.1,58.6
		c-418.5,0-417.1,0-640.7-199l-170.4-149.9l-158.1,126.8c-85.9,69.5-162.2,126.8-166.3,126.8c-5.5,0-28.6,13.6-50.4,30l-40.9,30
		l31.4,21.8c38.2,27.3,38.2,77.7,1.4,137.7l-28.6,46.3h35.4c19.1,0,39.5,8.2,45,17.7c12.3,20.4,319,268.5,332.6,268.5
		c4.1,0,87.2-61.3,182.7-136.3c140.4-109.1,193.6-141.8,264.4-163.6c122.7-38.2,336.7-60,500.3-49.1
		c170.4,9.5,242.6,31.4,248.1,72.2c4.1,24.5-35.4,62.7-211.3,201.7c-268.5,214-298.5,231.7-448.5,267.2
		c-103.6,24.5-177.2,30-494.8,35.4c-395.3,6.8-535.7-4.1-661.1-51.8c-40.9-15-163.6-96.8-294.4-196.3l-224.9-170.4h-235.8h-237.2
		l-96.8,46.3c-54.5,25.9-140.4,54.5-193.6,62.7c-51.8,9.5-118.6,20.4-145.9,25.9l-51.8,8.2l241.3,190.8
		c357.1,283.5,381.7,314.9,284.9,354.4c-92.7,39.5-411.7,38.2-580.7-1.4c-19.1-4.1,72.2,45,201.7,109.1
		c407.6,201.7,646.1,362.6,880.6,597l134.9,135l140.4-30l139-30l-100.9-96.8l-100.9-96.8l-246.7-497.5
		c-182.7-369.4-244-503-233.1-518c32.7-53.2,219.5-23.2,423.9,68.2c64.1,28.6,132.2,55.9,151.3,61.3
		c118.6,35.4,485.3,280.8,631.1,422.6c79.1,77.7,103.6,114.5,171.8,256.3c45,91.3,90,189.5,100.9,218.1c20.4,46.3,25.9,50.4,75,50.4
		c99.5,0,282.2,39.5,473,103.6c233.1,77.7,312.2,111.8,437.6,190.8c224.9,139,256.3,256.3,91.3,325.8
		c-42.3,17.7-1390.4,346.2-1429.9,347.6c-20.4,1.4,111.8,66.8,924.2,448.5l786.5,370.8l385.8-76.3c212.6-42.3,413-85.9,445.7-96.8
		c34.1-9.5,90-19.1,124-19.1c141.8,0,462.1,109,756.5,256.3c98.1,49.1,254.9,114.5,349,145.9c351.7,118.6,819.2,432.1,932.4,625.7
		c66.8,114.5,429.4,916,426.7,940.6c-5.5,36.8-65.4,49.1-162.2,34.1c-252.2-40.9-771.5-334-1008.7-571.1L22400,16445l-140.4-299.9
		c-77.7-164.9-141.8-301.3-143.1-302.6c-1.4-1.4-145.9,34.1-321.7,77.7c-244,61.3-344.9,81.8-421.2,81.8c-90,0-98.1,2.7-90,24.5
		c42.3,98.1-24.5,219.5-140.4,254.9c-30,8.2-30,9.5,21.8,72.2c30,35.4,122.7,201.7,207.2,370.8s155.4,309.4,158.1,312.2
		c2.7,2.7,148.6-31.4,324.4-77.7c357.1-94.1,408.9-99.5,598.4-57.3c249.5,54.5,462.1,143.1,747,309.4
		c194.9,114.5,287.6,182.7,312.2,229c17.7,34.1,17.7,39.5-9.5,61.3c-17.7,13.6-230.4,73.6-511.2,144.5
		c-531.6,133.6-579.3,139-781.1,94.1c-218.1-47.7-572.5-186.7-617.5-242.6c-15-17.7-312.2-170.4-575.2-294.4
		c-134.9-62.7-351.7-204.5-474.4-309.4c-160.8-136.3-188.1-179.9-369.4-580.7l-169-373.5l-853.3-410.3
		c-468.9-226.3-864.2-415.8-876.5-419.8c-15-5.5,88.6,222.2,290.3,633.9c171.8,353,320.3,672,328.5,708.8
		c76.3,331.2-471.6,151.3-1045.5-342.1l-159.5-136.3l-226.3,47.7c-316.2,68.2-320.3,68.2-473,42.3
		c-265.8-45-674.7-208.6-936.5-373.5c-85.9-54.5-188.1-149.9-188.1-177.2c0-35.4,77.7-61.3,541.2-179.9
		c565.7-143.1,595.7-147.2,798.8-88.6c65.4,20.4,122.7,35.4,125.4,35.4c13.6,0-117.2-246.7-133.6-250.8c-9.5-2.7-83.2-15-166.3-28.6
		c-342.1-53.2-827.4-209.9-1143.7-370.8l-66.8-34.1l120,129.5c229,248.1,280.8,377.6,151.3,377.6c-23.2,0-203.1-38.2-399.4-84.5
		c-197.7-46.3-361.2-80.4-366.7-76.3c-4.1,4.1,13.6,38.2,39.5,75c25.9,35.4,69.5,117.2,96.8,179.9c40.9,91.3,91.3,166.3,248.1,364
		l199,246.7l246.7,50.4c219.5,43.6,256.3,54.5,317.6,96.8c113.1,77.7,342.1,302.6,383,374.9c20.4,36.8,51.8,73.6,68.2,83.2
		c32.7,17.7,212.6,254.9,283.5,373.5c95.4,158.1,95.4,156.8,95.4,531.6v340.8l-36.8,4.1c-20.4,2.7-53.2-6.8-73.6-19.1
		c-68.2-45-290.3-357.1-383-538.4l-51.8-100.9l-6.8-224.9l-6.8-224.9l-207.2-34.1c-148.6-24.5-214-40.9-234.5-60
		c-32.7-30-31.4-30-50.4,25.9c-9.5,32.7-25.9,45-80.4,62.7c-40.9,12.3-60,24.5-50.4,31.4c12.3,6.8,16.4,75,16.4,237.2v227.6
		l199,53.2c235.8,62.7,304,102.2,455.3,261.7c257.6,268.5,385.8,468.9,304,468.9c-35.4,0-627-134.9-695.2-159.5
		c-73.6-24.5-171.8-113.1-249.5-223.6c-34.1-47.7-87.2-114.5-118.6-148.6c-31.4-34.1-69.5-90-83.2-124
		c-15-32.7-46.3-77.7-70.9-100.9c-55.9-50.4-189.5-253.5-249.5-373.5l-43.6-90l-6.8-279.4l-6.8-279.4l-121.3-166.3
		c-114.5-156.8-125.4-169-190.8-189.5c-90-28.6-194.9-88.6-302.6-171.8l-87.2-66.8v308.1v308.1l-34.1,34.1
		c-45,45-77.7,35.4-149.9-40.9c-137.7-144.5-274-361.2-314.9-498.9c-25.9-87.2-54.5-111.8-40.9-35.4c5.5,25.9,35.4,130.9,68.2,235.8
		c98.1,309.4,137.7,665.2,128.1,1138.2l-6.8,308.1l107.7,76.3c58.6,40.9,106.3,70.9,106.3,65.4c0-5.5,6.8-85.9,13.6-179.9
		l12.3-170.4l215.4-434.8c122.7-248.1,229-444.4,248.1-459.4c34.1-27.3,69.5-17.7,107.7,27.3c60,72.2,152.7,344.9,152.7,445.7
		c0,30,12.3,109.1,25.9,175.8c42.3,196.3,58.6,372.1,54.5,560.2l-5.5,175.8l-113.1,205.8c-61.3,113.1-111.8,211.3-111.8,216.7
		s30,57.3,66.8,114.5c147.2,230.4,267.2,520.7,289,703.4c34.1,265.8,28.6,354.4-19.1,421.2c-27.3,38.2-94.1,32.7-148.6-9.5
		c-147.2-117.2-1162.7-892.8-1165.5-890.1c-2.7,2.7,396.7,1772.1,413,1822.5c2.7,10.9,162.2,145.9,354.4,299.9
		c378.9,301.3,398,323.1,498.9,541.2c83.2,177.2,188.1,507.1,188.1,587.5c0,43.6,24.5,143.1,66.8,276.7
		c36.8,114.5,69.5,242.6,75,283.5c4.1,40.9,16.4,124,27.3,184c31.4,167.7,54.5,467.6,42.3,571.2c-8.2,84.5-31.4,137.7-245.4,565.7
		c-129.5,260.4-245.4,481.2-257.6,490.7c-42.3,35.4-83.2,6.8-134.9-90c-60-114.5-118.6-293.1-118.6-359.9
		c0-27.3-15-115.9-32.7-197.7c-68.2-306.7-79.1-586.1-28.6-751.1c10.9-39.5,85.9-193.6,163.6-340.8
		c79.1-148.6,143.1-275.4,143.1-283.5c-1.4-6.8-120-102.2-264.4-209.9c-158.1-117.2-284.9-222.2-316.2-261.7
		c-28.6-36.8-55.9-66.8-61.3-66.8c-4.1,0-15,13.6-24.5,31.4c-21.8,40.9-83.2,77.7-128.1,77.7c-19.1,0-62.7-12.3-98.1-27.3
		c-77.7-32.7-75-32.7-75,0c0,69.5-49.1,194.9-181.3,458l-143.1,286.3l267.2,214c178.6,141.8,283.5,235.8,312.2,278.1
		c121.3,178.6,282.2,614.8,305.3,819.2c6.8,65.4,17.7,143.1,25.9,173.1c21.8,90,17.7,295.8-8.2,331.2
		C15099.1,23991.2,15095,23992.6,15061,23980.3z M13062.6,17615.9l50.4-83.2l-90-158.1c-196.3-342.1-380.3-813.8-438.9-1120.5
		c-9.5-47.7-10.9-40.9-15,54.5c-2.7,65.4-10.9,115.9-21.8,129.5c-10.9,10.9-23.2,47.7-28.6,81.8c-15,88.6-46.3,162.2-77.7,178.6
		c-54.5,30-91.3-21.8-279.4-391.2c-99.5-193.6-179.9-339.4-181.3-324.4c0,60-54.5,205.8-110.4,298.5
		c-51.8,84.5-64.1,125.4-121.3,381.7l-64.1,286.3l117.2,234.5c64.1,129.5,117.2,233.1,120,231.7c1.4-2.7-8.2-40.9-23.2-85.9
		c-13.6-45-32.7-155.4-40.9-244c-21.8-220.8-2.7-334,54.5-334c13.6,0,211.3,145.9,437.6,324.4c455.3,357.1,462.1,365.3,560.2,603.9
		l43.6,106.3l28.6-43.6C12998.5,17718.1,13034,17660.9,13062.6,17615.9z M13727.8,17076.1c128.1-38.2,244-197.7,290.3-398
		c60-254.9,0-693.8-137.7-1027.8c-167.7-406.2-406.2-609.3-599.8-509.8c-238.5,122.7-313.5,530.3-197.7,1072.8
		c54.5,249.5,81.8,334,160.8,488c76.3,148.6,224.9,313.5,324.4,359.9C13647.4,17096.5,13655.6,17097.9,13727.8,17076.1z
		 M9695.7,16123.3c244-91.3,542.5-385.8,790.6-781.1c167.7-267.2,241.3-575.2,173.1-723.8c-47.7-103.6-151.3-170.4-263.1-170.4
		c-160.8,1.4-404.8,144.5-624.3,366.7c-290.3,291.7-509.8,707.5-528.9,992.4c-8.2,133.6,15,207.2,84.5,275.4
		C9417.6,16169.6,9537.6,16183.2,9695.7,16123.3z M12045.7,15042.3c166.3-87.2,320.3-453.9,320.3-764.7
		c1.4-294.4-125.4-448.5-298.5-366.7c-122.7,58.6-253.5,317.6-304,597c-36.8,204.5-1.4,413,85.9,505.7
		c38.2,39.5,54.5,47.7,102.2,47.7C11983,15061.4,12025.3,15053.2,12045.7,15042.3z M14543,14458.9c70.9-36.8,95.4-76.3,95.4-160.8
		c0-144.5-75-316.2-212.6-489.4c-151.3-188.1-365.3-329.9-503-331.2c-58.6-1.4-70.9,4.1-109,46.3c-57.3,62.7-68.2,128.1-42.3,253.5
		c36.8,177.2,139,339.4,320.3,511.2c110.4,103.6,188.1,156.8,267.2,181.3C14438,14494.3,14474.8,14493,14543,14458.9z
		 M17153.4,14359.4c149.9-75,189.5-216.7,105-381.7c-118.6-234.5-369.4-440.3-734.7-605.2c-312.2-140.4-573.9-189.5-801.5-149.9
		c-124,21.8-184,60-229,148.6c-77.7,151.3-30,289,171.8,500.3c196.3,203.1,458,373.5,699.3,452.6c192.2,64.1,314.9,83.2,523.4,79.1
		C17062,14400.3,17077,14397.6,17153.4,14359.4z M10198.7,13459.7c283.5-73.6,597-263.1,673.4-407.6c28.6-54.5,27.3-145.9-4.1-199
		c-46.3-79.1-90-102.2-208.6-106.3c-139-6.8-272.6,28.6-471.6,125.4c-257.6,125.4-411.7,298.5-403.5,453.9
		c1.4,39.5,65.4,111.8,117.2,135C9956,13485.6,10103.3,13484.3,10198.7,13459.7z M8552,12485.1c275.4-25.9,519.4-109.1,682.9-231.7
		c81.8-61.3,141.8-166.3,141.8-248.1c0-156.8-171.8-298.5-463.5-383c-186.7-54.5-336.7-68.2-622.9-60s-419.8,32.7-597,106.3
		c-338.1,140.4-423.9,346.2-224.9,543.9C7675.5,12419.7,8100.8,12527.3,8552,12485.1z M15371.8,12253.4
		c151.3-19.1,256.3-60,321.7-125.4c50.4-50.4,51.8-54.5,46.3-130.9c-6.8-99.5-43.6-155.4-136.3-201.7
		c-38.2-19.1-113.1-43.6-166.3-55.9c-121.3-24.5-436.2-27.3-546.6-4.1c-227.6,47.7-369.4,171.8-340.8,299.9
		c20.4,94.1,203.1,193.6,408.9,222.2C15043.2,12268.3,15262.7,12267,15371.8,12253.4z M10758.9,11266.5
		c24.5-9.5,64.1-42.3,88.6-70.9c39.5-47.7,43.6-60,38.2-117.2c-10.9-125.4-158.1-265.8-415.8-396.7
		c-188.1-96.8-305.3-132.2-430.7-132.2c-175.8,1.4-259,64.1-259,196.3c0,92.7,50.4,181.3,147.2,253.5
		c81.8,61.3,366.7,207.2,498.9,253.5C10528.6,11289.6,10686.7,11296.4,10758.9,11266.5z M16212.8,10721.2
		c158.1-47.7,503-208.6,642-301.3c128.1-85.9,278.1-238.5,350.3-355.8c58.6-96.8,92.7-216.7,81.8-286.3
		c-10.9-66.8-79.1-130.9-177.2-170.4c-69.5-27.3-102.2-31.4-263.1-31.4c-194.9,1.4-301.3,19.1-488,81.8
		c-328.5,109.1-700.6,376.2-832.9,597c-61.3,103.6-81.8,164.9-83.2,253.5c0,125.4,62.7,194.9,219.5,238.5
		C15780.7,10779.8,16057.4,10766.2,16212.8,10721.2z M14085,10475.8c88.6-43.6,265.8-205.8,357.1-325.8
		c35.4-46.3,85.9-130.9,113.1-186.7c46.3-95.4,49.1-110.4,49.1-235.8v-134.9l-45-39.5c-72.2-64.1-164.9-47.7-328.5,62.7
		c-312.2,207.2-567.1,666.6-460.7,830.1C13826,10529,13951.4,10541.3,14085,10475.8z M12210.7,10102.3
		c64.1-31.4,95.4-79.1,118.6-174.5c24.5-103.6,23.2-178.6-1.4-327.2c-45-263.1-156.8-528.9-256.3-609.3
		c-91.3-75-203.1-51.8-278.1,57.3c-39.5,57.3-62.7,208.6-51.8,324.4c23.2,223.6,128.1,534.3,220.8,655.7
		C12033.5,10122.8,12120.7,10148.7,12210.7,10102.3z M10446.8,9553c249.5-68.2,283.5-411.7,77.7-808.3
		c-77.7-152.7-272.6-415.8-403.5-546.6c-158.1-158.1-346.2-269.9-509.8-305.3c-147.2-31.4-229-10.9-317.6,79.1
		c-51.8,51.8-66.8,76.3-79.1,140.4c-53.2,252.2,188.1,748.4,528.9,1087.8C10028.3,9483.5,10265.5,9602.1,10446.8,9553z
		 M13451.1,8856.4c283.5-137.7,560.2-764.7,560.2-1274.5c0-381.7-170.4-712.9-351.7-678.8c-189.5,34.1-396.7,254.9-516.6,548
		c-60,144.5-134.9,504.4-147.2,702C12963.1,8656.1,13178.5,8988.7,13451.1,8856.4z"/>
</g>
</svg>
