<?xml version="1.0" encoding="utf-8"?>
<!-- Generator: Adobe Illustrator 30.0.0, SVG Export Plug-In . SVG Version: 9.03 Build 0)  -->
<svg version="1.0" id="Layer_1" xmlns="http://www.w3.org/2000/svg" xmlns:xlink="http://www.w3.org/1999/xlink" x="0px" y="0px"
	 viewBox="0 0 2400 2400" style="enable-background:new 0 0 2400 2400;" xml:space="preserve">
<g transform="translate(0.000000,2400.000000) scale(0.100000,-0.100000)">
	<path d="M8960.2,23882.8c-34.7-10.6-86.1-37.8-114.8-58.9c-31.7-24.2-228-306.6-518-741.5c-258.2-386.6-471.2-703.8-475.7-703.8
		s-43.8,72.5-89.1,163.1c-117.8,237.1-199.3,351.9-394.2,552.7c-264.3,273.3-416.8,370-578.4,371.5
		c-300.5,1.5-379.1-265.8-267.3-901.6c40.8-232.6,92.1-379.1,188.8-548.2c57.4-101.2,75.5-145,60.4-148
		c-10.6-3-391.1,27.2-845.7,64.9c-811,69.5-827.6,71-895.6,43.8c-83.1-31.7-205.4-142-246.2-220.5c-36.2-71-61.9-258.2-45.3-329.2
		c18.1-80,57.4-148,126.9-217.5c119.3-117.8,72.5-110.2,1249-206.9c586-48.3,1078.3-89.1,1094.9-89.1c24.2,0,69.5-78.5,231.1-401.7
		c110.2-220.5,199.3-403.2,196.3-406.2c-3-1.5-575.4,36.2-1273.1,86.1c-1063.2,74-1279.2,86.1-1333.5,71
		c-90.6-24.2-211.4-138.9-267.3-250.7c-86.1-173.7-60.4-360.9,71-508.9c119.3-137.4,1.5-119.3,1732.2-259.8
		c850.3-69.5,1548-128.4,1552.5-131.4c3-3,86.1-182.7,184.2-397.2c128.4-276.4,175.2-392.7,160.1-395.7
		c-12.1-3-220.5,10.6-463.6,28.7c-548.2,40.8-595,40.8-661.5,6c-93.6-46.8-173.7-122.3-219-205.4c-55.9-104.2-71-279.4-30.2-383.6
		c33.2-90.6,145-199.3,258.2-252.2c90.6-42.3,101.2-43.8,853.3-96.7c418.3-30.2,762.7-55.9,762.7-57.4c1.5,0,71-152.5,154-338.3
		c143.5-320.2,149.5-338.3,125.3-362.5c-39.3-36.2-786.8-1178-814-1241.4c-12.1-28.7-27.2-72.5-31.7-96.7
		c-7.6-33.2-31.7-57.4-96.7-98.2c-75.5-46.8-421.4-406.2-1081.3-1123.6c-9.1-9.1-743,146.5-749.1,160.1
		c0,1.5-92.1,309.6-203.9,682.6c-110.2,374.5-217.5,712.8-237.1,752.1c-52.9,105.7-143.5,197.8-234.1,237.1
		c-66.4,28.7-98.2,33.2-214.5,27.2c-161.6-7.6-271.8-49.8-360.9-138.9c-84.6-83.1-105.7-146.5-96.7-288.5
		c6-105.7,27.2-179.7,164.6-573.9c87.6-249.2,157.1-454.6,155.6-457.6c-1.5-1.5-200.9,42.3-444,98.2
		c-338.3,78.5-445.5,107.2-456.1,128.4c-7.6,15.1-208.4,670.5-445.5,1457.4c-237.1,788.3-447,1458.9-466.7,1493.6
		c-46.8,80-125.3,149.5-196.3,172.2c-89.1,28.7-271.8,12.1-373-33.2c-110.2-51.3-216-149.5-264.3-246.2
		c-74-145-81.6-116.3,339.8-1433.2c209.9-655.4,379.1-1193.1,377.6-1196.1c-3-1.5-199.3,40.8-438,96.7
		c-291.5,66.5-434.9,105.7-434.9,119.3c0,33.2-660,2037.3-691.7,2097.7c-57.4,110.2-164.6,188.8-283.9,208.4
		c-125.3,18.1-338.3-46.8-442.5-135.9c-93.6-81.6-128.4-157.1-126.9-285.4c1.5-93.6,30.2-194.8,249.2-883.5
		c137.4-427.4,247.7-779.3,246.2-782.3c-1.5-1.5-101.2,16.6-220.5,40.8c-288.5,60.4-409.3,69.5-632.8,46.8
		c-424.4-39.3-616.2-119.3-702.3-291.5c-45.3-90.6-46.8-129.9-12.1-203.9c36.2-75.5,214.5-259.8,350.4-362.5
		c209.9-158.6,516.5-297.5,756.6-342.8c78.5-15.1,152.5-31.7,164.6-37.8c13.6-7.6-142-182.7-533.1-598
		c-620.7-660-635.8-679.6-635.8-859.3c0-123.8,34.7-208.4,125.3-302c166.1-172.2,412.3-209.9,611.6-93.6
		c46.8,28.7,299,285.4,776.3,798.9c389.6,415.3,712.8,768.7,720.4,783.8c7.6,16.6,18.1,28.7,24.2,28.7
		c18.1,0,848.7-194.8,854.8-199.3c3-3-365.5-406.2-820.1-895.6c-453.1-490.8-848.7-930.3-880.5-978.6
		c-99.7-151-111.8-283.9-37.8-412.3c49.8-84.6,234.1-255.2,302-277.9c90.6-30.2,232.6-13.6,335.3,39.3
		c78.5,39.3,196.3,163.1,1101,1143.2c557.3,604.1,1027,1108.5,1045.1,1120.6c27.2,21.1,72.5,13.6,456.1-75.5
		c234.1-54.4,428.9-98.2,431.9-98.2s-155.6-179.7-354.9-400.2c-394.2-438-413.8-468.2-412.3-637.3c1.5-223.5,241.6-447,478.7-447
		c167.6,0,182.7,12.1,664.5,527.1c240.1,256.7,492.3,522.5,558.8,592l120.8,125.3l324.7-77c404.7-95.1,374.5-86.1,398.7-132.9
		c10.6-22.7,110.2-339.8,219-705.3c148-493.8,211.4-684.1,247.7-740c42.3-66.5,48.3-89.1,49.8-188.8c0-61.9,46.8-421.4,101.2-798.9
		c55.9-377.6,101.2-708.3,101.2-732.5c-1.5-42.3-30.2-69.5-259.8-258.2c-291.5-240.1-326.2-264.3-341.3-241.6
		c-6,9.1-326.2,137.4-712.8,285.4c-634.3,244.7-711.3,270.3-792.9,270.3c-255.2-1.5-466.7-240.1-465.1-525.6
		c0-149.5,61.9-255.2,193.3-332.2c33.2-19.6,258.2-111.8,498.4-203.9c241.6-92.1,442.5-172.2,448.5-178.2
		c4.5-6-151-131.4-345.8-280.9L5538,7998.3l-250.7,98.2c-138.9,54.4-771.7,305.1-1407.5,555.8
		c-1090.4,431.9-1161.4,457.6-1253.5,459.1c-391.1,1.5-601.1-496.9-324.7-770.2c64.9-64.9,104.2-86.1,271.8-152.5
		c1051.1-413.8,2152.1-856.3,2150.6-863.8c0-9.1-524-436.5-655.4-536.1c-27.2-19.6-43.8-22.7-71-12.1
		c-18.1,9.1-472.7,187.3-1008.8,397.2c-945.4,370-977.1,382.1-1079.8,382.1c-89.1,0-122.3-7.6-206.9-49.8
		c-185.8-90.6-280.9-244.7-265.8-431.9c10.6-126.9,71-247.7,163.1-330.7c69.5-61.9,123.8-86.1,743-317.1
		c368.5-135.9,705.3-261.3,749.1-276.4c42.3-15.1,78.5-33.2,78.5-39.3s-89.1-87.6-199.3-181.2c-290-249.2-457.6-495.4-561.8-827.6
		c-71-222-51.3-354.9,63.4-430.4c135.9-89.1,324.7-83.1,641.8,22.7c270.3,90.6,442.5,185.8,637.3,353.4
		c90.6,78.5,167.6,140.5,172.2,137.4c3-4.5,52.9-368.5,108.7-808c55.9-441,113.3-836.7,128.4-878.9
		c33.2-99.7,123.8-199.3,214.5-234.1c101.2-39.3,299-34.7,418.3,10.6c175.2,66.4,258.2,197.8,252.2,407.8
		c-1.5,131.4-270.3,2129.4-288.5,2150.6c-9.1,10.6,98.2,107.2,335.3,299c193.3,154,351.9,280.9,353.4,277.9
		c1.5-1.5,86.1-543.7,185.8-1202.1c101.2-660,193.3-1241.4,205.4-1291.2c36.2-151,131.4-258.2,261.3-294.5
		c90.6-24.2,246.2-18.1,357.9,16.6c83.1,25.7,117.8,46.8,172.2,102.7c80,81.6,105.7,154,105.7,294.5c0,55.9-98.2,747.6-220.5,1537.4
		c-120.8,789.8-217.5,1457.4-214.5,1483c4.5,42.3,43.8,77,348.9,309.6c190.3,143.5,347.4,258.2,350.4,255.2s36.2-216,75.5-472.7
		c74-496.9,86.1-557.3,128.4-643.4c37.8-74,137.4-158.6,206.9-178.2c197.8-55.9,481.8,37.8,578.4,190.3
		c90.6,140.5,89.1,149.5-28.7,960.5c-58.9,401.7-107.2,753.6-107.2,783.8c0,51.3,12.1,63.4,285.4,288.5
		c237.1,194.8,288.5,231.1,305.1,214.5c39.3-36.2,1377.3-540.7,1455.9-548.2c58.9-6,89.1-19.6,135.9-60.4
		c33.2-28.7,359.4-226.5,724.9-441l664.5-388.1l4.5-370l3-370l-42.3-21.1c-155.6-75.5-1303.3-758.1-1362.2-809.5
		c-95.1-84.6-142-191.8-132.9-306.6c7.6-96.7,75.5-253.7,145-333.8c104.2-119.3,300.5-178.2,436.5-129.9
		c34.7,12.1,252.2,126.9,483.3,256.7c231.1,129.9,431.9,240.1,447,244.7c24.2,10.6,25.7-16.6,25.7-428.9v-439.5l-40.8-16.6
		c-87.6-33.2-2584-1474-2636.8-1522.3c-169.1-152.5-188.8-465.1-40.8-660c123.8-164.6,297.5-214.5,483.3-137.4
		c64.9,27.2,1943.7,1088.9,2186.8,1236.9l48.3,30.2v-454.6c0-441-1.5-454.6-28.7-454.6c-36.2,0-1863.6-1087.4-1924-1144.7
		c-24.2-22.7-61.9-71-83.1-108.7c-33.2-55.9-40.8-86.1-40.8-173.7c0-273.4,244.7-522.5,492.3-501.4c105.7,9.1,101.2,6,904.6,477.2
		l672,394.2l9.1-283.9c7.6-250.7,15.1-302,55.9-456.1c140.5-528.6,288.5-740,512-740c234.1,1.5,386.6,225,527.1,777.8
		c31.7,122.3,40.8,203.9,48.3,425.9l10.6,273.3L13287,1160c481.8-290,723.4-425.9,776.3-439.5c282.4-68,572.4,167.6,573.9,468.2
		c1.5,123.8-43.8,217.5-151,321.7c-80,77-1830.4,1129.6-1880.2,1129.6c-25.7,0-27.2,24.2-27.2,451.6v453.1l1093.4-625.2
		c601.1-342.8,1123.6-634.3,1162.9-647.9c93.6-31.7,212.9-30.2,290,4.5s178.2,138.9,220.5,228c45.3,93.6,55.9,299,19.6,406.2
		c-51.3,155.6-45.3,152.5-1427.2,942.4c-702.3,400.2-1294.3,737-1316.9,747.6l-42.3,18.1v438c0,240.1,4.5,438,9.1,438
		c4.5,0,196.3-110.2,425.9-244.7c427.4-249.2,502.9-283.9,616.2-283.9c187.3,0,385.1,152.5,442.5,339.8
		c37.8,120.8,39.3,158.6,7.6,262.8c-16.6,58.9-45.3,102.7-116.3,175.2c-83.1,86.1-161.6,137.4-675.1,434.9
		c-320.2,185.8-610.1,353.4-644.9,373l-64.9,36.2v370c0,370,0,371.5,34.7,388.1c18.1,9.1,305.1,175.2,637.3,370
		c332.2,194.8,623.7,364,647.9,376c24.2,12.1,57.4,43.8,72.5,69.5c25.7,43.8,36.2,48.3,122.3,54.4c75.5,6,226.5,58.9,800.4,279.4
		l708.3,273.3l277.9-228c225-185.8,277.9-237.1,277.9-267.3c0-21.1-48.3-364-107.2-762.7c-72.5-492.3-104.2-750.6-99.7-803.4
		c21.1-220.5,238.6-397.2,486.3-397.2c181.2,0,296,66.4,368.5,216c42.3,83.1,55.9,149.5,120.8,589c40.8,273.4,77,498.4,81.6,502.9
		c3,4.5,164.6-113.3,357.9-259.8l350.4-267.3l-7.6-77c-4.5-42.3-108.7-726.4-229.6-1519.3c-167.6-1090.4-219-1460.4-211.4-1517.8
		c27.2-226.5,176.7-348.9,447-367c223.5-13.6,368.5,66.4,433.4,240.1c19.6,52.9,96.7,521,214.5,1297.3
		c101.2,669,187.3,1226.3,193.3,1239.9c9.1,19.6,77-31.7,327.7-246.2c175.2-148,324.7-277.9,335.3-288.5
		c13.6-13.6-12.1-244.7-116.3-1030c-75.5-555.8-143.5-1048.1-152.5-1091.9c-27.2-132.9,13.6-241.6,129.9-348.9
		c110.2-101.2,217.5-143.5,362.5-145c66.4,0,146.5,9.1,178.2,21.1c80,27.2,157.1,98.2,200.9,185.8
		c43.8,86.1,48.3,119.3,164.6,1046.6c48.3,382.1,90.6,697.7,92.1,700.7c3,3,74-55.9,160.1-129.9
		c187.3-161.6,291.5-226.5,489.3-305.1c311.1-125.3,528.6-169.1,672-138.9c283.9,60.4,318.7,294.5,102.7,675.1
		c-104.2,181.2-253.7,404.7-335.3,499.9c-36.2,42.3-128.4,132.9-205.4,199.3c-129.9,114.8-137.4,123.8-104.2,135.9
		c19.6,7.6,357.9,132.9,752.1,279.4c469.7,175.2,735.5,280.9,770.2,309.6c123.8,96.7,208.4,288.5,190.3,430.4
		c-18.1,163.1-123.8,299-290,374.5c-55.9,25.7-101.2,33.2-187.3,33.2c-111.8,0-128.4-6-906.1-314.1
		c-1110-439.5-1209.7-477.2-1230.8-465.1c-30.2,18.1-687.2,552.7-682.6,555.8c1.5,1.5,519.5,208.4,1150.8,459.1
		c631.3,250.7,1176.5,471.2,1212.7,492.3c126.9,74,211.4,250.7,194.8,406.2c-16.6,164.6-114.8,296-282.4,376
		c-81.6,39.3-116.3,46.8-203.9,45.3c-102.7,0-138.9-13.6-1472.5-549.7c-752.1-302-1383.4-551.2-1404.5-554.3
		c-31.7-6-99.7,42.3-370,258.2c-182.7,146.5-333.8,270.3-335.3,276.4c-3,7.6,205.4,92.1,460.6,190.3
		c522.5,200.9,581.4,234.1,644.9,365.5c37.8,74,40.8,96.7,34.7,193.3c-16.6,222-110.2,365.5-294.5,451.6
		c-80,37.8-117.8,46.8-199.3,45.3c-92.1,0-149.5-19.6-771.7-259.8c-370-142-687.2-268.8-705.3-280.9c-33.2-21.1-46.8-12.1-302,199.3
		c-148,120.8-277.9,228-288.5,238.6c-15.1,13.6,3,166.1,89.1,749.1c60.4,403.2,108.7,780.8,110.2,839.7
		c1.5,90.6,7.6,116.3,42.3,166.1c30.2,43.8,101.2,259.8,250.7,753.6c114.8,382.1,214.5,706.8,223.5,720.4
		c10.6,19.6,111.8,49.8,368.5,111.8l354.9,84.6l90.6-96.7c49.8-52.9,293-312.6,540.7-578.4c510.5-548.2,542.2-572.4,703.8-572.4
		c75.5,0,120.8,9.1,182.7,39.3c107.2,49.8,246.2,185.8,279.4,274.9c34.7,89.1,25.7,247.7-19.6,333.8
		c-16.6,33.2-187.3,234.1-377.6,445.5c-191.8,211.4-347.4,386.6-344.3,388.1c1.5,1.5,199.3,48.3,438,104.2
		c422.9,98.2,436.5,99.7,462.1,72.5c13.6-16.6,431.9-469.7,928.8-1010.3c496.9-539.1,954.5-1034.5,1017.9-1099.4
		c142-146.5,228-194.8,373-203.9c128.4-7.6,193.3,19.6,318.7,137.4c120.8,113.3,170.7,206.9,170.7,320.2
		c0,145-54.4,238.6-273.3,477.2c-102.7,111.8-484.8,525.6-850.3,919.7c-558.8,604.1-658.5,717.4-634.3,727.9
		c30.2,12.1,814,193.3,836.7,193.3c7.6,0,15.1-9.1,18.1-21.1c4.5-19.6,1238.4-1353.2,1413.6-1528.3
		c172.2-173.7,373-196.3,579.9-63.4c157.1,99.7,244.7,238.6,246.2,389.6c0,181.2-27.2,219-647.9,875.9
		c-302,320.2-548.2,582.9-546.7,584.5c1.5,1.5,81.6,19.6,178.2,40.8c314.1,66.4,626.7,220.5,865.4,427.4
		c282.4,244.7,332.2,380.6,194.8,533.1c-125.3,138.9-650.9,274.9-965,250.7c-66.4-4.5-216-28.7-332.2-52.9
		c-116.3-25.7-212.9-43.8-214.5-42.3c-1.5,3,105.7,342.8,238.6,758.1c267.3,830.6,286.9,918.2,234.1,1057.2
		c-49.8,128.4-212.9,232.6-419.8,265.8c-99.7,16.6-203.9-1.5-279.4-48.3c-58.9-37.8-132.9-138.9-164.6-228
		c-71-200.9-655.4-1995-655.4-2014.6c0-12.1-9.1-25.7-21.1-30.2c-42.3-16.6-847.2-199.3-853.3-193.3c-3,3,158.6,543.7,359.4,1203.6
		c285.4,939.4,364,1215.7,364,1279.2c0,160.1-108.7,315.6-270.3,389.6c-101.2,46.8-282.4,61.9-371.5,33.2
		c-84.6-27.2-178.2-122.3-223.5-223.5c-21.1-46.8-226.5-714.3-456.1-1483c-231.1-768.7-430.4-1409-444-1422.6
		c-15.1-16.6-175.2-60.4-453.1-123.8c-237.1-54.4-431.9-98.2-433.4-95.1c-1.5,1.5,61.9,190.3,140.4,418.3
		c173.7,499.9,185.8,543.7,185.8,649.4c0,105.7-37.8,187.3-119.3,261.3c-98.2,87.6-182.7,119.3-344.3,128.4
		c-122.3,6-146.5,3-219-30.2c-92.1-42.3-161.6-107.2-216-200.9c-22.7-36.2-131.4-374.5-247.7-764.2l-208.4-699.2l-360.9-86.1
		c-199.3-48.3-364-87.6-368.5-87.6c-4.5-1.5-235.6,243.1-513.5,540.7c-391.1,418.3-525.6,554.3-592,592
		c-58.9,34.7-87.6,60.4-87.6,81.6c0,16.6-18.1,68-42.3,116.3c-57.4,119.3-791.4,1235.4-812.5,1235.4c-9.1,0-25.7,9.1-34.7,21.1
		c-15.1,16.6,15.1,89.1,149.5,354.9c146.5,293,170.7,333.8,202.4,333.8c18.1,0,353.4,24.2,744.5,52.9
		c483.3,34.7,729.4,58.9,774.7,75.5c164.6,57.4,297.5,179.7,332.2,302c24.2,84.6,9.1,246.2-28.7,332.2
		c-33.2,72.5-161.6,196.3-240.1,229.6c-74,30.2-110.2,30.2-656.9-10.6c-255.2-18.1-468.2-30.2-471.2-27.2
		c-4.5,4.5,72.5,182.7,172.2,398.7l178.2,391.1l74,10.6c40.8,6,723.4,63.4,1516.3,125.3c794.4,63.4,1477,125.3,1517.8,135.9
		c101.2,28.7,187.3,104.2,250.7,222c43.8,83.1,51.3,108.7,51.3,200.9c0,219-164.6,434.9-354.9,466.7c-28.7,4.5-616.2-30.2-1306.3-80
		c-688.7-48.3-1255-86.1-1258-84.6c-3,3,86.1,185.8,196.3,406.2c161.6,324.7,206.9,401.7,231.1,401.7c16.6,0,508.9,40.8,1094.9,89.1
		c1184,96.7,1123.6,87.6,1250.5,214.5c104.2,105.7,129.9,173.7,120.8,327.7c-6,101.2-16.6,149.5-46.8,208.4
		c-57.4,114.8-175.2,211.4-288.5,238.6c-24.2,6-416.8-21.1-872.9-60.4c-456.1-39.3-832.1-68-835.2-63.4c-4.5,3,33.2,80,81.6,170.7
		c98.2,176.7,138.9,308.1,175.2,543.7c72.5,486.3,27.2,782.3-132.9,857.8c-143.5,69.5-332.2,4.5-549.7-188.8
		c-256.7-228-409.3-421.4-540.7-688.7c-48.3-101.2-93.6-184.2-98.2-184.2c-4.5,0-205.4,296-445.5,658.5s-463.6,688.7-495.4,724.9
		c-126.9,145-286.9,173.7-466.7,84.6c-137.4-66.4-231.1-143.5-279.4-226.5c-57.4-98.2-58.9-231.1-3-350.4
		c37.8-78.5,1135.7-1756.4,1191.6-1819.8c25.7-28.7,21.1-42.3-155.6-425.9c-99.7-219-185.8-397.2-191.8-397.2
		c-6,0-321.7,457.6-703.8,1014.9c-380.6,558.8-712.8,1039-738.5,1067.7c-66.4,75.5-155.6,110.2-285.4,110.2
		c-196.3-1.5-371.5-95.1-454.6-246.2c-40.8-72.5-45.3-95.1-45.3-209.9c0-98.2,7.6-143.5,31.7-196.3
		c25.7-54.4,1652.2-2429.9,1714.1-2503.9c12.1-15.1-27.2-116.3-169.1-427.4c-102.7-223.5-190.3-406.2-194.8-406.2
		c-4.5,0-129.9,178.2-279.4,395.7c-149.5,216-291.5,416.8-314.1,444c-68,78.5-193.3,132.9-311.1,132.9
		c-145,1.5-243.1-37.8-342.8-134.4c-114.8-113.3-163.1-222-154-345.8c4.5-51.3,19.6-116.3,34.7-145
		c15.1-28.7,208.4-317.1,431.9-641.8c222-323.2,415.3-610.1,428.9-634.3l27.2-45.3l-163.1-324.7
		c-89.1-178.2-163.1-326.2-164.6-327.7c-1.5-1.5-329.2-27.2-727.9-55.9c-397.2-28.7-747.6-60.4-776.3-69.5
		c-28.7-9.1-74-22.7-99.7-31.7c-43.8-13.6-185.8,10.6-232.6,39.3c-12.1,7.6-1363.7,111.8-1460.4,113.3
		c-10.6,0-93.6,149.5-185.8,330.7l-164.6,332.2l427.4,623.7c235.6,342.8,444,653.9,463.6,691.7c49.8,95.1,49.8,238.6,1.5,332.2
		c-51.3,96.7-176.7,219-265.8,258.2c-158.6,69.5-379.1,33.2-489.3-81.6c-24.2-27.2-166.1-222-312.6-433.4
		c-146.5-211.4-274.9-394.2-285.4-404.7c-16.6-16.6-48.3,42.3-175.2,317.1c-211.4,457.6-222,484.8-199.3,492.3
		c10.6,3,18.1,12.1,18.1,21.1c0,7.6,351.9,525.6,782.3,1149.3c430.4,625.2,811,1176.5,844.2,1226.3c154,226.5,142,465.1-34.7,625.2
		c-104.2,96.7-217.5,138.9-362.5,140.5c-132.9,0-219-34.7-293-117.8c-28.7-33.2-365.5-516.5-746-1075.3
		c-380.6-558.8-694.7-1013.4-696.2-1011.8c-1.5,3-87.6,187.3-188.8,410.8c-161.6,353.4-182.7,407.8-163.1,422.9
		c40.8,30.2,1147.8,1718.6,1185.5,1806.2c24.2,58.9,34.7,113.3,34.7,188.8c0,93.6-6,116.3-48.3,188.8
		C9399.6,23814.8,9129.3,23937.1,8960.2,23882.8z M11298,16179.1c410.8-30.2,528.6-28.7,628.3,6c78.5,27.2,83.1,27.2,155.6,0
		c95.1-36.2,211.4-36.2,721.9,1.5c220.5,16.6,403.2,27.2,406.2,24.2c1.5-3-154-323.2-347.4-709.8l-351.9-703.8h-386.6
		c-336.8,0-401.7-4.5-504.4-30.2c-64.9-16.6-120.8-30.2-123.8-30.2c-1.5,0-4.5,16.6-4.5,37.8c0,21.1-155.6,350.4-347.4,732.5
		c-190.3,382.1-347.4,699.2-347.4,703.8s42.3,4.5,95.1,0C10943.1,16204.8,11125.8,16191.2,11298,16179.1z M10091.3,14998.1
		c194.8-389.6,360.9-727.9,371.5-753.6c18.1-45.3,16.6-46.8-137.4-203.9c-157.1-158.6-290-339.8-368.5-501.4
		c-36.2-72.5-49.8-86.1-74-81.6c-16.6,4.5-386.6,93.6-823.1,199.3c-434.9,104.2-794.4,193.3-797.4,194.8c-3,3,152.5,170.7,344.3,373
		c327.7,345.8,350.4,373,373,453.1c16.6,58.9,34.7,90.6,55.9,101.2c16.6,7.6,66.4,40.8,108.7,75.5
		c60.4,46.8,128.4,140.5,332.2,454.6c140.5,216,256.7,394.2,258.2,394.2C9737.9,15703.4,9898,15386.3,10091.3,14998.1z
		 M14526.8,15310.8c244.7-377.6,323.2-472.7,434.9-525.6c27.2-13.6,48.3-34.7,48.3-51.3c0-84.6,60.4-163.1,395.7-516.5
		c188.8-200.9,338.3-365.5,329.2-368.5c-7.6-3-332.2-80-720.4-170.7c-629.8-146.5-708.3-161.6-721.9-140.5
		c-197.8,318.7-428.9,589-617.7,723.4c-45.3,33.2-83.1,64.9-80,69.5c24.2,66.5,669,1368.3,676.6,1365.2
		C14276.1,15692.8,14390.9,15519.2,14526.8,15310.8z M8757.8,12516.9c418.3-99.7,783.8-181.2,815.5-181.2h55.9l18.1-191.8
		c21.1-231.1,57.4-404.7,122.3-578.4c68-184.2,68-187.3,27.2-206.9c-19.6-9.1-290-216-601.1-459.1
		c-311.1-244.7-590.5-463.6-620.7-484.8l-52.9-42.3l-66.4,450c-66.5,460.6-81.6,518-169.1,641.8c-28.7,39.3-28.7,49.8-12.1,131.4
		s16.6,98.2-12.1,176.7c-30.2,81.6-274.9,900.1-274.9,918.2C7987.6,12701.1,7937.7,12713.2,8757.8,12516.9z M16017.4,12680
		c-3-10.6-69.5-229.6-146.5-487.8c-95.1-320.2-142-501.4-146.5-573.9c-6-78.5-19.6-125.3-52.9-184.2c-43.8-77-74-250.7-166.1-921.2
		c-10.6-69.5-24.2-125.3-30.2-125.3c-10.6,0-1005.8,773.2-1090.4,847.2c-7.6,6,12.1,71,40.8,145
		c105.7,261.3,176.7,611.6,176.7,872.9v110.2l321.7,77c175.2,42.3,486.3,117.8,690.2,166.1
		C16023.5,12705.6,16028,12705.6,16017.4,12680z M10583.7,10389c160.1-126.9,475.7-296,711.3-380.6l135.9-48.3v-776.3V8406
		l-48.3,30.2c-166.1,99.7-814,454.6-856.3,468.2c-28.7,10.6-80,18.1-114.8,18.1c-48.3,0-71,9.1-99.7,39.3
		c-74,80-166.1,125.3-564.8,277.9c-223.5,86.1-422.9,163.1-441,172.2c-31.7,16.6,7.6,51.3,566.3,518
		c329.2,276.4,611.6,501.4,628.3,502.9C10515.7,10432.7,10553.5,10413.1,10583.7,10389z M14191.6,9874
		c317.1-259.8,536.1-450,527.1-456.1c-10.6-4.5-208.4-81.6-441-170.7c-453.1-172.2-486.3-188.8-564.8-270.3
		c-46.8-48.3-61.9-54.4-128.4-54.4c-119.3-1.5-199.3-37.8-616.2-282.4l-389.6-229.6v744.5v744.5l87.6,18.1
		c268.8,60.4,649.4,216,863.8,354.9c45.3,30.2,90.6,52.9,99.7,49.8C13638.8,10321,13891,10118.6,14191.6,9874z"/>
</g>
</svg>
