<?xml version="1.0" encoding="utf-8"?>
<!-- Generator: Adobe Illustrator 30.0.0, SVG Export Plug-In . SVG Version: 9.03 Build 0)  -->
<svg version="1.0" id="Layer_1" xmlns="http://www.w3.org/2000/svg" xmlns:xlink="http://www.w3.org/1999/xlink" x="0px" y="0px"
	 viewBox="0 0 2400 2400" style="enable-background:new 0 0 2400 2400;" xml:space="preserve">
<g transform="translate(0.000000,2400.000000) scale(0.100000,-0.100000)">
	<path d="M6695,23486.9c-284.1-137.6-517.9-251.6-519.4-253c-3-3,69.6-978.1,72.5-982.6c1.5,0,167.2-16.3,369.9-35.5
		c201.3-19.2,372.9-38.5,380.3-42.9s38.5-208.7,66.6-451.3l53.3-443.9l127.3-293c69.5-159.8,124.3-294.5,121.3-297.4
		c-3-1.5-448.4-19.2-990-38.5c-541.6-19.2-987-37-991.5-40c-3-3,74-167.2,173.1-365.5l179.1-359.6l324.1-34
		c177.6-17.8,643.7-68.1,1037.3-109.5l713.3-75.5l177.6-390.7c97.7-214.6,177.6-396.6,177.6-404c0-5.9-701.4-13.3-1558.2-14.8
		l-1558.2-4.4l159.8-353.7c87.3-195.3,161.3-355.2,164.3-358.1c4.4-4.4,3159.3-287.1,3202.3-287.1c20.7,0,35.5-11.8,41.4-32.6
		c5.9-19.2,31.1-78.4,54.8-133.2l44.4-99.1l-464.7-559.4c-256-307.8-537.2-655.5-626-773.9c-88.8-118.4-229.4-290-313.7-383.3
		c-84.3-93.2-152.4-176.1-152.4-186.5s-195.3-270.8-435.1-578.6c-404-522.4-436.5-560.8-476.5-557.9c-23.7,3-91.7,8.9-150.9,13.3
		l-106.5,10.4l-66.6,208.7c-37,113.9-259,810.9-492.8,1546.4l-424.7,1337.7l-389.2,87.3c-214.6,48.8-393.6,84.3-398.1,79.9
		s145-688.1,334.4-1519.7c187.9-833.1,338.9-1515.3,337.4-1518.3c-4.4-4.4-830.2,173.1-833.1,177.6c0,1.5-155.4,452.8-344.8,1001.8
		l-344.8,1000.3l-375.9,71c-208.7,38.5-380.3,68.1-381.8,66.6c-3-3,84.3-441,192.4-973.7c109.5-532.7,195.3-972.2,190.9-975.2
		c-4.4-4.4-158.3,16.3-343.3,45.9l-337.4,53.3l-421.7-51.8c-232.3-28.1-438-48.8-457.3-47.4c-34,4.4-42.9,28.1-143.5,359.6
		l-105.1,355.1l-57.7-5.9c-162.8-13.3-879-100.6-886.4-108c-4.4-4.4-63.6-256-133.2-560.8c-96.2-430.6-119.9-557.9-106.5-569.7
		c35.5-34,763.6-523.8,776.9-523.8c8.9,0,109.5,102.1,224.9,226.4c116.9,122.8,229.4,242.7,250.1,266.4l38.5,40l359.6-222
		c196.8-121.3,372.9-227.9,390.7-238.2s171.7-56.2,341.8-103.6c170.2-47.4,312.2-88.8,316.7-91.7c3-4.4-260.4-371.4-587.5-816.8
		c-327-445.4-590.4-812.4-586-816.8c4.4-4.4,183.5-40,396.6-79.9l389.2-71l60.7,62.2c116.9,118.4,1342.2,1379.2,1367.3,1405.8
		c23.7,26.6,41.4,22.2,441-81.4c229.4-59.2,415.8-112.5,412.9-118.4c-1.5-5.9-441-554.9-976.7-1219.3s-972.2-1209-969.3-1211.9
		c3-1.5,180.5-44.4,396.6-93.2l392.1-90.3l112.5,113.9c63.6,62.2,563.8,580.1,1115.8,1149.8
		c550.5,569.7,1009.2,1041.8,1019.6,1049.2c23.7,16.3,260.4-47.4,269.3-72.5c3-7.4,78.4-371.4,168.7-806.5
		c256-1243,334.4-1598.2,359.6-1617.4c20.7-16.3,335.9-1302.2,335.9-1370.3c0-26.6-79.9-108-158.3-162.8l-47.4-31.1l-1491.6,556.4
		c-819.8,306.3-1502,560.8-1515.3,563.8c-19.2,5.9-649.6-467.6-661.5-495.7c-1.5-5.9,627.4-309.3,1398.4-674.8
		c772.4-364,1407.3-667.4,1413.2-673.3c5.9-4.4-136.1-130.2-315.2-279.7l-325.6-270.8l-990,341.8
		c-544.6,189.4-1000.3,340.4-1012.2,337.4c-23.7-4.4-620-455.8-612.6-463.2c3-1.5,398.1-211.6,877.5-466.1
		c480.9-254.5,877.5-466.1,884.9-472.1c5.9-5.9-102.1-106.5-239.7-224.9L3773.9,6672l-233.8-380.3
		c-128.7-208.7-241.2-380.3-250.1-381.8c-8.9,0-167.2,53.3-352.2,118.4c-186.5,65.1-346.3,118.4-356.6,118.4
		c-10.4,0-116.9-174.6-236.8-387.7c-121.3-214.6-226.4-399.5-233.8-412.9c-13.3-20.7,51.8-109.5,343.3-473.5
		c198.3-247.1,364-451.3,371.4-454.3c13.3-4.4,886.4,272.3,899.7,285.6c7.4,5.9-76.9,645.2-96.2,726.6
		c-5.9,29.6,23.7,41.4,427.7,176.1l433.6,145l272.3,198.3c149.5,109.5,276.7,193.9,282.6,186.5c5.9-5.9,121.3-435.1,257.5-951.5
		s250.1-941.1,253-945.6c4.4-3,14.8,1.5,25.2,8.9c10.4,8.9,148,112.5,304.8,232.3c155.4,119.9,284.1,226.4,284.1,236.8
		c0,11.8-56.2,485.4-125.8,1053.6c-97.7,808-121.3,1038.8-106.5,1052.1c10.4,8.9,164.3,124.3,343.3,256
		c275.2,202.7,325.6,235.3,334.4,211.6c4.4-14.8,161.3-698.5,346.3-1521.2c185-821.3,338.9-1496.1,341.8-1499
		c3-4.4,599.3,454.3,637.8,491.3c13.3,11.8-35.5,396.6-201.3,1614.4c-204.2,1482.7-217.5,1599.7-195.3,1626.3
		c13.3,14.8,62.2,56.2,108,93.2l85.8,65.1l620-319.6c341.8-174.6,753.2-380.3,914.5-457.3c161.3-75.5,378.8-185,485.4-242.7
		c105.1-57.7,195.3-97.7,201.3-90.3c4.4,7.4,300.4-124.3,658.5-294.5l649.6-306.3v-148v-148l-1379.2-834.6l-1380.6-834.6v-398.1
		c0-217.5,4.4-396.6,11.8-395.1c5.9,0,633.3,307.8,1394,685.1c760.6,375.9,1386.6,682.2,1389.5,680.7c3-3,13.3-196.8,23.7-430.6
		c13.3-313.7,13.3-430.6,1.5-442.5c-8.9-8.9-399.5-250.1-867.2-535.7c-467.6-285.6-862.7-528.3-877.5-538.6
		c-23.7-17.8-25.2-50.3-22.2-414.3l4.4-395.1l902.7,396.6c497.2,219,905.6,395.1,907.1,393.6c3-3,14.8-153.9,25.2-335.9l19.2-330
		l156.9-412.9c85.8-226.4,156.9-420.3,156.9-432.1c0-10.4-131.7-97.7-291.5-196.8c-161.3-97.7-306.3-186.5-321.1-198.3
		c-28.1-20.7-23.7-35.5,133.2-475l161.3-452.8l584.5,3l584.5,4.4l158.3,436.5c87.3,239.7,158.3,443.9,158.3,454.3
		c1.5,8.9-142.1,105.1-316.7,211.6c-174.6,108-318.2,204.2-318.2,214.6s69.5,207.2,155.4,436.5l155.4,415.8v334.4
		c0,260.4,4.4,331.5,19.2,325.6c8.9-4.4,420.3-182,913-395.1c492.8-213.1,904.2-390.7,914.5-395.1c14.8-5.9,17.8,74,14.8,395.1
		l-4.4,402.5l-880.5,540.1c-483.9,296-884.9,543.1-889.4,549c-7.4,7.4,22.2,855.3,29.6,871.6c1.5,0,627.4-307.8,1392.5-685.1
		c765-377.3,1394-686.6,1398.4-686.6s7.4,179.1,7.4,396.6v398.1l-1379.2,834.6l-1380.6,834.6l-4.4,143.5l-4.4,143.5l78.4,40
		c306.3,155.4,1232.7,580.1,1240.1,569.7c4.4-7.4,94.7,32.6,199.8,90.3c106.5,57.7,322.6,167.2,482.4,241.2
		c158.3,75.5,569.7,281.2,913,457.3l624.5,321.1l84.3-65.1c47.4-37,96.2-78.4,109.5-93.2c20.7-26.6,5.9-155.4-195.3-1626.3
		c-170.2-1237.1-214.6-1602.6-201.3-1614.4c40-38.5,634.8-495.7,637.8-491.3c1.5,3,155.4,677.7,340.4,1499
		c185,822.8,340.4,1506.4,346.3,1521.2c10.4,23.7,56.2-5.9,335.9-211.6c179.1-131.7,333-247.1,343.3-256
		c13.3-13.3-11.8-257.5-108-1046.2c-68.1-565.3-124.3-1040.3-124.3-1053.6c0-14.8,111-109.5,285.6-242.7
		c155.4-119.9,293-224.9,303.4-232.3c10.4-7.4,20.7-11.8,23.7-8.9c3,3,116.9,429.1,253,945.6s253,945.6,259,951.5
		c5.9,7.4,133.2-76.9,282.6-186.5l272.3-198.3l433.6-145c404-134.7,433.6-146.5,427.7-176.1c-19.2-81.4-103.6-720.7-96.2-726.6
		c13.3-13.3,886.4-290,899.7-285.6c22.2,7.4,728.1,898.2,720.7,910.1c-122.8,235.3-463.2,818.3-478,818.3
		c-8.9,0-168.7-53.3-355.1-118.4c-185-65.1-343.3-118.4-352.2-118.4s-128.7,171.7-267.8,378.8l-250.1,378.8l-235.3,216
		c-128.7,118.4-227.9,220.5-222,224.9c5.9,5.9,405.5,219,884.9,473.5c480.9,254.5,874.6,464.7,877.5,466.1
		c1.5,1.5-143.5,109.5-322.6,239.7l-327,235.3l-982.6-344.8l-982.6-346.3L18557,8103c-179.1,149.5-321.1,275.2-315.2,279.7
		c5.9,5.9,640.7,307.8,1413.2,673.3c771,365.5,1399.9,668.9,1398.4,673.3c-11.8,29.6-642.2,503.1-661.5,497.2
		c-13.3-4.4-695.5-257.5-1515.3-563.8L17385,9106.3l-62.2,42.9c-34,23.7-82.9,65.1-108,93.2l-45.9,48.8l161.3,680.7
		c103.6,435.1,170.2,686.6,185,698.5c23.7,19.2,112.5,417.3,368.5,1661.8c85.8,418.8,161.3,766.5,165.7,771
		c16.3,14.8,235.3,76.9,251.6,71c7.4-3,464.7-472.1,1016.6-1041.8c550.5-569.7,1056.6-1090.6,1123.2-1157.2l119.9-121.3l384.7,88.8
		c211.6,48.8,390.7,90.3,398.1,91.7c5.9,1.5-427.7,550.5-966.3,1216.4c-537.2,667.4-978.1,1216.4-978.1,1220.8
		c0,14.8,833.1,223.4,843.5,211.6c11.8-13.3,1248.9-1285.9,1367.3-1405.8l75.5-76.9l389.2,71c213.1,40,392.1,75.5,396.6,79.9
		c4.4,3-260.4,371.4-586,816.8c-327,443.9-590.4,812.4-587.5,816.8c4.4,3,142.1,45.9,307.8,94.7l298.9,88.8l401,236.8l399.5,236.8
		l31.1-34c17.8-19.2,133.2-142.1,256-273.8l223.4-238.2l381.8,259c210.1,142.1,389.2,267.8,399.5,276.7
		c13.3,11.8-11.8,146.5-108,571.2c-69.5,304.8-128.7,556.4-133.2,560.8c-11.8,11.8-929.3,115.4-939.7,106.5
		c-5.9-4.4-65.1-167.2-131.7-359.6c-118.4-338.9-124.3-352.2-161.3-352.2c-20.7,0-224.9,23.7-452.8,50.3l-414.3,51.8l-322.6-53.3
		c-176.1-29.6-324.1-50.3-328.5-45.9s81.4,442.5,189.4,975.2c124.3,608.2,192.4,969.3,182,970.7c-8.9,3-189.4-28.1-399.5-66.6
		l-384.7-69.6l-324.1-991.5c-177.6-546-328.5-995.9-334.4-1001.8c-11.8-13.3-818.3-192.4-825.7-183.5
		c-3,1.5,149.5,685.1,337.4,1516.8c187.9,831.6,338.9,1516.8,334.4,1521.2c-8.9,7.4-766.5-158.3-782.8-171.7
		c-5.9-4.4-213.1-651.1-463.2-1436.9c-248.6-785.8-469.1-1478.3-489.8-1540.5l-37-112.5l-106.5-10.4
		c-59.2-4.4-125.8-10.4-149.5-13.3c-40-3-71,32.6-463.2,537.2c-232.3,297.4-430.6,560.8-441,586c-11.8,26.6-87.3,119.9-168.7,210.1
		c-81.4,88.8-233.8,275.2-337.4,411.4c-143.5,187.9-800.6,991.5-1037.3,1268.2c-19.2,20.7-19.2,31.1-3,66.6
		c10.4,22.2,34,79.9,51.8,128.7c23.7,60.7,41.4,90.3,60.7,91.7c16.3,3,744.3,68.1,1618.9,146.5c874.6,78.4,1592.3,143.5,1593.7,145
		c3,1.5,76.9,164.3,165.7,361.1l161.3,358.1h-1559.7c-966.3,0-1559.7,5.9-1559.7,13.3c0,8.9,79.9,189.4,177.6,404l176.1,389.2
		l714.7,75.5c393.6,41.4,859.8,91.7,1037.3,109.5l324.1,34l179.1,359.6c99.1,198.3,176.1,362.5,173.1,365.5
		c-4.4,3-449.9,22.2-991.5,40c-541.6,19.2-987,37-990,38.5c-3,3,51.8,137.6,121.3,297.4l125.8,293l53.3,442.5
		c29.6,244.2,57.7,448.4,63.6,452.8c7.4,5.9,168.7,25.2,359.6,44.4c190.9,17.8,350.7,35.5,355.1,38.5
		c4.4,5.9,116.9,970.7,112.5,978.1c-1.5,0-238.2,115.4-526.8,254.5l-523.8,254.5l-347.8-347.8l-346.3-346.3l186.5-288.6
		c103.6-158.3,192.4-300.4,196.8-313.7c7.4-19.2-72.5-108-324.1-359.6l-333-335.9l-139.1-276.7l-137.6-278.2l-628.9,734
		c-346.3,404-639.3,747.3-652.6,765.1c-23.7,29.6-31.1,19.2-204.2-327c-99.1-196.8-179.1-364-179.1-371.4
		c0-7.4,260.4-411.4,577.1-896.8c318.2-485.4,577.1-884.9,577.1-887.9c0-17.8-390.7-747.3-399.5-747.3
		c-7.4,0-446.9,547.5-978.1,1217.9c-529.8,668.9-969.3,1222.3-976.7,1229.7c-14.8,16.3-372.9-698.5-362.5-726.6
		c4.4-10.4,386.2-597.8,847.9-1303.7c460.2-705.9,856.8-1314.1,880.5-1351l42.9-69.6l-51.8-105.1l-53.3-105.1h-1968.1h-1968.1
		l-53.3,108l-53.3,106.5l883.4,1351c485.4,744.3,884.9,1359.9,889.4,1371.8c10.4,25.2-347.8,739.9-362.5,723.6
		c-7.4-7.4-401-503.1-876-1101c-473.5-597.8-911.5-1149.8-972.2-1225.3l-109.5-139.1l-198.3,378.8
		c-109.5,208.7-198.3,381.8-198.3,386.2c0,3,256,398.1,569.7,877.5c312.2,479.5,572.7,882,577.1,895.3
		c11.8,28.1-346.3,744.3-362.5,726.6c-5.9-7.4-300.4-349.2-651.1-760.6c-352.2-411.4-643.7-745.8-648.1-744.3
		c-3,1.5-78.4,130.2-165.7,285.6l-158.3,282.6l-307.8,325.6c-229.4,242.7-303.4,331.5-296,350.7c4.4,13.3,93.2,153.9,195.3,312.2
		l186.5,285.6l-346.3,346.3c-190.9,190.9-349.2,346.3-353.7,344.8C7215.9,23739.9,6980.6,23626,6695,23486.9z M12710.4,17245.1
		c337.4-25.2,634.8-48.8,660-53.3l47.4-5.9l-523.8-973.7l-522.4-972.2l-93.2,7.4c-51.8,4.4-176.1,7.4-278.2,7.4s-227.9-3-278.2-7.4
		l-94.7-7.4l-520.9,969.3c-287.1,532.7-519.4,972.2-516.4,975.2c8.9,11.8,1385.1,116.9,1447.2,111
		C12069.6,17292.5,12373,17268.8,12710.4,17245.1z M9617.6,15550.8c230.8-537.2,426.2-994.4,435.1-1016.6
		c13.3-38.5,5.9-48.8-170.2-229.4c-130.2-133.2-198.3-217.5-233.8-285.6c-28.1-53.3-51.8-97.7-53.3-100.6
		c-5.9-5.9-2126.5,381.8-2154.6,393.6c-19.2,8.9,51.8,119.9,372.9,586l396.6,577.1l492.8,528.3c269.3,291.5,492.8,528.3,494.2,526.8
		S9388.2,16087.9,9617.6,15550.8z M15356.2,15939.9l432.1-464.7l398.1-575.6c318.2-463.2,392.1-578.6,372.9-587.5
		c-28.1-13.3-2148.7-399.5-2154.6-393.6c-1.5,3-25.2,47.4-53.3,100.6c-35.5,68.1-103.6,150.9-230.8,282.6
		c-100.6,102.1-182,192.4-182,199.8c0,7.4,195.3,467.6,433.6,1024l432.1,1012.2l59.2-66.6
		C14896,16434.2,15118,16195.9,15356.2,15939.9z M12236.8,14226.3c519.4-63.6,969.3-350.7,1280-815.4
		c256-381.8,350.7-810.9,279.7-1283c-56.2-378.8-207.2-685.1-479.5-970.7c-349.2-365.5-800.6-556.4-1317-556.4
		c-497.2,0-914.5,167.2-1266.7,506.1c-350.7,338.9-528.3,734-549,1225.3c-20.7,463.2,103.6,845,395.1,1213.4
		C10984.9,14060.6,11581.3,14306.2,12236.8,14226.3z M8133.4,12526.1c553.4-155.4,1010.7-282.6,1013.7-282.6
		c4.4,0,11.8-62.2,17.8-136.1c13.3-183.5,45.9-369.9,91.7-517.9c20.7-68.1,38.5-130.2,40-139.1c3-17.8-1565.6-1382.1-1589.3-1382.1
		c-7.4,0-13.3,3-13.3,7.4c0,4.4-87.3,298.9-193.9,655.5l-192.4,646.7l-111,708.8c-59.2,390.7-109.5,716.2-109.5,723.6
		c0,7.4,8.9,10.4,19.2,5.9C7116.8,12811.7,7578.4,12681.4,8133.4,12526.1z M16908.5,12773.2c-5.9-26.6-53.3-338.9-106.5-692.5
		l-97.7-643.7l-201.2-685.1c-146.5-494.2-207.2-682.2-222-677.7c-17.8,7.4-1617.4,1354-1617.4,1362.9c0,3,26.6,82.9,57.7,179.1
		c66.6,198.3,99.1,346.3,113.9,510.5l10.4,112.5l1022.5,288.6c562.3,159.8,1028.5,290,1035.9,291.5
		C16910,12819.1,16912.9,12798.3,16908.5,12773.2z M10480.3,10003c149.5-99.1,405.5-222,642.2-312.2
		c5.9-1.5,109.5-2024.4,105.1-2048c-4.4-20.7-112.5,16.3-670.3,227.9c-365.5,139.1-671.8,256-680.7,260.4
		c-525.3,313.7-1176.4,716.2-1173.5,725.1c4.4,10.4,1639.6,1225.3,1651.4,1226.7C10357.5,10082.9,10415.2,10047.4,10480.3,10003z
		 M14471.3,9474.7c451.3-334.4,821.3-614.1,821.3-621.5c0-7.4-272.3-174.6-606.7-369.9l-606.7-358.1l-654.1-254.5l-655.5-254.5v53.3
		c-1.5,111,62.2,1963.7,66.6,1991.8c4.4,22.2,40,41.4,143.5,78.4c189.4,68.1,478,211.6,566.8,282.6c41.4,32.6,81.4,59.2,88.8,59.2
		C13644.1,10081.5,14020,9809.2,14471.3,9474.7z"/>
</g>
</svg>
