<?xml version="1.0" encoding="utf-8"?>
<!-- Generator: Adobe Illustrator 30.0.0, SVG Export Plug-In . SVG Version: 9.03 Build 0)  -->
<svg version="1.0" id="Layer_1" xmlns="http://www.w3.org/2000/svg" xmlns:xlink="http://www.w3.org/1999/xlink" x="0px" y="0px"
	 viewBox="0 0 2400 2400" style="enable-background:new 0 0 2400 2400;" xml:space="preserve">
<g transform="translate(0.000000,2400.000000) scale(0.100000,-0.100000)">
	<path d="M7614.8,23895.5c-298.9-106.4-479.7-180.8-619.7-252.3c-107.9-55.4-231.9-116.7-274.1-134.2c-42.3-19-74.4-37.9-70-43.7
		c14.6-24.8,869.1-1939.4,869.1-1948.2c0-4.4-161.9-4.4-360.2,0c-485.6,13.1-978.5-17.5-1529.7-90.4l-175-23.3l-72.9-89
		c-172.1-214.4-399.5-514.7-545.4-717.4c-189.6-266.8-398.1-577.4-390.8-583.3c2.9-2.9,70,8.7,150.2,23.3
		c1122.8,215.8,2347.7,204.1,3423.9-30.6c72.9-16,137.1-29.2,142.9-29.2c5.8,0,13.1,17.5,16,39.4c2.9,30.6,74.4-107.9,285.8-554.1
		c156-328.1,280-599.3,275.6-602.2c-2.9-2.9-35,4.4-70,16c-414.1,147.3-893.9,228.9-1786.3,306.2l-105,8.8l-96.2-150.2
		c-54-83.1-175-304.8-271.2-494.3l-173.5-342.7l280-24.8c993-89,1833-317.9,2627.7-717.4l291.6-145.8l183.7-418.5
		c102.1-231.9,182.3-420,179.4-420c-4.4,0-51,21.9-105,49.6c-205.6,103.5-809.3,344.1-861.8,344.1c-16,0-97.7-156-176.4-335.4
		c-65.6-147.3-177.9-440.4-172.1-444.8c2.9-1.5,54-17.5,113.7-35c298.9-89,759.7-300.4,1071.8-490
		c271.2-164.8,666.4-469.5,796.2-613.9c32.1-35,495.8-1038.2,494.3-1067.4c-1.5-5.8-54-46.7-119.6-90.4
		c-154.6-103.5-424.3-363.1-542.5-523.5c-78.7-106.4-230.4-351.4-246.4-399.5c-1.5-7.3-234.8,109.4-517.7,259.6l-513.3,274.1
		l-113.7,147.3c-395.2,510.4-669.3,1032.4-885.1,1688.6l-89,272.7l-167.7-55.4c-175-59.8-401-156-507.5-217.3
		c-61.2-36.5-62.7-37.9-54-96.2c29.2-182.3,170.6-580.4,294.6-828.3c58.3-116.7,61.2-126.9,30.6-115.2
		c-17.5,7.3-208.5,99.2-425.8,204.1l-393.7,189.6l-68.5,142.9c-411.2,857.4-637.2,1781.9-698.5,2847.9
		c-10.2,164.8-19,301.8-21.9,304.8s-157.5-71.5-344.1-163.3c-406.8-201.2-638.7-335.4-638.7-371.8c1.5-135.6,33.5-631.4,52.5-788.9
		c32.1-285.8,99.2-672.2,163.3-944.9c30.6-131.2,54-237.7,51-237.7c-10.2,0-1207.4,616.8-1220.5,628.5c-19,17.5,29.2,17.5,90.4,0
		c52.5-16,52.5-19,32.1,87.5c-27.7,144.4-71.5,456.4-97.7,705.8c-36.5,350-36.5,1366.3,0,1706.1
		c46.7,421.4,128.3,918.7,193.9,1179.7c11.7,46.7,19,89,14.6,91.9c-10.2,10.2-310.6-164.8-526.4-306.2
		c-96.2-64.2-336.8-231.9-535.2-371.8l-358.7-256.6l-30.6-191c-86-546.8-132.7-1134.5-132.7-1665.3c0-138.5-2.9-252.3-5.8-252.3
		c-2.9,0-428.7,220.2-947.8,488.5c-517.7,268.3-947.8,488.5-955.1,488.5c-17.5,0-258.1-469.5-357.3-695.6
		c-91.9-212.9-240.6-613.9-246.4-663.5c-2.9-29.2,78.7-62.7,1003.2-417c554.1-211.4,1009.1-387.9,1013.5-392.3
		c4.4-2.9-55.4-62.7-131.2-131.2c-406.8-368.9-886.6-888-1236.6-1341.5l-48.1-61.2l29.2-193.9c16-106.4,46.7-328.1,67.1-492.9
		c61.2-484.1,157.5-1036.8,180.8-1033.9c4.4,0,71.5,89,147.3,198.3c616.8,882.2,1491.7,1744,2365.2,2327.3
		c86,58.3,156,109.4,157.5,113.7c0,4.4-24.8,26.2-54,46.7c-30.6,21.9-48.1,39.4-40.8,39.4c21.9,0,1290.5-487,1289.1-495.8
		c0-4.4-96.2-61.2-215.8-128.3c-118.1-67.1-322.3-191-455-278.5c-360.2-236.2-931.8-675.1-943.5-723.3
		c-14.6-65.6,304.8-1100.9,339.8-1100.9c8.7,0,35,20.4,59.8,45.2c131.2,140,592,506,873.5,694.1
		c535.2,357.3,1211.8,676.6,1764.4,835.5l160.4,45.2l437.5-153.1c386.4-134.2,433.1-153.1,401-167.7c-20.4-7.3-138.5-55.4-262.5-105
		c-201.2-78.7-644.5-288.7-675.1-317.9c-29.2-27.7,258.1-745.1,297.5-745.1c5.8,0,89,35,185.2,78.7
		c570.2,258.1,1179.7,412.7,1870.9,476.8l185.2,16l514.7-199.8c284.3-109.4,522-204.1,529.3-211.4c5.8-7.3,1.5-75.8-13.1-156
		c-58.3-329.6-40.8-755.3,43.7-1045.5c19-67.1,37.9-131.2,39.4-141.4c2.9-11.7-169.2-72.9-538.1-188.1l-542.5-170.6l-202.7,24.8
		c-616.8,78.7-1198.6,258.1-1811.1,558.5c-132.7,65.6-246.4,118.1-252.3,119.6c-14.6,0-217.3-462.2-278.5-634.3l-36.5-102.1
		l138.5-81.7c173.5-102.1,371.8-195.4,651.8-304.8c123.9-49.6,207.1-90.4,196.9-96.2c-10.2-4.4-214.4-67.1-455-138.5l-436-128.3
		l-157.5,54c-926,315-1792.1,847.2-2524.1,1553l-172.1,166.2l-59.8-128.3c-33.5-71.5-86-196.9-116.7-280
		c-67.1-176.4-188.1-587.7-188.1-637.2c0-65.6,561.4-561.4,926-819.5c160.4-113.7,457.9-294.6,605.2-368.9
		c52.5-26.2,89-51,80.2-52.5c-538.1-176.4-1321.1-428.7-1328.4-428.7c-5.8,0,17.5,20.4,52.5,45.2c33.5,24.8,55.4,49.6,49.6,55.4
		c-7.3,5.8-84.6,62.7-173.5,125.4c-909.9,651.8-1710.5,1494.7-2317.1,2439.6c-62.7,97.7-116.7,176.4-119.6,175
		c-1.5-2.9-33.5-138.5-70-303.3c-75.8-341.2-169.2-870.5-207.1-1182.6l-26.2-211.4l129.8-175c290.2-390.8,629.9-791.8,1004.7-1185.5
		c116.7-123.9,208.5-230.4,202.7-236.2c-7.3-5.8-460.8-153.1-1010.5-326.6C466.7,8203.8,16.1,8059.5,14.7,8058
		c-2.9-1.5,61.2-196.9,140-433.1c137.1-408.3,208.5-590.6,338.3-845.8c52.5-105,59.8-113.7,89-102.1c19,7.3,459.3,204.1,978.5,437.5
		c520.6,233.3,952.2,424.3,961,424.3c7.3,0,10.2-11.7,5.8-24.8c-2.9-14.6-11.7-157.5-16-317.9c-14.6-446.2,17.5-1009.1,90.4-1560.3
		l24.8-189.6l55.4-51c93.3-83.1,481.2-380.6,708.7-543.9c285.8-204.1,629.9-437.5,629.9-425.8c0,4.4-19,144.4-43.7,310.6
		c-80.2,561.4-93.3,769.9-94.8,1439.2c0,732,27.7,1099.5,125.4,1684.2c23.3,140,42.3,265.4,42.3,280c0,19-14.6,26.2-67.1,29.2
		c-64.2,4.4-37.9,17.5,557,282.9c344.1,154.6,628.5,277.1,629.9,275.6c2.9-2.9-23.3-122.5-59.8-265.4
		c-122.5-478.3-207.1-968.2-243.5-1397c-8.7-103.5-17.5-214.4-20.4-245l-5.8-54l158.9-94.8c87.5-52.5,316.4-173.5,507.5-269.8
		c392.3-195.4,366-193.9,366-27.7c0,113.7,39.4,492.9,74.4,727.6c110.8,729.1,320.8,1410.1,635.8,2059l125.4,256.6l434.5,183.7
		c239.1,100.6,437.5,183.7,441.8,183.7c2.9,0-35-87.5-86-192.5c-126.9-263.9-298.9-711.6-298.9-775.8
		c0-33.5,457.9-230.4,707.2-306.2c27.7-7.3,37.9,11.7,107.9,192.5c236.2,608.1,578.9,1188.4,972.6,1647.8l106.4,123.9l527.9,237.7
		c290.2,131.2,529.3,237.7,530.8,234.8c1.5-1.5,37.9-58.3,83.1-126.9c191-298.9,452-530.8,803.5-721.8
		c70-37.9,126.9-74.4,123.9-80.2c-2.9-7.3-122.5-226-266.9-490l-262.5-476.8l-125.4-105c-466.6-389.3-1109.7-736.4-1764.4-950.7
		c-119.6-37.9-217.3-75.8-217.3-83.1c0-11.7,290.2-724.7,298.9-734.9c2.9-2.9,112.3,26.2,243.5,62.7
		c265.4,75.8,536.6,175,688.3,250.8c54,27.7,102.1,46.7,105,43.7c4.4-4.4-90.4-193.9-208.5-422.9l-215.8-417l-160.4-75.8
		c-717.4-338.3-1471.3-551.2-2296.7-647.4c-255.2-29.2-559.9-51-710.1-51c-75.8,0-121-5.8-121-16c0-8.7,37.9-84.6,86-170.6
		c46.7-86,158.9-303.3,249.4-482.7l163.3-326.6l259.6,8.7c580.4,21.9,1223.4,125.4,1634.6,265.4c55.4,19,100.6,29.2,100.6,20.4
		c0-16-624.1-1267.2-632.9-1267.2c-5.8,0,8.7,74.4,26.2,128.3c10.2,29.2,7.3,32.1-23.3,26.2c-83.1-20.4-401-67.1-580.4-87.5
		C6413.2,3902.1,5410,3951.7,4424.3,4169c-102.1,21.9-185.2,37.9-185.2,33.5c0-32.1,325.2-536.6,513.3-794.7
		c123.9-170.6,440.4-571.6,462.2-584.7c20.4-13.1,437.5-77.3,708.7-109.4c367.5-43.7,599.3-59.8,1017.8-70
		c205.6-4.4,374.8-10.2,374.8-13.1c0-1.5-227.5-434.5-504.5-962.4c-494.3-939.1-513.3-981.4-455-982.8
		c13.1,0,370.4-164.8,714.5-329.6c236.2-113.7,578.9-253.7,616.8-253.7c8.7,0,189.6,450.6,399.5,1003.2
		c211.4,551.2,387.9,1006.2,393.7,1012c5.8,5.8,80.2-67.1,166.2-161.9c347.1-382,787.4-781.6,1224.9-1109.7l141.4-106.4l215.8,17.5
		c562.9,45.2,1049.9,112.3,1391.1,192.5l128.3,30.6l-172.1,123.9c-974.1,710.1-1725.1,1475.7-2306.9,2352.1
		c-67.1,100.6-126.9,188.1-132.7,196.9c-8.7,7.3-36.5-10.2-72.9-43.7c-33.5-32.1-58.3-48.1-54-36.5
		c4.4,11.7,110.8,287.3,234.8,612.4c125.4,325.2,234.8,609.5,243.5,632.9c16,42.3,17.5,40.8,115.2-138.5
		c272.7-500.2,568.7-911.4,1003.2-1395.5l55.4-62.7l255.2,72.9c239.1,67.1,686.8,211.4,786,253.7l45.2,19l-84.6,96.2
		c-688.3,774.3-1168,1595.3-1469.9,2518.3l-78.7,237.7l170.6,444.8l170.6,443.3l67.1-195.4c112.3-320.8,317.9-783.1,350-783.1
		c27.7,0,737.8,275.6,769.9,300.4c2.9,1.5-21.9,54-52.5,118.1c-285.8,567.2-479.7,1268.6-541,1958.4l-16,167.7l202.7,539.5
		c169.2,447.7,208.5,539.5,230.4,538.1c14.6-1.5,102.1-20.4,193.9-42.3c313.5-74.4,648.9-51,1000.3,71.5
		c80.2,27.7,144.4,49.6,145.8,48.1s77.3-247.9,170.6-546.8l169.2-542.5l-20.4-179.4c-77.3-648.9-275.6-1318.2-565.8-1910.2
		c-91.9-183.7-91.9-185.2-61.2-205.6c89-58.3,638.7-315,675.1-315c32.1,0,335.4,608.1,421.4,841.4c30.6,81.7,58.3,150.2,62.7,150.2
		c10.2,0,263.9-876.4,263.9-907c-1.5-13.1-32.1-110.8-68.5-218.7c-309.1-888-838.5-1733.8-1557.4-2486.2
		c-71.5-75.8-126.9-140-122.5-142.9c17.5-17.5,691.2-262.5,867.6-315c231.9-70,185.2-90.4,412.7,177.9
		c310.6,366,581.8,739.3,831.2,1143.2c97.7,157.5,154.6,236.2,160.4,223.1c8.7-13.1,341.2-1030.9,418.5-1280.3
		c4.4-11.7-13.1,8.7-39.4,46.7l-46.7,70l-103.5-150.2c-581.8-847.2-1440.7-1676.9-2436.7-2355c-119.6-81.7-214.4-148.7-211.4-148.7
		s118.1-26.2,253.7-56.9c320.8-74.4,733.5-150.2,1071.8-196.9c148.7-20.4,293.1-40.8,322.3-45.2c49.6-5.8,70,4.4,233.3,119.6
		c355.8,247.9,472.5,350,1030.9,891c210,204.1,385,368.9,387.9,366c2.9-2.9,148.7-466.6,323.7-1030.9
		C15853.6,370.4,15976.1,0,15987.8,0c10.2,0,138.5,39.4,285.8,87.5c252.3,81.7,398.1,138.5,775.8,298.9
		c88.9,36.5,201.2,84.6,252.3,105c49.6,20.4,90.4,43.7,90.4,51c0,7.3-180.8,418.5-402.5,912.8c-223.1,495.8-418.5,933.2-436,972.6
		l-33.5,72.9h549.7c335.4,0,627,7.3,752.4,19c196.9,17.5,616.8,67.1,721.8,84.6c43.7,7.3,67.1,30.6,161.9,150.2
		c266.9,338.3,469.5,606.6,578.9,761.2c112.3,158.9,328.1,508.9,319.3,517.7c-1.5,2.9-109.4-14.6-236.2-37.9
		c-648.9-116.7-1290.5-160.4-1914.6-132.7c-519.1,24.8-930.3,67.1-1357.6,141.4c-115.2,19-212.9,32.1-217.3,27.7
		c-4.4-4.4,0-33.5,10.2-67.1c10.2-32.1,14.6-62.7,11.7-65.6c-2.9-2.9-132.7,282.9-285.8,637.2c-154.6,352.9-277.1,646-274.1,650.4
		c4.4,2.9,71.5-14.6,150.2-39.4c444.8-141.4,1135.9-274.1,1653.6-313.5l123.9-10.2l163.3,275.6c89,150.2,191,333.9,227.5,406.8
		c64.2,126.9,141.4,307.7,141.4,326.6c0,5.8-103.5,17.5-228.9,27.7c-949.3,72.9-1800.9,303.3-2667.1,723.3
		c-153.1,74.4-284.3,142.9-291.6,154.6c-19,29.2-368.9,821-364.6,825.3c1.5,2.9,78.7-35,170.6-83.1
		c91.9-46.7,242.1-115.2,333.9-150.2c160.4-62.7,492.9-163.3,503.1-153.1c8.7,8.7,298.9,723.3,298.9,734.9c0,7.3-56.9,35-128.3,62.7
		c-628.5,243.5-1203,573.1-1728,988.7l-142.9,113.7l-157.5,350c-87.5,192.5-193.9,430.2-239.1,526.4l-80.2,177.9l126.9,84.6
		c183.7,123.9,466.6,411.2,597.9,609.5c56.9,87.5,123.9,196.9,148.7,243.5l42.3,86l514.7-256.6l513.3-256.6l89-119.6
		c217.3-288.7,415.6-611,589.1-955.1c135.6-272.7,208.5-446.2,315-752.4c84.6-242.1,93.3-262.5,125.4-259.6
		c39.4,1.5,711.6,236.2,732,253.7c27.7,26.2-148.7,536.6-285.8,828.3c-39.4,84.6-78.7,169.2-86,188.1c-13.1,35,78.7-8.7,669.3-320.8
		l164.8-87.5l62.7-126.9c208.5-415.6,395.2-936.2,517.7-1445.1c109.4-453.5,166.2-854.5,191-1370.7c8.8-172.1,17.5-313.5,19-316.4
		c2.9-1.5,96.2,36.5,207.1,84.6c230.4,99.2,415.6,195.4,624.1,325.2l141.4,87.5v170.6c0,447.7-83.1,1076.2-211.4,1593.8
		c-27.7,112.3-49.6,205.6-46.7,207.1c1.5,2.9,268.3-131.2,590.6-297.5c484.1-247.9,580.4-303.3,543.9-306.2
		c-24.8-2.9-45.2-10.2-45.2-17.5s19-126.9,42.3-265.4c172.1-1017.8,145.8-2031.3-80.2-3174.5c-35-179.4-61.2-329.6-58.3-333.9
		c16-14.6,942,605.2,1219.1,816.6l195.4,151.7l33.5,195.4c74.4,438.9,113.7,912.8,129.8,1538.4c5.8,204.1,11.7,371.8,13.1,371.8
		s427.3-220.2,947.8-490l946.4-490l27.7,33.5c36.5,45.2,126.9,226,191,380.6c27.7,67.1,97.7,226,156,354.3
		c150.2,333.9,246.4,581.8,228.9,592c-8.7,5.8-466.6,182.3-1017.8,393.7l-1001.8,383.5l322.3,322.3
		c465.2,463.7,1114.1,1216.1,1096.6,1274.5c-8.8,30.6-55.4,361.6-110.8,788.9c-42.3,326.6-137.1,841.4-157.5,863.3
		c-5.8,4.4-74.4-80.2-151.7-189.6c-487-685.4-1090.7-1318.2-1780.5-1866.5c-186.6-148.7-495.8-373.3-662-481.2l-91.9-58.3l58.3-37.9
		c32.1-20.4,58.3-40.8,58.3-43.7c0-8.7-1297.8,479.7-1297.8,488.5c0,4.4,30.6,21.9,70,40.8c262.5,125.4,656.2,368.9,943.5,583.3
		c195.4,145.8,513.3,408.3,571.6,471l33.5,35l-65.6,240.6c-71.5,255.2-249.4,799.1-269.8,821c-7.3,7.3-70-39.4-142.9-107.9
		c-517.7-473.9-1189.9-908.5-1847.5-1195.7c-351.4-153.1-829.7-315-888-300.4c-91.9,23.3-858.9,328.1-839.9,335.4
		c11.7,2.9,110.8,36.5,218.7,71.5c214.4,71.5,443.3,166.2,644.5,266.9l126.9,64.2l-43.7,126.9c-70,198.3-140,363.1-220.2,517.7
		l-74.4,141.4l-140-70c-541-271.2-1257-473.9-1878.2-529.3l-192.5-17.5l-522,195.4c-287.3,106.4-532.2,199.8-545.4,205.6
		c-20.4,10.2-20.4,26.2,5.8,161.9c23.3,118.1,29.2,211.4,30.6,434.5c0,307.7-21.9,465.2-89,662c-19,56.9-29.2,106.4-23.3,112.3
		c7.3,5.8,252.3,93.3,545.4,192.5l533.7,182.3l173.5-20.4c643.1-80.2,1380.9-313.5,1958.4-619.7c74.4-40.8,138.5-71.5,140-68.5
		c23.3,24.8,298.9,697,298.9,729.1c0,21.9-317.9,198.3-539.5,301.8c-68.5,30.6-191,78.7-274.1,103.5
		c-81.7,26.2-147.3,49.6-144.4,52.5c2.9,2.9,195.4,71.5,427.3,153.1c491.4,172.1,409.8,169.2,793.3,19
		c858.9-339.8,1739.6-896.8,2411.9-1523.8c58.3-55.4,113.7-100.6,121-100.6c26.2,0,339.8,949.3,339.8,1028
		c0,20.4-154.6,160.4-403.9,367.5c-317.9,263.9-698.5,542.5-1036.8,755.3c-99.2,62.7-177.9,115.2-175,116.7
		c4.4,4.4,1251.1,377.7,1316.8,395.2c16,4.4,1.5-10.2-32.1-33.5c-35-21.9-62.7-45.2-62.7-51s61.2-51,135.6-102.1
		c402.5-269.8,751-561.4,1163.6-972.6c453.5-453.5,790.3-864.7,1143.2-1395.5c86-126.9,158.9-233.3,164.8-236.2
		c30.6-10.2,223.1,978.5,287.3,1468.4l23.3,176.4l-90.4,134.2c-290.2,433.1-755.3,984.3-1122.8,1328.4l-147.3,138.5l718.9,236.2
		c1448,472.5,1356.1,440.4,1345.9,473.9c-33.5,109.4-153.1,422.9-220.2,576c-43.7,100.6-107.9,258.1-141.4,350
		c-61.2,164.8-151.7,361.6-189.6,412.7c-19,24.8-86-4.4-997.4-412.7c-538.1-240.6-979.9-437.5-984.3-437.5
		c-2.9,0-10.2,266.8-14.6,594.9c-7.3,571.6-24.8,873.5-75.8,1290.5c-11.7,93.3-24.8,177.9-29.2,185.2c-29.2,46.7-525,452-802,654.7
		c-228.9,167.7-559.9,386.4-570.2,376.2c-4.4-4.4,8.8-102.1,29.2-217.3c166.2-899.7,183.7-1888.4,51-2837.7
		c-26.2-189.6-102.1-605.2-125.4-679.5c-5.8-23.3-1.5-26.2,30.6-17.5c20.4,4.4,55.4,13.1,78.7,17.5
		c27.7,5.8-1001.8-466.6-1217.6-558.5c-14.6-5.8-13.1,10.2,2.9,62.7c94.8,306.2,176.4,683.9,233.3,1060.1
		c42.3,278.5,89,768.5,77.3,800.6c-16,40.8-592,374.8-821,475.4c-212.9,93.3-196.9,96.2-196.9-29.2c0-514.7-131.2-1296.3-309.1-1849
		c-119.6-371.8-351.4-901.2-495.8-1134.5l-48.1-77.3l-422.9-195.4c-231.9-107.9-427.3-195.4-433.1-196.9c-5.8,0,23.3,70,64.2,157.5
		c147.3,316.4,332.5,825.3,307.7,850.1c-14.6,13.1-689.7,293.1-716,296c-11.7,0-42.3-70-83.1-189.6
		c-215.8-640.2-570.2-1242.4-1019.3-1728c-72.9-78.7-89-87.5-599.3-317.9c-438.9-198.3-526.4-233.3-539.5-214.4
		c-7.3,11.7-56.9,81.7-109.4,157.5c-193.9,280-538.1,578.9-794.7,691.2c-52.5,23.3-94.8,48.1-94.8,56.9c0,7.3,121,239.1,268.3,514.7
		l266.9,500.2l137.1,109.4c75.8,59.8,231.9,173.5,348.5,252.3c463.7,313.5,847.2,503.1,1356.1,673.7
		c163.3,54,253.7,91.9,253.7,103.5c-4.4,30.6-145.8,398.1-220.2,570.2l-68.5,157.5l-43.7-10.2c-157.5-33.5-584.7-193.9-838.5-313.5
		c-83.1-39.4-154.6-68.5-158.9-65.6c-2.9,4.4,90.4,193.9,210,422.9l215.8,415.6l191,90.4c892.4,422.9,1819.8,646,2826,679.5
		c150.2,4.4,272.7,14.6,272.7,20.4c0,51-275.6,618.3-433.1,891l-67.1,116.7l-132.7-8.7c-565.8-40.8-1169.5-131.2-1666.7-246.4
		l-207.1-48.1l246.4,481.2c364.5,713.1,393.7,767,393.7,720.4c0-21.9-5.8-55.4-14.6-75.8c-7.3-20.4-11.7-37.9-8.7-37.9
		s56.9,10.2,119.6,21.9c447.7,83.1,961,125.4,1529.7,125.4c459.3,0,718.9-13.1,1152-61.2c247.9-26.2,962.4-138.5,987.2-153.1
		c21.9-14.6,11.7,8.8-78.7,157.5c-275.6,459.3-839.9,1222-918.7,1240.9c-83.1,20.4-536.6,83.1-740.8,103.5
		c-287.3,29.2-691.2,52.5-939.1,54c-105,1.5-237.7,5.8-293.1,11.7l-103.5,8.8l507.5,962.4l506,962.4l-51,26.2
		c-29.2,14.6-107.9,48.1-177.9,75.8c-70,26.2-290.2,122.5-491.4,211.4c-425.8,189.6-660.6,275.6-678.1,249.4
		c-5.8-10.2-182.3-460.8-393.7-1000.3l-382-982.8l-331,332.5c-345.6,347.1-619.7,593.5-977,879.3
		c-186.6,150.2-220.2,170.6-268.3,172.1c-77.3,0-447.7-39.4-688.3-74.4c-199.8-29.2-920.1-166.2-972.6-186.6
		c-23.3-8.8-1.5-27.7,107.9-103.5c947.8-654.7,1774.6-1485.9,2388.5-2404.6c110.8-166.2,122.5-179.4,140-153.1
		c56.9,83.1,62.7,81.7,29.2-8.8c-43.7-119.6-447.7-1172.4-452-1176.8c-1.5-1.5-64.2,100.6-140,226
		c-328.1,543.9-612.4,939.1-882.2,1224.9c-97.7,103.5-135.6,134.2-164.8,134.2c-128.3,0-997.4-246.4-1048.4-297.5
		c-4.4-2.9,56.9-77.3,134.2-164.8c516.2-577.4,984.3-1328.4,1251.1-2009.4c89-226,210-593.5,223.1-678.1c7.3-46.7-16-121-156-485.6
		c-99.2-255.2-170.6-422.9-176.4-412.7c-5.8,11.7-37.9,97.7-71.5,192.5c-33.5,96.2-105,278.5-158.9,406.8
		c-170.6,403.9-163.3,389.3-196.9,380.6c-16-4.4-173.5-70-350-147.3s-338.3-147.3-360.2-156c-23.3-7.3-40.8-20.4-40.8-27.7
		s26.2-65.6,56.9-126.9c256.6-510.4,443.3-1141.8,519.1-1760c39.4-312.1,46.7-278.5-176.4-870.5
		c-109.4-291.6-199.8-530.8-199.8-532.2c-1.5-1.5-39.4,10.2-83.1,24.8c-68.5,24.8-125.4,27.7-406.8,29.2
		c-370.4,0-561.4-21.9-753.9-86l-121-40.8l-14.6,45.2c-8.7,24.8-84.6,268.3-169.2,541c-177.9,567.2-170.6,498.7-99.2,918.7
		c90.4,538.1,250.8,1029.5,516.2,1580.7c71.5,147.3,129.8,274.1,129.8,280c0,30.6-698.5,342.7-734.9,329.6
		c-23.3-10.2-186.6-300.4-256.6-462.2c-51-115.2-166.2-401-210-517.7c-8.7-20.4-51,97.7-148.7,414.1l-135.6,443.3l51,161.9
		c287.3,892.4,823.9,1773.2,1566.1,2567.9l150.2,158.9l-42.3,19c-91.9,39.4-670.8,226-851.6,272.7l-189.6,51l-64.2-68.5
		c-351.4-379.1-828.3-1023.7-1049.9-1421.7c-39.4-70-75.8-122.5-83.1-116.7c-5.8,5.8-103.5,300.4-217.3,653.3
		c-115.2,352.9-211.4,648.9-214.4,656.2c-8.8,20.4,42.3-37.9,70-80.2l23.3-35l58.3,87.5c207.1,300.4,520.6,685.4,838.5,1025.1
		c473.9,508.9,998.9,949.3,1605.5,1347.4c153.1,102.1,237.7,164.8,226,172.1c-29.2,14.6-405.4,109.4-602.2,150.2
		c-221.6,45.2-606.6,103.5-823.9,125.4c-91.9,8.7-185.2,19-205.6,21.9c-93.3,14.6-872-615.4-1418.8-1144.7
		c-156-151.7-220.2-205.6-226-189.6c-4.4,11.7-150.2,473.9-322.3,1028c-218.7,701.4-320.8,1007.6-335.4,1009.1
		C8047.9,24042.8,7848.1,23977.2,7614.8,23895.5z M12247.5,13072.8c218.7-45.2,390.8-140,558.5-306.2
		c204.1-204.1,298.9-437.5,300.4-743.7c1.5-268.3-65.6-468.1-220.2-659.1c-141.4-175-368.9-323.7-576-376.2
		c-211.4-55.4-476.8-40.8-682.4,36.5c-188.1,70-401,252.3-513.3,437.5c-138.5,227.5-182.3,603.7-102.1,882.2
		c77.3,269.8,285.8,519.1,535.2,640.2c74.4,36.5,182.3,75.8,237.7,87.5C11916.5,13099,12123.6,13099,12247.5,13072.8z"/>
</g>
</svg>
