<?xml version="1.0" encoding="utf-8"?>
<!-- Generator: Adobe Illustrator 30.0.0, SVG Export Plug-In . SVG Version: 9.03 Build 0)  -->
<svg version="1.0" id="Layer_1" xmlns="http://www.w3.org/2000/svg" xmlns:xlink="http://www.w3.org/1999/xlink" x="0px" y="0px"
	 viewBox="0 0 2400 2400" style="enable-background:new 0 0 2400 2400;" xml:space="preserve">
<g transform="translate(0.000000,2400.000000) scale(0.100000,-0.100000)">
	<path d="M11900.4,23962.6c-12-19.5-133.3-217.2-269.6-437.4l-247.1-401.4l-10.5-407.4c-6-224.7-15-432.9-21-462.8l-9-56.9
		l-629.1,401.4c-346,220.2-742.9,482.3-883.7,581.2l-254.6,181.2l-9-248.6c-6-136.3-13.5-393.9-19.5-570.7l-9-322l259.1-233.7
		c494.3-447.9,1420-1262.7,1503.8-1324.1c18-13.5,19.5-98.9,4.5-614.1c-10.5-329.5-21-602.1-22.5-603.6
		c-6-7.5-940.6,696.5-1707.5,1285.2c-617.1,473.3-680,521.2-759.4,597.6c-35.9,31.5-56.9,43.4-56.9,31.5c0-12-21-263.6-47.9-557.2
		l-47.9-534.7l41.9-58.4c62.9-91.4,566.2-620.1,789.4-828.3c390.9-365.5,808.8-733.9,1166.8-1029
		c136.3-112.3,326.5-271.1,423.9-353.5l175.2-151.3v-549.7c0-304.1-3-551.2-7.5-551.2c-3,0-106.3,58.4-227.7,128.8
		c-214.2,124.3-401.4,241.2-1154.8,716c-191.7,119.8-352,218.7-355,218.7c-4.5,0-6-257.6-4.5-572.2l4.5-572.2l846.3-713l846.3-713
		l-3-314.5c-1.5-172.3-7.5-408.9-13.5-524.2l-9-212.7l-128.8-53.9c-179.7-74.9-353.5-175.2-494.3-286.1l-119.8-94.4l-461.3,247.1
		c-254.6,136.3-465.8,250.1-468.8,253.1c-3,3-95.9,485.3-206.7,1072.5c-109.3,587.2-208.2,1075.5-218.7,1084.4
		c-9,10.5-226.2,139.3-482.3,289.1c-353.5,206.7-465.8,266.6-468.8,247.1c-3-12,9-450.9,27-973.6c18-522.7,30-955.6,27-961.6
		c-4.5-13.5-816.3,404.4-936.2,480.8c-34.5,21-65.9,50.9-70.4,65.9c-3,15-145.3,805.8-316,1757
		c-169.3,951.1-313.1,1743.5-320.5,1758.5c-18,44.9-996.1,596.1-1000.6,564.7c-3-13.5,55.4-771.4,128.8-1686.6
		c73.4-913.7,130.3-1665.6,127.3-1668.6c-3-3-244.1,121.3-536.2,277.1l-531.7,281.6l-16.5,76.4c-7.5,40.4-106.3,570.7-218.7,1175.8
		c-112.3,605.1-205.2,1102.4-205.2,1103.9c-16.5,16.5-961.6,527.2-966.1,521.3c-4.5-3,7.5-482.3,25.5-1065
		c18-581.2,31.5-1060.5,28.5-1062c-3-3-190.2,92.9-419.4,211.2l-413.4,215.7l-500.3-31.5c-274.1-18-500.3-34.4-503.3-35.9
		c-6-4.5,393.9-840.3,423.9-885.2c10.5-16.5,196.2-140.8,411.9-275.6c341.5-212.7,389.4-247.1,367-263.6
		c-13.5-10.5-438.9-236.7-945.1-501.8c-506.3-266.6-919.7-488.3-919.7-494.3s223.2-136.3,495.8-290.6l494.3-280.1l1106.9,384.9
		c608.1,211.2,1112.9,383.4,1120.4,380.5c33-13.5,1020-620.1,1021.5-629.1c0-4.5-683-332.5-1518.8-726.5
		c-1123.4-530.2-1515.8-722-1502.3-733.9c10.5-9,227.7-137.8,483.8-287.6l465.8-272.6l1593.7,561.7
		c876.2,310.1,1649.1,582.7,1715,606.6l122.8,43.4l56.9-44.9c33-24,250.1-158.8,482.3-299.6c233.7-140.8,419.4-262.1,411.9-268.1
		c-6-6-399.9-209.7-873.2-449.4c-473.3-241.2-865.8-441.9-871.7-447.9c-4.5-4.5,215.7-136.3,492.8-292.1l501.8-283.1l160.3,53.9
		c86.9,31.5,548.2,190.2,1024.5,353.5l867.3,298.1l465.8-283.1l467.3-284.6l-7.5-55.4c-12-83.9-9-509.3,3-588.7l10.5-67.4
		l-447.9-265.1c-245.6-145.3-453.8-265.1-461.3-265.1c-9,0-480.8,164.8-1048.5,367L6680.4,11830l-480.8-280.1
		c-263.6-154.3-480.8-284.6-480.8-289.1c0-6,398.4-227.7,883.7-492.8l885.2-483.8l-459.8-275.6
		c-253.1-151.3-476.3-278.6-494.3-283.1c-22.5-6-597.6,193.2-1748,606.6c-942.1,338.5-1722.5,615.6-1733,615.6
		c-30,0-975.1-558.7-963.1-569.2c7.5-6,693.5-341.5,1524.8-748.9c832.8-405.9,1521.8-742.9,1532.3-748.9
		c12-6-173.8-128.8-500.3-329.5c-498.8-304.1-522.7-317.5-567.7-302.6c-24,9-525.7,188.7-1114.4,399.9
		c-587.2,209.7-1077,382-1088.9,382c-13.5,0-934.7-528.7-975.1-560.2c-1.5-1.5,423.9-235.2,946.6-519.8
		c522.7-283.1,951.1-519.8,951.1-524.2c0-6-175.2-119.8-387.9-253.1c-214.2-133.3-395.4-250.1-402.9-259.1
		c-18-22.5-438.9-898.7-434.4-901.7c3-1.5,236.7-24,521.3-50.9l516.8-49.4l396.9,232.2l396.9,230.7l4.5-173.8
		c3-95.9-3-591.6-10.5-1100.9c-9-510.8-13.5-930.2-12-931.7c7.5-7.5,961.6,561.7,972.1,579.7c6,12,106.3,540.7,221.7,1174.3
		c116.8,635.1,220.2,1160.8,230.7,1169.8c30,28.5,1044,593.1,1053,585.7c3-4.5-44.9-766.9-107.8-1695.6
		c-62.9-927.2-112.3-1700.1-109.3-1715c4.5-25.5,74.9,12,473.3,245.6c259.1,151.3,474.8,280.1,482.3,287.6
		c9,10.5,537.7,2970.2,639.6,3581.4c7.5,43.4,25.5,56.9,212.7,158.8c112.3,61.4,329.5,182.7,485.3,269.6l280.1,158.8v-317.5
		c-1.5-175.2-7.5-624.6-15-999.1c-6-374.5-10.5-684.5-7.5-687.5s223.2,122.8,488.3,278.6l483.8,283.1l197.7,1060.5
		c110.8,584.2,202.2,1069.5,205.2,1077c3,9,206.7,128.8,453.8,266.6c368.5,205.2,452.3,247.1,471.8,232.2
		c13.5-9,77.9-55.4,142.3-101.9c65.9-47.9,206.7-131.8,314.5-185.7l196.2-100.4l10.5-293.6c4.5-161.8,13.5-393.9,18-518.3l9-224.7
		l-838.8-704l-840.3-704l-1.5-573.7v-575.2l49.4,30c25.5,16.5,408.9,250.1,849.3,516.8l801.3,488.3l9-47.9c6-27,15-202.2,19.5-392.4
		c6-188.7,13.5-414.9,18-501.8l7.5-157.3L9846.8,4941.4L8431.4,3765.6v-575.2l-1.5-573.7l34.5,22.5c18,12,665,440.4,1439.4,952.6
		c772.9,512.3,1408,928.7,1411,925.7c3-3,13.5-274.1,24-602.1c15-519.8,13.5-597.6-6-612.6c-12-9-426.9-356.5-922.7-771.4
		l-901.7-753.4v-567.7c0-311.6,3-567.7,7.5-567.7c4.5,0,417.9,250.1,921.2,554.2c501.8,305.6,922.7,558.7,933.2,563.2
		c18,6,24-58.4,33-393.9c6-220.2,15-435.9,21-476.3c9-65.9,46.4-127.3,287.6-482.3C11862.9,182.7,11990.3,0,11994.7,0
		c4.5,0,55.4,71.9,113.8,160.3c59.9,88.4,185.7,275.6,281.6,416.4l173.8,257.6l18,461.3c9,254.6,18,465.8,21,468.8
		c3,3,422.4-248.6,933.2-558.7c512.3-310.1,933.2-563.2,937.7-563.2c4.5,0,7.5,254.6,7.5,566.2v567.7l-886.7,754.9
		c-486.8,414.9-895.7,762.4-907.7,771.4c-19.5,13.5-19.5,92.9-4.5,614.1c10.5,328,21,599.1,24,602.1c3,3,638.1-417.9,1411-936.2
		c772.9-518.3,1414-946.6,1424.5-954.1c13.5-9,18,106.3,18,558.7v570.7l-1396,1162.3c-768.4,639.6-1406.5,1171.3-1417,1180.3
		c-15,15-15,118.3-1.5,542.2c9,287.6,21,534.7,25.5,548.2c9,19.5,157.3-64.4,834.3-476.3c453.8-277.1,835.8-509.3,850.8-516.8
		c24-13.5,25.5,16.5,24,558.7v573.7l-838.8,702.5l-840.3,704l12,367c4.5,202.2,13.5,444.9,19.5,539.2l9,169.3l89.9,34.5
		c172.3,64.4,440.4,218.7,540.7,310.1c31.5,28.5,33,28.5,486.8-224.7l455.3-253.1l202.2-1077l202.2-1075.5l498.8-283.1
		c275.6-155.8,501.8-280.1,504.8-277.1c3,3-10.5,452.3-28.5,1000.6c-18,548.2-33,997.6-31.5,999.1c1.5,3,182.7-97.4,405.9-221.7
		c221.7-124.3,440.4-245.6,485.3-268.1l82.4-41.9l313-1786.9c172.3-984.1,319-1801.9,325-1819.9c7.5-21,170.8-125.8,486.8-310.1
		c262.1-154.3,479.3-277.1,482.3-274.1c3,4.5-46.4,775.9-110.8,1715c-62.9,940.6-112.3,1713.5-107.8,1718
		c4.5,4.5,247.1-125.8,537.7-290.6l528.7-296.6l218.7-1171.3c119.8-644.1,224.7-1177.3,232.2-1184.8c18-18,987.1-569.2,991.6-564.7
		c3,3-9,443.4-25.5,981.1c-18,536.2-28.5,1032-27,1100.9l4.5,122.8l395.4-230.7l396.9-230.7l486.8,46.4
		c268.1,25.5,500.3,46.4,515.3,46.4c13.5,0,25.5,9,25.5,19.5c0,22.5-410.4,876.2-431.4,897.2c-6,6-188.7,122.8-405.9,257.6
		l-392.4,245.6l334,178.2c184.2,98.9,621.6,332.5,973.6,521.3c353.5,188.7,639.6,343,636.6,346c-24,21-991.6,560.2-1006.6,560.2
		c-10.5,0-510.8-176.7-1111.4-390.9c-599.1-215.7-1100.9-395.4-1115.9-398.4c-21-6-1069.5,620.1-1057.5,632.1
		c3,3,695,341.5,1536.8,753.4c843.3,411.9,1536.8,751.9,1539.8,754.9c7.5,9-946.6,566.2-969.1,566.2
		c-10.5,0-787.9-275.6-1728.5-614.1c-940.6-337-1719.5-614.1-1730-614.1c-31.5,0-170.8,80.9-572.2,332.5l-370,232.2l883.7,482.3
		c485.3,266.6,882.2,488.3,882.2,492.8c-1.5,16.5-976.6,563.2-1002.1,563.2c-13.5-1.5-480.8-164.8-1041-364
		c-558.7-197.7-1023-361-1032-361c-7.5,0-215.7,119.8-461.3,265.1l-446.4,263.6l10.5,76.4c13.5,101.9,12,419.4-1.5,578.2l-12,127.3
		l444.9,277.1c244.1,152.8,449.4,278.6,456.8,281.6c6,3,480.8-160.3,1051.5-364l1039.5-368.5l495.8,265.1
		c274.1,145.3,497.3,268.1,497.3,274.1c0,4.5-395.4,224.7-876.2,486.8c-482.3,263.6-876.2,482.3-876.2,486.8
		c0,6,179.7,122.8,401.4,260.6c220.2,137.8,428.4,272.6,462.8,298.1l64.4,46.4l1731.5-638.1l1731.5-639.6l473.3,278.6
		c262.1,152.8,479.3,281.6,485.3,287.6c4.5,6-678.5,346-1520.3,757.9c-841.8,410.4-1535.3,750.4-1541.3,756.4
		c-13.5,12,1006.6,636.6,1036.5,635.1c12-1.5,522.7-181.2,1132.4-399.9l1109.9-398.4l497.3,280.1
		c272.6,155.8,495.8,286.1,495.8,290.6c0,6-432.9,241.2-961.6,524.2c-530.2,281.6-964.6,513.8-967.6,516.8
		c-3,1.5,176.7,116.8,399.9,254.6l402.9,253.1l217.2,468.8c119.8,256.1,215.7,467.3,215.7,468.8c-1.5,0-235.2,16.5-519.8,35.9
		l-516.8,34.5l-396.9-214.2l-396.9-214.2l-4.5,118.3c-3,64.4,9,551.2,27,1079.9c16.5,528.7,27,963.1,24,966.1
		c-3,3-230.7-121.3-504.8-277.1l-498.8-283.1l-218.7-1169.8c-119.8-644.1-223.2-1177.3-232.2-1184.8
		c-7.5-7.5-247.1-145.3-531.7-305.6c-501.8-281.6-516.8-289.1-521.2-251.6c-1.5,21,46.4,784.9,109.3,1698.6
		c61.4,912.2,112.3,1671.6,112.3,1688.1c0,22.5-94.4-27-474.8-250.1c-262.1-152.8-480.8-281.6-486.8-287.6
		c-6-4.5-152.8-817.8-326.5-1806.4c-173.8-988.6-317.5-1804.9-322-1815.4c-3-10.5-41.9-35.9-85.4-58.4s-260.6-140.8-480.8-265.1
		c-220.2-122.8-402.9-221.7-404.4-218.7c-3,3,10.5,453.8,28.5,1002.1c18,548.2,31.5,997.6,30,999.1s-227.7-116.8-503.3-263.6
		l-501.8-266.6l-200.7-1093.4l-202.2-1093.4l-456.8-260.6c-250.1-143.8-467.3-262.1-480.8-265.1c-12-3-112.3,56.9-221.7,131.8
		s-241.2,157.3-293.6,182.7l-94.4,46.4l-10.5,353.5c-4.5,194.7-13.5,434.4-18,534.7l-10.5,179.7l200.7,170.8
		c110.8,94.4,402.9,347.5,650.1,561.7c247.1,214.2,536.2,462.8,641.1,552.7l190.2,163.3v136.3c0,212.7-28.5,987.1-35.9,994.6
		c-4.5,3-384.9-230.7-846.3-519.8c-462.8-290.6-846.3-524.2-852.3-519.8c-7.5,4.5-18,164.8-24,356.5
		c-4.5,191.7-13.5,434.4-19.5,537.7l-9,187.2l1399,1195.3c1300.1,1111.4,1399,1199.8,1399,1243.2c0,257.6-28.5,1074-37.4,1079.9
		c-16.5,10.5-611.1-393.9-1325.6-898.7c-534.7-377.5-850.8-597.6-1280.7-889.7l-202.2-137.8l-9,113.8c-6,61.4-15,334-21,603.6
		l-10.5,491.3l892.7,792.4c811.8,719,892.7,795.4,886.7,829.8c-4.5,21-12,256.1-18,522.7c-4.5,265.1-13.5,501.8-19.5,525.7l-9,41.9
		l-897.2-581.2c-494.3-320.5-900.2-579.7-901.7-578.2s-12,212.7-21,467.3l-18,464.3l-268.1,374.5
		c-148.3,206.7-284.6,393.9-304.1,417.9l-34.5,44.9L11900.4,23962.6z M12322.8,13306.9c382-89.9,701-343,882.2-704
		c217.2-432.9,166.3-1015.5-124.3-1423c-82.4-115.3-260.6-287.6-370-356.5c-404.4-259.1-979.6-269.6-1391.5-25.5
		c-119.8,70.4-317.5,251.6-402.9,367c-205.2,280.1-298.1,633.6-257.6,988.6c68.9,615.6,506.3,1075.5,1118.9,1177.3
		C11892.9,13348.8,12198.5,13335.3,12322.8,13306.9z"/>
</g>
</svg>
