<?xml version="1.0" encoding="utf-8"?>
<!-- Generator: Adobe Illustrator 30.0.0, SVG Export Plug-In . SVG Version: 9.03 Build 0)  -->
<svg version="1.0" id="Layer_1" xmlns="http://www.w3.org/2000/svg" xmlns:xlink="http://www.w3.org/1999/xlink" x="0px" y="0px"
	 viewBox="0 0 2400 2400" style="enable-background:new 0 0 2400 2400;" xml:space="preserve">
<g transform="translate(0.000000,2400.000000) scale(0.100000,-0.100000)">
	<path d="M14821,23881.2c-15-66.9-125.6-559.8-247.1-1096.4c-120.2-536.6-222.6-987.2-226.7-1000.9c-5.5-16.4-135.2,157-438.3,587.1
		c-237.6,337.3-432.8,613.1-434.2,615.8c-5.5,6.8-1024.1-206.2-1036.4-217.1c-10.9-9.6,1450.1-2741.8,1467.8-2743.1
		c4.1,0,17.8,31.4,31.4,68.3c13.7,38.2,27.3,68.3,28.7,65.5c2.7-2.7-299-1395.5-311.3-1435.1c-1.4-5.5-195.3,350.9-431.5,791.9
		c-234.9,441-431.5,807-436.9,813.8c-5.5,5.5-203.4-46.4-441-116.1c-411-118.8-431.5-125.6-420.5-152.9
		c5.5-16.4,305.9-715.5,667.7-1555.2c361.8-839.7,656.8-1533.4,656.8-1542.9c0-8.2-47.8-230.8-105.1-491.6
		c-77.8-348.2-109.2-469.7-120.2-456.1c-6.8,10.9-146.1,244.4-307.2,520.2c-161.1,274.5-299,499.7-307.2,499.7
		c-20.5,0-838.4-240.3-847.9-249.9c-4.1-4.1,236.2-576.2,533.9-1271.2l542.1-1263l-50.5-222.6c-28.7-122.9-53.3-225.3-56-228
		c-2.7-2.7-12.3,13.7-20.5,36.9c-8.2,24.6-20.5,43.7-28.7,43.7c-6.8,0-65.5-15-131.1-34.1c-65.5-17.8-180.2-42.3-255.3-54.6
		c-181.6-27.3-355-77.8-353.6-103.8c1.4-10.9,5.5-34.1,12.3-53.3c12.3-41,23.2-51.9-165.2,159.8l-148.8,165.2l-66.9,1275.3
		c-35.5,700.5-68.3,1320.4-72.4,1376.3l-8.2,103.8l-431.5-53.3c-237.6-30-432.8-54.6-434.2-56c0,0-17.8-274.4-36.9-609
		c-20.5-333.2-38.2-609-41-610.3c-2.7-2.7-148.8,173.4-326.3,390.5l-322.2,394.6l-71,1669.9c-38.2,918.9-72.4,1678.1-73.7,1686.3
		c-4.1,15-843.8-117.4-862.9-136.5c-5.5-4.1-32.8-397.3-60.1-872.5c-28.7-473.8-53.3-886.2-56-914.8c-4.1-50.5-8.2-45.1-447.9,512
		c-533.9,675.9-499.7,629.5-423.3,574.8c32.8-24.6,62.8-41,66.9-36.9c4.1,4.1,47.8,699.1,96.9,1545.7
		c77.8,1347.7,86,1538.8,68.3,1542.9c-19.1,2.7-1021.3-234.9-1029.5-244.4c-1.4-2.7-57.3-330.4-122.9-729.1
		c-65.5-397.3-122.9-737.3-128.3-753.7c-8.2-25.9-116.1,102.4-719.6,857.5c-390.5,488.8-716.8,894.3-725,901.2
		c-10.9,9.6-79.2-38.2-218.5-152.9c-112-91.5-248.5-196.6-303.1-233.5c-69.6-47.8-95.6-72.4-87.4-83.3
		c6.8-9.6,330.4-415.1,718.2-901.2c389.1-487.5,704.6-887.5,701.8-890.3c-2.7-2.7-341.4,19.1-753.7,49.2s-752.3,51.9-755.1,49.2
		c-9.6-10.9-469.7-969.4-465.6-972.2c5.5-5.5,3036.7-539.3,3057.2-539.3c8.2,0-1.4,28.7-21.8,65.5c-20.5,35.5-31.4,58.7-23.2,50.5
		c27.3-27.3,891.6-1129.2,887.5-1131.9c-2.7-2.7-406.9,68.3-898.4,157s-898.4,157-903.9,151.6c-23.2-24.6-322.2-815.2-310-822
		c6.8-5.5,740.1-210.3,1630.3-457.4l1616.7-447.9l322.2-394.6c177.5-217.1,320.9-397.3,318.1-398.7c-1.4-2.7-277.2,45.1-610.3,103.8
		c-333.2,58.7-607.6,105.1-610.3,102.4c-15-13.7-319.5-819.3-312.7-826.1c4.1-5.5,599.4-178.9,1321.7-386.4l1312.2-376.9l113.3-142
		c62.8-77.8,128.3-159.8,143.4-181.6l28.7-38.2l-30,16.4c-17.8,8.2-34.1,13.7-36.9,10.9c-2.7-4.1-31.4-66.9-64.2-142
		c-34.1-73.7-113.3-233.5-178.9-352.3c-64.2-120.2-116.1-219.8-113.3-221.2c1.4-2.7,19.1-9.6,36.9-17.8
		c24.6-9.6-28.7-13.7-191.2-13.7l-225.3-1.4L9190,13200.9c-614.4,436.9-1121,789.2-1125.1,785.1c-4.1-4.1-112-174.8-238.9-379.6
		l-230.8-372.8l34.1-27.3c17.8-15,226.7-199.4,464.2-409.6l432.8-382.3l-505.2-4.1l-503.8-2.7l-1350.4,989.9
		c-741.4,543.4-1353.1,989.9-1358.6,989.9c-4.1,0-105.1-163.9-223.9-364.6c-118.8-202.1-223.9-379.6-233.5-394.6
		c-17.8-27.3,13.7-57.3,647.2-606.2c365.9-318.1,675.9-585.8,686.8-595.3c16.4-16.4-95.6-19.1-710-17.8
		c-479.3,1.4-711.4,5.5-677.2,13.7c30,6.8,56,15,58.7,17.8c5.5,5.5-2283,2046.8-2300.7,2053.6c-6.8,1.4-116.1-215.7-244.4-482
		l-234.9-486.1l520.2-555.7l520.2-555.7l-1152.4-6.8l-1152.4-6.8l-4.1-398.7l-2.7-400.1h1160.6h1162l-525.7-561.2l-524.3-561.2
		l112-234.9c290.8-603.5,355-731.9,368.7-727.8c19.1,6.8,2300.7,2034.5,2300.7,2045.4c1.4,5.5-27.3,15-62.8,23.2
		c-46.4,9.6,147.5,13.7,671.8,15l737.3,1.4l-34.1-32.8c-19.1-17.8-319.5-279.9-669.1-581.7c-349.5-301.8-641.7-555.7-651.3-565.3
		c-13.7-10.9,34.1-102.4,208.9-397.3c124.3-210.3,229.4-390.5,234.9-398.7c6.8-12.3,447.9,304.5,1368.2,979l1358.6,996.8h502.5
		c275.8,0,501.1-2.7,501.1-5.5c0-2.7-206.2-188.4-457.4-409.6c-251.2-222.6-458.8-409.6-461.5-415.1
		c-9.6-16.4,452-746.9,471.1-745.5c10.9,1.4,518.9,356.4,1127.8,789.2l1110.1,786.5l228-1.4c177.5,0,218.5-4.1,187.1-15
		c-21.8-8.2-42.3-16.4-45.1-17.8c-2.7-2.7,51.9-107.9,120.2-233.5c68.3-127,148.8-285.4,177.5-353.6
		c42.3-99.7,58.7-122.9,80.6-121.5c16.4,0,28.7-1.4,28.7-4.1s-60.1-80.6-135.2-172l-135.2-167.9l-1314.9-360.5
		c-723.7-198-1319-361.8-1321.7-364.6c-13.7-10.9,316.8-864.3,334.5-864.3c9.6,0,279.9,46.4,600.8,102.4
		c319.5,57.3,587.1,102.4,594,99.7c16.4-5.5-625.4-786.5-654-794.7c-12.3-4.1-745.5-207.5-1627.6-452
		c-882.1-245.8-1605.7-446.5-1607.1-449.2c-4.1-2.7,310-815.2,319.5-826.1c1.4-2.7,406.9,66.9,898.4,155.7
		c492.9,87.4,897.1,158.4,899.8,155.7c5.5-5.5-845.2-1091-879.3-1122.4c-9.6-9.6,0,10.9,20.5,42.3c19.1,32.8,34.1,62.8,31.4,65.5
		c-5.5,4.1-3018.9-523-3053.1-533.9c-10.9-4.1,60.1-161.1,217.1-473.8c128.3-258.1,234.9-469.7,236.2-469.7
		c0-1.4,341.4,13.7,756.4,34.1c413.7,19.1,753.7,32.8,753.7,28.7c0-4.1-323.6-411-718.2-905.3c-396-494.3-716.8-899.8-714.1-902.5
		c2.7-2.7,51.9-35.5,107.9-72.4c56-38.2,188.4-140.6,293.6-228c105.1-87.4,198-157,207.5-155.7c8.2,2.7,335.9,405.5,727.8,895.7
		c393.2,490.2,716.8,887.5,720.9,883.4s62.8-342.7,132.4-753.7l124.3-748.3l517.5-125.6c285.4-69.6,521.6-124.3,525.7-122.9
		c5.5,1.4-169.3,3083.1-176.1,3106.3c-1.4,2.7-25.9-15-56-38.2c-31.4-24.6-57.3-42.3-60.1-39.6c-4.1,5.5,122.9,166.6,737.3,944.9
		c94.2,120.2,173.4,214.4,176.1,211.6c2.7-1.4,25.9-390.5,53.3-864.3c27.3-472.4,53.3-884.8,57.3-914.8l6.8-54.6l426-71
		c233.5-39.6,430.1-66.9,434.2-61.4c4.1,5.5,36.9,710,72.4,1566.1s69.6,1612.6,75.1,1679.5l8.2,122.9l320.9,391.9
		c176.1,215.7,322.2,390.5,323.6,387.8c1.4-1.4,19.1-275.8,38.2-609c20.5-334.5,38.2-609,39.6-610.3c4.1-4.1,861.6-112,864.3-107.9
		c2.7,1.4,35.5,619.9,75.1,1375l72.4,1370.9l76.5,88.8c42.3,49.2,114.7,128.3,161.1,177.5c65.5,69.6,80.6,80.6,69.6,50.5
		c-8.2-21.8-13.7-43.7-13.7-49.2c0-16.4,252.6-81.9,402.8-103.8c75.1-10.9,176.1-32.8,225.3-47.8c118.8-36.9,131.1-35.5,148.8,16.4
		c8.2,23.2,17.8,39.6,20.5,36.9c2.7-2.7,27.3-106.5,54.6-230.8l51.9-225.3l-540.7-1260.3c-297.7-693.6-540.7-1265.7-540.7-1269.8
		c0-10.9,849.3-260.8,861.6-254c5.5,2.7,143.4,234.9,307.2,517.5c165.2,281.3,303.1,512,307.2,512c4.1,0,56-217.1,114.7-480.6
		l106.5-482l-665-1529.3c-365.9-841.1-666.3-1534.7-667.7-1541.6c-4.1-17.8,850.7-300.4,864.3-286.7c6.8,6.8,176.1,319.5,375.5,695
		c462.9,868.4,486.1,910.7,492.9,905.3c5.5-6.8,305.9-1375,304.5-1395.5c0-8.2-10.9,12.3-24.6,45.1l-24.6,61.4l-34.1-61.4
		c-86-147.5-1444.6-2676.2-1444.6-2685.8c0-17.8,1037.7-228,1050-213c6.8,6.8,200.7,281.3,431.5,610.3
		c232.1,327.7,426,592.6,430.1,587.1c5.5-6.8,117.4-495.6,251.2-1089.6c132.4-592.6,245.8-1092.3,251.2-1107.4l9.6-28.7l109.2,31.4
		c60.1,17.8,167.9,42.3,238.9,53.3c71,10.9,192.5,36.9,269,57.3c125.6,32.8,139.3,39.6,133.8,65.5
		c-80.6,345.5-497,2210.6-495.6,2213.3c2.7,1.4,301.8-165.2,665-372.8c491.6-278.5,667.7-371.4,684.1-363.2
		c12.3,5.5,202.1,158.4,420.5,338.6c367.3,304.5,394.6,329.1,374.1,349.5c-25.9,25.9-2496,1787.3-2505.5,1787.3
		c-2.7,0-4.1-16.4-1.4-36.9c2.7-21.8,2.7-31.4-1.4-24.6c-15,32.8-322.2,1347.7-316.8,1354.5c4.1,4.1,333.2-232.1,731.9-524.3
		c398.7-290.8,730.5-531.1,736-533.9c5.5-1.4,151.6,129.7,323.6,292.2c173.4,162.5,319.5,299,325,305.9
		c5.5,5.5-559.8,506.6-1257.6,1114.2l-1268.5,1104.6l-109.2,488.8c-60.1,267.6-106.5,487.5-105.1,487.5
		c2.7,0,223.9-148.8,492.9-331.8s495.6-335.9,503.8-340c13.7-9.6,654,584.4,654,606.2c0,5.5-439.7,396-977.6,867
		c-538,472.4-999.5,876.6-1026.8,901.2c-47.8,42.3-53.3,53.3-103.8,273.1l-53.3,228l36.9-45.1l36.9-45.1l95.6,79.2
		c51.9,42.3,146.1,128.3,210.3,189.8c64.2,60.1,157,136.5,208.9,169.3c50.5,32.8,91.5,62.8,91.5,66.9c0,4.1-9.6,19.1-23.2,32.8
		c-12.3,13.7-16.4,24.6-9.6,23.2c6.8,0,101-38.2,207.5-84.7l196.6-84.7l648.6-1208.4c356.4-665,649.9-1209.8,652.7-1212.5
		c5.5-6.8,756.4,494.3,757.8,505.2c0,4.1-103.8,256.7-230.8,559.8s-229.4,551.6-228,553c2.7,2.7,204.8-92.8,452-211.6l447.9-215.7
		l790.6-1473.3c434.2-811.1,794.7-1478.8,800.1-1484.2c5.5-5.5,180.2,102.4,387.8,241.7l376.9,251.2L19077,7290
		c-68.3,159.8-229.4,539.3-359.1,843.8s-233.5,554.4-232.1,557.1c4.1,5.5,1228.9-570.7,1290.3-607.6c32.8-17.8,30-19.1-32.8-10.9
		c-60.1,8.2-65.5,6.8-57.3-16.4c39.6-102.4,1174.3-2812.8,1181.1-2819.6c6.8-6.8,761.9,569.4,824.7,629.5
		c5.5,6.8-84.7,338.6-202.1,738.7c-117.4,398.7-211.6,731.9-208.9,737.3c2.7,6.8,468.3-213,1035-486.1
		c566.6-274.4,1036.4-499.7,1043.2-501.1c6.8-1.4,42.3,65.5,79.2,147.5c36.9,83.3,110.6,244.4,163.9,359.1
		c51.9,114.7,94.2,210.3,91.5,213c-2.7,1.4-464.2,219.8-1025.4,486.1c-562.6,264.9-1021.3,486.1-1021.3,490.2
		s307.2,133.8,681.3,286.7c375.5,152.9,688.2,282.6,696.4,288.1c10.9,5.5,13.7,166.6,12.3,548.9l-4.1,539.3l-1491-430.1
		c-820.6-237.6-1492.4-435.6-1492.4-439.7c0-5.5,23.2-25.9,50.5-45.1c28.7-20.5,45.1-36.9,38.2-35.5
		c-15,0-1342.2,666.3-1331.3,666.3c27.3,4.1,1794.2,467,1799.6,472.4c6.8,6.8-87.4,853.4-99.7,888.9
		c-2.7,9.6-589.9-95.6-1634.4-290.8c-895.7-166.6-1639.9-304.5-1653.5-304.5c-20.5,0-873.9,400.1-901.2,423.3
		c-5.5,4.1,243,87.4,553,183c310,96.9,569.4,180.2,576.2,187.1c12.3,10.9-39.6,733.2-58.7,824.7l-8.2,42.3l-1355.9-234.9
		l-1354.5-234.9l-192.5,105.1c-181.6,98.3-188.4,103.8-143.4,107.9l49.2,4.1l-2.7,398.7l-4.1,398.7l-46.4,4.1
		c-43.7,4.1-32.8,12.3,139.3,106.5c102.4,56,198,101,213,101c13.7,0,626.7-103.8,1361.3-230.8
		c734.6-128.3,1338.1-229.4,1340.8-226.7c8.2,8.2,75.1,853.4,68.3,860.2c-4.1,4.1-259.4,86-569.4,183
		c-309.9,96.9-565.3,178.9-568,181.6c-2.7,2.7,196.6,102.4,443.8,221.2l449.2,214.4l1615.3-300.4
		c888.9-166.6,1630.3-304.5,1649.4-308.6l35.5-8.2l53.3,452c28.7,247.1,50.5,452,46.4,456c-2.7,2.7-396,113.3-872.5,245.8
		c-476.5,133.8-882.1,245.8-899.8,252.6c-25.9,6.8,90.1,66.9,628.1,322.2c363.2,170.7,667.7,314,674.5,316.8
		c12.3,5.5-24.6-25.9-79.2-66.9c-21.8-16.4,155.7-71,1461-447.9c816.5-234.9,1493.8-431.5,1503.3-434.2
		c12.3-4.1,16.4,109.2,16.4,539.3v543.4l-696.4,285.4c-382.3,157-696.4,289.5-696.4,293.6c0,4.1,461.5,226.7,1024.1,492.9
		c563.9,266.3,1024.1,484.7,1024.1,487.5c0,1.4-54.6,121.5-120.2,266.3c-66.9,144.7-137.9,304.5-159.8,356.4
		c-20.5,50.5-43.7,91.5-49.2,91.5c-6.8,0-476.5-223.9-1044.5-498.4c-569.4-274.5-1036.4-495.6-1040.5-492.9
		c-2.7,4.1,90.1,337.3,208.9,740.1c117.4,402.8,207.5,737.3,202.1,741.4c-6.8,4.1-192.5,150.2-413.7,322.2
		c-219.8,173.4-402.8,312.7-406.9,311.3c-12.3-4.1-1190.6-2834.6-1183.8-2841.4c4.1-4.1,23.2,0,42.3,9.6c20.5,8.2,38.2,13.7,41,12.3
		c2.7-2.7-288.1-151.6-645.8-329.1c-357.7-178.9-645.8-316.8-641.7-307.2c4.1,9.6,148.8,352.3,323.6,761.9
		c173.4,409.6,333.2,785.1,355,834.3l38.2,91.5l-379.6,254l-381,252.6l-116.1-214.4c-62.8-117.4-420.6-782.4-791.9-1477.4
		c-372.8-695-685.4-1269.8-695-1278c-19.1-19.1-884.8-432.8-890.3-426c-1.4,2.7,101,249.9,226.7,550.3
		c127,300.4,230.8,550.3,230.8,555.7c0,6.8-170.7,124.3-378.2,263.5l-379.6,252.6l-19.1-38.2
		c-146.1-279.9-1276.7-2375.8-1289-2388.1c-9.6-8.2-83.3-43.7-166.6-76.5c-81.9-34.1-174.8-72.4-204.8-84.7l-54.6-23.2l32.8,35.5
		c19.1,19.1,31.4,36.9,27.3,39.6c-2.7,2.7-45.1,31.4-94.2,64.2c-49.2,31.4-135.2,102.4-191.2,158.4
		c-56,54.6-151.6,139.3-211.6,189.8c-99.7,81.9-110.6,87.4-125.6,65.5c-9.6-13.7-25.9-36.9-36.9-51.9l-20.5-27.3l6.8,27.3
		c2.7,15,24.6,107.9,46.4,204.8c23.2,98.3,43.7,191.2,47.8,206.2c4.1,16.4,439.7,408.3,1037.7,933.9
		c566.6,497,1030.9,905.3,1030.9,908c0,16.4-636.3,600.8-654,599.4c-12.3,0-236.2-147.5-499.7-325
		c-262.2-178.9-484.7-327.7-492.9-331.8c-8.2-2.7,32.8,208.9,91.5,476.5l107.9,482l71,64.2c39.6,35.5,611.7,533.9,1269.8,1106
		l1197.5,1041.8l-140.6,136.5c-76.5,75.1-223.9,215.7-325,311.3l-185.7,174.8l-736-539.3c-404.2-296.3-736-532.5-738.7-527.1
		c-4.1,10.9,305.9,1331.3,318.1,1358.6c4.1,8.2,4.1-4.1,1.4-24.6c-2.7-28.7,0-36.9,15-31.4c15,6.8,2389.5,1695.9,2486.4,1771
		l31.4,23.2l-393.2,325c-215.7,177.5-404.2,333.2-416.5,344.1c-21.8,17.8-86-16.4-688.2-357.7c-365.9-207.5-667.7-375.5-669.1-372.8
		c-2.7,2.7,105.1,494.3,240.3,1093.7c136.5,599.4,248.5,1101.9,249.9,1116.9c2.7,23.2-13.7,32.8-106.5,60.1
		c-60.1,17.8-173.4,42.3-252.6,54.6c-79.2,10.9-195.3,35.5-259.4,54.6c-62.8,17.8-118.8,32.8-124.3,32.8
		C14853.7,24000,14836,23946.7,14821,23881.2z"/>
</g>
</svg>
