<?xml version="1.0" encoding="utf-8"?>
<!-- Generator: Adobe Illustrator 30.0.0, SVG Export Plug-In . SVG Version: 9.03 Build 0)  -->
<svg version="1.0" id="Layer_1" xmlns="http://www.w3.org/2000/svg" xmlns:xlink="http://www.w3.org/1999/xlink" x="0px" y="0px"
	 viewBox="0 0 2400 2400" style="enable-background:new 0 0 2400 2400;" xml:space="preserve">
<g transform="translate(0.000000,2400.000000) scale(0.100000,-0.100000)">
	<path d="M11903.4,23986.4c-184-75.6-317.1-473.2-463.4-1390.1c-44.4-274.4-59.2-430.5-65.7-652.3c-4.9-164.3-16.4-292.5-24.6-292.5
		s-353.3,170.9-765.7,381.2c-691.8,350-759.1,381.2-851.1,387.8c-55.9,3.3-128.2-1.6-159.4-11.5c-143-47.7-290.8-274.4-290.8-443.6
		c0-124.9,49.3-218.5,154.5-295.8c123.2-92,943.1-534,1587.3-856.1c185.7-92,338.5-169.2,340.1-170.9c9.9-8.2,23-798.6,11.5-798.6
		c-46,0-1769.6,864.3-2103.2,1054.9c-110.1,62.4-225.1,116.7-256.3,121.6c-67.4,11.5-179.1-39.4-218.5-96.9
		c-78.9-119.9-131.4-455.1-90.4-576.7c27.9-87.1,110.1-174.2,197.2-212c41.1-18.1,93.7-49.3,116.7-72.3c24.6-23,98.6-69,164.3-103.5
		c67.4-34.5,299-156.1,515.9-269.5c216.9-115,688.5-353.3,1046.7-532.4l652.3-323.7l1.6-405.8c0-225.1-4.9-407.5-9.9-407.5
		c-4.9,0-230,105.2-496.2,233.3c-451.9,216.9-494.6,235-596.5,239.9c-210.3,13.1-359.8-62.4-448.6-226.8
		c-98.6-180.7-69-363.1,78.9-484.7c39.4-31.2,379.6-208.7,757.5-392.7c377.9-185.7,693.4-346.7,700-358.2
		c8.2-11.5,14.8-166,14.8-343.4c0-285.9-3.3-325.3-27.9-346.7c-16.4-14.8-346.7-185.7-736.1-379.6
		c-387.8-193.9-721.3-368.1-737.8-387.8c-16.4-18.1-70.7-52.6-118.3-73.9c-47.7-23-350-210.3-672-419
		c-320.4-208.7-589.9-379.6-598.1-379.6s-18.1-8.2-21.4-19.7c-4.9-13.1-119.9,49.3-302.3,161c-258,157.7-294.1,185.7-292.5,220.2
		c1.6,23,16.4,368.1,32.9,765.7c32.9,813.3,29.6,864.3-62.4,969.4c-174.2,197.2-511,174.2-670.4-46
		c-77.2-105.2-93.7-200.5-123.2-678.6c-14.8-243.2-32.9-471.6-37.8-504.4l-11.5-62.4l-340.1,200.5l-341.8,200.5v128.2
		c0,157.7,110.1,2768.7,121.6,2878.7c13.1,128.2-18.1,220.2-105.2,307.3c-172.5,172.5-386.1,166-599.7-21.4
		c-87.1-77.2-136.4-164.3-149.5-262.9c-4.9-39.4-36.1-624.4-70.7-1299.7c-36.1-675.3-65.7-1232.3-69-1234
		c-3.3-3.3-159.4,83.8-346.7,193.9l-340.1,198.8v205.4c0,113.4,13.1,622.7,29.6,1132.1c21.4,629.3,24.6,946.4,14.8,985.9
		c-26.3,93.7-151.2,207-264.5,239.9c-123.2,36.1-198.8,23-318.8-55.9c-147.9-95.3-236.6-218.5-258-354.9
		c-4.9-36.1-21.4-379.6-34.5-764.1c-14.8-384.5-29.6-736.1-34.5-783.8l-8.2-83.8l-175.8,98.6c-451.9,258-989.2,451.9-1577.4,570.2
		c-450.2,92-611.2,60.8-611.2-116.7c1.6-123.2,144.6-322.1,422.3-589.9c340.1-325.3,931.6-788.7,1186.3-926.7
		c82.2-46,149.5-85.4,147.9-90.4c0-4.9-300.7-200.5-668.7-435.4s-703.3-458.4-744.3-497.9c-244.8-225.1-189-649,98.6-750.9
		c82.2-27.9,208.7-32.9,272.8-8.2c44.4,16.4,1733.5,1074.6,1827.1,1145.3l52.6,37.8l341.8-190.6c187.3-106.8,350-200.5,361.5-210.3
		c14.8-13.1-248.1-190.6-1025.3-691.8c-575.1-369.7-1069.7-696.7-1099.2-724.6c-80.5-73.9-126.5-189-134.7-336.8
		c-8.2-152.8,13.1-226.8,93.7-315.5c110.1-121.6,264.5-157.7,423.9-96.9c44.4,16.4,639.2,394.3,1324.4,838
		c683.5,445.3,1250.4,808.4,1258.6,808.4c8.2,0,18.1,8.2,21.4,19.7c4.9,13.1,136.4-55.9,351.6-182.4
		c189-110.1,348.3-207,356.6-213.6c6.6-6.6-167.6-126.5-386.1-264.5c-220.2-139.7-430.5-282.6-466.6-317.1
		c-101.9-92-144.6-202.1-144.6-373c-1.6-113.4,4.9-152.8,34.5-205.4c72.3-136.4,223.5-238.3,350-238.3
		c101.9,1.6,238.3,80.5,833.1,481.4c345.1,231.7,637.5,422.3,649,422.3s144.6-75.6,295.8-166l276-167.6v-141.3
		c0-77.2-11.5-391.1-26.3-698.3c-13.1-305.6-21.4-611.2-16.4-681.9c24.6-315.5,75.6-1413.1,75.6-1623.4v-115l-284.3-172.5
		c-238.3-144.6-289.2-169.2-313.8-154.5c-18.1,9.9-317.1,205.4-665.5,433.8c-629.3,412.4-723,463.4-851.1,463.4
		c-170.9,0-350-212-350-412.4c0-119.9,42.7-236.6,129.8-350c52.6-70.7,146.2-143,484.7-373c231.7-156.1,415.7-287.5,412.4-292.5
		c-4.9-4.9-162.7-98.6-350-208.7l-340.1-202.1l-49.3,46c-54.2,50.9-2482.8,1639.8-2589.6,1695.7c-106.8,54.2-226.8,59.2-317.1,14.8
		c-190.6-92-290.8-373-213.6-598.1c54.2-157.7,113.4-202.1,1243.8-938.2c583.3-379.6,1054.9-695,1048.3-701.6
		c-14.8-16.4-677-407.5-686.8-407.5c-4.9,0-423.9,271.1-931.6,603c-519.2,341.8-957.9,616.2-1003.9,632.6
		c-162.7,55.9-276,29.6-394.3-90.4c-95.3-98.6-126.5-182.4-126.5-336.8c1.6-128.2,54.2-248.1,156.1-351.6
		c39.4-41.1,300.7-215.2,619.5-415.7c302.3-189,612.9-382.8,688.5-432.1l138-88.7l-144.6-80.5c-243.2-136.4-667.1-460.1-979.3-747.6
		c-639.2-588.2-787.1-976-374.6-976c226.8,0,910.3,172.5,1344.1,340.1c330.3,126.5,419,167.6,598.1,281l157.7,100.2l8.2-85.4
		c4.9-47.7,27.9-417.4,50.9-824.8c23-405.9,46-765.7,50.9-796.9c13.1-80.5,85.4-207,149.5-264.5c106.8-93.7,180.7-119.9,336.8-119.9
		c134.7-1.6,144.6,1.6,205.4,49.3c34.5,27.9,82.2,80.5,106.8,116.7c92,134.7,92,121.6,24.6,1250.4
		c-34.5,566.9-60.8,1059.8-60.8,1096v65.7l356.6,200.5c197.2,110.1,359.8,197.2,363.1,195.5c3.3-3.3,34.5-570.2,70.7-1260.3
		c69-1362.1,69-1363.8,172.5-1513.3c90.4-128.2,300.7-223.5,446.9-202.1c200.5,29.6,310.5,154.5,325.3,366.4
		c4.9,60.8-36.1,787.1-90.4,1613.5c-52.6,826.5-92,1508.4-87.1,1515c18.1,18.1,714.8,409.1,719.7,402.6c3.3-1.6,13.1-226.8,23-496.2
		c9.9-271.1,26.3-524.2,36.1-563.6c24.6-98.6,129.8-254.7,210.3-313.8c119.9-85.4,331.9-110.1,455.1-49.3
		c143,69,223.5,231.7,207,419c-3.3,54.2-21.4,396-37.8,762.4c-16.4,366.4-36.1,681.9-41.1,700c-9.9,31.2,21.4,54.2,277.7,203.7
		c159.4,92,299,164.3,310.5,159.4c11.5-3.3,292.5-187.3,627.7-405.8c333.6-220.2,647.4-417.4,698.3-440.4
		c49.3-23,105.2-54.2,123.2-70.7c52.6-47.7,1349-721.3,1386.8-721.3c34.5,0,34.5-3.3,31.2-348.3l-4.9-350l-41.1-4.9
		c-62.4-9.9-1357.2-693.4-1431.2-757.5c-136.4-115-162.7-251.4-82.2-422.3c85.4-179.1,244.8-276,463.4-276
		c105.2,0,118.3,4.9,593.2,233.3c267.8,128.2,491.3,233.3,496.2,233.3c6.6,0,8.2-179.1,6.6-396l-4.9-397.6l-1404.9-701.6
		c-1289.8-644.1-1409.8-708.2-1473.9-778.8c-88.7-98.6-113.4-182.4-88.7-304c60.8-304,343.4-460.1,660.5-366.4
		c50.9,14.8,585,281,1186.3,589.9c601.4,310.5,1100.9,563.6,1110.7,563.6c13.1,0,18.1-115,14.8-407.5l-4.9-405.9l-304-156.1
		c-1353.9-696.7-1692.4-877.4-1758.1-939.9c-126.5-121.6-146.2-236.6-67.4-399.3c55.9-116.7,129.8-190.6,235-238.3
		c100.2-44.4,264.5-57.5,351.6-29.6c36.1,11.5,396,189,798.6,394.3c402.6,207,736.1,374.6,742.7,374.6c4.9,0,9.9-108.4,9.9-241.5
		c0-598.1,238.3-1682.6,433.8-1978.3c50.9-75.6,101.9-111.7,177.5-123.2c101.9-18.1,193.9,98.6,299,376.3
		c156.1,412.4,300.7,1186.3,317.1,1684.2c4.9,154.5,13.1,282.6,16.4,282.6c4.9,0,338.5-169.2,741-376.3
		c404.2-207,764-384.5,800.2-394.3c95.3-26.3,170.9-23,289.2,14.8c123.2,37.8,208.7,101.9,266.2,202.1
		c106.8,182.4,93.7,313.8-44.4,446.9c-72.3,69-230,157.7-1053.2,581.7c-534,274.4-979.3,506.1-989.2,515.9
		c-16.4,11.5-21.4,116.7-21.4,423.9v407.5l859.3-435.4c471.6-239.9,994.1-502.8,1160-586.6l302.3-151.2h174.2
		c203.7,0,274.4,27.9,368.1,143c121.6,149.5,143,267.8,77.2,420.6c-69,161-62.4,157.7-1549.5,900.4l-1383.5,691.8l-4.9,397.6
		c-1.6,216.9-1.6,396,3.3,396c3.3,0,215.2-100.2,469.9-221.8c254.7-123.2,496.2-230,537.3-238.3c100.2-23,256.3,6.6,363.1,67.4
		c105.2,59.2,192.2,184,220.2,313.8c18.1,85.4,16.4,96.9-26.3,182.4c-29.6,62.4-69,110.1-121.6,147.9
		c-96.9,70.7-1350.6,729.5-1403.2,737.8l-37.8,4.9l-4.9,350c-3.3,335.2-3.3,348.3,27.9,348.3c39.4,0,1303,660.5,1381.9,723
		c31.2,24.6,85.4,52.6,118.3,64.1s346.7,208.7,696.7,438.7c348.3,230,640.8,417.4,647.4,417.4c8.2,0,143-75.6,302.3-166l289.2-167.6
		v-75.6c0-41.1-18.1-348.3-41.1-683.5c-50.9-744.3-52.6-818.3-18.1-925.1c34.5-105.2,139.7-225.1,218.5-251.4
		c80.5-26.3,264.5-9.9,345.1,32.9c87.1,44.4,197.2,166,248.1,277.7c37.8,83.8,44.4,129.8,70.7,520.9c16.4,235,29.6,469.9,31.2,522.5
		c0,50.9,4.9,93.7,11.5,93.7c4.9,0,164.3-90.4,351.6-200.5c341.8-202.1,343.4-202.1,343.4-259.6c0-31.2-41.1-696.7-92-1478.8
		c-49.3-782.1-88.7-1488.7-85.4-1569.2c4.9-126.5,13.1-161,50.9-225.1c82.2-141.3,258-203.7,432.1-152.8
		c203.7,59.2,350,202.1,382.8,376.3c8.2,46,50.9,645.7,93.7,1332.6c42.7,686.8,78.9,1250.4,80.5,1253.7
		c4.9,6.6,650.7-373,678.6-399.3c19.7-16.4,14.8-205.4-29.6-1140.3c-39.4-865.9-46-1133.8-32.9-1186.3
		c23-85.4,146.2-220.2,225.1-246.5c82.2-26.3,261.3-9.9,341.8,31.2c83.8,41.1,212,177.5,246.5,259.6
		c21.4,49.3,37.8,244.8,75.6,877.4c26.3,446.9,49.3,836.3,50.9,865.9l4.9,52.6l251.4-136.4c437.1-238.3,961.2-423.9,1515-535.7
		c376.3-77.2,545.5-62.4,593.2,52.6c44.4,105.2-47.7,287.5-274.4,543.9c-262.9,295.8-1018.7,907-1334.2,1079.5
		c-73.9,41.1-134.7,77.2-134.7,82.2c0,4.9,308.9,200.5,683.5,435.4c376.3,235,716.4,458.4,754.2,494.6
		c96.9,93.7,143,189,152.8,320.4c14.8,213.6-77.2,384.5-246.5,458.4c-98.6,42.7-197.2,37.8-313.8-13.1
		c-39.4-18.1-473.2-294.1-966.2-616.2c-491.3-322.1-900.4-588.2-907-589.9c-14.8-4.9-716.4,384.5-718,399.3
		c0,4.9,471.6,315.5,1046.7,690.1c612.9,397.6,1076.2,709.8,1115.7,750.9c100.2,103.5,157.7,233.3,167.6,373
		c6.6,105.2,1.6,123.2-49.3,221.8c-42.7,82.2-72.3,116.7-133.1,154.5c-83.8,50.9-207,72.3-313.8,52.6
		c-34.5-6.6-538.9-327-1352.3-857.7c-711.5-465-1307.9-861-1326-875.8c-27.9-29.6-41.1-24.6-361.5,166
		c-180.7,108.4-336.8,202.1-343.4,210.3c-8.2,6.6,166,134.7,386.1,284.3c423.9,287.5,515.9,368.1,585,517.6
		c57.5,123.2,60.8,290.8,8.2,391.1c-115,216.9-276,282.6-481.4,198.8c-49.3-21.4-348.3-208.7-665.5-415.7
		c-315.5-208.7-604.7-397.6-642.5-420.6l-67.4-42.7l-269.5,164.3c-147.9,90.4-277.7,172.5-289.2,182.4
		c-14.8,14.8-8.2,185.7,29.6,775.6c41.1,626,46,765.7,29.6,818.3c-16.4,47.7-16.4,73.9,0,123.2c16.4,49.3,11.5,193.9-31.2,823.2
		c-27.9,419-44.4,769-37.8,775.6c27.9,27.9,548.8,310.5,571.8,310.5c13.1,0,287.5-175.8,611.2-389.4
		c323.7-213.6,634.2-412.4,690.1-442c244.8-128.2,410.8-77.2,535.7,166c42.7,82.2,50.9,116.7,50.9,213.6
		c0,134.7-50.9,261.3-141.3,348.3c-29.6,27.9-241.5,179.1-469.9,333.6c-230,156.1-410.8,289.2-402.6,295.8
		c32.9,32.9,662.2,394.3,685.2,394.3c13.1,0,601.4-384.5,1306.3-852.8c716.4-478.1,1307.9-861,1344.1-870.9
		c118.3-32.9,254.7-23,351.6,27.9c75.6,39.4,96.9,60.8,143,151.2c50.9,98.6,55.9,116.7,49.3,221.8c-9.9,144.6-75.6,281-189,387.8
		c-42.7,41.1-543.9,377.9-1110.7,746c-635.9,414.1-1025.3,677-1015.4,686.8c8.2,8.2,169.2,101.9,356.6,207l341.8,192.2l887.3-581.7
		c489.6-320.4,930-601.4,979.3-626c218.5-101.9,438.7-11.5,535.7,220.2c29.6,73.9,29.6,243.2-1.6,348.3
		c-47.7,162.7-69,179.1-836.3,678.6c-394.3,258-716.4,471.6-716.4,476.5c0,6.6,24.6,23,54.2,37.8
		c440.4,223.5,851.1,535.7,1268.5,966.2c391.1,402.6,504.4,626,381.2,749.3c-39.4,39.4-59.2,46-164.3,50.9
		c-364.8,18.1-1375.3-313.8-1957-644.1c-106.8-59.2-197.2-106.8-198.8-105.2c-1.6,3.3-26.3,389.4-52.6,861
		c-55.9,951.4-55.9,948.1-182.4,1079.5c-98.6,101.9-182.4,143-313.8,154.5c-144.6,11.5-238.3-19.7-320.4-110.1
		c-100.2-111.7-98.6-83.8-41.1-1332.6c27.9-622.7,49.3-1135.4,46-1137c-36.1-27.9-691.8-407.5-695-402.6
		c-3.3,3.3-41.1,593.2-87.1,1311.2c-90.4,1457.4-80.5,1388.4-216.9,1523.2c-87.1,87.1-180.7,131.4-300.7,146.2
		c-129.8,14.8-193.9-1.6-272.8-69c-113.4-96.9-156.1-187.3-164.3-341.8c-3.3-73.9,36.1-772.3,85.4-1554.4
		c50.9-782.1,92-1441,92-1462.4c0-36.1-39.4-65.7-323.7-233.3c-179.1-105.2-336.8-197.2-351.6-202.1c-23-8.2-27.9,18.1-37.8,207
		c-32.9,601.4-54.2,798.6-96.9,892.2c-52.6,113.4-164.3,236.6-249.8,274.4c-83.8,36.1-233.3,54.2-330.3,39.4
		c-101.9-14.8-192.2-96.9-228.4-207c-37.8-110.1-34.5-241.5,14.8-976c23-333.6,42.7-642.5,42.7-683.5v-77.2l-287.5-166
		c-157.7-92-292.5-166-300.7-166s-26.3,14.8-37.8,31.2c-19.7,27.9-1122.2,729.5-1289.8,823.2c-36.1,18.1-82.2,44.4-105.2,57.5
		c-23,11.5-106.8,50.9-189,88.7c-80.5,36.1-389.4,184-683.5,327l-537.3,262.9l-9.9,212c-6.6,115-13.1,276-14.8,356.6l-3.3,147.9
		l49.3,9.9c54.2,11.5,1232.3,612.9,1358.9,691.8c189,121.6,241.5,315.5,139.7,519.2c-92,179.1-203.7,243.2-430.5,243.2h-147.9
		l-481.4-249.8c-266.2-138-486.4-251.4-489.6-251.4s-6.6,184-6.6,407.5c0,369.7,3.3,410.8,29.6,433.8
		c14.8,14.8,631,333.6,1367.1,709.8c823.2,420.6,1360.5,704.9,1395,737.8c123.2,118.3,169.2,331.9,101.9,479.8
		c-32.9,72.3-147.9,187.3-231.7,230c-87.1,44.4-223.5,49.3-328.6,13.1c-49.3-18.1-599.7-295.8-1224.1-616.2l-1133.8-584.9
		l-4.9,405.8c-4.9,400.9-3.3,404.2,31.2,428.9c21.4,13.1,453.5,239.9,961.2,502.8c509.4,262.9,949.7,496.2,979.3,519.2
		c31.2,23,75.6,78.9,100.2,124.9c93.7,172.5,73.9,353.3-52.6,479.8c-139.7,138-315.5,190.6-502.8,149.5
		c-57.5-13.1-320.4-146.2-782.1-399.3c-382.8-207-704.9-381.2-714.8-386.1c-13.1-4.9-21.4,64.1-26.3,244.8
		c-8.2,216.9-21.4,308.9-93.7,677c-166,824.8-285.9,1211-419,1350.6C12015.1,24001.2,11974,24014.3,11903.4,23986.4z
		 M13237.6,15097.1c190.6-90.4,361.5-166,379.6-166s175.8-95.3,350-210.3c175.8-115,402.6-264.5,504.4-330.3
		c100.2-65.7,184-124.9,184-131.5c0-13.1-1102.5-658.9-1123.9-658.9c-6.6,0-72.3,42.7-146.2,96.9c-73.9,52.6-185.7,124.9-249.8,161
		c-116.7,65.7-422.3,202.1-451.9,202.1c-9.9,0-16.4,244.8-16.4,657.2v657.2l111.7-55.9
		C12840,15289.4,13045.4,15189.1,13237.6,15097.1z M11418.7,14694.6v-662.2l-77.2-29.6c-233.3-87.1-486.4-249.8-657.2-419
		l-116.7-116.7l-52.6,26.3c-96.9,49.3-1158.4,650.7-1169.9,662.2c-6.6,6.6,177.5,141.3,410.8,297.4
		c231.7,157.7,451.9,313.8,488,346.7c44.4,42.7,87.1,64.1,131.4,70.7c36.1,4.9,276,115,542.2,248.1
		c262.9,131.4,481.4,238.3,489.6,238.3C11413.7,15358.4,11418.7,15059.3,11418.7,14694.6z M15312.9,12639
		c19.7-289.2,41.1-543.9,47.7-565.2c6.6-23,6.6-67.4-1.6-98.6c-6.6-32.9-27.9-295.8-47.7-585c-18.1-289.2-34.5-527.4-37.8-529.1
		c-1.6-1.6-266.2,144.6-586.6,327l-583.3,330.3l37.8,149.5c55.9,213.6,64.1,445.3,24.6,683.5c-18.1,103.5-31.2,190.6-29.6,190.6
		c11.5,9.9,1135.4,627.7,1138.7,624.4C15276.7,13164.8,15293.1,12928.2,15312.9,12639z M9381.2,12749.1
		c320.4-175.8,594.8-330.3,609.6-341.8c13.1-13.1,34.5-23,46-23c14.8,0,18.1-13.1,11.5-36.1c-21.4-78.9-29.6-405.8-11.5-563.6
		c14.8-138,13.1-167.6-6.6-187.3c-13.1-13.1-304-185.7-644.1-381.2c-578.4-333.6-621.1-354.9-632.6-322.1
		c-4.9,19.7-23,246.5-37.8,504.4s-32.9,509.4-42.7,560.3c-9.9,55.9-9.9,108.4,0,131.5c8.2,21.4,19.7,202.1,24.6,400.9
		c6.6,198.8,14.8,419,19.7,488c9.9,124.9,11.5,126.5,46,108.4C8781.5,13077.7,9060.8,12924.9,9381.2,12749.1z M10794.3,10445.5
		c123.2-101.9,297.4-203.7,468.3-272.8l131.4-54.2l4.9-741c1.6-532.4-1.6-739.4-14.8-739.4c-9.9,0-189,82.2-397.6,182.4
		c-507.7,244.8-581.7,277.7-612.9,277.7c-16.4,0-73.9,42.7-128.2,95.3c-57.5,54.2-258,195.5-473.2,331.9
		c-284.3,182.4-368.1,243.2-353.3,256.3c14.8,14.8,466.6,282.6,1197.8,711.5c29.6,18.1,60.8,32.9,67.4,32.9
		C10690.8,10527.6,10741.7,10491.5,10794.3,10445.5z M14050.9,10121.8c331.9-189,604.7-346.7,604.7-351.6
		c0-6.6-187.3-126.5-415.7-266.2c-331.9-205.4-425.6-269.5-469.9-328.6c-42.7-59.2-67.4-75.6-118.3-83.8
		c-50.9-8.2-645.7-281-956.3-438.7l-60.8-32.9l3.3,718l4.9,718l172.5,69c193.9,75.6,374.6,170.9,509.4,269.5
		c49.3,34.5,96.9,65.7,105.2,65.7C13439.7,10461.9,13717.4,10309.1,14050.9,10121.8z"/>
</g>
</svg>
