<?xml version="1.0" encoding="utf-8"?>
<!-- Generator: Adobe Illustrator 30.0.0, SVG Export Plug-In . SVG Version: 9.03 Build 0)  -->
<svg version="1.0" id="Layer_1" xmlns="http://www.w3.org/2000/svg" xmlns:xlink="http://www.w3.org/1999/xlink" x="0px" y="0px"
	 viewBox="0 0 2400 2356" style="enable-background:new 0 0 2400 2356;" xml:space="preserve">
<g>
	<path d="M650,182.7c10.4,8.1,27.9,16.9,40.1,19.8c10.6,2.6,30.1,2.9,39.4,0.6c9.9-2.4,33.1-13.8,42.3-20.8
		c15.7-11.8,28.9-33.3,34.2-55.1c2.1-9.3,2.5-13.7,2-25.1c-0.8-16.3-3.4-25.6-12.5-44.5c-5.5-11.5-7.8-14.5-17.7-24.4
		c-9.3-9.3-13.4-12.4-22-16.5c-5.9-2.9-15.2-6.5-20.7-7.9c-13.4-3.6-36.7-4.5-48.8-1.8c-12.6,2.9-25.8,8.6-36.1,16
		c-32.7,23.4-47.3,76-32.3,116.1C623.8,154.7,636.6,172.1,650,182.7z"/>
	<path d="M1641.5,191.2c30.3,15.6,50.5,17.8,78.3,8.1c13.8-4.8,22.7-10.1,33.8-20.7c10.1-9.5,16.3-18.7,23.9-35.2
		c8.1-18.2,9.6-24.2,9.6-42c0-19-2.1-27.9-10.8-46.1c-10.8-22.4-27.8-37.2-52.5-45.5c-10.3-3.4-13.9-4-26.9-4.4
		c-8.3-0.2-17.8,0.1-21.1,0.8c-10.8,1.9-23.8,6.4-33.6,11.4c-18.3,9.5-30.9,24.1-41.2,47.3c-10.5,23.9-12.6,44.5-7,66.8
		C1601.2,159.5,1615.9,177.8,1641.5,191.2z"/>
	<path d="M2169.6,964.3c-13.9-27.8-24.2-70.3-26.7-110.1c-1.5-22.4,3.4-68.5,11.5-109.7c2.5-13,4.6-26.2,4.6-29.3l0.1-5.6l-4.4,0.1
		c-6.5,0.2-22.8,7.5-35.1,15.7c-12.8,8.5-28.9,24.9-37.7,38.3c-16.8,25.5-32.6,66.2-38.8,99.9c-1.5,7.5-2.8,14.4-3,15.2
		c-0.2,1.1-28.2,6.8-33.4,6.8c-1.5,0-2.1-2.6-2.8-12.9c-1.5-23.4,2.1-51.7,13-99.2c6.4-28.4,6.8-30.8,4.5-33.8
		c-1.6-2.2-2.2-2.4-7.9-0.9c-9,2.2-29.9,13-39.2,20c-18.5,14-33.2,33.2-46.3,60.6c-12.4,25.9-19.9,49-24.3,74.4
		c-1.1,6-2.1,11.1-2.4,11.4c-0.8,0.6-37.5,6.9-38,6.4c-1.1-1.2-3-29.1-3-46.2c0-30.2,4.9-62.1,18.9-123.1
		c8.6-37.6,8.6-39.6,0.8-39.6c-8,0-33.7,12-51.5,24.3c-33.3,22.7-57.7,56.9-78.8,110.3c-11.7,29.6-21.7,67.5-24.1,91.7l-0.9,9
		l-8.3,1.4c-4.6,0.8-89.9,15.9-189.6,33.7c-99.8,17.7-181.3,31.8-181.3,31.3c0-0.9,149.9-351.8,150.5-352.4c0.2-0.2,6,0.2,12.9,1.2
		c31.6,4.3,59.1,3.5,93.3-2.6c57.9-10.4,99.8-30.7,132-63.8c8.3-8.4,23.7-27.9,26.7-33.7c1.9-3.5,1.8-3.9-0.9-6
		c-2.5-2-5.9-2.2-38.7-2.2c-47.8,0-85.7-2.4-111.6-7c-17.9-3.3-55.6-13.3-57.9-15.4c-1-1,14.5-38.3,16-38.3c0.6,0,7.4,0.5,14.9,1
		c25.5,1.8,60.9-3.1,89-12.3c34.7-11.3,60-29.8,77.5-56.5c5.9-8.9,6.9-12.9,3.8-15.5c-3.3-2.6-16.9-2.9-36.3-0.6
		c-28.7,3.4-56.7,1.5-93.2-6.4c-7.9-1.6-14.5-3.1-14.7-3.4c-0.1-0.1,2.6-8,6.1-17.5l6.3-17.3l18.3,0.9c65.8,3,130.9-18.9,161.3-54.2
		c13.8-16,17.8-23.7,13.9-26.3c-0.9-0.5-19.4-1.4-41.1-1.8c-68.3-1.4-107.1-9.9-155.2-33.8c-40.4-20.2-71.3-46.7-118.4-101.7
		c-19.7-23-22.5-26-25.5-25.7c-2.9,0.4-3.6,1.4-6.1,9.6c-6.5,20.8-8.4,45.7-4.8,65.5c6,34.2,33.8,85.5,63,116.4l7.9,8.4l-7.9,15.8
		c-4.3,8.6-8.3,15.8-8.9,15.8c-1.6,0-20.2-14.4-34.4-26.8c-16.8-14.4-31.3-31.1-44.6-50.7c-14.8-22-22.8-29.2-27.5-24.6
		c-2.5,2.5-7.5,18.7-9.5,30.7c-2.2,12.9-2,33.4,0.5,46.7c6,31.8,28.7,75.4,54.5,104.6l10.1,11.5l-9.4,18.8
		c-5.1,10.3-9.8,18.8-10.4,18.8c-1.2-0.1-23.2-17.8-37.8-30.6c-21-18.5-49.1-49-76.3-82.7c-23.9-29.7-32.8-37.6-37.1-33.2
		c-2.4,2.5-8.6,23.4-11.4,37.4c-3,16.2-3.1,47.6-0.1,63.2c4.9,25.1,11.9,44.3,26.8,73.6c16.7,32.6,34.1,57,58.2,81.8l13.5,13.9
		l-90.9,167.7c-50.1,92.2-91.3,168.1-91.8,168.6c-0.4,0.5-42-75-92.3-167.8l-91.5-168.7l10.9-10.7c26.7-26.2,46.6-54.6,65.8-94.3
		c11.3-23.2,18.7-45,22.2-65.2c2.1-12.8,2.4-18.4,1.9-36.5c-1.1-34.6-9.6-64.5-18.4-64.5c-3.8,0-7.4,3.9-29.8,31.7
		c-26.3,32.4-43.5,51.6-66.8,74.1c-14.9,14.4-47.6,42-49.7,42c-0.5,0-5.9-8.5-11.9-18.9l-11.2-18.9l5-5.3
		c25.7-26.9,49.1-68.6,58.9-104.6c2.9-10.8,3.3-14.4,3.3-34.6c0-19.5-0.4-24.1-2.9-34.1c-1.5-6.4-3.9-12.9-5.1-14.4l-2.2-2.9
		l-4.5,2.4c-5.1,2.8-10,8.4-19.5,22.7c-11.3,16.9-21.7,29.6-35.2,42.6c-18,17.4-43.7,37.8-45.8,36.6c-0.6-0.4-4.4-7.4-8.4-15.7
		l-7.4-14.9l9.8-11.2c13-14.9,24.8-31.7,35.6-50.6c21.7-38.1,29.8-68.6,26.6-99.3c-1.5-13.3-6.6-35.2-9.1-38.1c-1.8-2.2-4.9-2-8,0.6
		c-1.4,1.1-12.5,13.7-24.6,27.8c-24.7,28.9-53.8,57.9-71.3,71c-40.1,29.9-85.5,48.3-140.8,56.9c-14.1,2.1-25,2.8-56.7,3.3
		c-34.9,0.6-39.5,0.9-41.8,2.9l-2.8,2.1l4.3,7.3c10.1,16.7,31.9,36.1,52.3,46.7c29.8,15.5,79.7,25.4,118.7,23.6l17.7-0.9l7.3,16
		c3.9,8.9,7.4,16.7,7.8,17.5c1.1,2.8-35.3,9.6-63.2,11.9c-15.2,1.2-22.4,1.1-35.7-0.1c-26.9-2.6-34.2-3-39-2.1
		c-4.8,0.9-8.3,3.6-8.3,6.4c0,1,3.4,6.8,7.4,12.8c8.1,12.1,22.9,27.2,34.7,35.1c20.4,13.9,50.7,24.6,84.5,29.9
		c13.3,2.1,54.4,3,59.5,1.4c2.2-0.8,3.3,0.9,10.4,18c4.3,10.4,7.4,19.4,6.8,19.9c-3.3,3-40.2,12.5-62.2,16.2
		c-24.5,4.1-43.7,5.3-94.1,6c-26.2,0.4-48.8,1.1-50.3,1.8c-4.5,1.6-3.5,5,4.8,16.5c35.4,49.9,87.4,78.3,164.3,89.9
		c22.2,3.4,62.2,3.8,81,0.6c6.5-1,12.3-1.5,12.8-1s34.6,79.8,75.9,176.2c47.2,110.7,74.3,175.5,73.4,175.7
		c-1.5,0.4-376.5-65.9-377.2-66.6c-0.1-0.2-1.2-6.3-2.2-13.4c-5.9-40.7-20-83.2-40.7-122.6c-22.8-43.3-50.4-71.1-89.8-90.6
		c-18.2-8.9-26.6-10.5-29.1-5.8c-2,3.6-1,14.6,3.1,33.7c9,42.5,10.9,52,14.4,72.3c2,12.3,4.3,29.7,5.1,38.7
		c1.4,16.4,1.2,59.7-0.2,61.2c-0.9,0.8-39.7-5-40.8-6.1c-0.4-0.2-1.4-5.3-2.4-11c-4.6-27.2-12.9-53-25.5-79.4
		c-10-21.2-17.3-31.9-30.6-45.1c-12.7-12.5-25.8-21.3-41.3-27.7c-12.7-5.1-16.7-5.4-17.8-0.9c-1.4,5.4,0.5,16.7,5.1,31.8
		c5.1,16.5,8.6,33.1,10.8,50.7c1.6,13.9,2.2,60,0.9,61.5c-0.5,0.5-8.5-0.5-17.9-2.1l-16.9-2.9l-0.6-4.5c-4-25.2-12.5-53.7-23.2-77.6
		c-20.5-46.1-42.7-69.8-79.3-85c-5.4-2.2-11.4-3.9-13.2-3.6c-3,0.4-3.4,0.9-3.3,4.8c0,2.4,1.9,13.1,4,23.8c9,43.7,13.4,84,12.4,114
		c-1.5,44.2-13.2,89.8-31.3,122.1c-11.7,20.5-44.8,68.9-61.9,90.1c-10.8,13.3-10.5,14.9,2.8,16.2c17.9,1.6,44.5-2.2,62-9.1
		c32.1-12.7,73.1-45.5,97.2-77.8c5-6.9,9.6-13.4,10.4-14.5c1-2,2.6-1.8,18.4,2.5c9.5,2.6,17.4,4.9,17.7,5.1
		c0.8,0.6-7.9,20-15.5,34.9c-11.8,23-22.9,38.4-41.1,57.2c-18.5,19-21.9,23.4-21.9,28c0,4.8,3.9,5.8,21.8,5.8
		c35.6,0,62.4-9.6,95.3-34.1c22.2-16.5,50.7-47.1,60.7-64.8c0.8-1.4,4.5-0.5,19.5,4.5c18,6,18.7,6.4,18.4,9.6
		c-0.4,5-14.4,37.3-23,52.7c-13.9,25.1-35.7,55.6-54.4,76.4c-14.3,15.8-26.4,31.1-29.4,37c-5.6,11.2-3.8,11.9,29.4,11.9
		c36.8,0,51.5-3.4,83.9-19.4c25.8-12.8,51.2-31.9,78.3-58.9c17-17,27.8-30.2,41.6-50.7c5.5-8.3,10.6-15.3,11.3-15.4
		c1.8-0.8,371.8,101.6,371.5,102.6c-0.2,0.5-65.1,57.9-144.4,127.2l-144,126.5l-11.3-7c-24.7-15-58.7-29.8-88.7-38.5
		c-55.4-16-96.6-17.5-135.8-4.8c-12,3.9-35.4,15.2-42.6,20.4c-10.7,7.8-7,12,22.2,26c60.6,29.2,85.9,43.5,112.7,63.5
		c18.2,13.7,36.6,29.3,36.1,30.8c-0.2,0.5-7.3,7.3-15.8,14.8l-15.3,13.8l-9.8-5.5c-31.4-17.9-81.9-31.8-115.2-31.8
		c-24.5,0-42.6,4.3-63,14.7c-21.3,10.9-20,14.5,9.9,27.4c37.1,16.2,68.4,35.3,96.6,59.1l4.3,3.6l-13.9,10.8
		c-7.6,6-14.3,10.9-14.9,10.9c-0.5,0-8.6-3.9-17.9-8.5c-20.3-10.3-39.9-17.4-64.1-23.3c-23.8-5.9-37.5-7.5-54.2-6.6
		c-22.4,1.1-42.3,7.6-61.1,19.7c-13.7,8.8-13.3,9.8,6,18.7c48.8,22.7,91.2,50.5,119.1,78.3c48.1,48.1,72.8,94.8,92,174.8
		c7,28.9,8,32.1,10.9,33.2c2.6,1,13.3-10.4,22.2-23.8c16.9-25.4,24.4-53.9,24.4-93.1c0-28.6-4-54.6-11.9-78.5
		c-2.4-6.9-3.9-12.9-3.4-13.3c2.5-2,30.3-21.2,30.8-21.2c1,0,9.6,17.4,15.7,31.7c11.5,27.2,17.5,49.7,20.2,75.4
		c2.4,24.2,5.4,33.2,10.8,33.2c3.8,0,21-18.5,27.4-29.6c12.3-20.9,17.4-38.6,19.4-66.9c1.4-19.2,0.2-44.8-2.5-62.6
		c-1.5-9.1-6.6-30.1-8.6-35.4c-0.8-2-1.4-3.8-1.4-4c0-0.8,35.2-25.9,35.7-25.6c0.2,0.4,4.8,9.3,9.9,19.9
		c21.5,43.7,35.4,86.3,49.7,151.5c6.1,27.4,7.5,30.2,13.7,26.9c2-1,7.6-6.5,12.5-12.1c23.7-27.3,38.1-56.7,45.3-92.7
		c2.6-12.9,2.9-17.5,2.9-51.7c0-32.9-0.4-39.7-2.9-55.1c-3.3-20.7-8.4-41.6-14.4-58.6l-4.3-12.3l6.4-4.8
		c33.2-24.4,304.1-219.3,304.8-219.3c0.8,0,16.9,369.7,16.5,379.6c0,1.4-3.4,3.5-10.3,6.3c-41.7,16.7-80.6,41.2-117.8,74.3
		c-34.7,30.9-56.2,69.3-62.9,111.7c-3.9,24-2.2,25,23.6,13.3c30.7-14,95.9-42.2,105.8-45.8c16.7-5.9,58.6-15.8,67.2-15.8
		c1,0,1.8,4.4,2.4,13.4c0.4,7.5,1.1,16.9,1.5,21l0.8,7.6l-6.9,2.1c-10.1,3.3-32.4,14.5-45.3,23c-32.3,21.3-57.5,48.6-70.1,75.8
		c-6.5,14.1-13.1,38.9-13.1,49.5c0,6.8,10.1,3.9,30.3-8.5c22.2-13.5,39.3-21.2,66.1-29.2c11.2-3.4,37.5-9.5,40.5-9.5
		c1.4,0,2.1,4.1,3.3,18.9c0.9,10.4,1.4,19,1.1,19.2c-0.1,0.1-4.6,1.9-9.8,3.8c-19.8,7.5-45.7,22.4-65.1,37.4
		c-37.8,29.3-57.5,58.7-64.6,96.9c-2.2,12.4-1.6,15.4,3,15.4c1.9,0,13.5-4.9,25.9-10.8c62.5-29.8,99.8-40.6,147.9-42.6
		c55.9-2.4,100.8,9.1,176.3,45.1c20.5,9.8,23.7,10.1,24.3,2.8c0.9-10.8-7.6-38.2-16.8-53.7c-20.7-35.4-67.1-72.5-112.6-89.9
		c-5.5-2.1-10.4-4.3-10.8-4.6c-0.9-1,2-36.4,3.1-37.5c1-1.1,27.8,5,45.8,10.5c20.3,6,39.2,14.3,55.6,24.2
		c25.2,15.1,33.3,18.4,35.7,14.1c2.8-5.1-5-35.8-13.3-52.3c-13.5-26.9-40.1-54.6-73.6-76.5c-10.3-6.6-33.9-18.9-42.2-21.9
		c-4.5-1.5-4.8-1.9-4.8-7.4c0-6.6,2.5-35.4,3.1-36.1c0.8-0.8,24.6,3.6,39.5,7.3c7.9,2,20,5.5,27,8c13,4.5,83.5,34.9,107.7,46.3
		c7.6,3.6,15.3,7,17.2,7.4c7.6,2,9-6.5,4.5-28.3c-10.1-50.1-36.4-87.2-90.9-128.4c-26.4-19.9-63-40.8-88.4-50.4l-11-4.1l0.8-12
		c0.4-6.6,4.1-92.6,8.1-191c4.1-98.4,7.6-179.1,7.8-179.3c0.2-0.1,69.4,49.6,153.8,110.5c84.4,61,154.4,111.5,155.7,112.3
		c2.2,1.5,2,2.4-3.4,18.7c-6,18.2-12.2,45.6-14.8,67.4c-2.5,20.4-2.1,70.1,0.8,86.9c6.9,41.7,26.9,81.7,53.8,107
		c5.9,5.6,7.4,6.4,9.4,5.3c1.4-0.6,2.9-1.8,3.3-2.5c0.4-0.6,3.3-12.5,6.4-26.6c11.4-51,22.3-91.1,30.6-112.2
		c9.5-24.4,27.8-58.6,30.4-57.1c1.1,0.8,30.4,21.7,33.3,23.9c0.4,0.2-0.9,5.6-2.8,12c-6.8,23.9-9.6,46-9.6,73.1
		c0,46.7,10.8,78.4,35.6,105.3c14.6,15.8,18.8,11.5,22.5-23.5c2-17.9,4.1-29.3,8-42.6c6.9-23.2,25.7-65.8,28.7-64.6
		c2.9,1.1,30.4,20.9,30.4,21.9c0,0.5-1.8,5.9-3.8,12.1c-15.9,46.6-15.9,110-0.1,148c6.5,15.8,17.9,32.9,28.9,43.5l5.1,5l2.2-2.6
		c1.2-1.5,5.1-14.7,8.9-30.1c16.4-67.6,34.3-107.3,67-148.3c11.6-14.6,32.9-36.3,46.3-47.2c24.7-20.2,74.8-50,103.7-61.7
		c3.9-1.6,8.1-4,9.4-5.4c2-2.2,1.9-2.6-2.9-6.8c-7.3-6.4-30.7-17.4-43.8-20.7c-9.1-2.2-14.9-2.8-30.7-2.9c-16.8,0-21.7,0.5-35.7,3.6
		c-26.6,5.8-65.4,19.4-78.7,27.6c-1.5,0.9-5.3,3.1-8.4,4.9l-5.8,3.1l-13.7-10.7c-7.6-5.9-13.8-11.3-13.8-12
		c0-2.2,22.2-19.8,40.5-32.2c18.4-12.5,35.2-21.4,52.2-27.6c26.2-9.5,35.1-16.8,28.7-23.2c-3.4-3.3-22.9-12.6-33.7-16
		c-15.8-4.9-27.3-6.3-47.3-5.5c-31.7,1.1-69,11.3-101.8,27.8l-17.8,8.8l-12.9-11.6c-7.1-6.4-14.3-12.9-15.9-14.5l-2.9-2.9l14.2-11.8
		c32.4-27.1,58.9-43.8,102.4-65.2c49.7-24.3,53.5-26.3,57.6-29.9c5.4-5,4.6-8.3-3.1-13.4c-17.5-11.5-45-22-67.6-25.9
		c-16.8-2.9-46.5-2.6-65.1,0.6c-43.8,7.5-91.7,24.7-128.1,46c-13.5,7.9-16.3,9.1-18.3,7.9c-4.9-3-287.9-252.2-286.8-252.6
		c15-4.4,363.2-100.8,365.8-101.3c3.4-0.6,4-0.2,8.5,7.3c10.4,17.2,26.8,37.3,45,55.6c44.2,44.3,85.8,69.5,130.4,78.9
		c8.9,1.9,16.5,2.4,36.3,2.4c13.8,0,26.6-0.4,28.4-1c8.3-2.2,1.4-14.9-22.3-41.6c-22.7-25.5-41.1-50.3-56.6-76.4
		c-7.4-12.5-31.8-60.9-31.1-61.6c0.1-0.1,9.5-3.1,20.9-6.6l20.5-6.4l1.9,2.9c21.3,32.4,58.6,66.4,90.8,82.4
		c21.5,10.8,34.6,13.9,60.4,14.6c17.8,0.6,20.8,0.4,23.7-1.5c2.6-1.6,3.1-2.8,2.4-5.4c-1.2-5-9.4-14.9-20-24.6
		c-10.5-9.5-22.4-24.1-31.7-39.1c-10.5-17-27.9-53.5-26.2-55.1c0.8-0.9,33.8-13,34.2-12.7c0.1,0.1,4.1,6.1,9,13.4
		c11.4,16.9,24.6,31.8,39.2,44.6c35.2,30.4,63.9,44.6,97.7,48.1c12.6,1.2,32.1,0.5,35.1-1.4c2.4-1.4,0.4-4.9-10.6-18.7
		C2212.8,1034,2179.8,984.7,2169.6,964.3z"/>
	<path d="M191.6,912.4c6.4-13,8.3-21.7,8.3-38.2c0-18.2-2.9-29.9-11.3-47c-14.8-29.8-33.9-44-68.1-50.6c-15.1-3-33.7-3.2-44.7-0.9
		c-22.8,5.1-45.3,18.8-57.5,34.8C6.5,826.3,0,847.9,0,871.7c0.1,17.8,2.1,26.3,10.8,43.6C24.5,943,50.6,962.5,79.7,967
		C124.1,973.9,173,950.1,191.6,912.4z"/>
	<path d="M2399.8,866.1c-1.1-27.2-8.9-46.5-25.2-62.8c-12-11.9-23.3-18.9-39.6-24.4c-10.5-3.5-13.9-4-28.2-4.4
		c-13.6-0.4-18.6,0-30.7,2.6c-21.2,4.5-32.7,10.5-46.6,24.4c-9.5,9.6-11.6,12.7-17.7,25.2c-9.6,19.8-11.5,27.9-11.4,48.7
		c0,15.9,0.2,17.5,4,27.4c12,31.8,40.8,55.4,77.3,62.9c28.2,5.9,53.5,1,75-14.4c14.6-10.4,26.4-24.9,34.8-42.8
		C2398.5,893.9,2400.6,883.1,2399.8,866.1z"/>
	<path d="M344.8,1729c-10.1-2.4-29.7-3.2-39.2-1.9c-17.2,2.8-32.8,9.9-49.3,22.4c-28.7,21.9-41.6,48.6-39.8,82.8
		c1.2,24.8,10.5,45,29.6,63.9c18.3,18.3,38.2,26.4,64.6,26.6c16.2,0.1,26.6-1.6,39.5-6.6c28.3-10.9,49.3-30.8,59.7-56.2
		c7.1-17.7,8.8-42.6,4.1-60.7C405.3,1765.4,376.8,1736.6,344.8,1729z"/>
	<path d="M2105.2,1729.6c-11-2.9-30.4-4.1-39.9-2.6c-37.8,6.1-68.9,34.2-79,71.5c-3.1,11.4-3.1,36.3,0,48.2
		c4.9,18.8,13.9,33.8,28.1,47.2c37.7,35.6,97.3,39,134.5,7.6c31.4-26.3,43.1-67,30.3-105.6
		C2169.3,1766.6,2137.3,1737.9,2105.2,1729.6z"/>
	<path d="M1232.6,2153.6c-14.1-4.8-30-6.4-44.7-4.8c-38.8,4.5-70.4,32.7-80.9,72.4c-3.3,12.3-3.4,46.5-0.1,58.2
		c9,32.6,35.8,60.1,66.6,68.4c11.2,3,35.6,3.6,46.6,1.4c18.2-3.9,33.4-11.9,46-24.2c13.3-12.8,21-25.8,26.6-44
		c3.1-9.9,3.4-12.9,3.4-30.4c0-15.9-0.5-21.3-2.8-29.4C1284.4,2188.6,1261.9,2163.5,1232.6,2153.6z"/>
</g>
</svg>
