<?xml version="1.0" encoding="utf-8"?>
<!-- Generator: Adobe Illustrator 30.0.0, SVG Export Plug-In . SVG Version: 9.03 Build 0)  -->
<svg version="1.0" id="Layer_1" xmlns="http://www.w3.org/2000/svg" xmlns:xlink="http://www.w3.org/1999/xlink" x="0px" y="0px"
	 viewBox="0 0 2400 2400" style="enable-background:new 0 0 2400 2400;" xml:space="preserve">
<g transform="translate(0.000000,2400.000000) scale(0.100000,-0.100000)">
	<path d="M8588.8,23594.8c-12.8-55.6-119.7-551.4-237.9-1104.2c-119.7-552.8-219.4-1007.3-222.3-1010.2
		c-7.1-7.1,15.7-74.1-228,682.5c-115.4,356.2-213.7,652.5-219.4,658.2c-5.7,8.5-1305.1-611.2-1336.4-636.9
		c-2.8-1.4,168.1-265,377.6-585.6c210.9-320.6,387.5-591.3,394.7-601.3c5.7-10-451.7,212.3-1015.9,495.8
		c-565.6,282.1-1027.3,510.1-1027.3,505.8s91.2-188.1,200.9-410.3l200.9-401.8l1068.6-775.1c853.4-618.3,1062.9-777.9,1051.5-793.6
		c-12.8-14.2,1.4-51.3,64.1-162.4c44.2-79.8,78.4-146.8,75.5-149.6c-4.3-4.3-1857.9,698.1-2295.3,870.5
		c-17.1,5.7,57-156.7,233.7-508.6l259.3-518.6l1339.3-755.1l1339.3-755.1l326.3-618.4l326.3-618.3l-186.6-557.1
		c-101.2-306.3-185.2-565.6-185.2-575.6c0-22.8,189.5-473,199.5-473c4.3,0,114,222.3,245.1,493l236.5,491.5l96.9-182.4
		c54.1-99.7,339.1-641.1,635.4-1201.1l538.6-1018.7l-61.3-57c-108.3-99.7-209.4-243.6-209.4-300.6c0-14.2-8.5-21.4-24.2-17.1
		c-340.5,82.6-2611.6,676.8-2611.6,683.9c0,4.3,189.5,168.1,421.7,361.9c230.8,195.2,414.6,356.2,408.9,357.6
		c-7.1,2.8-114,27.1-239.4,54.1l-228,48.4l-525.7-306.3c-289.2-166.7-535.7-304.9-548.5-304.9s-310.6,75.5-661.1,166.7l-638.3,168.1
		l-1051.5,1154.1l-1050.1,1154.1l-561.4,118.3c-307.8,64.1-561.4,115.4-562.8,114c-1.4-2.8,310.6-461.6,692.4-1021.6
		c383.3-559.9,693.9-1020.1,691-1024.4c-2.8-2.8-72.7,14.2-153.9,38.5c-79.8,24.2-156.7,41.3-169.5,39.9
		c-12.8-1.4-451.7,366.2-981.7,823.5c-528.6,454.5-974.5,837.8-991.6,852c-29.9,22.8-907.6,230.8-933.2,220.8
		c-5.7-2.8,316.3-391.8,715.2-864.8c398.9-473,723.8-862,720.9-864.8s-304.9,106.9-672.5,245.1
		c-366.2,136.8-671.1,243.6-676.8,237.9c-10-11.4-294.9-1353.5-302.1-1427.6l-4.3-35.6l702.4-67c386.1-35.6,705.3-69.8,709.5-72.7
		c2.8-4.3-426-203.7-951.7-446c-1166.9-534.3-1124.1-512.9-1078.6-524.3c18.5-4.3,226.5-49.9,461.6-102.6l427.4-94l1252.4,343.4
		c1055.8,289.2,1253.8,340.5,1268,323.4c8.5-11.4,76.9-31.3,151-45.6c74.1-14.2,143.9-29.9,152.5-34.2
		c10-5.7-458.8-280.7-1055.8-621.2c-779.3-444.5-1068.6-615.5-1051.5-624c27.1-11.4,1077.1-266.4,1099.9-266.4
		c8.5,0,663.9,262.2,1457.5,582.7l1441.9,582.7l669.6-121.1c367.6-65.5,669.6-121.1,671.1-122.5s155.3-233.7,343.4-517.2
		l343.4-512.9l232.2-49.9c128.2-28.5,235.1-49.9,237.9-48.4c2.8,2.8-101.2,223.7-232.2,491.5c-129.7,269.3-232.2,491.5-230.8,494.4
		c4.3,2.8,2513.3-473,2640.1-501.5c28.5-5.7,31.3-17.1,37-159.6c5.7-163.8,22.8-216.6,94-293.5c35.6-38.5,37-39.9,10-58.4
		c-15.7-11.4-508.6-373.3-1097.1-805l-1068.6-785l-8.5,153.9c-5.7,84.1-14.2,327.7-19.9,541.4c-5.7,212.3-14.2,387.5-19.9,387.5
		c-4.3,0-75.5-55.6-158.1-122.5c-82.6-68.4-163.8-133.9-180.9-148.2c-28.5-21.4-38.5-79.8-116.8-626.9
		c-48.4-332-88.3-604.1-89.8-605.5c-2.8-1.4-250.8-188.1-551.4-413.2L6579.9,8696l-1548.7-104l-1547.3-104l-458.8-353.3
		c-250.8-195.2-457.4-357.6-457.4-361.9c-1.4-4.3,554.2-44.2,1235.3-89.8c679.6-45.6,1241-85.5,1248.1-86.9
		c5.7-1.4-49.9-48.4-125.4-105.4c-75.5-57-136.8-111.1-136.8-121.1c0-11.4-397.5-91.2-1258.1-250.8
		c-691-128.2-1276.6-240.8-1300.8-249.3c-42.7-15.7-733.8-565.6-723.8-577c2.8-2.8,511.5,2.8,1131.3,12.8
		c621.2,8.5,1129.8,14.2,1132.7,11.4c2.8-2.8-276.4-165.3-619.8-360.5c-373.3-212.3-621.2-360.5-615.5-369
		c10-18.5,910.4-1146.9,934.6-1172.6c12.8-14.2,128.2,101.2,507.2,507.2c270.7,289.2,493,524.3,495.8,522.9
		c1.4-2.8-118.3-500.1-267.9-1105.6c-148.2-605.5-269.3-1102.8-266.4-1104.2c1.4-1.4,163.8,126.8,359,286.4l356.2,289.2
		l512.9,1196.8c437.4,1023,515.8,1196.8,537.1,1189.7c18.5-5.7,62.7,25.6,151,102.6c101.2,91.2,124,106.9,126.8,84.1
		c2.8-15.7-78.4-567.1-179.5-1225.3S5619.6,3960,5622.5,3957.2c4.3-4.3,863.4,662.5,899,699.6c22.8,22.8,138.2,406.1,455.9,1517.4
		l426,1486l511.5,430.3c282.1,236.5,524.3,438.8,538.6,448.8c21.4,15.7,119.7,7.1,588.4-47c309.2-35.6,581.3-64.1,604.1-64.1
		c57,0,418.9,327.7,377.6,341.9c-15.7,5.7-253.6,59.8-528.6,121.1c-398.9,89.8-498.7,116.8-484.4,131.1
		c8.5,8.5,471.6,411.8,1028.7,893.3l1010.2,876.2l65.5-48.4c121.1-88.3,253.6-149.6,323.4-149.6h65.5l-10-180.9
		c-4.3-101.2-28.5-718.1-52.7-1372.1c-24.2-654-45.6-1191.1-48.4-1194s-193.8,146.8-424.6,330.5
		c-230.8,185.2-423.2,336.2-428.9,336.2c-4.3,0-8.5-112.6-8.5-250.8v-250.8l310.6-322c171-178.1,357.6-373.3,416-434.6l104-109.7
		l-10-431.7c-4.3-236.5-12.8-547.1-18.5-689.6l-8.5-257.9l-894.8-1273.7l-894.8-1272.3l-1.4-584.2v-584.2l62.7,64.1
		c34.2,35.6,418.9,450.2,856.3,923.3c436,473,796.4,856.3,799.3,853.4c4.3-2.8-1.4-81.2-10-173.8c-11.4-122.5-11.4-169.5,0-176.7
		c10-7.1-205.2-420.3-604.1-1165.5L10017.9,1223l2.8-458.8l4.3-458.8l696.7,884.8c383.3,485.8,699.6,881.9,701,879.1
		c2.8-2.8-39.9-310.6-94-683.9c-55.6-373.3-99.7-686.7-99.7-693.9c0-10,262.2-14.2,756.6-14.2h756.6l-8.5,38.5
		c-19.9,98.3-195.2,1362.1-190.9,1374.9c2.8,7.1,316.3-387.5,695.3-879.1l691-893.3l4.3,461.6l2.8,461.6l-614.1,1144.1
		c-389,723.8-608.4,1148.4-599.8,1154.1c10,5.7,17.1,78.4,19.9,188.1l4.3,176.7l833.5-917.6l833.5-919l4.3,581.3l2.8,581.3
		l-859.1,1248.1c-474.4,688.2-867.7,1262.3-877.7,1278c-10,17.1-28.5,285-49.9,705.3l-34.2,676.8l433.1,434.6l433.1,434.6v253.6
		c0,138.2-4.3,252.2-8.5,252.2c-5.7,0-198-151-428.9-336.2c-230.8-183.8-421.7-333.4-424.6-330.5c-1.4,2.8-24.2,552.8-48.4,1222.5
		s-48.4,1286.6-52.7,1369.2l-8.5,151l69.8,7.1c84.1,8.5,212.3,69.8,294.9,141.1l58.4,51.3l1024.4-873.4
		c562.8-480.1,1033-881.9,1044.4-891.9c15.7-17.1-58.4-37-518.6-136.8c-294.9-64.1-540-119.7-542.8-124
		c-4.3-2.8,11.4-21.4,34.2-39.9c306.3-257.9,356.2-294.9,393.2-294.9c21.4,0,293.5,28.5,604.1,65.5c468.8,52.7,567.1,61.3,587,45.6
		c22.8-17.1,956-822.1,995.9-857.7c10-8.5,219.4-689.6,464.5-1511.7l447.4-1496l460.2-360.5c253.6-196.6,461.6-357.6,464.5-356.2
		c1.4,2.8-79.8,551.4-182.4,1219.6s-182.4,1219.6-178.1,1223.9c4.3,4.3,64.1-41.3,131.1-101.2s126.8-108.3,132.5-108.3
		c7.1,0,247.9-535.7,538.6-1189.7l525.7-1191.1l353.3-285c195.2-158.1,356.2-283.5,359-280.7s-115.4,498.7-265,1099.9
		c-148.2,602.7-267.9,1098.5-265,1099.9c2.8,4.3,759.4-799.3,914.7-973.1l72.7-79.8l458.8,578.5
		c252.2,319.1,458.8,584.2,458.8,591.3c0,5.7-279.3,176.7-619.8,379c-341.9,203.7-616.9,371.9-614.1,374.7
		c4.3,4.3,520-1.4,1148.4-10c626.9-10,1142.7-15.7,1145.5-12.8c10,10-730.9,575.6-765.1,584.2c-17.1,4.3-597,112.6-1288,242.2
		c-1081.4,200.9-1256.6,236.5-1250.9,256.5c5.7,15.7-32.8,49.9-138.2,121.1l-146.8,98.3l71.2,4.3c39.9,2.8,602.7,41.3,1253.8,85.5
		l1182.6,81.2l-447.4,361.9l-447.4,361.9l-1548.7,104L17415.3,8696l-545.7,410.3c-300.6,225.1-548.5,408.9-550,410.3
		s-41.3,273.6-88.3,605.5c-48.4,332-88.3,605.5-89.8,607c-2.8,1.4-95.5,71.2-206.6,155.3l-203.7,151l-2.8-547.1l-4.3-547.1
		l-1075.7,789.3c-591.3,434.6-1085.7,796.4-1097.1,803.6c-18.5,11.4-14.2,25.6,22.8,95.5c79.8,146.8,106.9,293.5,71.2,377.6
		c-8.5,18.5-2.8,25.6,22.8,32.8c104,22.8,2637.3,505.8,2640.1,502.9s-94-225.1-215.1-494.4c-121.1-269.3-218-491.5-216.6-493
		c10-7.1,468.7,101.2,480.1,114c7.1,8.5,155.3,239.4,329.1,512.9c173.8,275,317.7,500.1,319.1,501.5c1.4,1.4,310.6,57,689.6,122.5
		l686.7,121.1l1427.6-584.2l1429-585.6l548.5,132.5c302.1,72.7,554.2,136.8,559.9,142.5s-470.2,285-1058.6,619.8
		c-588.4,334.8-1065.7,612.7-1062.9,616.9c4.3,2.8,82.6,19.9,175.2,37c119.7,22.8,166.7,37,163.8,49.9c-2.8,11.4,4.3,15.7,14.2,12.8
		c10-4.3,581.3-159.6,1268-344.8l1249.5-337.7l360.5,79.8c198,44.2,404.6,89.8,457.4,102.6c54.1,11.4,92.6,25.6,85.5,31.3
		c-5.7,5.7-471.6,222.3-1034.4,480.1c-867.7,396.1-1017.3,470.2-983.1,477.3c21.4,5.7,337.7,37,702.4,71.2
		c364.7,32.8,666.8,64.1,672.5,68.4c8.5,7.1-319.1,1420.5-333.4,1433.3c-4.3,4.3-1070-389-1313.6-485.8
		c-42.7-15.7-52.7-17.1-41.3-2.8c7.1,10,336.2,408.9,729.5,884.8c394.7,477.3,713.8,869.1,711,873.4c-4.3,2.8-200.9-39.9-437.4-94
		c-323.4-75.5-441.7-108.3-471.6-132.5c-21.4-17.1-467.3-400.4-990.2-850.6c-545.7-470.2-960.3-817.8-973.1-816.4
		c-14.2,1.4-91.2-15.7-171-39.9c-81.2-24.2-151-41.3-153.9-38.5s309.2,464.5,691,1023c383.3,559.9,695.3,1020.1,692.4,1023
		c-1.4,1.4-255-49.9-562.8-114l-559.9-118.3l-1050.1-1154.1L18070.7,14234l-661.1-169.5c-363.3-92.6-671.1-166.7-682.5-163.8
		c-12.8,2.8-249.3,141.1-527.2,307.8l-504.4,302.1l-239.4-51.3c-186.6-41.3-235.1-55.6-220.8-68.4c10-10,203.7-172.4,428.9-361.9
		c229.4-190.9,401.8-346.2,391.8-350.5c-35.6-11.4-2608.8-676.8-2620.2-676.8c-7.1,0-37,49.9-68.4,111.1
		c-44.2,88.3-74.1,125.4-149.6,186.6c-51.3,42.7-94,79.8-94,82.6c0,14.2,1258.1,2383.6,1266.6,2383.6c4.3,0,121.1-218,257.9-484.4
		c136.8-266.4,252.2-484.4,256.5-484.4c11.4,0,199.5,444.5,199.5,470.2c0,11.4-84.1,272.1-186.6,579.9l-185.2,557.1l306.3,614.1
		c280.7,559.9,312,616.9,360.5,646.8c29.9,18.5,644,360.5,1364.9,762.3l1310.8,729.5l253.6,507.2
		c139.6,279.3,252.2,510.1,249.3,512.9c-2.8,2.8-524.3-193.8-1158.3-436c-634-242.2-1154.1-438.8-1156.9-436s29.9,69.8,74.1,149.6
		c62.7,111.1,76.9,149.6,65.5,163.8c-12.8,14.2,200.9,176.7,1048.6,790.7l1065.7,772.2l171,373.3c94,205.2,179.5,391.8,189.5,413.2
		c18.5,42.7-85.5-7.1-1592.9-777.9c-323.4-165.3-414.6-206.6-397.5-180.9c401.8,608.4,769.4,1171.2,765.1,1175.4
		c-2.8,1.4-302.1,149.6-665.4,326.3c-397.5,193.8-665.4,316.3-671.1,307.8c-5.7-8.5-104-307.8-220.8-666.8
		c-115.4-357.6-215.1-655.4-219.4-662.5c-5.7-5.7-115.4,478.7-243.6,1075.7c-128.2,598.4-236.5,1095.6-240.8,1104.2
		c-5.7,10-101.2-166.7-213.7-391.8l-203.7-408.9l52.7-1302.2c44.2-1112.7,49.9-1303.7,32.8-1313.6c-11.4-7.1-48.4-82.6-82.6-169.5
		c-34.2-86.9-67-152.5-71.2-146.8c-5.7,5.7-166.7,530-356.2,1165.5c-189.5,634-350.5,1166.9-356.2,1182.6
		c-8.5,22.8-67-85.5-267.9-485.8l-256.5-512.9l240.8-1547.3l240.8-1547.3l-272.1-609.8c-148.2-336.2-276.4-615.5-282.1-622.6
		c-5.7-5.7-262.2-102.6-571.3-215.1l-561.4-203.7l-98.3-230.8c-54.1-126.8-95.5-233.7-92.6-237.9c4.3-4.3,239.4,45.6,524.3,108.3
		c283.5,64.1,517.2,114,518.6,111.1c2.8-1.4-242.2-565.6-544.3-1253.8l-547.1-1248.1l-67,28.5c-106.9,45.6-179.5,47-304.9,7.1
		l-111.1-35.6l-14.2,29.9c-567.1,1288-1077.1,2469.1-1070,2472c7.1,1.4,246.5-48.4,532.9-111.1c286.4-62.7,528.6-114,535.7-114
		c8.5,0-31.3,106.9-88.3,237.9l-102.6,237.9l-584.2,205.2l-585.6,206.6l-275,618.4l-275,619.8l257.9,1545.9l257.9,1547.3
		l-256.5,511.5c-141.1,282.1-259.3,511.5-262.2,508.6c-1.4-2.8-169.5-531.4-370.4-1174c-202.3-642.6-371.9-1176.9-377.6-1188.3
		c-5.7-11.4-32.8,38.5-71.2,135.4c-34.2,85.5-71.2,163.8-84.1,173.8c-19.9,15.7-15.7,141.1,47,1319.3l68.4,1300.8l-206.6,411.8
		l-205.2,411.8L8588.8,23594.8z"/>
</g>
</svg>
