<?xml version="1.0" encoding="utf-8"?>
<!-- Generator: Adobe Illustrator 30.0.0, SVG Export Plug-In . SVG Version: 9.03 Build 0)  -->
<svg version="1.0" id="Layer_1" xmlns="http://www.w3.org/2000/svg" xmlns:xlink="http://www.w3.org/1999/xlink" x="0px" y="0px"
	 viewBox="0 0 2400 2400" style="enable-background:new 0 0 2400 2400;" xml:space="preserve">
<g transform="translate(0.000000,2400.000000) scale(0.100000,-0.100000)">
	<path d="M11934.1,23970.5c-124.9-85.9-229.6-409.6-318.3-987.1c-29.5-192-34.9-286.1-40.3-624.5c-4-220.2-12.1-400.2-17.5-400.2
		c-6.7,0-143.7,137-304.9,306.2c-486.2,506.3-800.4,823.2-839.3,843.4c-106.1,55.1-200.1-2.7-280.7-177.3
		c-135.6-287.4-116.8-766.8,38.9-996.5c84.6-126.2,753.4-856.8,1181.8-1291.9l217.6-221.6v-613.7c0-338.4-4-615.1-10.7-615.1
		c-5.4,0-134.3,131.6-284.7,291.4c-151.8,159.8-345.1,365.3-429.7,453.9c-463.3,490.2-668.8,713.1-772.2,843.4
		c-64.5,79.2-131.6,154.4-150.4,166.5c-25.5,16.1-72.5,24.2-177.3,26.9c-161.2,5.4-217.6-13.4-259.2-84.6
		c-12.1-21.5-153.1-573.4-312.9-1227.5c-161.2-654-296.8-1192.5-300.8-1197.9c-9.4-10.7-636.6,1038.1-643.3,1074.4
		c-1.3,13.4,107.4,476.8,241.7,1030.1c288.7,1185.8,284.7,1153.6,189.4,1352.4c-206.8,431.1-558.7,707.7-744,585.5
		c-85.9-57.7-106.1-123.6-287.4-936c-91.3-416.3-169.2-758.8-170.6-761.5c-2.7-1.3-55.1,91.3-116.8,206.8
		c-107.4,198.8-256.5,413.6-468.7,674.2c-302.2,368-629.8,639.2-795,655.4c-59.1,5.4-67.1,2.7-88.6-32.2
		c-38.9-57.7-32.2-274,13.4-487.5c64.5-292.8,225.6-750.7,327.7-928c18.8-33.6,106.1-167.9,194.7-299.5
		c99.4-150.4,150.4-237.7,134.3-232.3c-13.4,4-198.8,56.4-413.6,116.8c-213.5,59.1-537.2,157.1-718.5,217.6
		c-432.4,142.4-509,145-570.8,14.8c-18.8-41.6-22.8-72.5-16.1-173.2c12.1-205.5,99.4-420.3,252.5-624.5
		c96.7-127.6,185.3-202.8,304.9-257.8c161.2-73.9,682.2-239,1283.9-406.9c331.7-92.7,611-174.6,620.4-182.6
		c17.5-13.4,628.5-1036.8,643.3-1075.7c6.7-18.8-12.1-16.1-130.3,10.7c-243.1,57.7-479.4,126.2-762.8,220.2
		c-151.8,51-389.5,123.6-530.5,161.2c-276.6,75.2-726.5,220.2-829.9,267.2c-92.7,43-134.3,34.9-149.1-28.2c-10.7-43-18.8-51-47-51
		c-61.8,0-135.6-28.2-178.6-65.8c-37.6-33.6-43-48.3-48.3-123.6c-5.4-79.2,21.5-181.3,311.6-1240.9
		c174.6-635.2,321-1163,323.7-1172.4c8.1-22.8,6.7-21.5-564,316.9c-496.9,295.5-496.9,295.5-506.3,347.8
		c-5.4,28.2-139.7,488.8-299.5,1024.7c-188,629.8-304.9,1000.5-333.1,1052.9c-22.8,43-77.9,114.2-120.9,158.5
		c-138.3,137-416.3,245.8-670.1,263.2c-92.7,5.4-111.5,2.7-177.3-29.5c-76.5-37.6-122.2-92.7-137-163.8
		c-4-26.9,60.4-268.6,221.6-813.8c126.2-425.7,229.6-777.6,229.6-782.9c0-12.1-316.9,155.8-474.1,252.5
		c-243.1,147.7-654,299.5-1071.7,392.1c-260.5,59.1-384.1,67.1-428.4,26.9c-83.3-75.2-79.2-147.7,14.8-283.4
		c83.3-120.9,220.2-253.8,510.3-495.6c359.9-302.2,470-381.4,735.9-537.2c126.2-72.5,229.6-137,229.6-141s-335.7-91.3-746.7-193.4
		c-431.1-107.4-773.5-200.1-812.5-218.9c-201.4-100.7-171.9-260.5,100.7-534.5c154.4-155.8,239-216.2,400.2-280.7
		c181.3-72.5,128.9-80.6,1282.5,198.8c569.4,137,1051.5,249.8,1071.7,249.8c24.2,0,229.6-107.4,566.7-296.8
		c290.1-163.8,527.8-300.8,527.8-306.2c0-4-521.1-143.7-1159-308.9c-636.6-165.2-1184.5-312.9-1216.7-327.7
		c-77.9-36.3-110.1-91.3-107.4-177.3c1.3-36.3-1.3-84.6-8.1-104.8c-22.8-84.6-1.3-108.8,913.2-987.1
		c479.4-462,875.6-844.7,877-851.4c2.7-5.4-272.6-10.7-611-10.7l-615.1,1.3l-577.5,550.6c-932,891.7-957.5,914.6-1070.3,969.6
		c-146.4,72.5-256.5,94-433.8,85.9c-165.2-8.1-280.7-33.6-408.3-91.3c-163.8-73.9-229.6-146.4-229.6-255.2
		c0-126.2,22.8-151.8,624.5-715.8c306.2-287.4,557.3-527.8,557.3-534.5c0-5.4-146.4-10.7-326.3-10.7c-201.4,0-390.8-8.1-499.6-20.1
		c-505-57.7-1040.8-221.6-1167-354.5c-73.9-77.9-44.3-169.2,72.5-229.6c75.2-37.6,377.4-131.6,582.8-181.3
		c335.7-80.6,534.5-104.8,965.6-112.8l385.4-8.1l-331.7-321c-660.7-637.9-835.3-815.2-851.4-863.5
		c-80.6-244.4,227-447.2,675.5-447.2c222.9,0,396.2,64.5,556,204.1c185.3,161.2,1442.3,1371.2,1442.3,1387.3
		c0,45.7,30.9,47,652.7,44.3l615.1-4l-639.2-623.1c-447.2-435.1-659.4-633.9-709.1-660.7c-158.5-85.9-355.9-268.6-412.3-380.1
		c-29.5-59.1-33.6-77.9-25.5-154.4c16.1-155.8,72.5-225.6,245.8-306.2c112.8-52.4,224.3-79.2,373.3-90
		c73.9-6.7,385.4-80.6,1004.5-240.4c492.9-126.2,895.8-233.7,895.8-237.7c-1.3-4-247.1-147.7-547.9-319.6
		c-527.8-303.5-546.6-312.9-580.2-294.1c-33.6,20.1-1929.8,515.7-2041.3,533.2c-200.1,33.6-506.3-111.5-750.7-354.5
		c-236.4-233.7-260.5-393.5-73.9-492.9c41.6-22.8,345.1-110.1,831.3-240.4c420.3-111.5,766.8-205.5,769.5-206.8
		c5.4-6.7-75.2-52.4-268.6-154.4c-280.7-149.1-913.2-659.4-1113.3-899.8c-177.3-212.2-213.5-325-131.6-406.9l40.3-41.6l163.8,8.1
		c357.2,17.5,962.9,209.5,1302.7,412.3c220.2,131.6,494.2,272.6,486.2,252.5c-2.7-9.4-106.1-358.6-229.6-776.2
		c-245.8-834-245.8-839.4-175.9-932c112.8-147.7,374.7-149.1,674.2-2.7c186.7,91.3,373.3,269.9,449.9,429.7
		c21.5,48.3,147.7,484.8,302.2,1048.9c145,531.8,268.6,975,272.6,984.4c8.1,14.8,1093.2,648.6,1099.9,643.3
		c1.3-1.3-111.5-404.2-251.1-895.8c-224.3-792.3-261.9-910.5-327.7-1047.5c-41.6-84.6-81.9-186.7-90-227
		c-18.8-95.4-5.4-212.2,37.6-323.7c33.6-87.3,36.3-90,111.5-119.5c104.8-40.3,206.8-53.7,295.5-41.6
		c85.9,12.1,104.8,20.1,302.2,108.8c115.5,51,341.1,120.9,1020.6,312.9c480.8,135.6,875.6,245.8,878.3,243.1
		c2.7-4-137-252.5-310.2-553.3c-263.2-456.6-321-549.3-347.8-552c-103.4-16.1-1987.6-546.6-2034.6-573.4
		c-232.3-135.6-417.7-385.4-487.5-656.7c-48.3-186.7-32.2-315.6,49.7-402.9c45.7-48.3,87.3-64.5,163.8-63.1
		c34.9,0,386.8,90,824.6,209.5c420.3,114.2,765.5,206.8,766.8,205.5c5.4-5.4-208.2-397.5-257.8-474.1
		c-196.1-304.9-401.5-956.2-417.7-1318.8l-6.7-163.8l41.6-40.3c53.7-53.7,107.4-53.7,213.5-1.3c194.7,96.7,452.6,366.6,838,874.3
		c134.3,177.3,206.8,287.4,287.4,439.1c59.1,111.5,111.5,204.1,115.5,204.1s99.4-346.5,212.2-768.2c209.5-785.6,239-874.3,312.9-928
		c52.4-38.9,135.6-34.9,221.6,8.1c186.7,95.4,444.5,421.7,526.4,663.4c53.7,158.5,52.4,161.2-235,1275.8
		c-145,560-269.9,1026-276.6,1034.1c-9.4,12.1,73.9,170.6,299.5,561.4c171.9,299.5,316.9,539.9,322.3,534.5
		c5.4-6.7,111.5-412.3,237.7-903.8c171.9-667.5,232.3-928,243.1-1034.1c14.8-147.7,73.9-357.2,122.2-435.1
		c14.8-24.2,52.4-61.8,83.3-83.3c52.4-34.9,68.5-38.9,171.9-38.9c98,0,124.9,5.4,190.7,37.6c95.4,47,218.9,177.3,300.8,318.3
		c51,85.9,154.4,196.1,717.1,758.8l658.1,658.1v-619.1v-620.4l-737.3-754.7c-780.3-800.4-807.1-831.3-864.9-1013.9
		c-24.2-77.9-29.5-124.9-29.5-268.6c1.3-193.4,30.9-335.7,102.1-478.1c88.6-177.3,263.2-248.4,392.1-159.8
		c24.2,16.1,287.4,282,586.9,592.2l543.9,561.4l8.1-365.3c5.4-214.9,17.5-431.1,30.9-526.4c68.5-500.9,217.6-980.4,343.8-1106.6
		c55.1-53.7,127.6-57.7,185.3-8.1c112.8,94,269.9,574.8,339.8,1040.8c22.8,150.4,32.2,282,37.6,581.5l8.1,388.1l549.3-565.4
		c580.2-600.3,619.1-632.5,733.3-632.5c133,0,225.6,106.1,299.5,345.1c91.3,290.1,63.1,582.8-77.9,804.4
		c-41.6,64.5-924,983-1377.9,1432.9l-133,131.6v617.8c0,338.4,4,616.4,10.7,616.4c5.4,0,300.8-291.4,655.4-647.3
		c515.7-518.4,656.7-666.1,697-735.9c154.4-269.9,294.1-373.3,521.1-386.8l118.2-6.7l69.8,72.5c131.6,137,184,286.1,184,527.8
		c0,88.6,30.9,222.9,235,1011.2c130.3,500.9,237.7,910.5,239,911.9c1.3,1.3,146.4-245.8,321-549.3
		c268.6-468.7,315.6-556,300.8-573.4c-10.7-10.7-137-482.1-283.4-1047.5c-249.8-966.9-264.6-1032.7-257.8-1117.3
		c14.8-177.3,163.8-445.9,355.9-640.6c243.1-245.8,416.3-259.2,511.7-41.6c13.4,33.6,114.2,396.2,222.9,805.8
		c108.8,409.6,202.8,749.4,206.8,756.1c5.4,5.4,61.8-87.3,126.2-205.5c114.2-212.2,282-448.5,539.9-758.8
		c303.5-365.3,562.7-584.2,695.7-584.2c67.1,0,114.2,34.9,131.6,98c61.8,227-182.6,1097.2-406.9,1446.4
		c-63.1,99.4-269.9,483.5-263.2,490.2c2.7,2.7,358.6-96.7,789.7-222.9c432.4-124.9,800.4-227,819.2-227c73.9,0,167.9,90,201.4,194.7
		c51,155.8-16.1,428.4-155.8,640.6c-72.5,107.4-243.1,272.6-338.4,323.7c-45.7,24.2-392.1,126.2-1019.3,299.5
		c-522.4,145-973.6,267.2-1000.5,271.3c-51,9.4-51,10.7-366.6,558.7c-173.2,302.2-314.3,550.6-311.6,553.3
		c1.3,2.7,398.9-107.4,882.3-244.4c698.3-197.4,909.2-261.9,1020.7-314.3c279.3-128.9,447.2-157.1,562.7-92.7
		c32.2,17.5,69.8,37.6,81.9,44.3c44.3,24.2,96.7,178.6,103.4,303.5c8.1,126.2-9.4,188-118.2,405.6c-43,84.6-98,276.6-287.4,993.8
		c-128.9,488.8-233.7,890.4-231,891.7c9.4,8.1,1070.3-635.2,1070.3-648.6c0-45.7,543.9-1978.2,572.1-2034.6
		c41.6-81.9,200.1-251.1,307.5-326.3c106.1-75.2,256.5-150.4,351.9-174.6c43-10.7,131.6-20.1,198.8-20.1c99.4,0,133,5.4,181.3,30.9
		c92.7,47,114.2,87.3,112.8,208.2c-1.3,92.7-24.2,180-218.9,834c-119.5,401.5-214.9,734.6-213.5,740c4,10.7,405.6-202.8,475.4-251.1
		c126.2-88.6,471.4-229.6,791-321c311.6-90,617.8-123.6,707.7-77.9c38.9,20.1,40.3,22.8,34.9,96.7
		c-17.5,222.9-249.8,482.1-851.4,944.1c-197.4,151.8-299.5,220.2-462,307.5c-114.2,60.4-212.2,115.5-218.9,119.5
		c-5.4,5.4,315.6,96.7,711.8,201.4c918.6,244.4,878.3,232.3,950.8,302.2c52.4,49.7,60.4,64.5,60.4,114.2c0,71.2-21.5,122.2-98,225.6
		c-120.9,162.5-404.2,368-600.3,433.8c-163.8,55.1-161.2,56.4-1282.5-235c-561.4-145-1027.4-269.9-1034.1-275.3
		c-9.4-8.1-217.6,107.4-541.2,299.5c-288.7,171.9-526.4,314.3-526.4,318.3s397.5,111.5,883.7,239
		c695.7,182.6,911.9,233.7,1023.3,244.4c137,13.4,334.4,64.5,425.7,111.5c47,25.5,107.4,92.7,127.6,142.4
		c6.7,18.8,13.4,79.2,13.4,133c-1.3,75.2-8.1,114.2-34.9,170.6c-52.4,115.5-214.9,261.9-390.8,353.2
		c-32.2,16.1-314.3,288.7-705.1,679.5l-651.3,652.7h641.9c417.7,0,640.6-4,640.6-13.4c0-6.7,8.1-13.4,16.1-13.4
		c9.4,0,349.2-331.7,756.1-737.3c702.4-701,744-738.6,839.3-785.6c177.3-85.9,363.9-108.8,574.8-68.5
		c241.7,45.7,390.8,122.2,455.3,231c40.3,69.8,45.7,165.2,12.1,229.6c-12.1,22.8-278,291.4-592.2,596.3l-572.1,554.6l339.8,8.1
		c570.8,14.8,1016.6,91.3,1402.1,241.7c232.3,90,318.3,167.9,295.5,260.5c-26.9,106.1-271.3,221.6-686.3,323.7
		c-339.8,83.3-505,102.1-950.8,108.8c-220.2,4-398.9,12.1-396.2,17.5c2.7,6.7,248.4,248.4,547.9,537.2
		c299.5,290.1,560,552,581.5,581.5c112.8,165.2,64.5,302.2-141,402.9c-139.7,67.1-247.1,91.3-453.9,99.4
		c-208.2,8.1-288.7-4-417.7-64.5c-77.9-36.3-154.4-108.8-831.3-785.6c-410.9-409.6-750.7-744-756.1-744c-6.7,0-20.1-9.4-30.9-20.1
		c-17.5-17.5-108.8-20.1-647.3-20.1h-627.2l658.1,658.1c577.5,577.5,671.5,666.1,772.2,727.9c155.8,94,282,222.9,319.6,323.7
		c16.1,43,29.5,96.7,29.5,120.9c0,24.2,6.7,51,14.8,59.1c10.7,10.7,10.7,17.5,0,22.8c-8.1,5.4-14.8,30.9-14.8,56.4
		c0,37.6-12.1,59.1-63.1,110.1c-126.2,124.9-275.3,177.3-507.6,177.3c-96.7,0-201.4,24.2-999.2,235
		c-491.5,128.9-894.4,237.7-897.1,240.4c-8.1,8.1,22.8,26.9,543.9,335.7c457.9,271.3,518.4,303.5,537.2,286.1
		c24.2-20.1,1984.9-530.5,2084.3-542.6c178.6-20.1,487.5,133,706.4,350.5c112.8,111.5,153.1,185.3,162.5,291.4
		c10.7,106.1-28.2,185.3-107.4,225.6c-30.9,16.1-388.1,116.8-795,222.9c-405.6,107.4-749.4,200.1-762.8,205.5
		c-18.8,8.1,28.2,38.9,194.7,127.6c228.3,122.2,483.5,306.2,819.2,589.6c331.7,280.7,507.6,515.7,507.6,680.9
		c0,94-57.7,118.2-251.1,103.4c-339.8-25.5-1048.9-251.1-1257-400.2c-73.9-52.4-499.6-279.3-503.6-268.6
		c-1.3,6.7,96.7,358.6,220.2,782.9c122.2,424.4,222.9,793.7,222.9,820.5c1.3,142.4-165.2,243.1-362.6,218.9
		c-236.4-29.5-576.1-210.8-709.1-377.4c-95.4-119.5-108.8-162.5-386.8-1167c-150.4-546.6-275.3-1004.5-278-1018
		c-4-14.8-200.1-139.7-535.8-338.4c-291.4-173.2-530.5-312.9-533.2-311.6c-1.3,2.7,102.1,402.9,231,889
		c193.4,731.9,244.4,909.2,294.1,1013.9c98,210.8,119.5,286,112.8,409.6c-4,83.3-14.8,127.6-44.3,189.4
		c-37.6,79.2-41.6,83.3-130.3,118.2c-69.8,26.9-114.2,34.9-190.7,34.9c-115.5,0-170.6-16.1-380.1-110.1
		c-126.2-56.4-288.7-103.4-1027.4-299.5c-482.1-127.6-878.3-229.6-881-228.3c-2.7,2.7,137,241.7,308.9,531.8l314.3,527.8
		l1000.5,276.7c549.3,151.8,1024.7,290.1,1055.6,306.2c145,75.2,330.4,280.7,425.7,471.4c107.4,212.2,137,431.1,75.2,557.3
		c-33.6,69.8-96.7,124.9-157.1,137c-29.5,5.4-252.5-53.7-836.7-221.6c-437.8-127.6-797.7-228.3-801.7-225.6
		c-6.7,8.1,200.1,396.2,251.1,472.7c194.7,288.7,419,1008.6,421.7,1352.4c1.3,116.8-1.3,134.3-26.9,159.8
		c-86,84.6-331.7-30.9-565.4-267.2c-126.2-127.6-271.3-300.8-490.2-588.2c-133-171.9-205.5-283.4-294.1-448.5l-118.2-218.9
		l-20.1,72.5c-10.7,40.3-106.1,393.5-209.5,784.3c-119.5,449.9-201.4,731.9-222.9,768.2c-71.2,122.2-162.5,143.7-300.8,69.8
		c-162.5-85.9-404.2-380.1-500.9-605.7c-75.2-180-79.2-158.5,216.2-1313.4c142.4-557.3,265.9-1027.4,274-1043.5
		c12.1-24.2-25.5-95.4-299.5-556c-247.1-416.3-315.6-521.1-323.7-500.9c-5.4,13.4-141,527.8-299.5,1140.2
		c-158.5,613.7-299.5,1137.5-311.6,1165.7c-68.5,155.8-267.2,202.8-440.5,103.4c-72.5-41.6-213.5-175.9-261.9-248.4
		c-13.4-20.1-298.1-323.7-632.5-674.2c-335.7-350.5-652.7-683.6-706.4-740l-96.7-103.4l-1.3,639.2v637.9l345.1,362.6
		c189.4,198.8,518.4,543.9,730.6,766.8c212.2,222.9,398.9,429.7,415,459.3c49.7,99.4,68.5,200.1,69.8,377.4
		c0,334.4-96.7,623.1-237.7,705.1c-68.5,40.3-157.1,44.3-214.9,8.1c-22.8-13.4-288.7-287.4-590.9-609.7l-550.6-586.9l-8.1,386.8
		c-6.7,302.2-14.8,428.4-38.9,585.5c-55.1,369.3-181.3,803.1-279.3,961.6c-38.9,63.1-111.5,120.9-150.4,120.9
		C11989.2,24000,11958.3,23986.6,11934.1,23970.5z M14025.1,19060.6c14.8-71.2,26.9-133,24.2-135.6c-4-4-233.7,77.9-247.1,88.6
		c-4,2.7,34.9,47,85.9,98c51,51,95.4,90,99.4,85.9C13991.5,19193.5,14009,19131.8,14025.1,19060.6z M10301.1,18977.3
		c-22.8-22.8-249.8-94-241.7-76.5c2.7,9.4,20.1,75.2,36.3,147.7l30.9,131.6l94-94C10285,19021.6,10310.5,18986.7,10301.1,18977.3z
		 M13508.1,18629.5c96.7-83.3,404.2-308.9,585.5-428.4c104.8-69.8,193.4-130.3,196.1-135.6c10.7-17.5,196.1-734.6,196.1-757.4
		c0-17.5-420.3-558.7-654-840.7c-9.4-12.1-17.5,13.4-98,287.4c-92.7,314.3-118.2,370.7-188,413.6c-51,30.9-161.2,38.9-260.5,18.8
		c-60.4-13.4-197.4-137-292.8-263.2c-59.1-79.2-425.7-457.9-443.2-457.9c-6.7,0-10.7,276.6-10.7,615.1v613.7l339.8,342.5
		c185.3,189.4,389.5,408.3,452.6,487.5c63.1,79.2,118.2,143.7,123.6,143.7C13459.7,18668.4,13483.9,18651,13508.1,18629.5z
		 M11114.9,18187.7c247.1-249.8,457.9-464.7,467.3-476.8c12.1-16.1,16.1-165.2,16.1-636.6v-615.1l-185.3,190.7
		c-100.7,104.8-249.8,259.2-331.7,345.1c-119.5,124.9-163.8,161.2-235,194.7c-48.3,22.8-104.8,41.6-124.9,41.6
		c-107.4,0-185.3-84.6-239-260.5c-16.1-52.4-38.9-127.6-51-166.5l-21.5-69.8l-154.4,133c-86,72.5-249.8,220.2-365.3,327.7
		l-209.5,196.1l32.2,102.1c17.5,56.4,41.6,159.8,52.4,228.3c20.1,120.9,61.8,278,83.3,310.2c6.7,8.1,104.8,79.2,218.9,158.5
		c311.6,214.9,410.9,288.7,502.3,373.3c44.3,41.6,84.6,76.5,88.6,77.9C10662.3,18641.6,10867.8,18437.5,11114.9,18187.7z
		 M6932.9,17211.3c94-25.5,173.2-48.3,175.9-51c14.8-16.1-22.8-57.7-102.1-112.8c-48.3-34.9-102.1-73.9-118.2-88.6
		c-17.5-14.8-33.6-25.5-36.3-21.5c-8.1,8.1-99.4,321-94,321C6761,17258.3,6838.9,17236.9,6932.9,17211.3z M17314,17235.5
		c-4-13.4-16.1-60.4-29.5-104.8c-12.1-44.3-26.9-85.9-32.2-91.3c-10.7-12.1-174.6,119.5-184,146.4c-2.7,6.7,45.7,25.5,106.1,41.6
		C17316.7,17263.7,17322.1,17263.7,17314,17235.5z M16373.9,16881c95.4-45.7,300.8-137,455.3-202.8
		c155.8-65.8,283.4-122.2,286-124.9c8.1-8.1-295.5-1197.9-315.6-1236.9c-17.5-34.9-114.2-94-552-339.8
		c-291.4-163.8-531.8-296.8-533.2-294.1c-6.7,5.4,161.2,596.3,192,676.9c33.6,87.3,49.7,279.3,30.9,349.2
		c-16.1,59.1-94,143.7-153.1,165.2c-69.8,26.9-248.4,17.5-347.8-17.5c-64.5-22.8-91.3-26.9-91.3-16.1c0,28.2,214.9,913.2,227,934.7
		c6.7,12.1,128.9,52.4,318.3,102.1c169.2,45.7,308.9,83.3,308.9,84.6C16200.7,16962.9,16278.6,16926.6,16373.9,16881z
		 M8069.1,16890.4c53.7-17.5,177.3-47,272.6-65.8c96.7-20.1,216.2-49.7,268.6-67.1l94-32.2l197.4-495.6
		c110.1-272.6,197.4-499.6,196.1-503.6c-2.7-4-151.8,26.9-333.1,71.2c-197.4,47-343.8,75.2-363.9,71.2c-20.1-5.4-53.7-26.9-76.5-51
		c-21.5-24.2-61.8-60.4-90-81.9c-26.9-20.1-60.4-56.4-75.2-80.6c-48.3-79.2-34.9-153.1,107.4-612.4
		c72.5-232.3,130.3-425.7,127.6-427.1c-1.3-2.7-241.7,128.9-531.8,292.8c-436.5,245.8-533.2,304.9-552,339.8
		c-13.4,24.2-98,311.6-189.4,640.6l-165.2,597.6l61.8,17.5c100.7,29.5,392.1,155.8,672.8,290.1c143.7,69.8,265.9,127.6,271.3,127.6
		C7967,16922.6,8015.4,16907.8,8069.1,16890.4z M12284.6,14559c480.8-49.7,913.2-218.9,1314.8-514.4
		c134.3-99.4,420.3-368,409.6-385.4c-4-5.4,28.2-52.4,68.5-102.1c474.1-577.5,652.7-1344.3,495.6-2120.5
		c-165.2-813.8-695.7-1494.7-1438.3-1841.2c-545.2-255.2-1195.2-310.2-1788.8-153.1c-519.7,139.7-1003.2,463.3-1371.2,919.9
		c-194.7,241.7-366.6,562.7-449.9,839.3c-80.6,269.9-107.4,463.3-107.4,778.9c1.3,302.2,17.5,433.8,85.9,691.6
		c155.8,585.5,561.4,1125.4,1114.7,1486.7C11101.5,14474.4,11699.1,14618.1,12284.6,14559z M17297.9,14452.9
		c4-6.7,283.4-80.6,620.4-163.8l611-153.1l-5.4-33.6c-60.4-331.7-90-616.4-90-851.4v-122.2l-284.7-284.7
		c-157.1-157.1-295.5-286-306.2-286c-28.2,0-1039.5,189.4-1046.2,196.1c-10.7,10.7,150.4,166.5,249.8,243.1
		c204.1,154.4,282,291.4,225.6,398.9c-10.7,20.1-20.1,45.7-20.1,55.1c0,33.6-59.1,90-139.7,130.3c-76.5,38.9-124.9,53.7-236.4,72.5
		c-79.2,12.1-684.9,171.9-684.9,180c1.3,13.4,1054.2,631.2,1077.1,631.2C17280.4,14465,17293.9,14459.6,17297.9,14452.9z
		 M7396.3,14113.1c331.7-196.1,518.4-314.3,506.3-321c-9.4-5.4-213.5-61.8-453.9-124.9c-459.3-123.6-533.2-149.1-578.8-206.8
		c-25.5-33.6-28.2-47-18.8-149.1c4-63.1,16.1-133,25.5-155.8c10.7-22.8,76.5-99.4,147.7-167.9c111.5-107.4,127.6-128.9,106.1-138.3
		c-13.4-5.4-232.3-67.1-486.2-137l-462-127.6l-61.8,56.4c-33.6,30.9-141,130.3-237.7,220.2l-175.9,165.2l-8.1,252.5
		c-8.1,214.9-45.7,572.1-83.3,770.9l-9.4,48.3l609.7,151.8c334.4,83.3,613.7,157.1,621.8,162.5c6.7,6.7,17.5,12.1,22.8,12.1
		C6867.1,14424.7,7107.5,14285,7396.3,14113.1z M5160.2,13965.4c-5.4-17.5-14.8-79.2-21.5-138.3c-14.8-131.6-26.9-194.7-38.9-194.7
		c-16.1,0-261.9,253.8-253.8,263.2c9.4,8.1,288.7,96.7,311.6,98C5162.9,13994.9,5164.3,13981.5,5160.2,13965.4z M19139.1,13960
		c44.3-12.1,83.3-24.2,85.9-28.2c4-2.7-34.9-47-85.9-98l-94-94l-16.1,83.3c-24.2,128.9-22.8,174.6,6.7,166.5
		C19047.8,13985.5,19094.8,13973.5,19139.1,13960z M6817.4,11322.5c282-44.3,519.7-80.6,527.8-80.6c28.2,0-49.7-67.1-120.9-102.1
		c-85.9-44.3-178.6-131.6-261.9-248.4c-65.8-94-91.3-154.4-91.3-220.2c0-55.1,63.1-194.7,92.7-202.8c12.1-4,72.5-30.9,135.6-60.4
		c114.2-53.7,221.6-79.2,335.7-79.2c47,0,385.4-85.9,509-128.9c10.7-2.7-225.6-150.4-523.8-327.7
		c-464.7-276.6-543.9-319.6-562.7-303.5c-10.7,9.4-296.8,85.9-635.2,170.6c-574.8,142.4-615.1,154.4-608.4,180
		c44.3,158.5,88.6,554.6,88.6,787v157.1l286.1,268.6c155.8,149.1,291.4,269.9,300.8,271.3
		C6297.7,11403,6535.4,11366.8,6817.4,11322.5z M18438.1,10673.8c10.7-290.1,34.9-502.3,84.6-742.7l8.1-41.6l-616.4-153.1
		c-338.4-84.6-623.1-161.2-633.9-170.6c-14.8-13.4-22.8-13.4-47,1.3c-14.8,9.4-256.5,153.1-534.5,318.3
		c-279.3,165.2-503.6,304.9-496.9,310.2c16.1,16.1,556,162.5,640.6,174.6c153.1,21.5,201.4,33.6,272.6,72.5
		c79.2,43,120.9,87.3,131.6,139.7c4,18.8,16.1,51,26.9,71.2c10.7,18.8,18.8,48.3,18.8,63.1c0,45.7-45.7,123.6-107.4,182.6
		c-30.9,29.5-67.1,75.2-80.6,102.1c-14.8,26.9-45.7,61.8-68.5,76.5l-44.3,26.9l53.7,14.8c28.2,8.1,245.8,68.5,482.1,134.3
		l429.7,119.5l236.4-235l236.4-235L18438.1,10673.8z M19163.3,10070.8c-146.4-44.3-151.8-44.3-151.8-5.4c0,18.8,6.7,76.5,16.1,128.9
		l16.1,94l98-96.7l99.4-98L19163.3,10070.8z M5103.8,10218.5c4-17.5,13.4-63.1,22.8-102.1c8.1-38.9,12.1-75.2,6.7-79.2
		c-9.4-9.4-222.9,49.7-221.6,61.8c1.3,10.7,163.8,147.7,175.9,147.7C5093.1,10248.1,5101.1,10234.7,5103.8,10218.5z M8429,9368.5
		c0-18.8-151.8-584.2-167.9-624.5c-9.4-25.5-21.5-72.5-25.5-104.8c-5.4-32.2-13.4-68.5-20.1-80.6s-18.8-63.1-28.2-112.8
		c-14.8-85.9-14.8-95.3,14.8-154.4c21.5-41.6,53.7-77.9,98-107.4c61.8-41.6,71.2-44.3,189.4-44.3c94,0,128.9,5.4,141,20.1
		c9.4,12.1,38.9,20.1,69.8,20.1c29.5,0,64.5,6.7,79.2,14.8c24.2,12.1,25.5,10.7,17.5-24.2c-5.4-20.1-59.1-240.4-118.2-487.5
		L8570,7233.1l-315.6-84.6l-315.6-83.3l-208.2,95.4c-177.3,81.9-613.7,271.3-687.6,298.1c-13.4,4-21.5,16.1-17.5,25.5
		c26.9,76.5,321,1159,327.7,1204.6l8.1,60.4l523.8,311.6c288.7,171.9,527.8,312.9,534.5,312.9C8425,9375.2,8429,9372.5,8429,9368.5z
		 M16251.7,9063.6c439.1-261.9,529.1-319.6,547.9-357.2c30.9-60.4,322.3-1226.1,308.9-1238.2c-5.4-5.4-116.8-53.7-245.8-107.4
		c-128.9-53.7-329-142.4-443.2-197.4l-208.2-99.4l-373.3,98c-205.5,52.4-381.4,103.4-392.1,110.1
		c-18.8,16.1-384.1,1001.8-370.7,1001.8c4,0,77.9-18.8,162.5-41.6c84.6-24.2,178.6-45.7,206.8-49.7c29.5-2.7,61.8-14.8,72.5-24.2
		c17.5-17.5,110.1-25.5,210.8-18.8c64.5,4,138.3,49.7,177.3,110.1c34.9,52.4,37.6,64.5,34.9,190.7c-1.3,133-14.8,204.1-52.4,283.4
		c-16.1,33.6-72.5,243.1-157.1,574.8c-10.7,41.6-17.5,76.5-12.1,76.5C15722.6,9375.2,15961.7,9234.2,16251.7,9063.6z
		 M10369.6,7441.3c20.1-55.1,44.3-142.4,55.1-194.7c36.3-198.8,63.1-275.3,120.9-351.9c67.1-90,263.2-111.5,363.9-40.3
		c28.2,18.8,194.7,178.6,369.3,354.5l319.6,319.6v-617.8v-617.8l-455.3-455.3l-453.9-453.9l-133,98
		c-118.2,88.6-224.3,159.8-601.6,405.6l-107.4,69.8l-99.4,385.4l-100.7,385.4l333.1,416.3c184,229.6,338.4,413.6,342.5,408.3
		C10327.9,7546.1,10349.4,7496.4,10369.6,7441.3z M12887.6,7191.5c181.3-181.3,351.9-341.1,378.7-355.9c84.6-43,239-26.9,304.9,32.2
		c41.6,40.3,108.8,174.6,108.8,221.6c0,20.1,6.7,44.3,13.4,51c8.1,8.1,17.5,45.7,22.8,83.3l8.1,69.8l155.8-146.4
		c85.9-80.6,251.1-240.4,368-353.2l212.2-205.5l-81.9-315.6c-51-192-91.3-321-103.4-329c-284.7-185.3-460.6-307.5-593.6-410.9
		c-90-69.8-171.9-131.6-182.6-138.3c-12.1-9.4-146.4,112.8-488.8,441.8l-471.4,455.3v615.1c0,338.4,4,615.1,10.7,615.1
		C12554.6,7521.9,12706.3,7372.8,12887.6,7191.5z M7045.7,6870.5l41.6-43l-114.2-29.5c-161.2-40.3-157.1-41.6-134.3,36.3
		c10.7,34.9,25.5,85.9,33.6,114.2l13.4,51l57.7-43C6975.9,6933.7,7021.6,6894.7,7045.7,6870.5z M17288.5,6879.9
		c16.1-56.4,26.9-104.8,24.2-107.4c-9.4-9.4-248.4,53.7-248.4,64.5c0,14.8,178.6,161.2,186.7,153.1
		C17254.9,6986,17272.4,6936.4,17288.5,6879.9z M10272.9,5034.7c20.1-8.1,36.3-17.5,36.3-22.8c0-5.4-34.9-44.3-79.2-87.3l-77.9-77.9
		l-29.5,115.5c-14.8,63.1-28.2,120.9-28.2,127.6c0,8.1,32.2,1.3,71.2-13.4C10203,5060.2,10251.4,5041.4,10272.9,5034.7z
		 M14050.6,5081.7c-4-13.4-17.5-65.8-29.5-118.2c-12.1-51-26.9-98-30.9-103.4c-5.4-5.4-44.3,25.5-88.6,69.8l-79.2,79.2l80.6,34.9
		c43,18.8,91.3,40.3,106.1,47C14049.3,5108.6,14058.7,5107.2,14050.6,5081.7z"/>
</g>
</svg>
