<svg xmlns="http://www.w3.org/2000/svg" viewBox="0 0 160 160"><path d="M81.34 0c-44.18 0-80 35.82-80 80s35.82 80 80 80 80-35.82 80-80-35.82-80-80-80m22.85 36.98c7 0 12.67 7.77 12.67 17.34s-5.67 17.34-12.67 17.34-12.67-7.77-12.67-17.34 5.67-17.34 12.67-17.34m-45.7 0c7 0 12.67 7.77 12.67 17.34s-5.67 17.34-12.67 17.34-12.67-7.77-12.67-17.34 5.67-17.34 12.67-17.34m22.85 102.76c-31.11 0-56.42-25.31-56.42-56.42 0-2.21 1.79-4 4-4s4 1.79 4 4c0 26.7 21.72 48.42 48.42 48.42s48.42-21.72 48.42-48.42c0-2.21 1.79-4 4-4s4 1.79 4 4c0 31.11-25.31 56.42-56.42 56.42"/></svg>