<?xml version="1.0" encoding="UTF-8"?>
<svg id="Layer_1" xmlns="http://www.w3.org/2000/svg" version="1.1" viewBox="0 0 160 160">
  <!-- Generator: Adobe Illustrator 30.0.0, SVG Export Plug-In . SVG Version: 2.1.1 Build 123)  -->
  <path d="M21.8,23.8h0s0,0,0,0c0,0,0,0,0,0Z"/>
  <path d="M63.4,64.1h0c2.6,2.9,3.8.2,5.5-.7,2.2-1.2.9-2.6.2-3.9-5.3-9.3-11.5-17.9-17.5-26.6-3.5-5.1-7.2-10-11.8-14.1-1.8-1.6-3.5-3.2-6-3.2-3.2,0-5.4,1.9-7.7,3.6-1.7,1.2-2,2.3-.3,4,12.6,13.5,25.2,27.1,37.6,40.9Z"/>
  <path d="M21.9,51.1h0c11.8,8.2,24.1,15.4,36.9,21.8.9.4,2.2,2.1,2.7-.1.5-2.2,4.5-3.3,1.7-6.4-2.8-3.1-5.8-6-8.7-9.2-8.9-9.9-18.1-19.3-27.3-28.8-1.8-1.6-3.5-3.1-5.4-4.5-.5.4-1,.9-1.4,1.3-1.6,2.1-3.4,4.1-4.8,6.3-3.5,5.3-3.1,10.2,1,15,1.6,1.8,3.4,3.3,5.4,4.6Z"/>
  <path d="M74.7,61.6h0c2.1-.9,5.8.8,5.6-4-.2-5.7,0-11.2,0-16.9l-.6-36.7c0-1,.5-2.3-.9-2.9-.7-.3-1.4-.5-2.2-.7-5.3-.9-10.3,2.9-11.2,8.4-.5,3-.6,6-.6,9.1.4,14.1,4,27.5,7.4,41,.3,1.1-.1,3.8,2.6,2.7Z"/>
  <path d="M89,61.9h0c.8,2.4,5.8,3.8,7.5,2,4.7-4.9,9.3-9.8,13.9-14.7,8-8.7,16-17.3,24.1-26,.7-.7,2.1-1.6,1-2.7-2.7-2.9-5.3-6-9.5-6.5h0c-1.5,0-2.8.7-3.9,1.7-2.3,2.2-4.9,4.3-7,6.8-9.7,11.9-17.7,25-25.8,38.1-.3.4-.4.9-.2,1.3Z"/>
  <path d="M104.5,58c-2.5,2.6-4.8,5.3-7.3,8-2.6,2.8,1,3.9,1.6,5.8.6,2.2,1.9.4,2.7,0,6-3.5,12-6.9,17.9-10.5,7.6-4.6,15.6-8.8,21.8-15.5,2.5-2.7,4.6-5.6,4.6-9.6h0c0-4.4-2.8-7.4-5.1-10.6-1.5-2.2-2.6-2.4-4.6-.3-10.4,11-21,21.9-31.5,32.8h0Z"/>
  <path d="M81.8,38.8h0c0,7.1.2,13.2,0,19.1,0,2.5,1.2,2.5,2.9,2.9,2,.5,2.3-.3,2.9-1.9,3.6-9.9,6.4-20,9.2-30,1.8-6.5,3.3-13,3.5-19.8,0-4.6-1.7-6.9-5.9-8.5-3.1-1.2-6.4-.4-9.5-.7-2.1-.2-2.6.7-2.6,2.7.2,12.4-1,24.7-.6,36.1Z"/>
  <path d="M3.6,90h0c.7-.2,1.4,0,2.1-.2,17.3-2,34.7-3.9,52-5.8,1.6-.2,2.6-.7,2.2-2.4-.4-1.7,2.1-4.3-1.4-5.1-2.8-.7-5.5-1.2-8.3-1.8-11.3-2-22.5-4-31.8-4.8-15.6,0-18.7,3.1-18.5,16.5,0,2.9.8,4.1,3.6,3.5Z"/>
  <path d="M159,78.4h0c0-.5-.2-1-.4-1.4-2.2-6.4-6.3-8.7-15.6-8.5h0c-2.9-.3-6.2.6-9.7.9-10.3.9-20.6,2.5-30.7,4.9-1.9.4-3.1,1-2.3,3,.9,2.1-1.1,5.7,3.3,6.1,15.8,1.4,31.7,3,47.5,4.5,9.4.9,9.9.2,7.9-9.4Z"/>
  <path d="M93.7,103.5h0c-.9-1.3-1.5-3.5-4-2.1-2.2,1.2-4.4,2.1-3.6,5.4,2.7,10.2,4.5,20.8,7.8,30.8,2,5.9,4.2,11.7,8.6,16.3,1.6,1.7,3.4,3,6.5,3h0c4.2-.5,8.5-2.8,12.6-5.5,1.2-.8.6-1.5.1-2.4-9-15.5-17.7-31-28.1-45.4Z"/>
  <path d="M129.1,129.5h0c-2.5-4.7-5.8-8.7-9.2-12.6-6.5-7.3-12.9-14.6-20.5-20.7-1.3-1-2.6-1.9-3.5,0-.8,1.5-4,2-2,4.9,10,13.9,19.1,28.5,28.1,43.2,3,4.9,4.6,4.9,7.7,0,1.2-1.8,2.1-3.8,1.9-5.5h0c0-3.8-1.2-6.6-2.6-9.3Z"/>
  <path d="M156.3,90.7c-17.5-1.2-34.7-4.3-52.1-6.2-4.8-.5-3.6,2.8-4.7,4.8-1.4,2.5,0,3.6,2.1,4.6,11.5,5.3,22.9,11,34.9,15.3,3.7,1.3,7.5,2.3,11.4,2.6h0c3.3,0,6.4-1.9,7.8-5.1,2-3.9,2.2-8.2,3.1-12.3.6-2.8-.1-3.6-2.6-3.8Z"/>
  <path d="M70.3,103.8h0c1.5-2.9-.6-3.4-1.7-4.9-1.3-2-2.4-.6-3.4.2-4,3.3-8,6.5-11.8,10-8,7.1-15.5,14.7-20.7,24.4-1.4,2.6-2.8,5.2-2.5,8.3h0c.3,4.7,6.2,12,10.9,13.4,1.3.4,1.7-.2,2.1-1.2,1.1-2.2,2.1-4.6,3.4-6.8,8-14.4,16.1-28.7,23.6-43.4Z"/>
  <path d="M62.4,93.1h0c-.1-4.9-3-7.5-7.9-6.7-11.5,2-23.2,2.9-34.8,4.3-5.4.7-10.8,1.1-16.2,1.8-1.3.2-3.1,0-2.6,2.4.7,3.6,1.2,7.3,2.3,10.8,1.6,5.1,4.2,6.7,9.5,6.6h0c1.7-.2,3.4-.4,5-.8,14.9-4.3,28.9-11.1,43.3-16.9.6-.3,1.3-.4,1.3-1.5Z"/>
  <path d="M98.7,82h0c0-10.2-7.6-18.6-17.2-18.5-9.6,0-19.6,7.9-19.2,19.2.4,10.7,7.7,18.4,18,18.4h.3c10.1,0,18.1-8.6,18.1-19.1Z"/>
  <path d="M76.8,104.1h0c-1.7-.1-3.5-2.8-5.1.3-8.7,16.9-17.2,34-26.7,50.5-.6,1-.7,1.8.5,2.3,3,1.3,6.1,2.6,9.8,2.8,4.2-.7,7.4-3.3,10.1-7,3.4-4.8,5.3-10.3,6.7-16,2.3-9.6,4.3-19.3,6.4-28.9.3-1.5,1.2-3.7-1.6-3.9Z"/>
</svg>