<svg xmlns="http://www.w3.org/2000/svg" viewBox="0 0 160 160"><path d="M81.93 84.29c-.93 5.16-1.92 10.27-2.79 15.32-1.63 9.6-4.18 19-8.31 27.99-3.43 7.51-9.06 13.64-15.98 18.85-4.47 3.37-9.12 6.59-13.25 10.32-2.32 2.09-3.6 1.99-5.64-.41-1.8-2.15-2.96-4.6-3.43-7.2-2.67-13.64 2.56-24.52 14.87-32.89 4.82-3.27 9.88-6.28 14.47-9.81 6.91-5.16 11.68-12.21 13.54-19.97.41-1.43.46-2.91.17-4.34-4.01 3.27-7.73 6.79-11.16 10.62-9.24 10.52-21.56 16.04-36.66 16.45-7.9.2-15.8.36-23.59 1.94-3.25.66-4.24-.31-4.18-3.12.35-10.06 9.99-26.25 27.08-28.25 5.75-.66 11.39.1 16.97 1.07 9.41 1.63 18.65 2.15 27.13-2.76.76-.46 2.09-.56 1.86-1.63s-1.45-1.28-2.5-1.43c-6.22-.77-12.43-1.33-18.59-2.55-16.91-3.32-30.5-10.57-37.71-25.03-2.09-4.29-3.66-8.79-4.59-13.38-.29-1.38-.12-2.55 1.45-3.22 11.21-4.7 22.37-5.87 33.29.56 5.64 3.32 8.42 8.27 10.28 13.74 2.03 5.98 4.24 11.85 8.77 16.8 3.2 3.47 6.74 6.69 12.14 8.43-.58-2.91-2.09-5.11-3.02-7.46-3.6-9.24-6.97-18.49-5.81-28.55C68.37 20.49 80.39 3.22 99.39.21c5-.77 7.5.46 7.9 5.01.93 9.86-.64 19.15-8.02 27.17-3.66 3.98-7.32 7.92-10.69 12.05-5.4 6.59-8.13 14-7.84 22.22 0 1.58.46 3.12 1.51 4.39 2.44-2.71 4.07-5.77 5.93-8.68 4.24-6.59 8.37-13.23 14.87-18.44 9.76-7.81 20.92-12.51 34.51-11.24 8.83.82 15.75 4.8 21.32 10.68 1.63 1.69 1.34 3.47-.23 5.11-7.38 7.66-16.62 12.21-28 13.43-7.67.82-15.28-.61-22.89 0-9.35.66-16.15 4.6-20.28 12.11-.35.41-.35.97 0 1.38 5.98-.72 11.97-1.94 18.13-2.5 10.11-.87 19.75.41 28.64 4.65 8.37 3.98 12.78 10.88 15.69 18.59 2.03 5.47 3.72 11.03 5.81 16.55.87 2.25-.29 3.22-2.32 3.78-5.05 1.43-10.11.92-15.16-.1-11.68-2.45-18.88-9.5-24.46-18.23-2.85-4.49-6.04-8.68-10.52-12.11-4.07-3.22-9.18-5.16-14.58-5.62-.81-.05-1.92-.41-2.5.31-.7.87 0 1.84.58 2.55 3.95 4.7 7.73 9.55 11.97 14.1 7.55 8.07 13.77 16.65 15.92 27.07 2.5 12.16.17 23.5-8.42 33.56-2.15 2.5-2.96 2.6-5.93.66-8.77-5.92-13.07-14.15-14.99-23.39-1.68-8.07.12-16.09.81-24.11.7-8.17.93-16.29-2.27-24.16-.35-.85-1.03-1.67-2.03-2.45l.06-.26Z"/></svg>