<svg xmlns="http://www.w3.org/2000/svg" viewBox="0 0 160 160"><path d="M41.45 59.83c-4.44-4.52-9.56-8.45-12.77-14.08-4.82-8.45-4.25-17.28-2.45-26.24.37-1.85 1.78-1.95 3.38-1.88 9.82.36 17.58 4.75 23.98 11.56 4.37 4.62 8.62 9.35 12.68 14.36-1.86-6.18-2.8-12.39-1.91-18.75 1.14-7.95 4.9-14.77 10.23-20.83 2.66-3.1 5.87-3.09 8.88-.29 5.77 5.23 9.52 12.39 10.59 20.18 1.11 7.48.74 14.77-2.66 21.81 3.32-4.84 6.63-9.55 10.2-14.1 7.47-9.46 17.97-12.67 29.61-13.57 2.75-.22 3.62 1.81 3.85 3.88.98 9.3-.12 18.22-6.11 25.97-3.19 4.13-6.68 8.04-10.59 12.74 4.55-.9 7.84-2.71 11.55-3.47 11.8-2.32 20.71 2.82 29 9.82 1.31 1.1 1.48 2.61.32 3.8-5.5 5.66-10.32 12.08-18.05 15.32-4.28 1.81-8.77 2.12-13.77 2.03 2.08 2.33 4.83 3.05 7.18 4.22 4.24 2.04 7.77 5.35 10.12 9.48 2.48 4.05 4.56 8.34 6.22 12.8 2.12 6.33-.26 9.19-7.1 9.72-11.71.9-22.09-1.98-31.28-8.98-.57-.64-1.46-.89-2.27-.62 1.63 3.62 3.81 7 5 10.8 3.09 9.8 2.18 19.39-1.09 28.95-.89 2.71-2.37 3.68-5.52 2.71-13.04-4.13-21.39-12.41-24.95-25.19a47 47 0 0 0-2.23-6.79c-.75 3.52-.71 7.11-2.03 10.5-3.8 9.73-9.94 17.59-19.26 22.96-3.67 2.12-4.56 1.81-6.62-1.76-6.42-11.2-7.33-22.62-1.36-34.24 1.18-2.31 2.06-4.75 3.32-7.69-3.14 1.53-4.83 3.86-6.98 5.61-10.18 8.29-21.53 11.44-34.56 7.76-4.82-1.36-5.74-2.71-4.74-7.49 2.82-13.62 10.4-23.46 24.33-28.2.54-.26 1.05-.56 1.54-.9-2.24-1.38-4.59-1.18-6.73-1.52C15.66 88.16 6.72 81.36.63 70.64c-.99-1.76-.7-2.78.61-3.96 4.8-4.34 10.55-6.7 16.99-7.86 7.52-1.3 15.24-.73 22.49 1.68.37.48.95.73 1.55.66a.685.685 0 0 0 1.09.17l-.65-.66-1.22-.86Zm64.39 37.09a60.4 60.4 0 0 0-9.63-9.35c-.89-.71-2.26-1.39-1.88-2.79.42-1.54 1.91-1.59 3.29-1.81a24.8 24.8 0 0 0 9.34-3.01c.97-.56 2.76-.9 2.47-2.28-.35-1.65-2.16-1.73-3.62-1.81-3.45-.1-6.89 0-10.33-.16s-3.8-1.19-1.99-3.94c2.3-3.48 5.12-6.64 6.9-10.43 1.06-2.27 0-3.1-2.35-2.83-1.21.2-2.33.76-3.22 1.61-2.97 2.48-5.9 5-8.88 7.42-.96.77-1.67 2.58-3.21 1.81-1.34-.71-.57-2.36-.6-3.62-.08-4.52.61-8.99-.4-13.44-.22-.97-.6-2.34-1.83-2.42-1.36-.09-1.55 1.33-1.84 2.3-1.32 4.39-2.58 8.71-3.8 13.03-.36 1.23-.32 2.99-1.78 3.28s-2.17-1.28-3.07-2.19c-3.07-2.96-6.59-5.4-10.42-7.24-.7-.35-1.55-.9-2.4-.24a2.14 2.14 0 0 0-.59 2.54c.62 2.06 1.6 3.99 2.91 5.68 2.37 3.08 5.21 5.85 7.15 9.79a26.97 26.97 0 0 0-14.48.24c-1.31.4-2.84 1.03-3.08 2.26-.3 1.57 1.51 1.89 2.66 2.48 3.85 1.95 8.13 2.87 12.43 2.66.98 0 2.15 0 2.56.99s-.7 1.38-1.27 1.96a81 81 0 0 0-8.37 10.29c-.6.9-.89 1.72-.08 2.59s1.55.2 2.34 0c3.55-1.07 5.91-3.75 8.79-5.74.81-.56 1.39-2.06 2.66-1.29 1.11.66.44 1.95.41 2.97-.09 4-.82 8.03 1.12 11.89.36.73.37 1.73 1.38 1.81 1.27.15 1.52-.97 1.95-1.81 1.78-3.43 2.3-7.24 3.21-10.86.25-.99.15-2.41 1.58-2.46 1.25 0 1.15 1.37 1.48 2.17 1.76 4.32 4.1 8.37 6.95 12.04.75.95 1.67 1.94 3.08 1.3s.8-1.76.58-2.8c-.85-3.93-1.67-7.85-2.44-11.76-.16-.8-.42-1.81.28-2.37.83-.65 1.57.23 2.31.57 4.17 1.96 8.22 4.32 13.71 2.97v.03Z"/><path d="M77.69 73.09c5.8.15 10.47 3.98 10.36 8.46s-4.75 8.28-9.77 8.14c-5.33-.15-8.17-3.26-7.99-8.81.14-4.85 3.06-7.92 7.41-7.79Z"/></svg>