<svg xmlns="http://www.w3.org/2000/svg" viewBox="0 0 160 160"><path d="M93.13 69.05c3.51-2.52 6.9-5.09 10.23-7.78 4.36-3.51 8.47-7.26 12.41-11.18 4.3-4.21 8.35-8.72 11.19-13.93 2.97-5.32 4.72-10.88 3.15-16.85-1.21-4.62-4.11-8.02-9.14-9.54-4.05-1.23-7.99-.41-11.74 1.4-5.14 2.46-8.59 6.38-11.62 10.82-3.57 5.27-5.69 11.06-7.38 16.97-2.42 8.53-4.05 17.29-4.9 26.1.21 0 .38.06.6.11 2.72.76 4.96 2.28 7.2 3.86Z"/><path d="m161.02 91.46.24-.06c-.79-3.57-2.9-6.32-5.93-8.48-5.51-4.04-12.04-5.62-18.88-6.03-5.14-.29-10.23.18-15.31.88-4.84.64-9.62 1.4-14.4 2.28-2.6.53-5.2.99-7.87 1.52v.06c-.36-.18-.18-.47-.18-.7 0-.59-.48-1.35-.06-1.7s1.27-.23 1.94-.29c3.51-.23 6.96-.64 10.41-1.17 5.75-.82 11.5-1.7 17.25-2.81 5.51-1.05 10.83-2.46 15.79-4.86 4.42-2.16 8.41-4.86 11.19-8.78 2.42-3.39 3.69-7.08 3.15-11.12-.67-4.68-3.57-8.02-8.29-9.95-4.42-1.81-8.9-1.64-13.49-.59-5.26 1.17-9.74 3.8-13.98 6.85-5.81 4.15-10.95 9.01-16.16 13.81-3.75 3.45-7.32 7.08-10.71 10.82-.18.18-.3.64-.67.18-.67-.76-1.33-1.52-2-2.28-2.24-1.58-4.48-3.04-7.2-3.86-.2-.05-.36-.09-.54-.1h-.14c-.67-.23-1.39-.35-2.12-.47-.67 0-.73-.18-.61-.76 1.45-6.14 3.21-12.23 4.84-18.31 1.63-5.91 3.27-11.82 3.81-17.9.42-4.45.36-8.89-1.03-13.22-1.39-4.45-3.57-8.54-7.5-11.53-2.9-2.22-6.23-3.04-9.86-1.76-7.75 2.69-13.07 9.71-13.43 17.67-.18 5.03.6 10.01 2.24 14.74 3.39 10.36 7.75 20.36 12.04 30.37.57 1.33.59 1.41-.7 2.01-1.65-4.53-3.31-9.08-5.23-13.55-3.21-7.43-6.29-14.92-10.47-22-2.6-4.51-5.63-8.78-10.17-11.94-3.39-2.34-7.02-3.92-11.44-3.39-5.33.7-9.5 3.16-12.16 7.43-3.03 4.91-2.97 10.12-1.15 15.39 2.24 6.55 6.84 11.53 12.71 15.62l-.06.06c5.81 4.1 12.1 7.66 18.27 11.29 3.98 2.4 8.13 4.55 12.24 6.84-.32.48-.64.95-.93 1.43-.18.35-.3.29-.61.12-5.51-3.98-11.19-7.72-17.12-11.12-6.66-3.86-13.43-7.61-21.18-9.48-4.42-1.11-8.83-1.81-13.43-.99-5.75 1.05-9.8 5.21-10.29 10.88-.42 4.91 1.63 9.13 5.2 12.64 3.87 3.8 8.77 6.03 14.28 7.02 3.87.64 7.75 1.05 11.68 1.17 6.23.18 12.47 0 18.7-.47 3.33-.23 6.6-.47 9.86-.99.3 0 .48 0 .48.29 0 .64.12 1.29.18 1.93-1.63 0-3.21.18-4.84.18-4.6 0-9.2.18-13.86.41-5.02.29-9.98.88-14.89 1.76-5.63 1.05-11.01 2.63-16.04 5.38-4.24 2.28-7.75 5.27-9.62 9.54-1.75 4.04-2.24 8.19.36 11.99 3.75 5.5 9.5 8.02 16.52 7.9 3.99-.06 7.81-1.23 11.44-2.81 4.84-2.11 8.96-5.09 13.07-8.13 7.62-5.73 14.28-12.4 21.3-18.72.54.53 1.03 1.05 1.63 1.52.42.29.24.47-.06.7-4.24 3.1-8.41 6.32-12.34 9.71-4.9 4.27-9.92 8.43-14.16 13.34-3.09 3.51-5.99 7.2-7.93 11.41-2.06 4.39-3.03 8.95-2.06 13.75 1.39 6.96 8.59 11.64 16.52 9.19 5.99-1.87 10.53-5.5 14.16-10.12 3.33-4.21 5.26-9.01 6.96-13.93 3.09-9.13 4.72-18.55 6.41-27.97.12-.47 0-1.17.24-1.46.42-.41 1.03.12 1.57.18.36 0 .67.12 1.03.18-.48 1.81-.97 3.69-1.45 5.5-2.42 9.3-5.08 18.49-5.93 28.03-.42 4.68-.42 9.3.85 13.93 1.27 4.62 3.51 8.66 7.69 11.64 3.33 2.4 7.08 3.45 11.32 2.46 4.36-1.05 7.32-3.74 9.44-7.26 3.15-5.15 3.33-10.71 2.66-16.38-.54-4.45-2-8.66-3.69-12.81-2.72-6.73-6.11-13.22-9.32-19.78-1.09-1.93-2-3.98-2.84-6.03l2.06-.76c3.09 7.9 6.66 15.68 10.53 23.23 3.21 6.2 6.78 12.29 11.92 17.44 3.63 3.63 7.81 6.55 13.01 7.9 3.81.99 7.5.76 10.77-1.46 5.57-3.8 7.14-9.13 6.29-15.21-.48-3.51-2.12-6.61-4.24-9.48-4.18-5.68-9.68-10.01-15.85-13.81-7.81-4.8-16.1-8.78-24.27-12.93-.54-.29-1.09-.53-1.57-.82.3-.47.61-.94.91-1.35.18-.23.36-.47.48-.76l6.23 3.69c7.56 4.45 15.07 8.95 23.3 12.29 6.11 2.46 12.41 4.27 19.18 3.69 4.96-.47 9.32-2.05 12.53-5.73 3.03-3.45 4.3-7.37 3.33-11.82Z"/></svg>