<svg xmlns="http://www.w3.org/2000/svg" viewBox="0 0 160 160"><path d="M55.37 73.62c-3.63-2.68-7.73-4.05-11.94-4.91-6.18-1.2-11.85-4.3-16.23-8.88-4.23-4.38-8.01-9.12-11.79-13.86-.99-1.28-1.46-2.6-.82-3.99s2.24-1.29 3.61-1.14c12.35 1.08 24.14 3.62 33.14 13.12 2.17 2.31 4.54 4.38 6.89 6.55.53.56 1.13 1.04 1.8 1.43.91.45 2.08.85 2.86.06 1.02-1.02.37-2.01-.47-2.99-2.37-2.79-5-5.34-7.86-7.62-6.42-5.05-9.09-12.1-10.87-19.53-1.2-5.02-2.21-10.12-1.33-15.38.42-2.55 1.22-3.08 3.68-2.13 3.2 1.26 5.67 3.65 8.38 5.62 8.96 6.5 14.07 15.31 16.11 26.06.51 2.68.8 5.51 2.21 7.97.58 1 1.3 2.18 2.65 1.71s.97-1.84.76-2.78c-.67-2.99-1.43-5.98-2.33-8.92-2.42-7.99-1.72-15.97.27-23.85 1.39-5.7 3.29-11.26 5.67-16.61.39-.86.7-1.99 1.86-1.93.93.05 1.25 1.08 1.67 1.84 2.27 4.18 3.12 8.85 4.54 13.31.87 2.73 1.63 5.5 2.37 8.26 2.34 8.77-.14 17.08-2.55 25.38-.38 1.09-.58 2.23-.6 3.38 0 .9-.11 2.02 1.39 2.05 1.17 0 1.51-.47 1.87-1.61 1.45-4.48 2.67-9.02 3.79-13.58 2.4-9.53 8.93-15.98 16.35-21.8a44.4 44.4 0 0 1 5.55-3.67c3.7-2.1 5.5-1.13 5.59 3.02s-.69 8.42-1.51 12.57c-1.93 10-7.4 17.75-15.01 24.27-1.61 1.38-3.03 2.97-4.54 4.49-.83.85-1.67 2-.64 2.98s2.27.62 3.4-.33c3.29-2.82 6.86-5.38 9.94-8.39 6.35-6.26 14.46-8.63 22.72-10.62 3.88-.91 7.84-1.38 11.82-1.42.76 0 1.57-.28 2.09.52s-.08 1.54-.45 2.13c-8.2 13.04-18.35 23.67-34.63 26.43-2.49.41-4.9 1.21-7.15 2.36-.67.35-1.6.77-1.4 1.58s1.19 1.16 2.14 1.14c3.29-.13 6.54-.79 9.63-1.95 8.04-2.88 15.79-2.42 23.88 0 4.59 1.37 9.33 2.45 13.99 3.71.48.08.95.21 1.39.4 1.07.58 2.74.77 2.73 2.25 0 1.35-1.33 2.02-2.54 2.46-3.7 1.35-7.4 2.74-11.13 4.01-3.57 1.21-7.15 2.38-10.79 3.39-4.9 1.35-9.85.66-14.7-.26-3.33-.63-6.56-1.76-9.98-1.92-1.2-.05-2.91-.5-3.23 1.09s1.51 2.05 2.65 2.42c3.32 1.05 6.7 1.88 10.12 2.5 6.1 1.14 11.15 4.25 15.5 8.55 4.98 4.93 9.31 10.5 12.88 16.57 1.02 1.75 1.01 2.67-1.35 2.52-13.63-.91-26.66-3.62-36.8-13.78a71 71 0 0 0-8.54-7.31c-.76-.53-1.51-1.28-2.27-.47-.67.67-.82 1.72-.36 2.56a13.8 13.8 0 0 0 3.28 3.96c6.54 6 12.12 12.63 14.85 21.27a69.7 69.7 0 0 1 3.48 17.69c.16 3.25-.6 3.78-3.41 2.23a53.3 53.3 0 0 1-18.18-16.2c-4.74-6.69-6.82-14.34-9.23-21.9-.39-1.2-.76-2.4-2.04-2.31-1.61.13-1.76 1.54-1.51 2.87.76 3.75 1.45 7.55 2.44 11.25a34.6 34.6 0 0 1-.07 17.9c-1.57 6.24-3.57 12.36-5.98 18.31-.41.98-.87 2.19-2.01 2.26s-1.65-1.19-2-2.18c-2.57-7.23-5.61-14.31-7.38-21.79-.98-4.13.36-8.2 1.3-12.22 1.07-4.38 1.93-8.82 2.56-13.28.11-.85.7-2.12-.54-2.54s-2.13.25-2.71 1.5c-1.68 3.61-1.67 7.65-3.08 11.32-4.36 11.71-12.81 21.38-23.74 27.17-3.24 1.75-4.39.92-4.17-2.73.85-13.85 5.08-26.25 15.55-36.05 2.11-1.96 4.32-3.85 5.79-6.41.52-.91.96-1.73 0-2.55s-1.85-.35-2.6.34c-2.4 2.21-4.88 4.36-7.13 6.72-7.32 7.69-16.58 11.41-26.81 13.18-3.52.62-7.02 1.47-10.66 1.19-2.45-.18-3.32-1.19-1.95-3.02 6.66-8.9 12.65-18.5 23.71-23 4.54-1.83 9.32-2.5 13.94-3.85 1.7-.51 4.36-.88 3.92-2.85-.41-1.84-3.03-1.02-4.62-.7-6.06 1.21-12.12 2.92-18.39 2.4-8.1-.67-15.64-3.55-23.15-6.39-2.05-.77-4.23-1.31-6.11-2.55-1.67-1.12-1.64-1.92.12-2.87 2.61-1.42 5.52-1.72 8.33-2.48 5.03-1.37 10.04-2.81 15.07-4.13 6.51-1.75 12.79-.36 19.15 1.42 3.03.86 6.38 3.12 9.9 0Zm13.85 7.59c0 7.09 4.97 12.41 11.79 12.15 7.23-.27 12.54-5.05 12.45-11.14-.11-7.02-5.84-12.79-12.12-12.62-6.95.18-12.1 4.92-12.13 11.61Z"/></svg>