<svg xmlns="http://www.w3.org/2000/svg" viewBox="0 0 160 160"><path d="M83.15 114.52c1.25 3.83 1.18 7.78 1.62 11.67.75 6.79 1.99 13.64-.37 20.37-3.43 9.87-13.76 15.56-23.17 12.71-10.03-3.02-14.95-11.32-12.27-20.78 2.62-9.17 8.22-17.01 13.14-25.19 3.05-5.05 6.48-9.87 8.84-15.27.44-1.04 1.31-2.09-.19-3.37-3.74 4.3-7.41 8.53-11.15 12.77-6.41 7.2-12.77 14.51-20.24 20.84-4.98 4.24-10.71 7.08-17.75 5.63C9.4 131.4 3.17 118.23 9.4 108.13c3.55-5.8 9.09-9.34 15.69-11.67 11.15-3.95 22.48-7.26 33.94-10.39 1.56-.41 2.99-1.1 5.36-1.92-1.62-.64-3.43-.93-5.17-.81-9.84.46-19.56 1.86-29.33 3.08-5.67.75-11.4.64-17-.41C.63 83.64-1.8 73.31.5 65.82c3.24-10.51 13.83-15.85 25.04-12.71 6.73 1.86 12.64 5.34 18.56 8.71 7.66 4.41 15.69 8.01 24.29 12.13-2.8-5.51-7.1-8.59-11.4-11.84-3.74-2.84-7.47-5.57-11.27-8.36-5.42-3.95-10.28-8.47-13.45-14.22-6.04-11.09-.69-23.04 11.83-26.99 7.79-2.44 15.76.81 20.62 8.53 3.99 6.33 5.98 13.35 7.85 20.37 1.93 6.91 3.43 13.93 4.48 21.01.25.99.5 1.97.87 2.96a72 72 0 0 0 1.12-25.31c-1-8.01-1.87-15.96.37-23.91 2.06-7.26 6.23-12.94 14.76-14.34C105.63 0 115.66 9.63 113.48 20.2c-1.87 8.94-6.66 16.77-11.21 24.67-4.17 7.26-8.72 14.28-11.65 22.06-.25.64-.81 1.16-.37 2.03 1.49-.23 2.37-1.28 3.36-2.21 6.73-6.38 11.4-14.22 16.82-21.53 4.92-6.62 9.65-13.29 17.44-17.41 9.34-4.93 20.49-1.63 24.48 7.37.25.64.44 1.28.5 1.97v.64c.31 2.84.69 4.35-.12 8.59-.81 4.35-3.67 7.49-7.22 10.16-7.6 5.8-16.38 9.29-25.54 12.19-5.79 1.86-11.46 3.95-17.07 6.09-1.37.52-3.86.93-3.49 2.32.5 1.68 2.93.87 4.42.64 4.55-.7 9.03-1.45 13.52-2.44 8.47-1.86 17.13-2.61 25.72-2.96 10.96-.41 18.75 9.17 16.57 20.2-2.3 11.72-11.4 15.96-23.48 14.16-8.1-1.16-14.7-5.57-21.55-9.23-5.54-2.96-11.09-6.04-17.07-8.18-1.25-.46-2.49-1.1-4.11-.7 4.3 5.57 10.09 9.46 15.82 13.35 6.29 4.24 12.71 8.42 18.06 13.7 4.05 4 7.29 8.47 7.72 14.16.56 8.07-4.17 14.63-12.08 17.41s-16.44.7-21.74-5.63c-4.61-5.57-7.22-12.13-9.22-18.86-2.12-7.02-3.8-14.22-5.67-21.3-.44-1.68-.87-3.37-2.43-5.11-1.18 3.77-.19 7.31-.75 10.74"/></svg>