<svg xmlns="http://www.w3.org/2000/svg" viewBox="0 0 160 160"><path d="M158.1 62.12c-3.15-10.49-10.73-15.14-21.4-13.61-5.03.74-9.57 2.67-13.99 5.1-6.08 3.4-11.45 7.77-17.26 11.57-.88.68-1.88 1.19-2.99 1.47-.83.17-1.83.51-2.38-.34-.5-.68 0-1.59.39-2.27.88-1.59 2.27-2.78 3.54-4.03 8.35-8.39 15.26-17.81 20.02-28.81 3.65-8.39 1.99-17.52-4.76-22.51-4.31-3.18-9.18-5.44-14.32-6.63-5.92-1.47-10.4.79-13.99 5.27a39.2 39.2 0 0 0-6.64 12.48c-2.65 8.05-3.21 16.45-3.65 24.84 0 2.72.11 5.39-.06 8.05-.06 1.36-.77 2.89-2.21 3.12-1.55.23-1.71-1.47-2.21-2.55-.28-.62-.44-1.3-.55-1.98-1.11-6.07-2.65-12.08-4.54-17.98-2.1-6.8-5.25-12.99-10.9-17.47-5.64-4.48-14.27-5.1-20.35-1.36-2.99 1.87-5.97 3.8-8.85 5.78-9.73 6.75-11.61 17.98-4.59 27.62 3.32 4.59 7.85 7.88 12.22 11.34 4.2 3.35 9.02 5.61 13.27 8.9 1.38 1.02 2.71 2.15 3.87 3.46.55.57.72 1.36.44 2.1-.28.68-1 .62-1.6.68-1.16.11-2.32 0-3.43-.45-5.31-2.04-10.62-4.03-15.93-6.01-4.15-1.53-8.46-2.95-12.89-3.29-9.51-.74-19.8 8.11-21.29 18.26-.83 5.56.94 10.66 3.48 15.48 1.16 2.04 1.88 4.37 2.16 6.69.66 6.63 6.03 12.25 12.44 13.33 4.37.74 8.3-.74 12.11-2.55 6.53-3.01 12.44-7.15 18.58-10.89 1.6-1.02 3.32-1.98 5.25-2.15 2.05-.17 2.6.57 1.99 2.55-.61 2.1-2.27 3.4-3.71 4.82-4.92 4.93-9.9 9.7-13.05 16.16-2.49 5.1-3.82 10.38-3.26 16.1.77 8.05 7.02 13.95 15.71 14.69 1.38.11 2.77.45 4.09 1.08 10.62 4.71 21.07 0 24.78-11.17 2.38-7.2 2.27-14.63 1.83-22.12-.22-3.97-1-7.94-.72-11.97.11-1.25 0-3.06 1.55-3.29 1.77-.28 2.21 1.59 2.54 2.95 1.05 3.97 1.88 8.05 2.82 12.02 1.6 6.52 3.26 12.93 6.64 18.83 3.98 6.86 12.61 10.77 20.3 9.13 7.13-1.53 12.28-6.01 16.43-11.68 2.54-3.52 4.15-7.77 3.87-12.31-.5-7.15-3.43-13.33-8.85-17.92-5.42-4.65-11.39-8.56-17.42-12.31-.61-.34-1.16-.74-1.66-1.19-.39-.28-.55-.74-.44-1.19.17-.57.72-.62 1.22-.68 1.11 0 2.21.11 3.26.51 8.79 2.61 17.59 4.93 26.88 4.03 8.52-.85 16.48-7.32 18.75-15.65a39.87 39.87 0 0 0-.44-22.06h-.11ZM95.77 87.3c-.83 4.93-5.53 9.3-10.12 10.32-1.05.23-2.05.4-3.04.45-6.86.45-12.33-3.06-14.82-9.7-2.1-5.5-.88-11.06 4.42-16.56 2.49-2.61 5.25-3.91 8.3-3.8 1.83 0 3.76.62 5.86 1.7 3.15 1.7 5.31 4.37 7.08 7.43 1.27 2.21 2.27 4.48 2.38 6.92v1.08c0 .74 0 1.42-.11 2.15h.06Z"/></svg>