<svg xmlns="http://www.w3.org/2000/svg" viewBox="0 0 160 160"><path d="M144.09 55.82c-6.13-2.15-11.82-1.18-16.56 3.74-2.12 2.22-4.05 4.52-6 6.83-2.24 2.66-5.37 4.83-8.66 4.69-4.83-.2-7.38-6.07-5.22-10.49 3.18-6.52 8.46-9.37 15.99-8.51 2.83.35 5.7.11 8.43-.7 7.75-2.34 12.64-7.98 13.01-15.36.6-11.25-3.59-16.99-11.86-21.81-7.55-4.42-18.58-2.17-24.86 3.98-6.99 6.8-8.16 11.91-4.57 20 2.94 6.64.38 12.51-6.71 15.28-2.49.98-5.36 1.48-7.43-.16-2.34-1.85-1.98-5.17-1.09-7.46 2.05-4.99 3.86-10.09 6.4-14.91 2.69-5.07 4.67-10.54 3.59-16.3C97.08 6.79 91.53 2.75 83.87.63 74.56-1.86 63.92 3.21 61.5 12.25c-2.37 8.93-.14 17.37 4.18 25.42 1.9 3.53 4.48 6.63 6.8 9.89 1.4 1.93 1.88 4.3.58 6.45-1.2 1.98-3.45 1.77-5.61 1.98-2.52.23-3.39-1.73-5.09-2.54-6.22-2.91-6.78-7.49-5.57-12.48 3.18-13.17-3.49-21.91-14.35-25.96-.55-.21-1.1-.39-1.66-.55-10.04-2.79-20.39 3.31-23.11 13.63-4.64 16.54 8.97 27.14 21.95 25.02 7.81-1.22 14.3 2.03 17.45 8.92.08.15.16.31.22.47.89 2.24-.16 4.81-2.34 5.72-2.44 1.22-4.41 4.62-8.24 2.14-3.28-2.3-6.23-5.07-8.74-8.23-1.28-1.47-2.53-3.31-4.42-3.69-5.1-1.01-9.82-2.68-15.64-1.25-7.61 1.87-12.12 5.67-14.69 12.44a24 24 0 0 0 0 17.91c4.39 10.91 17.82 21.05 32.3 10.91 3.32-2.49 6.52-5.16 9.58-7.99 3.29-2.84 9.32-2.25 11.37 1.2 1.39 2.34.42 7.45-2.02 10.07-2.85 3.04-8.45 5.69-10.53 4.05s-4.23-.84-6.02-1.18c-12.42 0-20.91 6.42-22.35 17.17-.81 6.37.95 12 5.77 16.98 5.04 5.19 10.77 8.36 17.94 7.61 11.58-1.19 22.63-12 18.39-25.98-2.09-6.91.28-9.89 5.98-14.46 2.53-1.99 5.54-1.47 8.07-.08s2.62 3.86 2.41 6.38a9.02 9.02 0 0 1-2.56 5.12c-2.45 3-4.68 6.2-6.66 9.55-5.86 9.48-4.49 19.51 3.36 27.52 6.17 6.31 13.55 6.79 21.12 3.84 7.39-2.88 12.94-7.97 13.83-16.27.81-7.45-1.88-13.89-6.7-19.61-3.32-3.95-7.56-7.36-7.56-13.16-.02-3.04 1.56-5.15 4.61-5.25 9.85-.34 15.63 6.66 13.13 15.87-2.92 10.81.06 17.2 9.95 22.61 10.3 5.6 26.05.12 30.41-12.91 4.86-14.45-10.94-28.1-24.74-25.56-8.45 1.55-11.7.06-15.13-7.47-1.15-2.52-1.82-5.29.23-7.44s4.95-2.01 7.64-1.4c2.63.64 5.04 1.99 6.98 3.92 1.42 1.31 2.74 2.81 4.23 4.07 3.4 2.86 7.1 5.49 11.79 5.32 8.81-.31 16.1-3.64 19.45-12.04 5.62-14.05 1.79-27.8-13.46-33.12ZM115.2 38.64c0-5.35 2.11-9.38 4.97-9.34s7.36 5.69 7.18 9.03c-.16 2.85-4.3 6.14-7.61 6.14-2.76-.05-4.56-2.29-4.56-5.84l.02.02Zm-68.48 3.71c-.07.13-.14.25-.22.37-1.24 1.9-3.74 2.41-5.59 1.14-1.03-.65-2.19-1.12-3.16-1.84-3.55-2.67-4.59-5.5-3.18-8.34 1.31-2.66 5.04-4.85 7.36-4.32 3.23.74 6.07 4.54 6.07 8.35.18 1.59-.52 3.12-1.28 4.65ZM44.5 82.03c-5.12 1.73-10.26 3.48-15.51 4.76-3.54.86-8.41-2.98-8.51-6.14-.13-4.01 3.22-7.02 8.13-6.91 5.56 1.2 10.96 3.1 16.07 5.66 1.53.79 1.38 2.11-.18 2.64Zm4.29 38.66c-.04 4.57-3.3 8.25-7.2 8.09-3.29-.12-5.57-3.34-5.46-7.71.16-4.57 2.97-6.93 8.07-6.76 2.8.09 4.59 2.61 4.59 6.35v.02Zm24.45-94.3c-.47-2.98 1.84-5.66 4.85-6.38 3.08-.88 6.3.78 7.45 3.84.36 1.17.61 2.36.77 3.58-.53 4.56-2.25 8.89-4.98 12.54-1.12 1.59-2.75 2.38-3.97-.26a50 50 0 0 1-4.12-13.32M89.45 133.1c.42 2.71-1.8 5.13-4.12 6.12-1.88.89-4.04.93-5.96.13-4.78-2.02-4.19-5.38-3.68-8.79.72-4.71 2.61-9.16 5.48-12.91v-.02c4.4 4.03 7.32 9.48 8.27 15.46Zm-6.51-42.39c-6.18-.18-13.75-3.88-13.23-11.16-.06-6.32 6-13.77 11.22-13.82 6.64 0 12.45 6.37 12.56 13.83.08 6.01-4.69 11.34-10.55 11.15m39.32 24.52c3.58-.18 6.6 3.13 6.67 7.2 0 3.32-1.79 5.39-4.92 5.5-3.52.09-6.45-2.75-6.57-6.37-.1-2.87 2.48-6.25 4.82-6.33m20.61-34.25c-1.32 3.77-4.95 3.4-8.24 4.09l-.04-.05c-4.39-1.6-9.78-.87-13.39-5.01-1.08-1.25-1.39-1.96.06-2.77 3.7-2.06 7.17-4.63 11.49-5.38 2.43-.42 4.92-.36 6.86 1.31 2.36 2.03 4.46 4.37 3.26 7.8Z"/></svg>