<svg xmlns="http://www.w3.org/2000/svg" viewBox="0 0 160 160"><path d="M98.74 82.04c.07-10.23-7.6-18.62-17.19-18.55S61.94 71.37 62.37 82.7c.36 10.67 7.67 18.4 17.97 18.4h.28c10.09-.07 18.11-8.61 18.11-19.07Zm-28.48 21.79c1.49-2.87-.64-3.39-1.7-4.93-1.35-1.99-2.41-.59-3.41.22-3.98 3.31-7.96 6.55-11.79 10.01-7.96 7.14-15.49 14.65-20.67 24.37-1.42 2.65-2.77 5.23-2.49 8.32l.07-.07c.28 4.78 6.25 12.07 10.87 13.47 1.28.44 1.7-.22 2.13-1.18 1.07-2.21 2.13-4.56 3.41-6.77 8.03-14.36 16.12-28.71 23.58-43.43Zm86.02-13.1c-17.47-1.18-34.67-4.34-52.07-6.18-4.83-.52-3.55 2.8-4.69 4.78-1.35 2.5-.07 3.61 2.06 4.56 11.51 5.3 22.87 11.04 34.88 15.31 3.69 1.33 7.53 2.28 11.44 2.65v.07c3.34 0 6.39-1.99 7.81-5.15 1.99-3.9 2.2-8.17 3.13-12.29.57-2.8-.14-3.61-2.56-3.75m2.77-12.3c-.07-.52-.21-.96-.43-1.4-2.2-6.4-6.32-8.69-15.63-8.54v.07c-2.91-.37-6.25.52-9.66.81-10.3.88-20.6 2.5-30.69 4.86-1.85.44-3.13 1.03-2.27 3.02.92 2.06-1.07 5.74 3.27 6.11 15.84 1.4 31.68 3.02 47.52 4.49 9.38.88 9.87.22 7.88-9.42ZM62.44 93.08c-.14-4.93-3.05-7.51-7.88-6.7-11.51 1.99-23.23 2.87-34.81 4.27-5.4.66-10.8 1.1-16.2 1.77-1.28.15-3.13 0-2.63 2.43.71 3.61 1.21 7.29 2.27 10.75 1.56 5.08 4.19 6.7 9.52 6.63l.07-.15c1.7-.07 3.41-.29 5.04-.66 14.92-4.34 28.91-11.12 43.33-16.86.64-.29 1.28-.44 1.28-1.47Zm-43.9-23.04h.06-.07ZM3.63 89.99c.71-.15 1.42-.07 2.13-.15 17.33-1.99 34.67-3.9 52-5.82 1.63-.15 2.56-.66 2.2-2.36-.36-1.69 2.06-4.27-1.35-5.08q-4.155-.99-8.31-1.77c-11.29-1.99-22.51-4.05-31.75-4.78C2.91 69.98-.14 73.15 0 86.53c0 2.87.85 4.05 3.62 3.46ZM55.27 160h-.07zm21.52-55.87c-1.7-.15-3.55-2.8-5.11.29-8.74 16.93-17.19 34.01-26.71 50.5-.57 1.03-.71 1.77.5 2.28 3.04 1.32 6.08 2.64 9.75 2.79 4.18-.74 7.44-3.31 10.07-6.99 3.41-4.79 5.33-10.31 6.68-16.05 2.27-9.64 4.33-19.29 6.39-28.93.28-1.47 1.21-3.68-1.56-3.9Zm4.98-65.3.07.07c0 7.07.14 13.1-.07 19.07-.07 2.5 1.21 2.5 2.91 2.94 1.99.52 2.34-.29 2.91-1.91 3.62-9.86 6.39-19.95 9.23-30.04 1.78-6.48 3.34-13.03 3.48-19.8.07-4.56-1.7-6.92-5.9-8.47-3.13-1.18-6.39-.37-9.52-.66-2.06-.22-2.56.66-2.56 2.72.21 12.37-.99 24.73-.57 36.07Zm-7.11 22.75c2.13-.88 5.82.74 5.61-4.05-.21-5.67 0-11.26 0-16.93l-.07.07h-.57V3.93c0-1.03.5-2.28-.92-2.87C78 .77 77.29.54 76.51.4c-5.33-.88-10.3 2.87-11.15 8.39-.5 3.02-.64 6.04-.64 9.13.36 14.06 4.05 27.46 7.39 41 .28 1.1-.14 3.75 2.56 2.65Zm29.84-3.61c-2.49 2.58-4.83 5.3-7.32 7.95-2.63 2.8.99 3.9 1.56 5.82.64 2.21 1.85.44 2.7-.07 5.97-3.46 12-6.92 17.9-10.45 7.6-4.64 15.56-8.83 21.81-15.53 2.49-2.65 4.62-5.59 4.62-9.57h-.07c.07-4.42-2.84-7.36-5.11-10.6-1.49-2.21-2.63-2.36-4.62-.29-10.37 10.97-20.96 21.86-31.47 32.76Zm-15.49 3.9c.85 2.36 5.75 3.75 7.46 1.99 4.69-4.93 9.31-9.79 13.92-14.72 8.03-8.69 16.05-17.3 24.08-25.99.71-.74 2.06-1.62.99-2.72-2.7-2.87-5.26-6.04-9.52-6.48l-.07.07c-1.49 0-2.84.59-3.91 1.62-2.34 2.21-4.9 4.27-6.96 6.77-9.73 11.85-17.69 25.03-25.79 38.13-.28.37-.36.88-.21 1.33Zm4.69 41.67c-.92-1.25-1.49-3.53-4.05-2.06-2.2 1.25-4.4 2.13-3.55 5.37 2.7 10.23 4.47 20.76 7.81 30.77 1.99 5.89 4.19 11.7 8.6 16.27 1.63 1.69 3.41 3.02 6.54 3.02v.07c4.19-.59 8.45-2.87 12.64-5.59 1.21-.81.64-1.55.14-2.43-8.95-15.46-17.69-30.99-28.13-45.42m35.38 25.98c-2.49-4.71-5.75-8.69-9.16-12.59-6.46-7.29-12.93-14.58-20.53-20.69-1.28-1.03-2.63-1.91-3.48 0-.78 1.55-4.05 1.99-1.99 4.86 10.02 13.91 19.11 28.49 28.06 43.21 2.98 4.86 4.62 4.86 7.74 0 1.21-1.84 2.06-3.83 1.92-5.52h.07c.07-3.83-1.21-6.55-2.63-9.28ZM21.94 51.07c11.79 8.17 24.08 15.46 36.87 21.79.92.44 2.2 2.06 2.7-.15s4.55-3.31 1.7-6.4c-2.84-3.09-5.82-6.04-8.67-9.2-8.88-9.86-18.11-19.29-27.35-28.78-1.76-1.61-3.53-3.14-5.43-4.53-.49.43-.97.86-1.39 1.3-1.63 2.06-3.41 4.12-4.83 6.33-3.55 5.3-3.13 10.16.99 15.02 1.56 1.77 3.41 3.31 5.4 4.64Zm-.21-27.31s.03.02.04.03c.01 0 .02-.02.03-.03zM63.42 64.1c2.63 2.87 3.76.22 5.54-.66 2.2-1.18.92-2.58.21-3.9-5.26-9.28-11.51-17.89-17.55-26.65-3.48-5.08-7.17-10.01-11.79-14.13-1.78-1.62-3.55-3.17-6.04-3.17-3.2-.07-5.4 1.91-7.67 3.61-1.7 1.25-1.99 2.28-.35 4.05C38.41 36.8 50.99 50.34 63.42 64.11Z"/></svg>