<svg xmlns="http://www.w3.org/2000/svg" viewBox="0 0 160 160"><path d="M152.4 84.2c-2.7-2.8.2-4.6 2.2-6.2 9.6-7.5 5.2-20.3-5.4-24.1-9.7-3.9-20.9-2.2-30.4 1.5-3.1 1.3-6 3-8.9 4.7-1 .5-3.5 1.9-4.2 1.2-.1-.2 0-.5 0-.8 1.1-2.4 5.7-5.9 7.9-8.1 8.6-7.9 18.1-17.5 17-30-.4-5.1-3.5-10.4-8.6-11.8-3.6-1.3-7.8 1.2-11.2.4-1.4-.5-2.1-1.5-3.1-3-1.7-2.8-3.6-5.8-6.6-7.2-9.7-4-19.6 7.5-22.1 16.3-1.4 4.3-1.1 8.9-1.3 13.4-.2 4-.5 7.9-.5 12.1 0 2.8-.2 4.1-.6 5.8-.2.7-.4 2.4-1.3 2.3-1-1.3-1.2-3.9-2.1-6.6-3.4-10.1-6.2-21-13.1-29.3C55.2 9 45.8 5.1 38.8 7.1c-4.9 1.3-7.2 6.4-8.3 11-.9 3.7-3.2 4.9-6.8 5.3-6.8.4-11.4 5.7-12.1 12.2-.4 5.8 2.8 11.3 6.5 15.5C24 57.6 31.9 62.3 40 65.6c1.9.9 9.2 3.4 6.7 4.9-2.4 1-8.4-.2-11.6-.4-6.6-.7-13.3-.2-19.6 1.7C9.6 73.5 3.7 77 1.6 83c-2.9 7.3-2.6 18.2 5.6 21.8 3.4 1.6 3.7 3.4 2.4 6.7-4.4 12.3 4.1 19.7 16.2 17.2 9.5-1.7 17.6-8 24-15 2.1-2 6-7.2 7.8-7.5.2 0 .2.3.1.5-.2 1.1-1.8 3.9-3.1 6.3-2.9 5.2-5.3 10.8-6.5 16.6-1.7 7.9-1.1 17.9 5.2 24 2.8 2.5 6.9 2.7 10.5 4 12.2 6.3 19.7-2.2 22.8-13.7.9-3.5 1.2-6.8 3.6-3.2 2.2 3.5 4.4 7.7 7.9 10.3 7 5.7 17.5 3.8 23.4-2.7 6.3-6.6 8.6-16.7 5.5-25.3-2.8-7.5-9.5-12.8-15.1-18.3-1.2-1.2-8.7-7.8-2.6-5.8 12.2 5 26 12.8 39.3 7.6 10.1-3.9 12-15 4.1-22.3h-.1Zm-66.2 4.1c-3.6 3.7-12.2 4-15.5-.8-3.8-5.8.9-14.6 7.3-15.5 9-1.5 14.4 9.8 8.3 16.1h-.1Z"/></svg>