<?xml version="1.0" encoding="UTF-8"?>
<svg id="Layer_1" xmlns="http://www.w3.org/2000/svg" version="1.1" viewBox="0 0 160 160">
  <!-- Generator: Adobe Illustrator 30.0.0, SVG Export Plug-In . SVG Version: 2.1.1 Build 123)  -->
  <path d="M161,91.5h0s.2-.1.2-.1c-.8-3.6-2.9-6.3-5.9-8.5-5.5-4-12-5.6-18.9-6-5.1-.3-10.2.2-15.3.9-4.8.6-9.6,1.4-14.4,2.3-2.6.5-5.2,1-7.9,1.5h0c-.4-.1-.2-.4-.2-.6,0-.6-.5-1.3,0-1.7.4-.3,1.3-.2,1.9-.3,3.5-.2,7-.6,10.4-1.2,5.8-.8,11.5-1.7,17.2-2.8,5.5-1.1,10.8-2.5,15.8-4.9,4.4-2.2,8.4-4.9,11.2-8.8,2.4-3.4,3.7-7.1,3.1-11.1-.7-4.7-3.6-8-8.3-10-4.4-1.8-8.9-1.6-13.5-.6-5.3,1.2-9.7,3.8-14,6.9-5.8,4.1-11,9-16.2,13.8-3.8,3.5-7.3,7.1-10.7,10.8-.2.2-.3.6-.7.2-.6-.7-1.1-1.3-1.7-2,3.3-2.4,6.5-4.8,9.7-7.4,4.4-3.5,8.5-7.3,12.4-11.2,4.3-4.2,8.3-8.7,11.2-13.9,3-5.3,4.7-10.9,3.1-16.8-1.2-4.6-4.1-8-9.1-9.5-4.1-1.2-8-.4-11.7,1.4-5.1,2.5-8.6,6.4-11.6,10.8-3.6,5.3-5.7,11.1-7.4,17-2.4,8.3-4,16.8-4.8,25.4-.6-.2-1.3-.3-2-.5-.7,0-.7-.2-.6-.8,1.5-6.1,3.2-12.2,4.8-18.3,1.6-5.9,3.3-11.8,3.8-17.9.4-4.5.4-8.9-1-13.2-1.4-4.5-3.6-8.5-7.5-11.5-2.9-2.2-6.2-3-9.9-1.8-7.8,2.7-13.1,9.7-13.4,17.7-.2,5,.6,10,2.2,14.7,3.4,10.4,7.8,20.4,12,30.4s.6,1.4-.7,2c-1.6-4.5-3.3-9.1-5.2-13.5-3.2-7.4-6.3-14.9-10.5-22-2.6-4.5-5.6-8.8-10.2-11.9-3.4-2.3-7-3.9-11.4-3.4-5.3.7-9.5,3.2-12.2,7.4-3,4.9-3,10.1-1.2,15.4,2.2,6.6,6.8,11.5,12.7,15.6h0c5.8,4.2,12.1,7.7,18.3,11.4,4,2.4,8.1,4.5,12.2,6.8-.3.5-.6,1-.9,1.4-.2.3-.3.3-.6.1-5.5-4-11.2-7.7-17.1-11.1-6.7-3.9-13.4-7.6-21.2-9.5-4.4-1.1-8.8-1.8-13.4-1-5.8,1-9.8,5.2-10.3,10.9-.4,4.9,1.6,9.1,5.2,12.6,3.9,3.8,8.8,6,14.3,7,3.9.6,7.8,1.1,11.7,1.2,6.2.2,12.5,0,18.7-.5,3.3-.2,6.6-.5,9.9-1,.3,0,.5,0,.5.3,0,.6.1,1.3.2,1.9-1.6,0-3.2.2-4.8.2-4.6,0-9.2.2-13.9.4-5,.3-10,.9-14.9,1.8-5.6,1-11,2.6-16,5.4-4.2,2.3-7.8,5.3-9.6,9.5-1.8,4-2.2,8.2.4,12,3.8,5.5,9.5,8,16.5,7.9,4,0,7.8-1.2,11.4-2.8,4.8-2.1,9-5.1,13.1-8.1,7.6-5.7,14.3-12.4,21.3-18.7.5.5,1,1,1.6,1.5.4.3.2.5,0,.7-4.2,3.1-8.4,6.3-12.3,9.7-4.9,4.3-9.9,8.4-14.2,13.3-3.1,3.5-6,7.2-7.9,11.4-2.1,4.4-3,8.9-2.1,13.8,1.4,7,8.6,11.6,16.5,9.2,6-1.9,10.5-5.5,14.2-10.1,3.3-4.2,5.3-9,7-13.9,3.1-9.1,4.7-18.6,6.4-28,.1-.5,0-1.2.2-1.5.4-.4,1,.1,1.6.2.4,0,.7.1,1,.2-.5,1.8-1,3.7-1.5,5.5-2.4,9.3-5.1,18.5-5.9,28-.4,4.7-.4,9.3.9,13.9,1.3,4.6,3.5,8.7,7.7,11.6,3.3,2.4,7.1,3.5,11.3,2.5,4.4-1,7.3-3.7,9.4-7.3,3.2-5.1,3.3-10.7,2.7-16.4-.5-4.5-2-8.7-3.7-12.8-2.7-6.7-6.1-13.2-9.3-19.8-1.1-1.9-2-4-2.8-6l2.1-.8c3.1,7.9,6.7,15.7,10.5,23.2,3.2,6.2,6.8,12.3,11.9,17.4,3.6,3.6,7.8,6.5,13,7.9,3.8,1,7.5.8,10.8-1.5,5.6-3.8,7.1-9.1,6.3-15.2-.5-3.5-2.1-6.6-4.2-9.5-4.2-5.7-9.7-10-15.9-13.8-7.8-4.8-16.1-8.8-24.3-12.9-.5-.3-1.1-.5-1.6-.8.3-.5.6-.9.9-1.3.2-.2.4-.5.5-.8l6.2,3.7c7.6,4.5,15.1,9,23.3,12.3,6.1,2.5,12.4,4.3,19.2,3.7,5-.5,9.3-2.1,12.5-5.7,3-3.5,4.3-7.4,3.3-11.8Z"/>
</svg>