<svg xmlns="http://www.w3.org/2000/svg" viewBox="0 0 160 160"><path d="M75.95 25.24V4.08c0-2.05 0-4.3 3.17-4.06 5.75.43 6.29.78 6.34 4.52.19 13.35-.33 26.7.44 40.04 0 .54-.12 1.09-.07 1.62.07.87-1.27 2.43.63 2.5 1.54.06 3.18 2.02 4.77-.51 7.4-11.76 14.81-23.5 20.49-36.26.62-1.39.95-3.53 2.93-3.42 2.5.14 4.53 1.74 6.43 3.32.76.62 0 1.41-.37 2.03a151.4 151.4 0 0 0-9.54 22.21c-1.66 4.73-4.47 8.82-7.49 12.79a40 40 0 0 0-2.76 4.34c-.63 1.1-1.5 2.38.15 3.34 1.27.75 2.36 2.28 4.21.87 10.64-7.96 22.04-14.7 33.36-21.56.55-.33 1-.87 1.55-1.15 1.38-.8 2.21-3.35 4.08-2.34 2.08 1.12 3.17 3.47 3.9 5.77.54 1.74-1.07 2.47-2.12 3.25-7.21 5.41-14.43 10.77-21.64 16.09-4.35 3.27-8.72 6.59-13.24 9.65-1.66 1.15-1.73 2.12-1.09 3.9s1.53 1.74 3.13 1.53c6.87-.97 13.8-1.35 20.73-1.13 5.65.23 11.32.41 16.94-.38 2.28-.32 4.5.18 6.75.15 3.01 0 2.06 2.99 2.29 4.84.19 1.51.22 3.26-2.04 3.47-12.49 1.28-24.97 2.6-37.46 3.85-2.06.21-4.44.65-6.18-.14-3.61-1.64-2.87 1.28-3.52 2.86-.95 2.32.65 2.6 2.26 3.16 5.9 1.77 11.55 4.33 16.81 7.64 7.05 4.47 14.54 8.15 22.34 10.96 2.78 1.05 2.95 2.34 1.92 4.55-.54 1.17-1.25 2.26-1.81 3.42-.83 1.74-2.11 1.91-3.71 1.2-13.32-5.89-27.11-10.7-39.89-17.85-1.41-.78-2.2-1.09-3.33.49-.97 1.36-1.61 2.08-.25 3.73 9.72 11.81 17.86 24.79 26.39 37.49.83 1.2.66 1.74-.37 2.6-4.56 3.9-4.56 3.96-8.5-.62-9.16-10.61-17.29-22-25.56-33.3-1.52-2.07-2.81-1.74-4.46-1.2-1.96.63-1.27 2.21-.91 3.52 2.74 9.7 3.49 19.77 5.44 29.61.94 4.75 3.15 9.16 3.46 14.11.1 1.64-.12 2.6-1.72 3.02-1.53.42-3.09.74-4.66.95-1.47.15-2.8-.36-2.93-2.17-.66-9.04-3.92-17.45-6-26.14-1.21-5.14-2.09-10.36-2.64-15.62-.27-2.51-1.71-2.04-3.26-2.32-2.09-.37-2.36.87-2.5 2.34-1.44 14.16-6.82 27.4-9.27 41.33-.52 2.97-2.81 3.65-7.04 2.49-2.68-.73-1.87-2.43-1.47-4.34 1.39-6.55 4.24-12.74 4.94-19.43.72-7.98 2.08-15.88 4.05-23.63.42-1.54-.34-2.18-1.61-2.6-1.02-.33-2.06-1.61-2.98.09-4.9 9.11-13.2 15.23-19.65 22.99a75 75 0 0 0-8.32 11.87c-1.19 2.16-2.56 2.73-4.58 1.21-.52-.39-1.07-.71-1.61-1.08-3.49-2.34-3.55-2.6-1.15-5.99 8.2-11.48 16.57-22.83 25.42-33.81 1.25-1.55 2.87-3.16.64-5.29-.78-.75-1.19-1.15-2.36-.5-13.09 7.31-28 9.95-41.31 16.67-3.17 1.6-4-.8-4.99-2.6-1.12-2.02-1.66-4.27 1.33-5.47 13.57-5.37 25.7-14 39.74-18.23 2.87-.87 2.5-2.37 2.41-4.43-.16-2.6-2.02-1.56-3.27-1.56-11.29-.51-22.39-2.6-33.56-4.16-2.73-.37-5.49-.66-8.23-.87-1.66-.1-3.07-.53-3.45-2.24-.43-2-1.07-4.61.47-5.87 1.27-1.02 3.71-.87 5.59-.74 5.64.48 11.25.92 16.92.87 8.09.01 16.17.77 24.14 2.26 1.35.23 2.7.72 2.91-1.16.17-1.6 2.29-3.16-.5-4.93-10.82-6.83-20.67-14.91-30.35-23.25a44 44 0 0 1-3.55-3.31c-3.11-3.32-2.31-7.14 1.81-9.12.87-.5 1.96-.26 2.56.56 6.76 7.61 15.67 12.15 24.02 17.54 3.78 2.42 7.37 5.15 10.75 8.14 2.38 2.13 3.33-.31 4.82-1.11 1.66-.91 1.01-2.27.17-3.26-8.02-9.55-11.35-21.35-15.67-32.71-.92-2.41-1.86-4.83-2.83-7.22-.79-1.94-.11-3.11 1.76-3.73.2-.07.38-.19.58-.27 5.1-2.15 4.99-2.08 7.26 3.26a268.5 268.5 0 0 0 16.47 32.18 13 13 0 0 1 1.42 2.54c.68 2.24 1.66 2.86 4.2 2.37s2.26-1.99 2.26-3.66v-20.2z"/></svg>