<svg xmlns="http://www.w3.org/2000/svg" viewBox="0 0 160 160"><path d="M158.9 66.9c-8.3-7-17.2-12.1-29-9.8-3.7.8-7 2.6-11.6 3.5 3.9-4.7 7.4-8.6 10.6-12.7 6-7.8 7.1-16.7 6.1-26-.2-2.1-1.1-4.1-3.8-3.9-11.6.9-22.1 4.1-29.6 13.6-3.6 4.5-6.9 9.3-10.2 14.1 3.4-7 3.8-14.3 2.7-21.8-1.1-7.8-4.8-15-10.6-20.2-3-2.8-6.2-2.8-8.9.3-5.3 6.1-9.1 12.9-10.2 20.8-.9 6.4 0 12.6 1.9 18.8-4.1-5-8.3-9.7-12.7-14.4-6.4-6.8-14.2-11.2-24-11.6-1.6 0-3 0-3.4 1.9-1.8 9-2.4 17.8 2.5 26.2 3.2 5.6 8.3 9.6 12.8 14.1s1.2.8 1.2.8l.6.7s-.1 0-.2.1c-.3.2-.7 0-.9-.3-.6 0-1.2-.2-1.5-.7-7.2-2.4-15-3-22.5-1.7-6.4 1.2-12.2 3.5-17 7.9-1.3 1.2-1.6 2.2-.6 4 6.1 10.7 15 17.5 27.8 19.6 2.1.3 4.5.1 6.7 1.5l-1.5.9c-13.9 4.7-21.5 14.6-24.3 28.2-1 4.8 0 6.1 4.7 7.5 13 3.7 24.4.5 34.6-7.8 2.2-1.8 3.8-4.1 7-5.6-1.3 2.9-2.1 5.4-3.3 7.7-6 11.6-5.1 23 1.4 34.2 2.1 3.6 3 3.9 6.6 1.8 9.3-5.4 15.5-13.2 19.3-23 1.3-3.4 1.3-7 2-10.5.9 2.2 1.7 4.5 2.2 6.8 3.6 12.8 11.9 21.1 24.9 25.2 3.2 1 4.6 0 5.5-2.7 3.3-9.6 4.2-19.2 1.1-29-1.2-3.8-3.4-7.2-5-10.8.8-.3 1.7 0 2.3.6 9.2 7 19.6 9.9 31.3 9 6.8-.5 9.2-3.4 7.1-9.7-1.7-4.5-3.7-8.8-6.2-12.8-2.4-4.1-5.9-7.4-10.1-9.5-2.4-1.2-5.1-1.9-7.2-4.2 5 0 9.5-.2 13.8-2 7.7-3.2 12.6-9.7 18.1-15.3 1.2-1.2 1-2.7-.3-3.8ZM107 80c-2.9 1.6-6.1 2.6-9.3 3-1.4.2-2.9.3-3.3 1.8-.4 1.4 1 2.1 1.9 2.8 3.5 2.7 6.8 5.9 9.6 9.3-5.5 1.3-9.5-1-13.7-3-.7-.3-1.5-1.2-2.3-.6-.7.6-.4 1.6-.3 2.4.8 3.9 1.6 7.8 2.4 11.8.2 1 .8 2.2-.6 2.8s-2.3-.4-3.1-1.3c-2.9-3.7-5.2-7.7-7-12-.3-.8-.2-2.2-1.5-2.2-1.4 0-1.3 1.5-1.6 2.5-.9 3.6-1.4 7.4-3.2 10.9-.4.8-.7 2-2 1.8-1 0-1-1.1-1.4-1.8-1.9-3.9-1.2-7.9-1.1-11.9 0-1 .7-2.3-.4-3-1.3-.8-1.9.7-2.7 1.3-2.9 2-5.2 4.7-8.8 5.7-.8.2-1.5.9-2.3 0s-.5-1.7 0-2.6c2.5-3.7 5.3-7.1 8.4-10.3.6-.6 1.7-1 1.3-2s-1.6-1-2.6-1c-4.3.2-8.6-.7-12.4-2.7-1.2-.6-3-.9-2.7-2.5.2-1.2 1.8-1.9 3.1-2.3 4.7-1.4 9.7-1.5 14.5-.2-1.9-3.9-4.8-6.7-7.1-9.8-1.3-1.7-2.3-3.6-2.9-5.7-.4-.9-.2-1.9.6-2.5.8-.7 1.7-.1 2.4.2 3.8 1.8 7.4 4.3 10.4 7.2.9.9 1.6 2.5 3.1 2.2s1.4-2 1.8-3.3c1.2-4.3 2.5-8.6 3.8-13 .3-1 .5-2.4 1.8-2.3 1.2 0 1.6 1.5 1.8 2.4 1 4.5.3 8.9.4 13.4 0 1.3-.7 2.9.6 3.6 1.5.8 2.2-1 3.2-1.8 3-2.4 5.9-4.9 8.9-7.4.9-.8 2-1.4 3.2-1.6 2.3-.3 3.4.6 2.3 2.8-1.8 3.8-4.6 7-6.9 10.4-1.8 2.8-1.5 3.8 2 3.9 3.4.2 6.9 0 10.3.2 1.5 0 3.3.2 3.6 1.8.3 1.4-1.5 1.7-2.5 2.3Z"/><path d="M77.7 73.1c-4.3-.1-7.3 2.9-7.4 7.8-.2 5.5 2.7 8.7 8 8.8 5 .1 9.7-3.7 9.8-8.1.1-4.5-4.6-8.3-10.4-8.5m0 0"/></svg>