<svg xmlns="http://www.w3.org/2000/svg" viewBox="0 0 160 160"><path d="M140.76 62.46c-6.6-.05-12.55 1.87-18.27 4.62-5.43 2.64-10.74 5.28-16.46 7.31-2.45.88-4.85 1.98-7.53 1.87-3.56-.16-4.5-1.76-2.63-4.62.93-1.37 2.22-2.58 3.68-3.46 2.63-1.59 5.37-2.91 8.23-3.96 5.84-2.25 11.97-4.07 17.51-7.04 11.21-5.99 18.33-14.62 18.04-27.26-.18-7.2-2.92-13.74-10.57-16.54-4.32-1.59-8.58-2.47-10.74-6.82-.12-.22-.41-.38-.64-.55-9.17-6.76-28.49-6.93-35.26 8.3a48.5 48.5 0 0 0-3.97 17.81c-.23 6.32-.12 12.64.47 18.91v3.35c-.23 3.63-.53 7.26-2.16 10.66-.41.93-.82 2.14-1.87 2.25-1.23.11-1.75-1.21-2.34-2.09a18.14 18.14 0 0 1-2.92-8.19c-.7-7.75 0-15.56-1.63-23.25-1.63-7.42-4.26-14.18-10.51-19.29-9.11-7.48-25.98-4.45-30.59 5.66-.7 1.76-2.22 3.13-4.09 3.74-5.2 2.03-9.75 5-12.08 10.06-3.5 7.48-2.16 14.62 2.45 21.33 5.25 7.59 13.25 11.1 22.36 12.86 6.48 1.26 13.19 2.03 19.21 4.89 2.45 1.21 5.08 2.47 4.79 5.55-.23 2.03-2.92 2.91-7.18 2.75-7.18-.33-13.95-2.58-20.55-4.62s-13.19-2.36-19.85.11C3.63 81.25-6.06 97.41 4.57 110.16c1.58 1.81 2.28 4.18 2.04 6.54-.58 11.43 10.98 20.94 22.88 19.13 7.3-1.1 12.84-4.78 17.51-9.95 4.2-4.73 7.01-10.22 10.04-15.61 2.63-4.62 5.2-9.4 8.87-13.41 1.11-1.21 2.16-2.86 4.26-2.03 2.1.82 1.52 2.8 1.4 4.34-.35 4.12-2.69 7.53-4.96 10.88-5.25 7.75-10.22 15.5-12.26 24.79s.82 17.26 8.17 22.1c5.55 3.63 14.71 4.18 19.15.82 1.87-1.37 3.44-1.43 5.6-.88 4.03 1.1 8.35.99 12.32-.27 15.12-5 20.55-22.87 10.68-35.45-4.9-6.27-11.03-11.54-16.29-17.53-2.45-2.8-4.32-5.83-4.55-9.56-.06-.99.12-1.81.99-2.36.88-.55 1.63 0 2.39.38 3.5 1.76 6.07 4.51 8.58 7.31 4.55 5.11 8.52 10.72 13.95 15.06 5.31 4.29 11.33 7.04 18.51 6.6 10.8-.66 17.4-6.65 19.85-16 1.69-6.43 2.86-13.03 5.43-19.29.18-.44.29-.88.35-1.32 1.75-11.27-6.83-21.99-18.74-21.99ZM38.13 101.37c-.18-.27-.29-.49-.41-.77l26.45-11.98.35.77c-8.43 6.93-17.28 8.63-26.39 11.98m15.59-49.52c5.37 6.49 11.5 12.48 15.94 19.73-5.72-6.27-12.04-8.15-15.94-19.73m25.74 44.47c2.74 10 4.5 20.12 4.61 30.51-4.61-7.54-3.56-20.28-4.61-30.51m8.29-27.49c4.51-17.84 13.21-24.86 21.19-32.87-6.13 11.49-14.65 21.6-21.19 32.87m32.05 21.44c-4.46 1.34-7.5 3.77-26.85-5.61l.23-.93 26.8 5.5-.23 1.04h.06Z"/></svg>