<svg xmlns="http://www.w3.org/2000/svg" viewBox="0 0 160 160"><path d="M70.9 69.2C66.7 56.5 57.7 45.1 58.8 31c-1.6-26.9 43.1-45.5 32.7-15.8C84.8 26.5 76.6 37.4 75 50.7c-1 10-1.6 21.4 2.8 30.6 6.7-11.9 1.1-27.4 5.6-40.4 5.5-19.3 24.9-15.7 20.6 4.9-1.3 21.5-30.7 35.8-22 58.1 10.4-10.9 11-29 23-39 10-9.7 21.9-3.8 14.8 9.8C113.5 92.6 79.3 99.5 84 120c10-10.7 17.6-25.2 33.8-27.5 11-2.1 12.4 8.8 4.4 14.1-3 1.9-6.2 3.6-9.5 4.9-7.5 3-16.5 3.3-22.4 9.4-4.5 2-6.9 21-.6 11.5 4.7-6.6 10.8-11.4 19-13.3 4.9-1.7 13.3 1.8 8.4 7.5-14 12.5-37.8.9-24.7 31 .4.9.7 1.8-.6 2.4-2.8 1.4-3.3-2.2-3.9-4.1-2.7-25.7-28.1 7.1-35.1-11-.1-9.4 14.5-8.6 21.2-7 2.4 0 11 5.3 10.3.4-8.4-18.5-32.8 2.8-45.3-10.4-10-9.8 6.7-19.2 15.7-14.4 9.7 2.9 17.4 10.7 27 13.3.6-4.7-3-8.5-6.2-11.5-11-10.7-29.5-3.5-40.4-13.8C29 93.9 40 90 46.2 91.8c13 2.5 23.8 8.6 32.6 18.3 1.1-18.9-27.9-16.3-33.6-31.2-1.2-3.8 1.1-6.6 5.2-6.4 12 1.1 15.7 16.4 25.4 21.3-.4-25-23.5-22.3-37.1-34.3-8.1-5.7-8.9-25 5-19.6 11.8 6.8 15.6 22 26.6 30 .2-.2.5-.3.7-.4Z"/></svg>