<svg xmlns="http://www.w3.org/2000/svg" viewBox="0 0 160 160"><path d="M71.1 38.4c5.3-7.2-1-18.2-.4-26.6-.8-8.9 9.1-18 12.8-6.4C85.2 21.5 73 35.4 73 51.5c.5 5.7-1.6 13.3 2.1 18 5.5-12.7 2.3-28.7 9.6-41.1 6.7-12 16.3-9.7 12.7 4.4-4.3 16-21.2 30.2-16.8 47.6 10.5-8.1 10.3-27.4 20.1-37.5 7.7-9.4 18.1-4.1 13.6 7.6-6.7 20.7-40.2 32.1-32.8 57.1 2.7-1.3 3.2-4.6 4.6-7.1 3.9-8.8 9-17.1 15.1-24.5 3.2-4.6 15.7-13.8 17.1-3.7-3.3 22.6-38.1 22.9-32.2 58 6.4-6.1 5.7-17.5 12.3-24.1 4.5-6.1 14.1-4.9 12 3.5-4.1 16.1-34.2 20.4-16.8 45.8 2.2 2.5-.4 3.5-2.4 4.4-8.4-7.2-3-25.1-20.9-18-20.5 3.2-18.1-23.5 8.3-7.6 7.6 5.4 3.7-11.1-15.8-14.2C41 117 32.7 84.4 55.6 99.7c7.8 6.5 12.7 16.5 21.8 21.6 2.8 1.4 2.5-2.4 1.8-4-5.2-16.2-24.3-22.1-32-36.7-4.4-7.6-6.2-15.7-4.5-24.3.9-5.2 5.3-13 11.1-7.6 12.9 12.6 7.1 36 20.8 47.9 3.9-20.3-13.7-41-16.1-61.2-1.5-5.5 3.7-15.6 8.9-8.2 1.7 3.8 2.8 7.1 3.8 11.3Z"/></svg>