<svg xmlns="http://www.w3.org/2000/svg" viewBox="0 0 160 160"><path d="M68.6 133.2c3.6-.4 13.8 2.3 15.4-1.1.4-2.2-2.1-2.8-3.8-3.5-9.4-4.5-19.9-4.9-30.1-6.4-13-1-31-5.3-32.2-20.8-.4-7.4 4.2-12.6 11.9-12.8 10.8 0 20.4 6.5 27.8 13.6 3.4 2.2 26.4 29.1 26.4 18-16.2-24.5-45.9-39.5-57-68-8.6-13.3-.4-40.2 17.9-26.8C56.6 36.8 61 53.5 65.5 68.6c4.7 13.7 7.2 34.6 18.7 43.9 3.8-.6-5-22.3-5-26.6C76 61.8 60.9 31 70 7.8 82.3-11 105.1 6.7 99.4 25.3c-7 26.4-12.7 53.1-9.9 80.5 0 1.8 0 3.9 2.2 5.9 3.2-10.2 5-20.3 8.2-30.5 19.8-60.4 66.2-34.9 26.4 2.4-9.1 9.3-34.1 25.4-32.1 39.3 2.8-.9 4.1-3.7 5.9-5.9 4.3-5.8 9.4-10.9 15.3-15.1 7.9-7 28.9-9.8 23.7 6.4-7.5 14.6-28.2 12.9-40.3 22-4.2 6.2 23 0 26.9 3 9.9 1.8 12.5 14.6 2.2 19-25 12.5-36.8-13.5-49.7-3.7-40.5 33.8-64.3-19.7-9.7-15.6Z"/></svg>