<svg xmlns="http://www.w3.org/2000/svg" viewBox="0 0 160 160"><path d="M75.7 134.5c1.5-27.6-4.9-51.1-28.1-68C26.5 52.7 13.9 26.3 34.7 6.7 40.8 1.4 48-1 56 .4c16.5 3.1 19.2 22.8 17.8 36.7-1.5 13.2.1 26 3.5 38.8 1.7 6.2 2.7 12.6 3.1 19 0 .7.4 1.3.9 1.7 4.3-26.3-1.8-55.4 14.2-78.6 11.1-15.9 27-19.5 44.1-14.6 1.3.4 2.4.9 1.4 2.7-5.7 9.8-7.6 20.8-10.6 31.5-4.6 18.7-21 29.6-31.9 44.3-9.6 14.7-15.8 31.5-17.4 49 1.4-1.3 1.6-3 2.1-4.4 5.9-17.4 20.8-29.2 29.2-45.2 8.6-18.6 38.8-32 45-5.3 2.5 24.9-22.3 39.8-42.6 46.9-14 5.5-31.3 14.6-31.8 31.7 0 .6 0 1.3-.2 1.9-.3 1.1.3 2.7-.8 3.2-1.9.5-6.6 2-5.9-1.4-1.4-37-45.6-4.2-57.2-51.4-1.6-5.8-3.1-11.5-5.4-17.1-3.3-9.7-15.8-12.6-8.2-15.3 23-11.8 43.1 1.2 51.6 25C62 112 71 122 75.8 134.7ZM96 124c12.9-10.8 28.2-19.8 35.6-35.6.4-.8 1.4-1.6.4-2.9-2.8 3.4-4.6 7.4-7.1 10.8-7.7 11.3-20.8 16.8-29.4 27.1-1.5.6-.2 2.1.5.6m-6.6-35.9c6.3-23.3 13.1-46.6 27.1-66.6C100.2 40.8 93.6 64 89.3 88.1Zm-17.5-8.3c-8.5-17.2-17.5-34.1-20.5-53.3 1.1 20 10.4 36.8 20.5 53.3M33.6 95.1c7.6 15.5 19.3 27.2 33.6 36.4-5.4-6.3-12.6-10.7-18.3-16.6-5.8-6-9.1-14.1-15.3-19.8"/></svg>