<svg xmlns="http://www.w3.org/2000/svg" viewBox="0 0 160 160"><path d="M86.9 76.7c1.7.4 2.3-.8 3.1-1.6 11.1-11 24.4-17.7 39.8-20.4 9.9-2.4 26.2 2.1 14.9 13.9-14.1 13.3-35.5 10.7-53.3 14.7-7.4 1.1-13 4.4-15.7 11.7-.6 3.1-4.6 7.2-1.9 10 3.5 1.3 6.3-4.4 9.3-5.8 5-3.5 10.8-4.5 16.6-5.8 8.1-3 46 3 30.9 15.7-21.7 18-59.4-12.7-69.2 13.8-1.8 13.5 15.9-12.8 43.7 1 3.4 1.4 13.8 4.9 7.5 9.1-10.8 7.9-23 8.6-35.5 6.1-24.4-6.9-20-6.2-29.3 17.7-.6 2-1.2 4-3.8 3.2s-2.5-2.9-1.6-5.1q3.6-9.3 5.4-19.2c-.8-6.9-10.1-11.1-14.8-15.8-13.6-11-21.4-27.9-21.1-45.2 4.3-18.4 32.4 22.6 32.6 30.3 1.6 6.6 2.3 13.4 5.5 19.6.9 2.1 2.3 2.7 3.8.6 14.9-18.5-17.5-40.8-18.9-61.4-1.9-6.5-5.7-48.8 8.2-30.4 10.9 13.9 16.4 29.7 18 47.2 1 6-.5 17 4 21.2 8.2-9.2 7.6-23.2 5-34.9C47-15.2 91.4-24.3 82.7 56.3c-4.8 20.9 8.7-6.1 10-11.7 4-16.8 13.9-32.9 29.8-40.9 14.5-5.6 5.5 20.1 2.3 25.8-4.1 8.8-9.8 16.8-17.3 23-7.9 7-16.6 14.6-20.7 24.3Z"/></svg>