<svg xmlns="http://www.w3.org/2000/svg" viewBox="0 0 160 160"><path d="M60.4 48.8c-.8 14.1 2 24.4 11.7 33.7 1.1 1 1.8.2 2.3-.6 8-20.1-9.6-46.2 13.6-62.1 17.3-8.8 5.9 31.6 2.1 37.9-5.5 13.1-9.4 27.9-4.5 41.8C96.2 130 97.3 78.8 98.9 70.8c1.9-12.5 10.3-22.9 14.6-34.7 4.4-12 9.8-6.2 11 3.4 9.2 43-47.3 63.2-11.5 108.6 3.1 3.7 1.4 9.4-4.1 7.8-30.4-17.4-43 1.1-71.8 4.3-5.5.8-32-4.4-22.8-12.6 16-3.9 30.5-15 47.7-11.3 8.3.9 16.2 4.8 24.6 3.8 6.6-1.6-1.5-8.9-4.9-9.6-15.2-5.9-31.4-4.6-47.4-4.8-13 .6-35.2-18.7-15.8-27.1 17.7-4.4 29.9 12.6 45.2 17.3 13.9 3.8 12.4-10.6 3.9-16.6-15.2-12.7-41.5-5.7-51.3-26.1-4.5-5.8-4.7-25 6.4-19 8.4 5.4 10.8 17.5 20.8 20.6 4.8 1.8 8.4-3.9 5.7-7.6C38.2 49 14.8 41.4 8.5 19.8 7 14.8-1.5-3.7 10.2.9c23.3 7.5 16.5 34.6 33.2 46.9 4.9 3.2-.9-18-.6-20.7-1.5-5.4 4.9-11.8 9.7-7.2 6.6 7.7 7.9 19 7.9 28.8Z"/><path d="M153.9 43c2 28-22.1 47.9-27.2 74.3-1.6 3.2-2.5 28.1 2.3 25.2 2.7-8.2 4.2-16.7 8.3-24.5 2.9-3 12.2-35.8 16.6-25.2 7.1 19.4-3.5 36.9-16.5 50.8-4.1 3.5-3.5 21.9-11.1 11.8-16.6-24.5-13.4-51 2.4-74.8 9-16.4 7.1-34.6 6.8-52.5.2-7.5 2.6-14.8 8.8-19.6 8.6-6.3 8.9 29.6 9.6 34.5"/></svg>