<svg xmlns="http://www.w3.org/2000/svg" viewBox="0 0 160 160"><path d="M93.2 45.7c-.5-11.2-3.8-25.1.8-36.4 5.6-12.8 25.5-12.6 26.1 4 1.7 14.4-17.1 32.6-14.3 44 5.8 6.4 14.2-11.4 15.6-16 3.3-10.5 16.6-16.8 21.2-4.9 4.1 14.5-4.6 31.2-18.8 36.2-8.6 3.9-19 4.5-26 11.5-4.9 3.8-6.1 14.6 2.3 13.9 6.8-.5 9.9-7.1 14.9-10.7 8.1-6.4 19.2-.3 21.3 8 4.5 18.7-18.6 32.5-34.2 22.8-6-3.6-19.4-6.5-19.6 3.9 3 11 18.4 5.7 26.1 11.3 10.5 5.1 7.6 21.2-3.1 24.5-16.2 7.2-25.6-2-34-14.9-11.8-10.1-12.6 13.4-18.2 9.5-2.6-2.6 2.4-13.2 3.7-16.6 3.9-7.1-15.1 8.3-33.4-2.3-12.9-6.5-7.6-29.6 7.5-27.9 7.8.4 12.7 7.6 20.7 7.6 3.3.1 6.7-4.2 6-7.4-1-6.4-7.4-7.9-12.7-9.4-11.4-2.3-17.8-14.6-13.6-25.5 1.4-6.7 7.5-12.2 14.6-12.2 8.4.3 7.3 10.9 11.1 16.3 14.4 22.5 28 2.1 7.8-11.9-18.1-10.9-.2-35.3 12.4-25.4 4.2 3.6 5.3 9.4 7.2 14.4C90 65 93.9 55.2 93.3 46Z"/></svg>