<svg xmlns="http://www.w3.org/2000/svg" viewBox="0 0 160 160"><path d="M77.3 124.8c3.7-24.9 9.4-50.7 1-75.2-3.4-10.1-8.9-19.8-8.3-30.8-1.1-15.9 22.4-28.6 28.5-8.2 1.8 7.3 1.5 14.6.3 21.8-4.8 29.1-11.5 57.6-16 86.8 10.4-25.2 20.9-51.8 22.9-79.4 1.4-8.2 1.4-17.1 5.6-24.5 5-9.1 19.1-6.1 20.4 4 1.6 12.9-5.4 25-12.1 35.3-15.4 23.5-28.1 49.4-35.4 76.5l.8.4c17.8-23.7 27.9-52 41.9-77.9 3.9-8.1 18.4-10.3 19 1.2-3 35.9-43.8 51.7-57 82.4l.7.6c15.3-14.3 26.9-34 47.1-42 9.2-4.8 26.3-2.2 21.1 11.6-9.3 16.3-40.2 23-56.2 33.5-19.4 8.2-16.2 30.1-31.9 12.4-12.1-9.6-27.9-1.3-41.5-5.2-23.9-11.2-4.7-49.9 41.2-10.9-3.1-28.3-39.1-31.4-57.1-47.5C-8.2 75.4 1.9 35.1 27.7 58.9c18.9 19.4 28.2 46.9 45.4 67-3.6-22.5-8.6-46.1-25.3-62.7-4.4-4.7-8.1-10.3-11.7-15.6-4.9-8.2-8.7-19.7-3.5-28.7 5.3-8.4 16.2-8.7 21.7-.4 10 19.6 10.8 42.8 16.4 63.9 3.3 14 3.9 28.4 5.8 42.5h.8Z"/></svg>