<svg xmlns="http://www.w3.org/2000/svg" viewBox="0 0 160 160"><path d="M95.7 28.9c-.3 2.8 0 10.9 3.3 5.5C106.4 24.5 95.2 0 112.9.2c18.4 9-14 32.1-10.9 37.8 6.2-.9 9.6-13.4 18-14.5 11.6-.1 2.7 13.6-2.9 16.5-7.7 6.1-18.6 8.7-24.4 17.1-1.4 1.6-2.5 6.2 1.1 5.2 7-3.3 12.3-10.5 20.9-9.7 9.5.6 4.5 10.7-1.3 12.9-8.8 5.1-21 3.4-28.4 11-1.5 1.4-3 5 .3 4.9 8.9-2 16.1-10.3 25.9-8.9 12.1 3.4-4.8 12.2-10.1 12.7-9.5 2.6-26.3 3.1-25.8 16.4 2.5 4.6 7.8-3.4 10.6-4.8 4.8-4.6 22.9-11.6 21.8.1-6.4 13.2-24.9 8.8-34.6 17.7-5.4 2.9-6.8 16.8 1.3 8.6 3.8-5.9 24.7-18 23.2-3.7-3.1 11-15.9 11.3-24.9 14.4-4 .5-7.6 10.9-1.4 8 4-3.8 18.8-13.6 19.1-2.8-2.1 10.2-18.1 8.5-19.5 18.7-.1 1.5-.6 1.8-2.2 2-15.7 1.1 6.4-10.1-21.2-17.4-18.8-10.5-8.6-28.7 13-3.7 1.6 1 3 .4 3.2-1.5-.5-7.6-8.8-11.6-14.6-15-24.9-9.7-14.3-39.9 4.3-13.3 3.3 3.7 4 11.5 9.3 12.5 4-3.8-.2-10.7-2.9-14.3-5.1-6.3-11.7-11.6-15.3-18.9-6.6-10.8 2.9-23.9 12.9-12 5.6 6.9 3 17.3 8.9 24 1.5 1.5 2.9 1.4 4.1-.3 8.5-15.1-13-24.9-14.6-39-3.1-11 8.1-15 12.9-4.7 3.9 6.7 3 15 6.9 21.6 2.6 3.5 4.1-1.8 3.7-4.1.1-9-4.4-17.1-7.1-25.5C65 23.6 87.4 20.7 84 59.9c4 7.5 7.9-14.7 5.9-17.3-1.3-7.5-4.9-14.2-6.6-21.5-1.1-14.8 14.1-8.4 12.6 7.6Z"/></svg>