<svg xmlns="http://www.w3.org/2000/svg" viewBox="0 0 160 160"><path d="M72.1 130.1c-1.6-40.1-49-38-44.9-83.1.3-5.2 3.7-7.2 8.6-5.4 26.3 10.1 21.5 38.7 36.4 55.2.9-31.4-13-62.4 9.4-90.4 16-18.5 21.7 5.6 19.9 19.6-.5 27-22.6 47-20.7 74.6 7.6-5.1 10-15.2 13.7-23.2 4.8-12.1 11.7-22.7 21.9-31 15.7-11.1 16.8 4 13.2 16.2-5.1 30.1-45.6 34.6-46.1 65.6-.3 7.6 9-7.4 10.5-8.8 9.8-12.7 22.6-21.1 38.1-25 4.2-1.2 11.7-3.4 11.5 3.4-1.6 15.8-16.4 26.3-29.9 32.1-14.3 5.1-30.6 10.7-33.3 27.9-.4 3.3-5.1 3.2-5.6 0-3.7-24.7-38.1-18.9-56.9-47.5-6.8-12.7 14.9-12.2 22.1-9 14.9 4.6 20.3 20.4 32.1 28.8"/></svg>