<svg xmlns="http://www.w3.org/2000/svg" viewBox="0 0 160 160"><path d="M81.5 82.1c1.9-4.6 2-8.8 1.9-13-1.5-27.4 15-62 47.1-57.1 11.4 2.7-1.7 38.4-8.5 43.9-5.4 6.8-12.7 11.1-20.1 15.2-24 11.4-21 39.2-21 61.8 8-12.9 8.2-29.3 19.1-40.6 10.4-12.1 26.8-18.5 42.4-13.7 5.5 2.2 1.7 10.6 1 14.9-12.9 46.8-57.4 25.6-61 55.2-1.4 3.2 1.5 11.9-3.5 11.4-1.9-.2-3.8.2-3.7-2.9.2-5.2-.4-10.3-1-15.5-1.4-16.1-17.5-18-29.8-22.5C24 110.8 13.6 89.7 15 68.4c.2-4 .8-4.6 4.8-5 39.5-3.7 46.1 30.4 54.1 61.1 6.3-65.9-7-47.5-40.7-87.7C24.1 26.2 17.4 1.2 37.9 0c25.8-.8 38.5 26.8 38.2 49.3-1.2 11.3-.7 22.8 5.4 32.8"/></svg>