<svg xmlns="http://www.w3.org/2000/svg" viewBox="0 0 302.47 379.61"><defs><style>.cls-1{fill:#c9912c;}</style></defs><g id="Layer_2" data-name="Layer 2"><g id="Layer_1-2" data-name="Layer 1"><path class="cls-1" d="M164.32,119.44c-.14,7.85-1.56,15.56-2.43,23.33A269.16,269.16,0,0,1,154.81,180c-.48,1.89-.81,3.84-1.47,5.68A52.12,52.12,0,0,0,154.53,225a105.31,105.31,0,0,0,12,20.9c.64.88,1.1,2.35,2.59,1.88,1.23-.4.85-1.78,1.07-2.73,3.08-13.29,6.24-26.55,9.14-39.87a218.86,218.86,0,0,0,4.35-30.81c.89-12.37,2.73-24.6,4.79-36.83,1.82-10.79,2.64-21.73,4.19-32.57,1.36-9.49,3.53-18.66,10.82-25.82,11.51-11.32,21.36-9.8,28.64,4.65,5.81,11.52,7,24,6.81,36.53-.33,21-4.6,41-14.48,59.82-7.86,15-17.13,29.1-24.65,44.24-6.92,13.95-13.2,28.12-15.81,43.55s-2.51,30.37,6.09,44.25c2.66,4.3,4.57,9,7.74,13.09,1.62,2.05,2.52,1.63,3.53-.25,1.25-2.31,1.62-4.95,2.55-7.36,7.65-19.69,12.69-40.23,19.59-60.16,6.09-17.6,11.88-35.27,20.58-51.82,8.2-15.59,18.37-29.67,31.66-41.35,4.5-4,9.94-5.13,15.66-4.78,6.31.39,10.21,5.23,10.75,11.74,2.17,26.15-6.55,48.92-19.85,70.94C271,261,256.87,277.07,241.78,292.62c-16,16.49-23.55,36.56-24,59.42a33,33,0,0,0,2.69,13.28c2.07,5,1.15,8.36-3.16,11.6a13.27,13.27,0,0,1-18.17-2.07c-13.48-15.27-29.54-26.75-49.51-31.68-10.88-2.69-22.21-2.65-33.38-2.41-28.89.62-55.14-7.84-79.86-22.16C27.88,313.66,19.89,308.11,14,300c-4.62-6.37-7.51-13.07-3.1-21a15.59,15.59,0,0,1,11.43-8,98.28,98.28,0,0,1,22.14-2c24.42,1.06,45.43,10,63.28,26.7,11.15,10.42,22.61,20.5,36.46,27.3,9.13,4.49,19.16,6.53,28.6,10.21,1.31.51,2.85,2.81,4.36,1.05s0-3.71-.66-5.51a154.45,154.45,0,0,0-15-29.49c-8.22-12.55-19.46-21.13-32.88-27.27-18.68-8.54-36-19.61-54.09-29.29S39.2,222.32,23.19,209.55C12.74,201.21,5.94,190.3,1.3,177.79-3,166.28,3.57,157.7,15.9,157.26c8.65-.3,16.27,3.22,24,6.27,13.08,5.15,23.69,13.87,33.76,23.4,14.64,13.87,25.07,30.93,36,47.57,8.24,12.51,18.51,22.35,32.93,27.27,1.18.41,2.48,1.56,3.58.59.94-.82.09-2.27-.12-3.34-3.51-18.12-10.76-34.83-20.09-50.58-7.92-13.37-18.75-24.63-28.4-36.73-18-22.6-36.57-44.82-53.75-68.09C33.82,90.07,26.18,75.31,24.6,58.1c-.68-7.37,0-14.35,5.48-20.06,4.8-5,10.77-6.14,17.07-3.17C60,40.92,69.05,51,76.72,62.52c11.93,18,19.13,38.11,26.56,58.13,5.35,14.39,10.29,28.93,15.78,43.26,3.13,8.19,8.51,15.08,14.47,22.55a97.58,97.58,0,0,0,.89-27.84,176.85,176.85,0,0,0-10.23-44.46A215.38,215.38,0,0,1,111.37,25.8c.36-6,.56-12.23,3.81-17.81C120.09-.45,128.31-2.38,136.38,3c9.12,6.13,14.19,15.17,17.81,25,5.7,15.56,7.86,31.83,8.57,48.31-1.24,1.34-.69,3-.68,4.49,0,2.72,1,5.39,1.16,8,.43,8.8.26,17.63.38,26.45C163.64,116.72,163.16,118.23,164.32,119.44Z"/></g></g></svg>