<svg xmlns="http://www.w3.org/2000/svg" viewBox="0 0 243.97 252.02"><defs><style>.cls-1{fill:#1b144c;}</style></defs><g id="Layer_2" data-name="Layer 2"><g id="Layer_1-2" data-name="Layer 1"><path class="cls-1" d="M115.15,211.68c-.14-19.75.41-39.49-6.54-58.5-7.4-20.29-21.23-35.34-37.67-48.52-10.24-8.22-20.72-16.2-28-27.48-14.22-22-11.14-49.89,7.71-66.57,9.56-8.47,21-12.25,33.63-9.94C99.92,3.52,106.8,15.11,110.5,29.24a79.54,79.54,0,0,1,1.78,29.25c-2.37,20.8.2,40.95,5.45,61a153.53,153.53,0,0,1,4.91,29.88,3.31,3.31,0,0,0,1.47,2.63c.78-7.1,1.38-14.22,2.38-21.28,2.1-14.9.2-29.95,1.89-44.88,2.31-20.4,6-40.31,18.07-57.59,17.4-25,42.46-30.64,69.28-22.93,2,.57,3.8,1.47,2.18,4.22-9,15.35-12,32.74-16.76,49.54-4.85,17.05-14.77,31.1-26.92,43.68-8.09,8.38-16.65,16.38-23.23,26.05-13,19.12-20.66,40.5-25.41,63-1,4.51-2.43,9-2,14.12,2.28-2,2.46-4.7,3.28-7,5.25-14.75,13.75-27.51,23.91-39.23,8.52-9.83,15.36-20.78,22-31.89,6.9-11.51,14.85-22.11,27.64-27.86a49.42,49.42,0,0,1,16.26-4c14.92-1.29,25.41,12.17,26.83,23.52,2.19,17.46-5.08,31.23-16.35,43.58-13.86,15.19-32.08,23.09-50.74,30.14-13,4.9-25,11.15-35.49,20.45-8.91,7.91-14.17,17.35-14.5,29.38a10.76,10.76,0,0,1-.34,3c-.55,1.69.51,4.3-1.31,5a21,21,0,0,1-7.83,1c-1.78,0-1.47-2-1.42-3.23.16-3.71-.71-7.27-1.53-10.82-2.82-12.3-11-18.6-23.11-20.71-9-1.56-18-3-26.77-5.32-22.52-6-32.85-23.15-38.66-44C23,158.87,20.65,149.8,17,141.07c-3-7-7.75-12.3-13.49-16.91-4.67-3.75-4.78-4.59.62-7.13,27.4-12.9,54.84-8.34,71.9,20.7a196.33,196.33,0,0,1,9.36,18.55c4.58,10.13,9.5,20,16.07,29C107.3,193.37,111,202.59,115.15,211.68Zm31.95-16.57c9.33-7.44,18.55-15,28-22.27a98.39,98.39,0,0,0,28-33.75c.63-1.23,2.12-2.58.7-4.55-4.36,5.4-7.23,11.6-11.19,17-8.51,11.69-20.12,20.08-31.32,28.91-5.29,4.18-11.12,7.85-14.93,13.67-.85.26-1.4,1.08-.94,1.64C146.2,196.69,146.65,195.64,147.1,195.11Zm-10.3-56.52c5.83-18.06,9.82-36.57,16.33-54.38,6.59-18,16.41-34.27,26.39-50.48C153.87,64.09,143.45,100.65,136.8,138.59Zm-27.49-13C96,98.57,81.72,72,77.05,41.65,78.79,73.11,93.46,99.58,109.31,125.56Zm-60.39,24c11.91,24.38,30.35,42.76,52.93,57.3-8.56-9.85-19.77-16.81-28.84-26.12C63.8,171.3,58.64,158.67,48.92,149.6Z"/></g></g></svg>