<svg xmlns="http://www.w3.org/2000/svg" viewBox="0 0 258.71 455.62"><defs><style>.cls-1{fill:#338a55;}</style></defs><g id="Layer_2" data-name="Layer 2"><g id="Layer_1-2" data-name="Layer 1"><path class="cls-1" d="M115.75,234.88c1.21-5.11,2.72-10.17,3.56-15.33,6.91-42.11,4.63-84-2.82-125.87a144.17,144.17,0,0,1,.75-55.38c2.19-10.32,5.61-20.23,13.55-28.06,8.46-8.36,18.63-12.55,30.54-8.93,12.59,3.83,18.4,13.79,18.86,25.58.35,9.26-.55,19.11-3.58,27.85-6.51,18.83-14.19,37.35-22.43,55.57A282.14,282.14,0,0,0,130.76,194a61,61,0,0,0-.28,13.09c.42,4.14,3.71,5.18,6.49,2.1a48,48,0,0,0,6.19-9.33c8.56-15.63,13.51-32.5,18.25-49.45,6.31-22.55,13.61-44.85,28.87-63.52A100.9,100.9,0,0,1,211.59,67.6c5.47-3.7,12.76-5.83,19.51-6.73,15.09-2,25.73,6.78,27.36,21.45,1.16,10.45-1.93,20-7.14,29.07-7.11,12.36-17.35,22-29,30.42-7.58,5.49-15.34,10.74-23,16.07-17.32,12-32.29,26-42.95,44-7.83,13.18-16,26.21-23.36,39.61a90.1,90.1,0,0,0-7.23,18.84c-1,3.47,2.17,5.38,5,3.11,3.72-3,7.42-6.39,9.85-10.33,6.61-10.73,12.77-21.72,18.69-32.81,6.94-13,14.93-25.21,26.22-35.2,8.42-7.45,17.95-13,29.13-15.66,16.87-4,28.63,5.25,27.9,21.9-.48,11.08-5.58,20.39-13.75,27.62a153.86,153.86,0,0,1-25.85,19c-17.24,9.74-35.22,18.29-52.83,27.43-4,2.08-8.35,4-11.53,7a81.24,81.24,0,0,0-12.47,14.78c-2.7,4.19-5.26,10.15-1,14.05,4.12,3.74,9.64.17,13.46-2.37,13.24-8.84,26.06-18.27,39.11-27.38,10.5-7.33,20.79-15,31.75-21.62a45.38,45.38,0,0,1,25.11-6.55c14.75.45,24.09,11.36,21.26,25.25-2.21,10.85-8.89,18.91-18.26,25-10.06,6.56-21.43,10.16-33.16,12.51-14.79,3-29.73,5.2-44.51,8.18A72.7,72.7,0,0,0,143,319.66c-8,3.81-13.05,10.22-13.64,19.11-.42,6.36,2.22,8.23,8.15,5.57,7.63-3.44,14.8-7.89,22.58-10.92,13.31-5.17,26.75-10.18,40.49-14.09a46.08,46.08,0,0,1,29,1.3c12.89,4.88,20.3,16.86,18.48,29.8-1.67,11.86-11.5,20.78-25.06,22.44a50.61,50.61,0,0,1-24.85-3c-7.16-2.78-14.26-5.75-21.5-8.34-9-3.22-18.33-5.24-27.88-2.94a30,30,0,0,0-11.14,5.22c-4.79,3.73-3.85,8.87-2,14s5.78,6.67,10.73,6.18c9.44-.92,18.82-2.94,28.26-3.12a79.56,79.56,0,0,1,23.8,2.83c11.29,3.37,17,12.58,15.81,22.38-1.09,9.1-8.84,15.88-20.28,17.72-12.82,2.06-24.35-1.46-35.28-7.52-4-2.18-7.7-4.77-11.83-6.59-4-1.76-6,0-4.93,4.27,2.7,11.16,5.93,22.19,8.37,33.39,1.24,5.72-1.23,7.93-7.31,8.29-4.28.25-6.45-1.32-6.77-5.69a170.68,170.68,0,0,0-2.4-21.07c-3-14.91-9.67-18-23.9-11.73-5.42,2.4-10.55,5.72-16.22,7.19-6.64,1.73-13.93,3.37-20.55,2.46-15.91-2.19-25.65-15.93-23.4-30.9C51.86,381.93,65.21,372,81.3,373.63c7.93.79,15.68,3.43,23.43,5.53,3.69,1,7.07,3.13,10.79,4,2.4.55,6.24.62,7.47-.73,1.38-1.52,1.35-5.14.57-7.41-2.76-7.95-9.46-12.85-17.07-15.53-8.82-3.12-18.22-4.77-27.46-6.71-10.62-2.23-21.51-3.45-31.95-6.26-12.66-3.4-24.15-9.43-33.1-19C3.33,316.18-2.12,303,.76,287.56c3.16-16.91,18-24.21,32.85-14.91,10.13,6.32,18.65,15.22,27.2,23.61,10.07,9.88,19.2,20.63,29.12,30.65a60.17,60.17,0,0,0,13.25,9.91c3,1.7,8,3.42,10.45,2.15,4.53-2.39,2.2-7.57.53-11-3.73-7.56-7.37-15.51-12.89-21.82-7.62-8.72-16.79-16.24-25.58-24-10.6-9.35-22.28-17.69-32.11-27.72-19.35-19.74-31-43.2-32.54-70.66-.48-8.81.3-17.53,4.63-25.63,7.39-13.82,21.29-16.47,32.77-5.55,4.65,4.41,8.36,10,11.5,15.56,9.84,17.47,12.55,37,17.31,56a337.93,337.93,0,0,0,13.08,41.5c2.64,6.71,8.27,12.37,12.74,18.37.66.88,3,1.73,3.55,1.33,1.11-.87,2.27-2.64,2.12-3.9-1.24-10-2-20.19-4.4-30-6.14-24.9-12.24-49.87-20-74.33-4.25-13.41-12-25.78-17.88-38.75-4.73-10.47-10-20.89-13.06-31.83-1.74-6.09-.9-13.55,1-19.77,4.78-15.58,20.45-19.27,33.07-8.28a44.53,44.53,0,0,1,14.67,24.15c2.9,13.48,5.36,27.19,6.24,40.9,1,15.46-.07,31-.06,46.54,0,9.78.14,19.57.55,29.34.23,5.3.85,10.66,4.12,15.17Z"/></g></g></svg>