<svg xmlns="http://www.w3.org/2000/svg" viewBox="0 0 205.13 252.07"><defs><style>.cls-1{fill:#ef4136;}</style></defs><g id="Layer_2" data-name="Layer 2"><g id="Layer_1-2" data-name="Layer 1"><path class="cls-1" d="M105,129.32c3.06-7.28,3.21-13.87,3-20.49a119.51,119.51,0,0,1,10.31-52.41c8.38-18.85,22.11-32.34,43-36.85a64.12,64.12,0,0,1,20.84-.73c3.84.45,5.64,2.31,6,6,2.19,23.72-4.66,44.64-19.38,63.17-8.5,10.7-20,17.47-31.65,23.93-16.18,9-27.46,21.62-30.62,40.2-2.23,13.12-2.66,26.46-2.52,39.79.06,5.33,0,10.65,0,17.35a93.85,93.85,0,0,0,10.13-23.15c4.21-14.81,9.41-29.16,19.94-40.84,12.37-13.72,27.38-22.75,46.15-24a64,64,0,0,1,20.71,2.47c2.93.79,4.05,2.41,4.21,5.28.36,6.25-.9,12.25-2.67,18.14q-13.38,44.7-58.73,55.93c-5.46,1.37-10.87,3-16.24,4.72-12.78,4.08-19.74,12.93-21.07,26.23a135.11,135.11,0,0,0-1.1,13.89c0,3.44-1.27,4.37-4.41,4-2.94-.33-6,.32-5.88-4.5.29-8.15-.6-16.23-1.6-24.35-1.87-15.24-11.1-23.48-24.69-28.2-7.37-2.56-15.05-4.1-22.27-7.19C21.93,177.31,8.34,158.14,2,133,0,124.65-.21,116.2.15,107.7c.27-6.33,1.29-7.29,7.61-7.85,35-3.15,61.53,14.79,72.32,49.55,4,12.82,6.79,26,10.2,39,.58,2.19,1.51,4.27,2.74,7.68,1.78-6.52,1.19-11.84,1.45-17,.77-15.26,1.73-30.56-1-45.78-2.84-15.6-11.13-27.58-23.79-36.71C54.3,85.53,40,73.43,28.83,58c-7-9.69-12.15-20.14-14-32.13C12.71,11.87,22.07.18,36.28,0,55.85-.24,70.73,8.65,81.56,24.6s14.42,34,14.89,53c.22,9.13-2.11,18.23-.29,27.35A88.26,88.26,0,0,0,105,129.32Z"/></g></g></svg>