<svg xmlns="http://www.w3.org/2000/svg" viewBox="0 0 251.23 333.68"><defs><style>.cls-1{fill:#ebb833;}</style></defs><g id="Layer_2" data-name="Layer 2"><g id="Layer_1-2" data-name="Layer 1"><path class="cls-1" d="M159.69,158.79c-1.3-20.61-1.12-41.15,2.69-61.55,2-10.69,4.9-21.24,11.45-30.2a52.12,52.12,0,0,1,13.89-13.49c11.28-7.06,24-3.36,30.54,8,6,10.43,6,21.58,2.25,32.4A195.7,195.7,0,0,1,208,121.71c-10.36,19.53-22.38,38.47-27,60.19-2.89,13.46-4.21,27.29-5.27,41-.41,5.16,1.69,10.56,3.09,15.74.36,1.33,2.82,3.36,3.57,3.1a7.72,7.72,0,0,0,4.17-3.77,29,29,0,0,0,1.83-7.86c2-14.72,3.33-29.52,5.91-44.14a90.36,90.36,0,0,1,7.65-24,40,40,0,0,1,12.54-14.49c11.5-8,25.26-4.4,32.36,7.45,4.81,8.05,5,16.74,3.64,25.57-2.33,14.62-9,27.59-16.87,40.09-4.91,7.79-9.91,15.53-14.53,23.48A43.41,43.41,0,0,0,213,268.31c.41,9.15-4.84,13.61-13.78,11.08-18.23-5.15-32.46,1.17-44.68,13.33-6.33,6.3-11.65,13.51-17.61,20.16-9.14,10.19-19.69,18.48-34.14,20.37A42,42,0,0,1,89.28,333c-20-4-25.87-22.17-12-36.68a53.4,53.4,0,0,1,25-14.55c8.1-2.22,16.38-3.85,24.53-5.92,5.08-1.29,10.32-2.44,15-4.59,3.17-1.46,7.77-4.56,7.76-6.91,0-4.4-5.39-4.65-9.13-4.63-7.35,0-14.87-.16-22,1.28-9.24,1.87-18.17,5.16-27.19,8-10.77,3.39-21.68,5.79-33.12,5-9.07-.62-17.16-3.55-23.84-9.55-6.12-5.5-8.81-12.32-6.59-20.18,2.12-7.51,7.91-11.45,15.65-13.49,9.32-2.46,18.14-.2,27,1.72,18.16,3.9,36.26,8.06,54.45,11.86a38.2,38.2,0,0,0,11.5.43c3.64-.38,4.86-3.22,2.51-5.84a42.3,42.3,0,0,0-9.54-7.79c-16.48-9.86-34.92-13.85-53.94-16-11.87-1.32-23.78-2.38-35.58-4.16a55.42,55.42,0,0,1-28.15-13c-11.73-10-15-25-7.93-35.48S26.81,148,40.57,155.07c9.44,4.85,17.53,12.2,26,18.74,12.82,9.95,25.34,20.27,38.18,30.21,2.67,2.07,6.07,3.37,9.29,4.65a4.22,4.22,0,0,0,3.75-.69c.65-.75.57-2.67,0-3.67a82,82,0,0,0-5.59-8.55A322.5,322.5,0,0,0,67,146.38c-10.28-9.21-20.33-18.68-30-28.44-9.08-9.13-16.76-19.45-18.89-32.17a52.49,52.49,0,0,1,.4-20.9C22,50.93,35.1,45.38,49,50.83c8.12,3.2,13.94,9,18.8,15.75,9.28,12.88,15.8,27.05,20.8,41.87C92.81,121,96.1,133.81,101,146.05c5.3,13.15,11.93,25.82,18.2,38.6a31.56,31.56,0,0,0,5.53,7.36c1,1.1,2.9,1.49,4.39,2.21.81-1.68,2.42-3.41,2.28-5a99,99,0,0,0-2.31-14C122.9,148,110.47,123,98.38,97.92,91.43,83.48,85.67,68.66,83.17,52.83,81.61,43,81.91,33.11,86.23,24a52.14,52.14,0,0,1,11-15.75c13.41-12.43,31-10.62,41.88,3.89,8.43,11.28,13.15,24.19,12.52,38a404.46,404.46,0,0,1-5.22,49.22c-4.49,26.14-7,52.21-2.84,78.54a186.19,186.19,0,0,0,4.72,21.76,50.82,50.82,0,0,0,5.63,11.91c.89,1.5,3.15,2.25,4.78,3.33,1.14-1.85,3-3.61,3.26-5.57a58.07,58.07,0,0,0,0-11.11C161.27,185.06,160.46,171.93,159.69,158.79Z"/></g></g></svg>