<svg xmlns="http://www.w3.org/2000/svg" viewBox="0 0 335.79 422.45"><defs><style>.cls-1{fill:#d44d27;}</style></defs><g id="Layer_2" data-name="Layer 2"><g id="Layer_1-2" data-name="Layer 1"><path class="cls-1" d="M202.65,120.67c0-11.13-2.64-25-3.56-39.1-1.25-19.31-1.74-38.58,5.63-57.15,6.65-16.77,31.32-31.06,51-21.17,7.68,3.86,12.86,10,14.91,18.53,1.05,4.42,2.46,8.75,3.1,13.3,1.47,10.56-2.23,20.16-5.69,29.65a359.83,359.83,0,0,1-23.4,51A108.56,108.56,0,0,0,235.43,136a22.41,22.41,0,0,0,.63,15.3c1.59,4,3.49,4.8,7.69,3.49,10.21-3.18,16-11.24,21.34-19.63,5.2-8.17,8.52-17.27,12.09-26.21C281,99.29,286.65,91,294.87,84.53,312.42,70.76,328,83.06,333.1,95.91c2.72,6.85,3,13.92,2.47,21.17-1.22,16.8-5.46,32.53-15.23,46.56C311,177,298,185.23,283.37,191.38c-12,5-24.53,8.48-36.86,12.56-11.63,3.84-23,8.56-31.74,17.7-5.62,5.86-10,12.36-10.49,20.82-.62,10,6.62,17,16.65,15.91s17.73-6.45,24.14-13.82A114.39,114.39,0,0,1,260.32,230c21.26-17,50.72-.91,56.17,21.05,8,32.29-18.27,64.83-50.64,68.08a67.74,67.74,0,0,1-39.64-7.78c-10.5-5.64-21.56-9.14-33.61-8.75C181.91,303,174,311,174.41,321.52c.33,8.08,6.25,12.26,12.7,15.43,6.12,3,12.76,4.23,19.6,4.83,12.76,1.11,25.22,3.54,36.75,9.64,16.46,8.71,22.21,27.62,13.86,45.4-4.59,9.77-12.63,15.2-22.08,19.32-17.45,7.6-35.05,8.82-52.65,1-9.13-4.06-15.89-11.2-21.65-19.28-5.06-7.09-9.19-14.85-15.5-21.05-8.86-8.72-16.91-8.88-25.73-.08-5.86,5.84-9.2,13.2-11.84,20.9-1.64,4.79-6.2,6.56-10.53,4.15a4.28,4.28,0,0,1-2.31-5.2c3-13.07,5.76-26.24,11.83-38.37.06-.11.1-.24.16-.35,1.08-1.85,1.69-4.39.65-5.72s-3.42.09-5,.87c-15.58,7.62-32.26,8.84-49.17,8.49-12.34-.24-23.72-4-34.62-9.73C7.28,345.69,1.41,336.12.42,323.34c-.63-8.08-.95-16.23,2.1-24,5.17-13.06,22.26-23,36.22-21.34a55.53,55.53,0,0,1,25.7,9.53c8.69,6,17.91,10.12,28.86,10.54,8.7.33,17.79-11.18,15.83-19.44-2.08-8.76-6.61-15.52-15.31-18.83-6-2.27-12-4.22-18.14-6.06-16.2-4.84-29.71-13-36-30-4.58-12.48-4-24.78,0-37.21,2.16-6.86,4-14.13,9.69-18.84,8.35-6.89,16.61-14.22,28.84-13.35,8.75.62,14.48,4.12,17.41,12.45,3.64,10.32,6.79,20.82,12,30.54,5.45,10.26,13,18.51,23.3,24.06A16.6,16.6,0,0,0,150.78,219c5.53-5.16,7-13.8,3.36-21.28a83.89,83.89,0,0,0-26-31.75c-8.86-6.53-16.52-14-19.5-25.1-3.11-11.59-.59-22.08,6.93-31.14A58.91,58.91,0,0,1,136,94.23c9.42-4.48,17.42-1.62,24.82,4.58,5.54,4.65,9,10.77,11.6,17.35,2.67,6.78,4.94,13.72,7.35,20.59a34.49,34.49,0,0,0,10.63,15.62c2.86,2.35,5.05,1.9,6.87-1.42C202,142.43,203,133.17,202.65,120.67Z"/></g></g></svg>