<svg xmlns="http://www.w3.org/2000/svg" viewBox="0 0 288.27 260.98"><defs><style>.cls-1{fill:#f7ce3e;}</style></defs><g id="Layer_2" data-name="Layer 2"><g id="Layer_1-2" data-name="Layer 1"><path class="cls-1" d="M111.78,188.11a60.59,60.59,0,0,0,1.5-6.68c2.45-21.43,1.62-42.86-.93-64.19-2.23-18.61-5.16-37.14-7.89-55.68-1.34-9.11-3.42-18.13-4.24-27.27s.64-17.75,6.54-25.32C112,2.24,118.72-.83,127,.19c8.66,1.08,14.46,6.53,15.8,14.83s2,17.25.88,25.64c-1.81,13.83-5.51,27.4-8,41.16-3.83,21.4-7.48,42.82-10.81,64.3a285.34,285.34,0,0,0-3,33.76c3.12-1.88,3.83-4.9,4.5-7.83,2.86-12.48,6-24.91,8.35-37.49,5-26.89,9.6-53.88,14.43-80.81a84.58,84.58,0,0,1,14.24-34.38,28.59,28.59,0,0,1,35.07-9.26c7.92,3.59,11.75,9.78,12.45,18.12,1,11.84-3.89,22-9.16,32.15-9.27,17.86-22.72,32.65-34.52,48.69-12.87,17.51-24.21,36.12-31.59,56.78a63.19,63.19,0,0,0-2.92,13c-.32,2.35,1.78,3.24,3.48,1.66a21.51,21.51,0,0,0,4.69-6.38c11.94-25.14,28-47.7,44-70.22,7.26-10.17,14.35-20.51,22.35-30.09a82.3,82.3,0,0,1,17.18-15.28c8.33-5.59,17.59-5.35,26.22-.07,8.27,5.06,10.81,13.07,10.17,22.33-.61,8.9-4.1,16.82-9.27,23.86-9.63,13.12-22.11,23.11-35.74,31.88-15.77,10.14-31.53,20.35-46.79,31.23-9.75,6.94-17.78,15.84-22.81,27a35.49,35.49,0,0,0-2.52,7.6c-.24,1.19.28,3.28,1.13,3.75a4.59,4.59,0,0,0,4-.52,58.82,58.82,0,0,0,7.35-6.5,430.39,430.39,0,0,1,63.4-53.51c12-8.31,23.58-17.12,35.44-25.57,5.82-4.15,12.55-5.35,19.57-4.94,7.87.47,12.09,4.2,13.12,12A43.11,43.11,0,0,1,281.35,157c-11.34,17.65-28.33,27.67-47,35.48-6,2.53-12.23,4.7-18.35,7-15.49,5.93-28.47,15.36-36.85,29.71-11,18.76-26.95,28.83-48.24,31.1-22.25,2.38-42.74-1.19-59.71-17.27a36.57,36.57,0,0,1-11.41-21.69,75,75,0,0,1-1.17-14.23c.77-17.75-7.76-31.46-18.86-44C34,156.73,27.08,151.32,21.6,144.69,7.6,127.72-2.27,109,.45,85.94A43.85,43.85,0,0,1,3,74.66c4.94-12.07,18-15,27.73-6.26A69.7,69.7,0,0,1,47.41,91.35C55.9,109.71,65,127.82,73.33,146.23,79.62,160,85.2,174.17,91.15,188.14a24.28,24.28,0,0,0,4.48,7.18c3.31-8,2.05-15.79.85-23.56-3.32-21.46-14.63-39.38-25.3-57.66-7.33-12.57-14.49-25.33-20.45-38.58a51.1,51.1,0,0,1-3.5-33.23c1.82-7.61,5.67-13.72,12.29-17.94,7.81-5,16.61-4.34,22.6,2.75C86.05,31.76,90,37.28,91.4,43a359.49,359.49,0,0,1,8.35,44.69c3.56,31.34,6.11,62.79,9.11,94.2.19,2,.6,3.94.9,5.9Z"/></g></g></svg>