<svg xmlns="http://www.w3.org/2000/svg" viewBox="0 0 342.22 282.99"><defs><style>.cls-1{fill:#e43b2b;}</style></defs><g id="Layer_2" data-name="Layer 2"><g id="Layer_1-2" data-name="Layer 1"><path class="cls-1" d="M181,64.77c.07,23.92-7.4,46.42-12.67,69.31-3.54,15.35-7.31,30.66-10.41,46.11-.91,4.53-.34,9.54.46,14.17.38,2.21,2.6,5.23,4.53,5.71s5.39-1.18,6.6-3c3.79-5.65,7.78-11.47,10-17.81A235.25,235.25,0,0,0,189,144.92C193.1,122.38,196,99.6,199.8,77c2.31-13.55,6.51-26.51,14.36-38.14,4.71-7,10.6-12,18.69-14.31,11-3.07,23.91,2.84,29.42,13.45C268,49,269,60.83,267.21,72.83c-1.54,10.37-5.64,19.79-10.76,29.07-13.63,24.67-32.32,45.57-48.81,68.1-6.62,9.05-11.18,19.61-16.67,29.49a3.35,3.35,0,0,0-.25.85c-.83,3.45-2.66,7.41.74,10s6.82-.05,9.6-2.25a120.54,120.54,0,0,0,11.49-9.88,287.56,287.56,0,0,0,38.39-49.06c7.28-11.66,12.81-24.11,18.9-36.35,6.43-12.91,12.53-26.49,25.66-34.74,7.53-4.73,15.33-7.91,24.4-6.55a25.54,25.54,0,0,1,21.34,20,37.7,37.7,0,0,1-1.2,21.17c-6.19,17.68-17.41,31.71-32.62,42.54-16.53,11.76-34.21,21.51-52.34,30.56C243.32,191.72,232.37,199,223.61,209a40.53,40.53,0,0,0-6.73,11.38c-1.24,3.06,1,5.52,4.24,4.91a38,38,0,0,0,11.77-3.85c10.85-6.17,21.23-13.17,32.14-19.22,10.63-5.89,21.48-11.47,32.61-16.32A37.33,37.33,0,0,1,321.33,184c11.07,2.61,17.19,11.28,15.41,22.48-1.54,9.77-6.4,17.78-13.84,24.35-14.22,12.57-31,19.8-49.34,23.66-10.47,2.21-21.08,3.95-31.7,5.23-13.24,1.59-25.92,5.19-37,12.31-20,12.82-40.8,13.44-62.6,6.94-6-1.78-11.86-4-17.63-6.31-9.83-4-17.79-9.94-23.81-19.24-8.9-13.75-22.39-22.79-36.26-31.14-11.72-7.06-23.88-13.57-34.82-21.7-14.82-11-27.21-24.49-29.39-44a50.51,50.51,0,0,1,1.35-19.34C6.33,121.55,24.52,116,36.88,126.71,43.05,132,48,139.09,52.42,146c6.26,9.74,11.1,20.4,17.45,30.07C74.39,183,80.28,189,85.8,195.21a20,20,0,0,0,7,5.39c3.67,1.45,8.13,3.28,11.57,2.38,4.68-1.22,4.12-6.59,4.18-10.76.19-13.26-4.18-25.25-11-36.3-9.13-14.83-21.27-27-34.39-38.41-10.35-9-19.78-18.94-25.48-31.8-5-11.2-7.17-22.75-4.5-34.85,2.19-10,6.14-18.84,17-22.23,10.41-3.27,19.07,0,27.1,7,11.47,10,18.41,22.94,22.23,37,4.29,15.72,6.42,32.07,8.89,48.23,3.42,22.43,7.72,44.62,15.9,65.84a40.3,40.3,0,0,0,7.6,11.85c3.05,3.43,6.55,2.71,8.52-1.48a28.77,28.77,0,0,0,2.42-9.43,186,186,0,0,0-5.13-63c-4.24-17-10.83-33.35-15.91-50.13A212.65,212.65,0,0,1,114.73,45a65.09,65.09,0,0,1,.62-20.36c2.05-12,8.31-21.35,21-23.92,13.2-2.67,24.28,2.06,32,13a60.38,60.38,0,0,1,11.39,29.69C180.37,50.48,180.58,57.63,181,64.77Z"/></g></g></svg>