<svg xmlns="http://www.w3.org/2000/svg" viewBox="0 0 282.36 493.7"><defs><style>.cls-1{fill:#1779bb;}</style></defs><g id="Layer_2" data-name="Layer 2"><g id="Layer_1-2" data-name="Layer 1"><path class="cls-1" d="M189.68,89.06c0,5.1-.33,10.23.13,15.3.24,2.7.53,6.44,4.44,6.86,3.44.37,4.44-2.91,5.67-5.22,6.11-11.51,8.81-23.83,9.19-36.6.27-9,.11-18,.27-27a85.35,85.35,0,0,1,2.92-20.93,31.65,31.65,0,0,1,6.43-12.34c6.19-7.27,14.1-10.63,23.92-8.5C250.93,2.44,258,11.15,259,20.09c1.11,10.51-1.9,20.25-6.6,29.61-5.55,11.07-13.17,20.88-21.27,30.37-5.18,6.07-10.35,12.13-15.41,18.29a42.35,42.35,0,0,0-7.49,13.51c-.61,1.83-1.22,4,.71,5.42s3.9.08,5.56-1a31.57,31.57,0,0,0,7.17-6.61q7.07-8.69,14.12-17.38a74.1,74.1,0,0,1,14.94-13.7,37.2,37.2,0,0,1,13.9-6.19c9.42-2,17,3.56,17.68,12.63.39,5.07-1.39,9.59-3.78,14-5.45,9.94-13.71,17.56-22.87,24.44-10.54,7.92-22.38,13.94-33.77,20.61-5.7,3.33-11.51,6.51-17.19,9.87-9.74,5.76-18.17,12.84-24.22,22.18-2.16,3.32-4.13,6.79-4.18,10.84-.06,4.74,2.59,6.58,7.54,5.26,3.81-1,6.92-3.21,10-5.43,6.34-4.6,12.45-9.51,19-13.8,10.59-6.93,22.12-11.49,35.42-10.71,14.64.85,20.62,10.31,14.29,22.68-4,7.78-10.54,13.09-18.35,17.22-10.68,5.65-22.3,8.86-34.1,11.61-9.75,2.28-19.64,4.13-29.11,7.39s-17.79,7.75-24.35,15c-2.2,2.42-4.17,5-4.92,8.15-1.09,4.59.94,7.11,5.93,7.09,4.24,0,8.08-1.66,11.7-3.49,6.13-3.11,12.09-6.53,18.15-9.76,10.56-5.63,21.05-11.39,33.2-13.6a68.83,68.83,0,0,1,17-.73A18.08,18.08,0,0,1,245,226c5.51,2.9,7.11,7.6,4.44,13-2,4.07-5.34,7.09-9.11,9.76-10.09,7.13-21.69,11.29-33.66,14.36-13.17,3.39-26.58,5.94-39.84,9a67,67,0,0,0-26.19,12.12A34.71,34.71,0,0,0,126.92,308a18.26,18.26,0,0,0,.1,5.81c.84,4.14,3.86,5.63,8,4.05a32.48,32.48,0,0,0,8.92-5.73c5.24-4.33,10.36-8.8,15.64-13.08A85.67,85.67,0,0,1,204,279.93a30.81,30.81,0,0,1,13.72,1.38c8.43,2.81,12,10.14,9.22,18.19-2.35,6.73-7,11.88-12.76,16.16-10.71,7.95-22.87,13.08-36.06,16.2-10.25,2.42-20.51,4.83-30.66,7.61a70.53,70.53,0,0,0-27.31,14.75,41.82,41.82,0,0,0-13.84,21.5,13.58,13.58,0,0,0,.62,9.29c1.8,4,4.49,4.91,8.65,2.89,3.51-1.71,6-4.54,8.68-7.2,7.25-7.27,14.32-14.72,23.16-20.38,9.55-6.11,19.81-10.55,31.5-11.08,13.81-.62,20.72,7.52,16.87,20.14-5.05,16.51-17.67,26.38-33.92,32.64-7.42,2.85-15.32,4.26-23.11,6-6.79,1.48-13.59,3-19.92,5.8-6.82,3.06-11.9,7.67-13.91,14.77a17.83,17.83,0,0,0-.75,5c0,2.47.58,5,3.12,6.28,2.7,1.38,5,0,7.07-1.54,3-2.28,6-4.64,8.88-7.06a84,84,0,0,1,24.31-14A33.32,33.32,0,0,1,161.16,415c9.35.51,14,6.07,12.11,14.77-1.3,5.86-4.63,10.78-8.9,15.14-5.33,5.43-11.8,9.39-18.74,12.75-5.73,2.78-11.52,5.48-17.14,8.46-8.85,4.68-14.49,11.41-15.26,21.39-.37,4.74-1.73,5.67-6.89,6.08a74.48,74.48,0,0,1-15.43-.79c-3.13-.4-4.62-2-4.42-4.89a65.13,65.13,0,0,1,.78-6.52c2.21-13.25-3-23.38-15.5-29.75a104.4,104.4,0,0,0-10.66-4.28c-6.7-2.53-13.59-4.66-20.12-7.53-14.77-6.5-25.16-16.74-29.16-32.05a18.67,18.67,0,0,1-.61-7.23c1.18-9,7.5-13.23,16.94-11.11a57.58,57.58,0,0,1,19.46,8.71,125.33,125.33,0,0,1,24.66,22c2.64,3,5.23,6.06,8.77,8.17,5.07,3,9.22,1.16,9.8-4.5.38-3.7-.85-7.21-2.46-10.57-3.13-6.55-7.88-11.94-13.44-16.77C66.15,388.86,56,383,45.75,377.4c-9.39-5.14-18.59-10.54-26.76-17.33C10.08,352.66,3.26,344,.79,332.77A32,32,0,0,1,2.17,314.1c2.71-7.06,8.05-10.37,16-10.19,8.19.18,14.85,3.74,20.78,8.67,8.22,6.83,14.41,15.22,20.15,23.92,5.19,7.86,9.35,16.24,13.75,24.49,2.09,3.92,4.31,7.78,7.58,11,2,1.92,4.08,4.05,7.31,3,2.77-.88,3.4-3.33,4.09-5.77,1.67-5.93.14-11.6-1.46-17.23-2.23-7.86-6.61-14.74-11.73-21.22-6.34-8-13.52-15.35-20.55-22.8-10.32-10.94-20-22.35-26.7-35.65-5.57-11-8.47-22.46-5.16-34.65a31.5,31.5,0,0,1,2.59-6.83c4.68-8.68,12.76-11.86,22.65-9.05A36.35,36.35,0,0,1,71.05,235.4a63.14,63.14,0,0,1,11.14,25.43c1.64,7.86,3,15.77,4.66,23.64a61.33,61.33,0,0,0,7.61,19.79,28.58,28.58,0,0,0,4,5.37c4.63,4.68,9,4.45,12.58-1a38,38,0,0,0,6.2-23.72,50.69,50.69,0,0,0-8.31-24.79,256.69,256.69,0,0,0-16.56-22c-12.24-15-22.25-31-26.4-49.8-1.6-7.22-2.08-14.49.44-21.62,3.94-11.14,14.63-14.86,25.31-8.9,6.73,3.76,10.76,9.67,14.19,16,6.66,12.29,9.46,25.64,12,39.06A123.79,123.79,0,0,0,123.7,234a24.54,24.54,0,0,0,3.41,6.51c1.4,1.78,2.92,3.79,5.5,3.52,3-.3,4-2.9,4.78-5.2a33.29,33.29,0,0,0,1.3-10.83,107.83,107.83,0,0,0-6.31-35.83c-5.12-14.27-10.65-28.42-15.53-42.76-4.13-12.14-6.35-24.58-3.71-37.39.84-4.07,1.88-8.09,4.15-11.69,5-7.88,12.78-9,20-2.85a34,34,0,0,1,8.46,11.24A72.2,72.2,0,0,1,153.56,139a188.39,188.39,0,0,1-1.08,27c-.77,6.49-1.29,13.1.72,19.57.67,2.15,1.32,4.45,3.94,5,3.27.64,4.48-2,5.64-4.06,9.43-17.22,12.4-35.38,8.56-54.47a265.33,265.33,0,0,0-14-45.45,115.15,115.15,0,0,1-6.44-21C149.88,59.9,149.58,54.33,152,49c4.06-8.84,14.19-11.45,22.46-5.74,6.12,4.22,9.43,10.26,11.41,16.93C188.71,69.6,189.58,79.28,189.68,89.06Z"/></g></g></svg>