<svg xmlns="http://www.w3.org/2000/svg" viewBox="0 0 327.79 333.06"><defs><style>.cls-1{fill:#ebb833;}</style></defs><g id="Layer_2" data-name="Layer 2"><g id="Layer_1-2" data-name="Layer 1"><path class="cls-1" d="M158.27,259.73c.36-1.49.84-3,1-4.47,2.48-17.68,5-35.36,7.35-53.06,4.5-33.44,4.56-66.62-6.36-99-3.1-9.19-6.9-18.13-10.24-27.24-4.36-11.89-7.74-24-7.06-36.9.61-11.65,4.31-22.15,12.74-30.43,14.1-13.86,40.37-12.16,46.57,13.44,3.66,15.12,3.21,30.42.59,45.45-6.34,36.22-13.41,72.31-20.26,108.44-4,21.17-8.2,42.3-12.25,63.46-.44,2.3-.46,4.68-.84,8.69,1.72-2.28,2.82-3.2,3.23-4.38,11.72-33.95,23.83-67.77,34.87-101.95,6.14-19,7.31-39.17,9.53-59,1.39-12.5,3.49-25,5.93-37.28.95-4.77,3.27-9.44,5.74-13.68,5.2-8.87,14.31-12.82,23.72-11,10.3,2,16.74,8.78,18.8,19.36,1.49,7.68.47,15.21-1.24,22.65-4.3,18.74-13.35,35.24-23.86,50.93A581.26,581.26,0,0,0,192,216.25c-6.68,16.22-12.16,32.95-18.07,49.5-.81,2.29-.91,4.84-1.33,7.28l1.72.88a57.14,57.14,0,0,0,4.59-5.62c24.56-38.65,46.71-78.61,64.39-121.13,5.1-12.27,11.86-23.86,18.33-35.5a28.79,28.79,0,0,1,16.61-13.4c11.81-3.91,22.08,3.2,22.83,15.83.61,10.31-2.68,19.72-6.91,28.81-9.25,19.92-22.1,37.31-36.88,53.21-10.45,11.24-21.22,22.2-32.12,33-12.22,12.09-24.22,24.35-33.87,38.77-3.71,5.55-7.17,11.23-8.87,17.73l1.52,1.25c2.27-2.18,4.66-4.25,6.8-6.55,14.67-15.86,29.08-32,44-47.59,13.59-14.22,29-26,47.32-33.34,8.5-3.42,17.22-5.23,26.39-4.5,15.35,1.21,23.18,14,17.49,28.57-3.1,7.94-9.08,13.27-15.65,18-14.17,10.26-30.11,17-45.79,24.36-18.69,8.76-37.38,17.59-55.59,27.32-15.18,8.12-28.28,19-37.19,34.62-4.15,7.26-13.71,6.89-20.5-.11-2.88-3-5.52-6.32-8.78-8.78-9.66-7.29-20.87-10.28-32.68-10.17-10.79.1-21.58,1.58-32.37,1.65-7.11.05-14.55-.25-21.29-2.3-15-4.56-23.5-20.61-20.21-36.22,2.15-10.17,8.45-16.65,18-19.73,8.79-2.82,17.74-2.73,26.74-1,17.19,3.27,31.57,12.37,45.29,22.79,3.51,2.66,6.65,5.82,10.15,8.49a36.71,36.71,0,0,0,5.83,3.07c.1-2.43,1-5.19.14-7.25a111,111,0,0,0-8.45-17.62c-8.06-12.91-19.67-22.18-32.37-29.86-8.83-5.35-18.11-10-27.42-14.43-17.74-8.48-35.53-16.82-50.77-29.71C8.45,174.21-.8,158.94.05,138.92a54.78,54.78,0,0,1,3.52-16.83c4.2-11,14.11-16.25,25.51-14.32,10.33,1.75,18.5,7.63,25.93,14.71,12.17,11.58,21.39,25.6,30.27,39.75C104.59,193,123.41,224.06,142.49,255c1.55,2.5,2.49,5.76,7,6.9-.6-5-.71-9.38-1.7-13.59-3.8-16.11-7.82-32.16-11.86-48.2-6.72-26.65-20.49-48.95-39.06-68.78C87.66,121.5,80.08,110,72.53,98.8c-6.32-9.4-9.78-20.28-11.62-31.54-1.6-9.8-1.17-19.38,4.34-28.15,11-17.49,33.73-18,45.06-.79,6.28,9.52,9.89,20.24,12.33,31.31,7.45,33.86,14.84,67.74,21.86,101.7,2.93,14.13,5.26,28.42,7.15,42.73,1.76,13.27,2.53,26.68,3.81,40a55.34,55.34,0,0,0,1.14,5.79Z"/></g></g></svg>