<svg xmlns="http://www.w3.org/2000/svg" viewBox="0 0 259.89 262.05"><defs><style>.cls-1{fill:#302a6e;}</style></defs><g id="Layer_2" data-name="Layer 2"><g id="Layer_1-2" data-name="Layer 1"><path class="cls-1" d="M162.07,131.12c9.44-8.59,15.6-18.24,21.49-28,7.71-12.83,15.59-25.55,25.3-37a72.5,72.5,0,0,1,26.36-20c13.76-6,23.8,2.81,24.6,16.41.66,11.36-3.67,21.45-8.64,31.25-7,13.73-18.35,23.41-30.34,32.54-12.7,9.66-27.22,16.65-39.32,27.16-8.41,7.3-17.43,14-23.61,23.51-1.65,2.53-4.86,5.78-2.45,8.37,2.24,2.42,5.46-.85,7.79-2.27,9.34-5.71,18.37-11.93,27.74-17.59,8.64-5.22,17.53-10.19,27.78-11.43,4.95-.6,10.12-1.16,15-.35,7.66,1.28,14.3,10.47,15.11,18.48,1.11,11-4.52,18.28-12.47,24.51-11.33,8.9-24.81,13.08-38.15,17.66-10.84,3.73-22.11,5.64-33.11,8.65-22.2,6.06-41.41,16.67-55.38,35.6-3.69,5-8.13,4.39-11.38-1-11-18.22-26.59-30.3-47.41-35.29-13.54-3.25-26.22-8.31-37.08-17.23-6.42-5.26-11.18-11.73-13.18-20-3.85-15.92,8.91-29,24.94-25.66,12.7,2.61,22.61,10,32.06,18.22,6,5.25,12,10.59,17.9,15.93a23.27,23.27,0,0,0,6.94,4.64c1-5.58-1.17-10.22-3.38-14.7C74,173.19,66.62,164.37,58.72,156c-11-11.6-22.42-22.81-31.7-35.9A75.93,75.93,0,0,1,12.76,78.91a32.33,32.33,0,0,1,4.89-18C22.47,52.68,29,50.48,37.92,54c7.52,2.93,12.36,8.85,16.63,15.25,8.62,12.88,12.78,27.52,16.37,42.38A85,85,0,0,0,80,135.13a31.54,31.54,0,0,0,6.75,8.59c1.91,1.58,3.45,4.53,6.7,2.88,2.88-1.46,3.52-4.13,3.52-7.16a127.16,127.16,0,0,0-3.84-30.58C90.49,98.07,85.74,88,82.26,77.49c-4.41-13.36-7.19-26.89-5.48-41a33,33,0,0,1,14.9-24.25c9.28-6.26,19.88-3.09,25,7.14,6,12.08,7.65,24.94,7,38.24-.62,13.64-2,27.25-1.84,40.92a24.86,24.86,0,0,0,2,9.69c1.16,2.71,2.66,5.06,6.05,5.07,3.63,0,5.4-2.56,6.38-5.41,2.37-6.91,3.39-14.16,4.46-21.37,3.12-21.09,4.9-42.5,14.22-62.17,3.55-7.5,6.93-15.09,14.13-20.08,6-4.17,12.47-5.7,19.24-2.64s9.4,9.05,9.67,16.17c.49,12.94-3.86,24.8-8.73,36.43-7,16.66-16.75,32-22.89,49.05C163.26,111.84,161.21,120.64,162.07,131.12Z"/></g></g></svg>