<svg xmlns="http://www.w3.org/2000/svg" viewBox="0 0 316.45 348.96"><defs><style>.cls-1{fill:#338a55;}</style></defs><g id="Layer_2" data-name="Layer 2"><g id="Layer_1-2" data-name="Layer 1"><path class="cls-1" d="M140.83,265.29c4.27-8,4.24-15.49,5.12-22.74,3.47-28.63.57-57.07-2.72-85.48-3.56-30.83-7.71-61.61-10.42-92.52-1-11.25.45-23,2.53-34.15C137.53,18.66,144.76,9.65,155.47,4c15.75-8.28,31.36-3.52,39.9,12.24,5.46,10.07,7.39,21.21,7.11,32.4-.3,11.74-1.1,23.69-3.63,35.1-8.94,40.27-18.57,80.38-28.25,120.48-4.39,18.18-10.34,36-13.86,54.37-.54,2.82-.69,8.17.09,8.4,4.35,1.25,5.22-3.35,6.68-6,21.38-38.67,39.46-78.48,43.59-123.54a203.8,203.8,0,0,1,7.53-38.26c4.47-15.33,14.12-26.74,30-31.38C258,63.9,269,69.06,274.71,82a36.27,36.27,0,0,1,2.48,23.62,106.93,106.93,0,0,1-14.64,34q-19.91,30.75-40.32,61.18c-15,22.36-30.25,44.48-45.11,66.91-3.38,5.09-5.76,10.9-8.22,16.56-.6,1.38-.27,4.14.71,5s3.72.62,4.92-.24a81.91,81.91,0,0,0,10.56-8.86c12.35-12.38,20.67-27.64,29.36-42.65,9.6-16.59,19.16-33.22,29.22-49.54,7.32-11.9,15.85-23,27.49-31A71.17,71.17,0,0,1,289,147.8c15-4.83,27.57,4.35,27.42,20.33a43.76,43.76,0,0,1-4.77,19.58,162.54,162.54,0,0,1-18.62,27.51c-20.14,23.84-45.79,41-71.08,58.59-9.88,6.86-19.71,13.79-26.94,23.68-2.21,3-6.71,6.38-3.56,10.21,1.25,1.52,7,.43,10.06-1,9.4-4.43,18.57-9.4,27.62-14.54,5.6-3.18,10.55-7.57,16.26-10.48A89.92,89.92,0,0,1,265,274c8.25-2,15.89.47,21.33,7.55,5.33,6.92,6.28,14.6,3.07,22.82-2.81,7.22-7.78,12.61-13.89,16.95a111.24,111.24,0,0,1-57.19,20.82c-9.68.69-19.52-.68-29.28-1.17-4-.2-7.94-.59-11.91-.8-6.38-.34-12.18.89-16.59,6.15-3.06,3.66-6.24,3.29-9.34-.06-.21-.23-.45-.42-.65-.66-14.53-17.79-33.45-23.73-55.69-22.33a88.56,88.56,0,0,1-40.42-7c-11.12-4.72-20.26-11.64-24.23-23.85C27.3,283.56,28,275.2,34.43,268c6.67-7.46,15.59-8,23.74-4.82,8.4,3.32,16.14,8.66,23.66,13.86,7.32,5.07,13.9,11.2,21,16.6,2.77,2.11,6.34,6.08,9.45,2.94,1.66-1.69.88-7.12-.33-10.26-5-13-13.37-23.63-23.83-32.59-12.76-10.93-27.61-18.24-42.6-25.41-10.2-4.88-20.5-9.89-29.8-16.28-11.68-8-17.62-19.72-15.19-34.54C3.4,160.05,18.23,151.64,34,159.4a84.2,84.2,0,0,1,20.83,14.94c15.86,15.28,27.85,33.8,39.93,52.14,5.95,9,11.2,18.53,16.85,27.76a144.48,144.48,0,0,0,8.14,12.39c1.1,1.44,3.38,2,5.12,2.89.27-2,1.17-4.18.7-6-1.4-5.39-2.72-10.94-5.16-15.88C109.76,226,99,204.4,87.74,183.09c-9.26-17.49-19.59-34.4-29-51.83A95.34,95.34,0,0,1,47.61,96a49.06,49.06,0,0,1,5.51-28.83C59.62,55,69.7,47.94,83.63,48.58s23.56,8.09,29.16,20.8c5.46,12.4,7.07,25.69,7.35,39.1.3,14,0,28,0,41.94,0,35,5.31,69.28,15,102.86a78.39,78.39,0,0,0,2.76,7.89C138.32,262.23,139.23,263.1,140.83,265.29Z"/></g></g></svg>