<svg xmlns="http://www.w3.org/2000/svg" viewBox="0 0 230.1 482.1"><defs><style>.cls-1{fill:#338a55;}</style></defs><g id="Layer_2" data-name="Layer 2"><g id="Layer_1-2" data-name="Layer 1"><path class="cls-1" d="M88.24,115.63c6.18-5.66,6.43-11.62,6.29-17-.24-8.71-1.8-17.39-2.91-26.07-1.59-12.35-4.22-24.66-4.56-37-.21-7.47,2.21-15.35,5-22.48,3.49-8.87,11.6-14,18.25-12.9,9.2,1.58,14.2,8.12,15.35,16.09a83.66,83.66,0,0,1-.15,26.05c-1.68,9.54-5.18,18.88-8.77,28-10.83,27.53-20.62,55.37-22.65,84.92-1,14.37.39,28.9.81,43.35a13.87,13.87,0,0,0,1.28,5.89c1,1.87,2.77,3.34,4.21,5,1.16-1.59,3-3.06,3.36-4.8,2.22-11.92,4.22-23.89,6.08-35.87,2.89-18.65,4.92-37.46,8.7-55.93a91.87,91.87,0,0,1,10.79-27.28,71.55,71.55,0,0,1,17.28-20c10.11-7.93,20.62-3.84,22.26,8.51,1.09,8.16.93,17.08-1.41,24.9-3.47,11.56-8.86,22.68-14.37,33.56-5.83,11.51-12.71,22.53-19.2,33.73a150,150,0,0,0-18.78,51.25,108.74,108.74,0,0,0-1.19,18.13c0,2.3,1.78,4.59,2.74,6.88,2.34-1.27,5.27-2.08,6.88-3.93a45.54,45.54,0,0,0,7.31-11c5.09-11.46,9.74-23.1,14.45-34.7C150.53,180,155,166.79,161,154.29c4.24-8.77,10.19-16.89,16.13-24.78a37.26,37.26,0,0,1,19.38-13.4c12.49-3.74,22.56,1.38,24,13.69.85,7.44-.39,15.5-2.52,22.78-5.27,18-17.41,32.22-30.29,45.69C176.77,209.7,165,220.41,154,231.79,141.8,244.45,131,258.15,123.5,274c-5.73,12.19-8.61,24.93-7.76,38.35a35.76,35.76,0,0,0,.74,7c.49,1.84,1.79,3.48,2.73,5.2,1.84-1.3,4.42-2.22,5.39-4,3.13-5.63,5.83-11.51,8.4-17.41a304.41,304.41,0,0,1,45.65-73.67,106.19,106.19,0,0,1,18-16.88,47.52,47.52,0,0,1,16-7.28c10.12-2.67,17.56,3,17.4,13.11-.09,5.26-.88,11.08-3.39,15.62A130.73,130.73,0,0,1,210,258.38c-6.38,7.06-14.52,12.69-22,18.83-4.27,3.5-8.73,6.81-13.16,10.13-33.44,25.06-44.47,59.33-44,98.33a9.76,9.76,0,0,0,.21,3,39.68,39.68,0,0,0,2.09,4.37c1.61-.95,4-1.55,4.69-2.92,3-6.08,5.66-12.31,8.1-18.62,4.27-11,7.75-22.4,12.6-33.2,2.87-6.4,7.49-12.13,11.77-17.85a34,34,0,0,1,7.69-6.86c7.91-5.61,16.91-6.76,22.55-2.84,7.4,5.14,7.37,12.71,6.06,20.19-1.92,11.06-8.3,20-16.4,27.72a257.79,257.79,0,0,1-20,16.49,79.62,79.62,0,0,0-23.39,28.29c-9.15,18.75-8.45,37.23,2.23,55.24,2.08,3.51,4.78,6.67,6.92,10.15,1.33,2.15,3.61,6,2.9,6.68a28.13,28.13,0,0,1-10.25,6.52c-1.24.43-4.85-2.55-5.76-4.63-4.23-9.6-8-19.39-11.71-29.18-1.33-3.47-1.84-7.23-3.23-10.67-4.28-10.59-14.53-16.17-26.15-14-5.49,1-10.8,2.95-16.24,4.31-13.14,3.31-25.26,2-34.79-8.25-5.13-5.53-8.08-12-5.07-19.53,2.87-7.23,9.26-10.19,16.62-10.46,5.85-.22,12.18,0,17.56,1.93,10.47,3.74,20.44,8.75,30.57,13.33,1.88.86,3.43,2.43,5.34,3.19,3.58,1.41,5.67-.34,5.39-3.69a24.84,24.84,0,0,0-2.47-8.66c-5.08-10.45-12.89-18.7-24-23.16A315.64,315.64,0,0,0,62.85,362C47.49,357.62,33,352,21.06,341.35c-9.23-8.18-16.32-17.66-19.6-29.43A36.12,36.12,0,0,1,0,302c.12-10.3,8-16.83,18.25-13.58A74.63,74.63,0,0,1,41,300.46c7.27,5.67,13,13.15,19.26,20,10.4,11.42,20.34,23.22,31.09,34.32,4.21,4.34,9.82,7.65,15.28,10.59,4,2.17,6.93.14,7-4.29a28.48,28.48,0,0,0-1.44-7.9c-4.25-14.71-13.16-26.82-24-37.57-7.8-7.74-16.26-14.93-24.83-21.9-18.35-14.9-35.74-30.57-47.53-51C2.6,219.8-2.79,195.41,2.27,169.53a57.43,57.43,0,0,1,8.38-20.41c6.59-9.86,15.94-10.48,25-2.61A59.4,59.4,0,0,1,53.06,172.7c4.71,14.09,8.48,28.48,12.36,42.81,3.71,13.69,6.14,27.77,10.84,41.13,3.54,10.08,9.53,19.41,14.95,28.8,1.33,2.31,4.68,3.54,7.11,5.26,1-2.68,2.66-5.32,2.77-8,.71-16.37-2.23-32.38-7.58-47.77-8.43-24.28-17.81-48.26-26.8-72.37-6.86-18.4-14.35-36.62-17-56.2-1-7.84-.4-15.5,2.88-22.81,2.15-4.81,5.13-9,11.29-9.34a12.77,12.77,0,0,1,12.78,7.4c3.24,6.65,5.46,13.77,7.87,20.76C85.91,106.3,86.8,110.4,88.24,115.63Z"/></g></g></svg>