<svg xmlns="http://www.w3.org/2000/svg" viewBox="0 0 314.31 291.97"><defs><style>.cls-1{fill:#f7ce3e;}</style></defs><g id="Layer_2" data-name="Layer 2"><g id="Layer_1-2" data-name="Layer 1"><path class="cls-1" d="M155.1,128.79c0-16.09-.44-32.2.17-48.28.38-10.06,2.06-20.1,3.68-30.07C160.33,42,165.12,35,170.71,28.72c7.06-7.94,15.8-11.37,26.47-8.82,10.51,2.51,15.83,10.35,18.76,19.68,3.69,11.71,2.71,23.82-1.5,35.14-5.37,14.49-11.95,28.53-18,42.77-.23.54-.55,1.06-.77,1.61-9.35,23.21-18.94,46.37-21.9,71.5a86.19,86.19,0,0,0-.09,17.81c.24,2.56,2,6.2,4.07,7.1,3.39,1.48,6.12-1.61,7.79-4.5,2.67-4.63,5.14-9.41,7.36-14.27,9-19.68,12.7-40.87,17.86-61.67A362.79,362.79,0,0,1,221.69,98.3c5.16-14.11,14.06-25.52,28.16-32a31.79,31.79,0,0,1,6.78-2.2c17.85-3.63,33.05,9.46,31.78,27.64a57.79,57.79,0,0,1-11.2,30.57c-10,13.8-21.65,26-33.42,38.21-12.75,13.28-24.36,27.75-35.49,42.44-4.94,6.5-7.69,14.73-11,22.36-.79,1.83-.61,5.55.57,6.4,1.81,1.31,5.41,1.93,7.28,1a45,45,0,0,0,12.25-8.74,286.57,286.57,0,0,0,18.84-22.6c9.53-12.56,18.33-25.65,31.21-35.32a39,39,0,0,1,25-8c18.4.36,27.26,16.41,18.43,32.68-7.26,13.39-18.22,22.71-31.46,29.44a346.26,346.26,0,0,1-31.7,14.43,121.21,121.21,0,0,0-60.22,49.71c-2.64,4.18-5.5,6.33-10.71,6.37q-24.57.18-49.13,1.35c-5.76.27-9.72-1.62-12.81-6.22-10.45-15.59-25.46-23.43-43.68-26.54A368.74,368.74,0,0,1,34.61,251c-12.32-3.42-22.84-9.85-30.1-21-4.82-7.41-6.16-15.17-2.13-22.77,3.9-7.36,10.8-10.53,19.46-10.17,7.41.31,14.07,2.73,20.31,6.18,6.5,3.59,12.44,8.16,18.85,11.94C68.67,219.64,76.48,224,84.43,228c3.15,1.59,6.91,2.62,9.85-.84,2.7-3.18,1.81-6.69.55-10.14-2.31-6.33-6-11.81-11.62-15.48-9.95-6.5-20.1-12.71-30.34-18.76-15.78-9.33-30.56-20-40-36-4.77-8.09-8.06-17.3-10.59-26.4S2.1,102,6.51,93.55c7.14-13.68,20.09-18.11,33.9-11.07,8,4.06,15,9.5,20.18,17.2,7.68,11.48,13.1,23.92,17.74,36.88,5.22,14.57,10.71,29.1,17.28,43.09,3.86,8.22,9.92,15.45,15.26,22.94,1.88,2.62,4.47,5.24,8.26,4,4-1.25,3.88-4.9,3.92-8.17.17-14.44-1.9-28.45-7.57-41.87-2.9-6.85-4.89-14.11-8.08-20.82-7.9-16.65-16.7-32.89-24.3-49.67C75,68.32,69.46,49.77,73,29.85c1.71-9.51,5.5-17.8,13.57-24.29,10.93-8.8,31.64-7,42.41,4.43,10.44,11.12,12.57,24.82,12.82,38.9.21,12.18-1.17,24.38-1.75,36.57-1.13,24.09-2.71,48.18-3,72.29-.14,10.91,2.24,21.86,3.61,32.77a34.84,34.84,0,0,0,1.78,6.92c1.11,3.26,1.36,8,5.69,8s4.84-4.62,5.44-8.07a88.19,88.19,0,0,0,1.78-14.14c.2-18.16.08-36.32.08-54.48Z"/></g></g></svg>