<?xml version="1.0" encoding="UTF-8"?>
<svg id="Layer_1" xmlns="http://www.w3.org/2000/svg" version="1.1" viewBox="0 0 301.7 529.6">
  <!-- Generator: Adobe Illustrator 30.0.0, SVG Export Plug-In . SVG Version: 2.1.1 Build 123)  -->
  <g id="Layer_2">
    <g id="Layer_1-2">
      <path d="M138.8,280.4c2.4-5,4.7-8.6,6-12.6,5.7-17.5,7.4-35.6,8.5-53.9,1.2-21.9,2.3-43.8,4.4-65.6,1.4-13.9,6-27.3,13.3-39.1,4.6-7.6,10.6-14.4,20.6-13.2s13.9,9.3,16.6,17.7c5.5,17.6,4.2,35.4,1.5,53.2-5.6,37.4-19.3,71.7-42.7,102.2-2.7,3.5-5,7.3-7.8,10.8-15.8,19.9-24.8,42.1-26,67.2-.6,12.5-1.1,24.9-1.4,37.4,0,2.1,1.3,4.1,2,6.2,2.2-.8,5-1.1,6.4-2.6,6.5-7,13.4-13.9,18.6-21.8,9.1-13.8,13-29.7,17.4-45.4,5.5-19.9,10.9-39.8,17.5-59.3,6.4-18.8,16.4-36,32.1-49.2,5.8-5,12.3-8.9,19.4-11.7,14.8-5.4,26.3.3,29.7,15.1,2.1,9.4,3,19.6,1.5,29-7.8,48.7-33.3,87.4-74.2,117-12.6,9.1-25.4,18.1-37.8,27.6-6.5,5.2-12.5,10.8-18.2,16.8-9.4,9.7-14,21.7-15.8,34.6-.4,2.5.6,5.1,1,7.7,2.9-.8,6.2-.8,8.6-2.4,6.1-4,12.2-8.1,17.4-13.1,16.5-15.6,32.5-31.8,49-47.4,11-10.4,22.1-20.7,34.1-30.1,5.8-4.6,13.4-7.3,20.5-10,4.3-1.4,8.9-2,13.4-1.7,8.5.4,14.1,5.5,14.1,13.5,0,5.9-1,12.4-3.6,17.5-4.2,8.2-9.4,15.8-15.5,22.7-19.4,21.5-43.8,37.9-71,47.7-10.5,3.9-21,7.7-31.2,12.1-6.7,3-13.1,6.5-19.1,10.6-3.7,2.5-6.9,5.7-9.2,9.5-1.8,2.9-1.6,6.9-2.3,10.4,3,.5,6,1.5,9,1.4,22.9-.5,44.5-5.4,64.6-16.3,11.6-6.3,23.4-12.4,35.3-18.1,10.5-4.9,21.6-8.1,33.5-7.9,19.3.2,28.4,14.1,19.2,30.2-3.6,6.2-8.5,11.6-14.2,16-18.3,14-40.1,19.6-62.9,20.3-13.6.5-27.3-1.9-40.9-2.8-10.8-.7-21.7-1.6-32.6-1.3-11.8.3-21.5,5.6-29,14.5-1.3,1.6-2.5,3.9-4.2,4.4-2.7.8-6.2,1.4-8.6.4-3.4-1.3-3.6-4.6-1.6-7.7,1.6-2.6,3.1-5.3,4.6-8,6.5-11.1,7-22.9,1.1-34-4.2-8.2-9.6-15.7-16-22.3-10.6-10.3-22.5-19.4-34-28.8-13.9-11.4-28.4-22.4-39.3-36.6-4.4-5.6-8.3-11.7-11.5-18-2.3-4.9-3.6-10.2-3.8-15.5-.7-15.8,11.3-24.1,26.4-17.5,7.8,3.4,15,8.9,21,14.7,14,13.5,22.8,30.7,32.9,46.9,7.7,12.5,15.3,25,23,37.5.6,1.2,1.4,2.4,2.3,3.3,2,1.6,4.2,2.8,6.4,4.2.8-2.1,2.2-4.3,2.2-6.4-.6-15.1-.4-30.4-2.6-45.4-2.7-18.9-12.4-35.2-27.1-48.1-12.4-10.9-26-20.5-39.2-30.7-11.8-9.1-23.9-17.8-35.3-27.3-7.7-6.4-12.9-15.3-14.7-25.1-4-21.3,12.6-36.6,34.6-31.6,8.8,2,16,6.7,22.5,12.6,12.9,11.6,21.1,26,27.6,41.5,6.2,14.7,11.3,29.8,17.5,44.4,2.5,5.9,5.9,11.5,9.9,16.5,3.9,4.9,7.3,4.2,8.5-1.6,9.1-44.1,7-85.6-32.1-117.7-11.8-9.6-24-18.7-35.7-28.5-9-7.5-17.6-15.5-25.8-23.8-9-9.4-15-21.3-17.1-34.2-1.9-9.4-.5-19.1,3.9-27.6,4.6-8.9,12.1-12.7,21.7-9,7.8,2.9,15,7.1,21.3,12.5,15.4,13.2,26.2,29.9,34.8,47.8,5.3,11,9.6,22.4,14.5,33.6,2,4.3,4.2,8.5,6.8,12.5.7,1.1,2.8,1.5,4.2,2.3.7-1.4,1.9-2.9,1.9-4.2-.3-11.1,0-22.3-1.4-33.3-2.9-21.7-7.7-43.2-10.2-65-3-26.2-3.6-52.6,5-78.2,2.4-6.7,5.4-13.2,8.8-19.4,1.9-3.3,4.3-6.3,7.2-8.7,9.6-8.2,20.3-6.6,26.1,4.3,2.4,4.8,4,10,4.7,15.4,3,19.1-1.1,37.6-5.5,56-5.5,23-11.9,45.8-16.5,69-7.4,36.6-8.1,73.7-5.1,110.9.5,6,.5,12.6,6.2,19.5Z"/>
    </g>
  </g>
</svg>