<svg xmlns="http://www.w3.org/2000/svg" viewBox="0 0 326.93 501.76"><defs><style>.cls-1{fill:#338a55;}</style></defs><g id="Layer_2" data-name="Layer 2"><g id="Layer_1-2" data-name="Layer 1"><path class="cls-1" d="M170.39,423.24c2.84-3.38,5.7-6.67,8.43-10.06,15.22-19,30-38.26,45.75-56.84a123.63,123.63,0,0,1,35.86-29.5c8-4.32,16.36-7.74,25.85-7.53,11.08.24,17.15,6.59,15.26,17a49.28,49.28,0,0,1-5.42,14.11C289.5,362.81,279,371.78,267,379.07c-11.27,6.84-22.94,13.08-34.47,19.53-6.37,3.57-13,6.8-19.19,10.55-24.18,14.52-39.68,34.72-44.5,62.14-1.51,8.6-4.16,17-6.65,25.44-1.13,3.83-3.07,6.45-8.45,4.2-8.2-3.41-9.3-4-7.79-9.45,1.09-3.89,2.6-7.68,3.72-11.57,5.85-20.42-.54-37.18-16.91-50.76-13.42-11.13-29.65-16.35-46.62-20-12.65-2.69-25.41-5.09-37.89-8.4-13.66-3.63-26.25-9.52-36.55-19.27a36.6,36.6,0,0,1-11-18.1c-2.95-12.11,3.59-22.33,16.05-25.47,9.21-2.31,18.17-.92,27,1.43,38.73,10.34,69,32.33,93.27,62.58,4.05,5.05,8.36,9.9,13.86,16.39.69-3.86,1.55-5.93,1.34-7.89-2.89-26.71-14.83-49-36.34-66.23-10-8-20.52-15.35-30.83-23-15.42-11.4-29.57-24-40-40C33.22,263.1,26.9,243.41,28.86,221.74c.78-8.64,2.56-17.44,12-20.93,10.08-3.73,18.42,1.14,25.61,7.77a74.54,74.54,0,0,1,20.06,31.65C91,253.36,95,266.61,99.09,279.84c4.55,14.64,10.23,28.78,20.86,40.44,2.79,3.06,7,4.94,10.54,7.36.85-3.74,2.19-7.44,2.46-11.21,2.91-40.81-8.51-78-31.08-112.39C93.27,190.92,85.15,177.5,77,164.12c-7.83-12.8-15.65-25.75-18.8-40.43-1.6-7.44-2.36-15.49-1.22-23C59,87.64,70.71,82,83.83,86.5c10.39,3.58,17.64,10.79,24,19a105.18,105.18,0,0,1,20.64,47.09c3.21,18.92,4.36,38.16,6.58,57.24,1.09,9.36,2.39,18.71,4,28,.53,3.13,2.24,6.07,3.41,9.09l2.23.13c.86-2.6,2.23-5.15,2.52-7.81,2.27-21.46,4.94-42.91,6.33-64.43,2.26-34.85,7.17-69.07,21.22-101.6,8.51-19.71,18.79-38.43,33.45-54.69,6.76-7.49,14.39-13.81,24.39-17,14-4.51,25.36,1.36,29.27,14.9,2.75,9.49,1.19,18.76-1.19,28-5.77,22.31-17.81,41.71-31.38,60.24-9.49,13-19.88,25.32-29.92,37.92-18.37,23.05-32.44,48.05-38,76.92a32.77,32.77,0,0,0-.85,9c.19,2.05,1.81,4,2.79,6a42.14,42.14,0,0,0,5.33-2.68,10.83,10.83,0,0,0,2.6-3.15c22.08-34,51.27-62.52,77.62-93.22,7.81-9.11,15.81-18.21,24.81-26.19,7.11-6.31,15.27-12.15,24-16,16.84-7.37,30.66,2.75,29.1,20.49-.81,9.2-4.4,17.59-9.54,25.43-13.43,20.49-32.13,35.66-53.35,48.07-16.79,9.82-34.27,18.53-51.13,28.24-35.49,20.44-57.32,50.13-63.93,89.52-2.65,15.78-1.77,31.61,1.58,47.28a21.13,21.13,0,0,0,1.65,4.8c1.17,2.4,3.36,2.74,4.92.8a32.3,32.3,0,0,0,5.26-8.68c5.1-13.61,10.15-27.24,14.72-41,5.87-17.71,12.13-35.16,23.79-50.35,6.75-8.79,14.48-16.57,24.25-22.23a55.22,55.22,0,0,1,11.47-4.91c17.5-5.29,29.21,3.74,27.9,21.41-.89,11.88-6.34,22.26-13.74,31.25-13.48,16.4-27.77,32.21-42.08,48-9.47,10.42-20,20-29.28,30.53-14.6,16.6-19.35,35.57-12.45,56.69a12.21,12.21,0,0,0,1.3,2.73A15.81,15.81,0,0,0,170.39,423.24Z"/></g></g></svg>