<svg xmlns="http://www.w3.org/2000/svg" viewBox="0 0 254.93 287.7"><defs><style>.cls-1{fill:#37803f;}</style></defs><g id="Layer_2" data-name="Layer 2"><g id="Layer_1-2" data-name="Layer 1"><path class="cls-1" d="M60.19,253.56c2.15-3.33,3-6.84,4.18-10.18,3.79-10.6,7.53-21.2,9.29-32.4,2.13-13.53-3.21-24-12.63-33.25-7.21-7-15.4-13-22.36-20.33-10.53-11-17.12-24.25-22.34-38.3C12,107.3,10.54,94.93,8.57,82.66,6.25,68.21,6,53.5,3,39.13c-.52-2.51-.94-5-1.45-7.54a3.35,3.35,0,0,1,1.15-3.7,3.56,3.56,0,0,1,4.21,0,70.91,70.91,0,0,1,8.77,5.87C25.38,41.88,35,50.1,42.79,60.2c9.35,12.19,15.81,25.48,15.46,41.11-.18,8.13-1.18,16.24-1.54,24.38-.38,8.59-.58,17.22,2.86,25.43a88.26,88.26,0,0,0,10.51,18c3.93,5.36,7.14,11.14,10.72,16.7.33.52.57,1.36,1.28,1.32s1.15-.85,1.4-1.52a11.71,11.71,0,0,0,.51-4.33c-.14-15.58-1.79-31.05-3.51-46.5-2.32-20.75,5.29-37.13,21.66-50.09a113,113,0,0,1,34.53-18.2c2.56-.86,5.09-1.77,7.66-2.59a11,11,0,0,1,3-.59c2.11-.07,4.43-.5,5.83,1.67s.36,4.07-.72,5.91a299.29,299.29,0,0,1-26.31,38.44c-9.9,12-19.21,24.53-25.1,39.08a66.19,66.19,0,0,0-4.64,29.33c7-7.46,12.29-15.84,18.34-23.67,8.71-11.24,17.81-22.06,28.81-31.31,8.9-7.48,15.61-16.95,22.45-26.21,15-20.31,31.7-39,51.09-55.44A114.64,114.64,0,0,0,243.93,7.39a24,24,0,0,1,4.44-6c2.34-2.26,4.24-1.81,5.41,1.27a19.6,19.6,0,0,1,1.11,6.47c.62,28.42-6.47,54.54-24.54,77.21-7,8.74-16.2,15.06-25.29,21.49a113.3,113.3,0,0,1-26.38,13.71C161.35,128,147.57,139,135.08,152c-11.14,11.59-21.65,23.7-31.92,36-4.64,5.57-7.32,12.06-9.9,18.63-.47,1.18-.89,2.37-1.44,3.86,12.2-4.78,24-9.64,34.89-16.59,11.08-7.08,20.21-16.18,28.86-25.79,10.8-12,23.47-21,39.44-25.21,9.13-2.42,18.56-3,27.79-4.74,3.84-.72,7.66-1.67,11.6-1.72,4.25-.06,5.52,1.46,5.09,5.53a21,21,0,0,1-2.28,6.73,115.06,115.06,0,0,1-42.63,49c-9.35,6-19.9,9-30.74,11.21a377.74,377.74,0,0,1-44.31,5.92C104,216.07,92.41,223,84.33,236a114.41,114.41,0,0,0-12.75,28.92c3-1.13,5-2.94,7.3-4.37s4.53-2.9,6.67-4.53a142.08,142.08,0,0,1,25.86-15.69A83.2,83.2,0,0,1,162,233.37c8.53,1.49,17,3.5,25.62,4.31,9.1.84,18,.43,26.68-3,2.33-.91,5.27-2.5,7.19.19,1.73,2.43-.52,4.7-1.86,6.67-7.76,11.45-18.8,18.88-31.53,24-9.73,3.94-19.8,6.68-30.46,6a132.61,132.61,0,0,1-31.29-5.34,61,61,0,0,0-26.26-2.17c-9.87,1.31-17.78,6.74-25,13.14-2.9,2.57-5.71,5.25-8.51,7.94a9.65,9.65,0,0,1-5.23,2.42c-2.47.44-3.88-1.14-4.47-3.24a49.47,49.47,0,0,1-1.63-7.77c-1-8.33-5.17-15-10.91-20.82-4.72-4.82-9.5-9.58-13.89-14.7-5.85-6.81-9.59-14.82-12.86-23-5.18-12.94-10.7-25.72-16.27-38.49C.22,177-.82,174.2,1,171.79s5-1.39,7.59-1c18.6,2.73,30.57,13.73,38.19,29.93,3.64,7.74,4.33,16.23,6,24.46,1.53,7.63,2.84,15.29,5.08,22.76A17.83,17.83,0,0,0,60.19,253.56Z"/></g></g></svg>