<svg xmlns="http://www.w3.org/2000/svg" viewBox="0 0 278.51 293.44"><defs><style>.cls-1{fill:#2e3192;}</style></defs><g id="Layer_2" data-name="Layer 2"><g id="Layer_1-2" data-name="Layer 1"><path class="cls-1" d="M103.24,89.33C103,102,103,110.66,105.4,119.17A68.77,68.77,0,0,0,124.71,151c2,1.92,3.3.37,4.29-1,2.1-2.77,2.87-6.11,3.43-9.45,1.95-11.62.29-23.15-.82-34.71-1-10.74-2.09-21.51-.24-32.29C134,58.31,140.68,45.38,154,36.29a14.49,14.49,0,0,1,7.51-2.72,6.2,6.2,0,0,1,6.77,4.52c3.57,10,3.08,20.2,1.4,30.37-2.14,13-7,25.11-11.76,37.33-5,13-10,26-11.71,39.93a85.58,85.58,0,0,0,3.48,36.61c1.61,5,3.34,10.08,6.32,14.56,1.05,1.58,2,3.54,4.36,3.39,2.55-.15,3.53-2.18,4.37-4.14,2.08-4.86,2.63-10.08,3.49-15.21,2.85-17,3.23-34.24,5.79-51.25,1.3-8.63,3.61-17,8.12-24.63,7.39-12.43,12.59-25.84,18.69-38.85,1.21-2.56,2.37-5.16,3.74-7.64a9,9,0,0,1,3.93-4.15c3.28-1.53,5.15-1.11,7.06,1.93,3.1,4.92,4.32,10.49,5.33,16.07a108.08,108.08,0,0,1,1,31.71c-1,9.25-4.13,17.95-8.17,26.38-6.36,13.25-14.37,25.56-22,38.09a79.91,79.91,0,0,0-9.09,22.28c-2,7.74-3.79,15.44-4.19,23.44-.84,16.56,3.33,31.67,13.16,45.25,2.8,3.87,5.43,7.85,8.13,11.79a21.63,21.63,0,0,1,2.4,4.93c1,2.69,1.21,5.34-1.07,7.39a8.59,8.59,0,0,1-8.84,1.92c-5.15-1.68-9.84-4.34-14.75-6.55-16.14-7.3-32.87-9.48-50.13-4.83-10,2.7-19.71,6.66-29.48,10.25-12,4.43-24.12,8.85-37.25,9-13.38.13-26.11-2.47-38-8.71a18.38,18.38,0,0,1-5.85-4.59c-3.06-3.74-2.26-7.52,2-9.77,3.08-1.61,6.48-2.32,9.81-3.16a145.68,145.68,0,0,0,28.93-10.81c15.5-7.65,31.65-9.48,48.69-6.83,10.62,1.65,20.95,4.45,31.45,6.52,4.51.89,9,1.43,13.59.49s5.93-3.29,3.63-7.25A22.58,22.58,0,0,0,142.2,239c-19.06-6.28-38.65-9.8-58.82-8.79-9.34.47-18.62.33-27.94-.07a42.55,42.55,0,0,1-14.63-3.27c-9.08-3.77-17.8-8-23.45-16.54-2.88-4.32-4.8-8.95-4.44-14.15.54-7.76,5.27-13,13.52-15.63,7.14-2.25,14.16-1.3,21.22.5A98,98,0,0,1,85,199.75a64.62,64.62,0,0,0,24.33,12.51c5.18,1.33,10.47,2.3,15.27-1.25,3.41-2.53,5-5.84,4.15-10.08-1.56-7.93-6.28-14-12.25-19.15-8.09-6.92-17.7-10.84-28.12-13.42-8.69-2.15-17.52-3.55-26.2-5.56-17.27-4-30.93-13.38-39.65-28.81a38.76,38.76,0,0,1-4.32-28.41c1.17-5.1,4.3-8.23,8.45-8.72,2.89-.34,5.22,1,7.55,2.32,6.28,3.73,10,9.77,14.22,15.31,4,5.18,7.57,10.65,12.18,15.34A24.91,24.91,0,0,0,72.29,137c4.93,1.24,7.53.43,10.14-3a9.16,9.16,0,0,0,.37-11c-6-9.09-12.57-17.67-20.93-24.85-6.4-5.49-13.45-10.13-20-15.44C26.49,70.08,15.12,54.8,8.21,36.32a152,152,0,0,1-7.6-26C0,7.17-1,3.69,2.36,1.19c3.1-2.29,6.06-.8,8.92.51,13.3,6.09,25,13.87,30.82,27.93,3.19,7.71,5.64,15.67,8.5,23.49s5.44,15.94,10,23.17A36.29,36.29,0,0,0,72.15,87.6c2.26,1.44,3.64.69,3.94-2,.22-2-.46-3.8-.75-5.69-1.54-10-2.53-20.14-4.28-30.15-.86-4.94.17-9.48,4-13.09,4.17-3.9,9.46-4,13.79-.15,3.81,3.35,5.72,7.86,7.56,12.35A98.75,98.75,0,0,1,103.24,89.33Z"/><path class="cls-1" d="M274.68,78.81c.31,15.71-1.68,31.05-7.88,45.65-3.91,9.22-9.52,17.58-14.41,26.31-11.46,20.47-22,41.33-27.61,64.2a93.24,93.24,0,0,0-.6,40.82,24.25,24.25,0,0,0,1.9,5.42c.85,1.83,2,1.8,2.87-.06a31.21,31.21,0,0,0,1.92-5.42c3.16-13.57,7.12-26.82,13.31-39.46,6.69-13.66,12.55-27.72,18.81-41.59.83-1.83,1.81-3.61,2.78-5.37s2.19-3.24,4.56-3a4.8,4.8,0,0,1,4.2,3.89A99.29,99.29,0,0,1,278,186.57c2.42,22.28-4.57,41.61-19,58.67-5,5.91-9.72,12-14.6,18.05-3.34,4.12-5,8.92-6.1,14-.77,3.58-1.5,7.18-3.38,10.41s-4.5,3.66-7.36,1.23a18.28,18.28,0,0,1-3.42-4,127.92,127.92,0,0,1-19.51-50.4c-3-19.15-.26-37.65,7.63-55.51,4.76-10.77,11-20.73,16.34-31.2,10.39-20.55,14.13-42.42,13.28-65.19-.39-10.32-1.25-20.64-.79-31,.53-11.89,3.17-23,11.75-32a37.15,37.15,0,0,1,4.28-3.94c3.59-2.75,7.57-1.56,9.12,2.69,1.82,5,2.57,10.28,3.53,15.49A290.38,290.38,0,0,1,274.68,78.81Z"/></g></g></svg>