<svg xmlns="http://www.w3.org/2000/svg" viewBox="0 0 207.09 242.57"><defs><style>.cls-1{fill:#1a4675;}</style></defs><g id="Layer_2" data-name="Layer 2"><g id="Layer_1-2" data-name="Layer 1"><path class="cls-1" d="M113.93,116.19c2.53.61,3.55-1.26,4.76-2.46,16.79-16.71,37-26.73,60.2-30.9a63.29,63.29,0,0,1,14.93-.46c5.57.32,11,2.24,12.77,7.73,1.73,5.23-1.36,10.18-5.08,13.77A52.91,52.91,0,0,1,173,118.17c-17.37,2.9-34.81,5.39-52.24,7.9-11.18,1.62-19.64,6.65-23.73,17.71-1.15,3.11-2.5,6.15-3.68,9.25-.79,2.1-1.29,4.42.85,5.92s3.76-.18,5.29-1.44c3-2.41,5.71-5.12,8.82-7.31,7.52-5.31,16.34-6.87,25.15-8.73,16.1-3.39,31,.37,45.43,7,8.73,4,9.19,11,1.35,16.78-7.4,5.42-15.93,8-25,9.06-9.74,1.1-19.18-1.09-28.73-2.39-10.84-1.49-21.68-3.12-32.7-2.63-3.84.17-7.12,1.19-9.73,4.18-3.4,3.9-6.8,7.78-8.59,12.73-1.57,4.32.51,6.8,5,5.94a11.36,11.36,0,0,0,4.13-1.66c18.47-12.32,37.55-10.87,57-2.75,4,1.66,8.17,2.81,11.56,5.66,4,3.35,4,5.07-.16,8.08-16.39,12-34.77,13-53.79,9.24-7.47-1.47-14.76-3.87-22.1-5.95-4.47-1.27-7.79,0-10.17,4-5.36,9-9,18.77-12.08,28.75-.93,3-1.86,6.06-5.82,4.85s-3.72-4.34-2.47-7.7a153.42,153.42,0,0,0,8.11-29.1,6.13,6.13,0,0,0-1.88-5.75c-6.24-6.76-13.33-12.57-20.5-18.23-17-13.45-26.17-31.4-30.52-52.17C.67,124-.68,118.72.4,113.1c1.42-7.41,5.17-9.37,11.77-5.6a19.94,19.94,0,0,1,4.45,3.19c13.83,14.2,28,28.25,33.16,48.34,1.58,6.1,2.41,12.4,4,18.49a80,80,0,0,0,4.3,11.12c1.38,3.17,3.48,4.1,5.82.92,5.34-7.27,8.4-15.22,5.19-24.2-3.94-11-10.75-20.57-16.74-30.51-7.28-12.09-14.69-24-17.13-38.33-2.34-13.66-3.89-27.36-2.45-41.18.45-4.36,1.09-10,5.53-11.54,4.63-1.64,6.95,3.68,9.37,6.76,16.49,21,24.89,45,27.26,71.47.86,9.62.36,19.5,3.6,28.86.48,1.39.33,3.09,2.4,3.24s2-1.83,2.64-2.9c9.1-15.92,9-32.61,4.92-50-5.19-22.37-10.77-44.73-10.13-68a70.05,70.05,0,0,1,6.11-28c3-6.55,9-7,13.29-.84a61.37,61.37,0,0,1,8,16.41c2.42,7.69,3,15.66,3.52,23.6.86,13.61,1.62,27.25-1.63,40.73C107,88,106.63,91,106.2,94c-.15,1-1.17,2.41.3,3.07s2.13-.77,2.68-1.71c5.24-9,10.76-17.71,13.6-27.92,3.69-13.24,8.17-26.31,16.76-37.31,7.81-10,16.77-18.94,28.4-24.58,7.48-3.63,11.25-1.1,11.76,7.19.73,11.59-3.63,21.86-8.32,31.93C165.15,58,156.61,70.07,145.22,79.48c-11.74,9.7-22,20.5-30.07,33.36C114.58,113.74,113.43,114.51,113.93,116.19Z"/></g></g></svg>