<?xml version="1.0" encoding="UTF-8"?>
<svg id="Layer_1" xmlns="http://www.w3.org/2000/svg" version="1.1" viewBox="0 0 303.7 511.8">
  <!-- Generator: Adobe Illustrator 30.0.0, SVG Export Plug-In . SVG Version: 2.1.1 Build 123)  -->
  <g id="Layer_2">
    <g id="Layer_1-2">
      <path d="M122.8,221.4c-1.4-4.3-2.3-8.8-4.2-13-5.5-12-11.6-23.8-17.2-35.8-10.9-23.3-18.4-47.4-17.2-73.3,1.8-42.4,23.2-73.3,61.7-93.6,7.4-4.1,15.8-6,24.3-5.6,13.3.7,23.1,9.4,24.6,22.2,1.1,9.4-1.2,18.2-5.9,26.3-6.1,10.7-12.4,21.1-19.2,31.4-16.6,25.4-29.2,52.3-33.7,82.2-4.5,30.4-2,60.6,4.7,90.5.6,2.6,2.9,4.9,4.4,7.3,1.8-2.3,4.8-4.4,5.3-6.9,2.3-11.2,4.7-22.5,5.4-33.9.9-15.1-.6-30.4.6-45.5,1.2-14.4,3.5-28.8,6.7-42.9,2.3-10.6,7.9-20.3,15.5-28.4,3.5-3.8,7.6-7,12.1-9.5,14.9-7.6,28.8-2.5,35.2,12.5,5.8,13.3,5.2,27.1,3,40.9-3.6,22.7-13.1,43.3-25.5,62.7-7.1,11.2-15.2,21.9-23.1,32.6-9.2,12.4-18.1,24.9-23,39.6-5.3,15.5-5.4,31.1-1.4,46.9.4,1.5,1.7,2.8,2.6,4.1,1.6-1,4-1.7,4.8-3.1,6.1-10.6,12.4-21.2,17.6-32.2,7-14.7,12.9-29.9,19.6-44.7,7.7-16.8,17.4-32.4,31.7-44.9,8.1-7.1,17-13,28.1-15.1,13.9-2.6,22.4,2.7,25.2,16.1,2.3,10.9-1.3,20.8-6,30.2-10.4,20.8-26.3,37.3-45.1,51.5-14.4,10.8-29.4,21-43.1,32.5-8.3,7-15.2,15.9-21.6,24.6-5.8,7.9-7.9,17.3-7,27,.2,2.8,1.2,5.5,2.2,9.3,7.3-4.2,10.4-10,14-15.2,9.9-14.8,20.6-29,34.1-41,17.3-15.3,36-28.2,60-31.9,5.2-.8,10.5-.7,15.6.3,12.5,2.5,17.7,11.8,14,23.7-2.8,8.7-7.6,16.3-15.5,21.1-9.7,6-19.8,11.6-30.4,15.8-11.7,4.6-24.1,7.3-36.2,10.7-13.4,3.8-25.6,9.4-35.3,19.3s-14.7,22-14.3,35.9c0,2,.2,4,.8,6,.5,1.4,1.6,3.4,2.8,3.7s3.1-1,4.1-2.1c1.8-2.1,3-4.6,4.6-6.8,15-21,34.5-36.4,60.7-42.6,5.8-1.4,11.8-1.5,17.7-.5,13.6,2.7,18.1,14.2,9.1,24.4-5,5.7-11.2,10.2-18.2,13.1-10,3.9-20.9,5.7-31.4,8.2-5.4,1.3-11.1,2-16.4,3.8-18.3,6-27.4,19.2-24.6,37.4,1.6,10.2,5.6,20.1,8.6,30.1.9,2.2,1.9,4.4,3,6.5,1.4,3,2.2,5.8-1.8,7.6-3.8,1.7-7.1,1.2-8.9-2.5-1.5-3.4-2.8-6.9-3.7-10.5-1.4-5.2-2.2-10.6-3.7-15.8-4-13.4-16-20.6-29.9-17.1-8.1,2-15.8,5.6-23.4,9-10,4.5-20.3,7.5-31.5,6.6-13.2-1-22.6-8-23.6-17.8-1.1-10.2,5.8-19,18.7-22.5,16.3-4.4,32.7-3.8,49,.2,6.5,1.6,12.7,3.8,19.1,5.7,2.6.9,5.4,1.6,8.1,2,5.5.5,7.2-1.5,5.9-6.5-2-7.5-6.7-13.3-13.2-17.7-11.6-7.8-24.6-9.5-38.3-7.5-11.5,1.7-22.8,3.9-34.2,5.9-13.6,2.5-27.5,1.4-40.6-3.1-6.9-2.3-13.2-6-18.7-10.8-15.6-14.2-11.9-35,7.3-44.4,14-6.8,28.7-7.1,43-1.8,12.1,4.5,23.7,10.2,35,16.3,12,6.4,23.4,13.7,35.1,20.6,2.3,1.5,4.8,2.8,7.4,3.9,2.8,1,5.9,1.2,8.9,1.8,0-3.2.8-6.7-.2-9.5-4.2-10.6-10.9-20-19.7-27.4-14.9-12.9-33-18.9-52.5-21.4-15.3-2-30.7-3.6-45.9-6.4-7.1-1.3-14-4.5-20.5-7.7-4-2.1-7.5-5-10.3-8.5-10-12.1-6-26.2,9.5-30.1,8.5-2.2,17.3-2.5,25.9-.9,36.8,7.8,69.8,22.8,95.5,50.2,2.5,2.7,5.3,5.1,8.8,8.5,2.5-4.8,1.2-8.2.2-11.6-5.1-16-16.1-27.6-30.9-35.7-11-6-23-10.2-34-16-10.1-5.3-19.9-11.2-29.3-17.7-6.5-4.6-11.3-11.2-13.6-18.9-3.8-12,3.5-21,16.6-20.6,8.5.1,16.7,3.3,23,9,9.4,8.5,17.9,18,26.3,27.5,7.8,8.7,14.8,18,22.6,26.7,2.2,2.5,6.2,3.5,9.4,5.1.2-3.2,1.2-6.6.6-9.6-6.6-30.1-22.4-53.6-52.9-66.1-12.3-5.1-24.7-9.7-37-14.8-11-4.5-21-11-29.5-19.2-9.4-9-16-19.6-18.6-32.3-.7-3.3-1.1-6.6-1-10,1-19.6,16.9-28.8,35.5-20.4,10.5,4.7,18.3,12.6,24.9,21.4,8.5,11.2,15.8,23.1,24.3,34.3,8.7,11.4,18.1,22.4,27.4,33.3,2.3,2.7,5.6,4.6,8.5,6.8.8-.5,1.5-.9,2.3-1.4Z"/>
    </g>
  </g>
</svg>