<svg xmlns="http://www.w3.org/2000/svg" viewBox="0 0 297.17 382.94"><defs><style>.cls-1{fill:#2b4f94;}</style></defs><g id="Layer_2" data-name="Layer 2"><g id="Layer_1-2" data-name="Layer 1"><path class="cls-1" d="M121.28,318.71c8.64.38,17.29,1.16,25.91,1,3.82-.08,9.93,1.14,10.91-3.65,1.07-5.22-5.08-6.71-9-8.31-7.93-3.28-16-6.84-24.38-8.43-15.71-3-31.68-4.75-47.58-6.8-17.6-2.26-35.44-3.64-51.07-12.88-14.44-8.53-25-19.84-26-37C-1,224.8,10,212.46,28.65,212.09c8.17-.16,16.8,1.74,24.54,4.49,16.42,5.83,29.73,16.51,42.13,28.11,14.34,13.43,28.31,27.23,42.78,40.53a49.12,49.12,0,0,0,13.62,8.6c5.15,2.22,8.29-.77,6.7-6.09a24,24,0,0,0-4.75-8.93c-8.85-10-17.66-20.1-27.21-29.48-17-16.64-34.89-32.38-51.6-49.24C52.92,177.94,34.53,153.26,22.09,125c-6.18-14.06-10.72-28.63-7.47-44.25A46.23,46.23,0,0,1,17.2,72C26,51.4,47.94,45.87,65,60.89c7.59,6.67,13.83,15.32,18.82,24,14.26,25,23,52,30.55,79.47,4.64,16.94,9.55,33.82,14.62,50.64a195.81,195.81,0,0,0,22.27,47.88c1.79,2.84,6.05,7,7.94,6.46,4.81-1.34,2.64-6.32,1.85-9.56-4.41-18-9.7-35.89-13.78-54-9.5-42.14-19-84.3-27.35-126.66-2.51-12.74-2-26.21-1.29-39.26.41-7.13,3.16-14.63,6.71-21C139.1-5.87,174-6.33,189.16,17.74c8.45,13.46,9.55,28.28,6.48,43.1-4.17,20.14-9.49,40.07-14.58,60-11.15,43.75-11.6,88.18-9.12,132.77.25,4.38-.06,9.38,5.22,14.18,1.27-4.14,2.32-7.15,3.12-10.22,5.45-20.91,10.15-42,16.44-62.7,7.14-23.47,18.1-45.44,35.34-63.79a108.53,108.53,0,0,1,23-19c18.7-11.16,36.74-2.9,41.22,17.84,2.15,10,.17,19.4-3.89,28.6-7.27,16.5-19.07,29.85-32.4,42-12,10.92-24.42,21.37-36.62,32.08-12.77,11.21-24.24,23.56-33.44,37.63-3.69,5.64-6.35,12-8.84,18.23-.62,1.55,1.23,4,2,6.06,1.76-.9,4-1.42,5.2-2.78a140,140,0,0,0,8.84-11.33,160.76,160.76,0,0,1,36.62-36.12,74.43,74.43,0,0,1,32.54-13.61c19.37-3,31.26,11.26,24.17,28.87-3.87,9.61-11.18,16.47-20.5,20.91-9.72,4.64-19.92,8.38-30,12.21-11.75,4.45-23.72,8.39-35.42,13a40,40,0,0,0-10.54,6.54c-3,2.42-1.73,5.26,1.6,6A42,42,0,0,0,207,319c10.53-.5,21-1.76,31.57-1.88a72.91,72.91,0,0,1,19.77,2.34c10.66,2.91,19.19,8.82,21,20.31,1.56,10.15-4.22,19.53-15.8,25.1-19.21,9.24-39.4,9.84-59.46,3.46-9.21-2.92-18-7.59-26.2-12.69-11.61-7.25-22-8.05-33.39.44A253,253,0,0,1,118,372.92c-14.32,8.16-29.77,12.07-46.49,8.95-12.24-2.29-21.53-8.27-25-20.45-3.51-12.51,1-22.49,11.22-30.4a59.27,59.27,0,0,1,30.69-12.29A143.69,143.69,0,0,1,121.28,318.71Z"/></g></g></svg>