<svg xmlns="http://www.w3.org/2000/svg" viewBox="0 0 249.07 313.94"><defs><style>.cls-1{fill:#302a6e;}</style></defs><g id="Layer_2" data-name="Layer 2"><g id="Layer_1-2" data-name="Layer 1"><path class="cls-1" d="M109.14,255c-2-19.85-6.84-38.1-20.7-52.94-10.17-10.89-22.44-19.3-33.64-29C30,151.68,18.93,124.69,21.11,92.17,21.79,82,28.4,78,38.05,81.5,55.87,87.9,67,101.39,76.19,117.05c7.15,12.14,10.86,25.53,15,38.8,2.9,9.35,6.31,18.46,11.68,26.74,1.66,2.55,3.81,4.49,6.49,7.15a138.32,138.32,0,0,0,.32-24.34c-1-17.46-5.47-34.45-7-51.8-3.31-36.44,2.68-70.78,25.06-100.95a35.91,35.91,0,0,1,9.56-9.4c9.19-5.77,21.17-4.29,25.33,8,4.49,13.24,4.75,26.32,4.12,39.77-1.22,26.43-9.77,50.55-22.79,73.36-12.77,22.37-17.1,46.92-17.87,72.82,3.73-1.17,5.48-3.92,7.36-6.48,8.72-11.87,14.11-25.45,19.48-39,9.42-23.72,23-44.46,42.87-60.69,6-4.88,12.86-7.66,21-7.08,4.1.3,5.47,2.44,6.38,5.55,3.31,11.28,1.24,22.23-1.61,33.31-6.73,26.13-22.87,45.23-43.91,61-11.16,8.37-23,16.08-31.76,27.17a66.15,66.15,0,0,0-14.68,40.41c0,1.6-.5,3.75,1.33,4.42,1.49.54,2.55-1.27,3.58-2.29,5.93-5.88,10.54-12.84,15.62-19.42q28.91-37.43,74.73-49a120.53,120.53,0,0,1,12.12-2.74c6.41-.94,10.69,2.84,10.49,9.33-.27,9.07-3.9,17-8.88,24.43-12.33,18.29-29.68,30.15-49.69,38.48-9.63,4-19.56,7.31-29.18,11.37-19.38,8.18-31.67,22.51-36,43.24-.64,3.09-2.14,4.52-4.79,4.69-3,.18-5.55-1.05-6.15-4.5-3.76-21.67-18.07-33.34-37.73-40.14-24.77-8.57-46-22.79-64.4-41.29A69.53,69.53,0,0,1,2.9,216.36c-5.48-8.59-3.14-15.88,6.62-19.11,12.29-4.07,24.55-2.61,36.65,1.38,17,5.59,28.07,18.38,39,31.44,6.19,7.41,12,15.11,19.14,21.72C105.51,252.91,106.53,254.29,109.14,255Z"/></g></g></svg>