<svg xmlns="http://www.w3.org/2000/svg" viewBox="0 0 272.53 457.31"><defs><style>.cls-1{fill:#2b4f94;}</style></defs><g id="Layer_2" data-name="Layer 2"><g id="Layer_1-2" data-name="Layer 1"><path class="cls-1" d="M152.79,113.13c-6,9.51-12.8,18.62-17.78,28.61-9.43,18.88-10.86,38.87-7.31,59,.74,4.22,1,10,6.45,10.11,4.82.1,5.89-5.24,7.15-9.18,5.23-16.32,10-32.77,15.61-49,5.49-15.95,12.23-31.5,23.58-44.38a64.91,64.91,0,0,1,15.83-13.52c16-9.16,32.25-1.76,36.34,16,2.69,11.63.07,22.71-5.56,33.27-6.89,12.92-16.62,23.47-27.68,32.84-12.56,10.64-25.72,20.63-37.6,32-13.62,13-23,28.82-21,48.34.86,8.43,3.89,16.6,6.58,24.65.68,2,3.74,4,6,4.25,1.41.14,4-2.75,4.78-4.76,2.26-5.49,4-11.2,5.74-16.87,5.14-16.38,10.54-32.64,19.69-47.46,6.21-10.05,14-18.59,24.17-24.44a41.07,41.07,0,0,1,14.49-5.31c12.13-1.61,20.3,7.25,18.48,19.5-1.48,10-6.54,18.47-13.23,25.89Q215.77,245.62,203.59,258c-11.36,11.56-22.26,23.46-30.62,37.47-9.49,15.92-11,32.24-3.69,48.77a30.14,30.14,0,0,0,5.49,8.45c3.34,3.52,7.52,3.14,10.51-1a32.46,32.46,0,0,0,4.6-9.35c3.41-11,6.48-22.13,9.71-33.2,4.83-16.58,11.08-32.67,22.16-46.18a99.2,99.2,0,0,1,19.38-17.42c7.32-5.18,15.72-5.8,23.18-.66s9.1,13.17,7.83,22c-1.82,12.56-8.37,23.08-16.37,32.5-11.37,13.39-23.7,25.94-35.12,39.28-7.51,8.78-14.85,17.88-21,27.65a38.9,38.9,0,0,0-4.1,34.09c1.13,3.32,1.65,8.57,6.37,7.65,2.14-.41,4.36-4.89,5.3-7.88,4.28-13.7,7.44-27.92,15.74-39.91a73.91,73.91,0,0,1,16.81-16.91c6.1-4.5,13.56-5.61,20.25-.93,7.17,5,9.09,12.42,7.5,20.93-1.95,10.45-8.31,18.48-15.71,25.63-6.3,6.08-13.24,11.48-19.6,17.5-13.33,12.6-14.41,24-4,38.5,1.18,1.65,3.32,3.23,3.34,4.94a10.25,10.25,0,0,1-2.63,6.88c-.94.91-4.78.41-5.88-.8a107.08,107.08,0,0,1-9-12.26c-12-17.91-28.83-25.44-50.65-23.38a411.45,411.45,0,0,1-43.08,2c-18.76-.19-36.48-4.34-51.34-16.35-6.2-5-10.91-11.06-12.92-19-2.89-11.46,2.87-21.87,14.23-25.53,9.17-3,18.31-2.29,27.35-.08,16,3.91,30.43,11.13,44.45,19.31q10.06,5.87,20.15,11.67a12.12,12.12,0,0,0,3.59,1.84c3.84.7,7.74,1.11,11.62,1.64-.4-3.9.18-8.29-1.35-11.61-8.23-17.9-21.76-30.21-40.83-35.16-10.43-2.71-21.36-3.81-32.13-5.23-21.64-2.87-41.71-9.55-58.57-23.4A71.28,71.28,0,0,1,29.94,304c-5.21-8.15-6.12-17.67-.4-26.56S44.24,266,54,266.72c12.14.91,23,5.29,33.11,11.81,15.4,10,28,23.17,41.17,35.82a122.13,122.13,0,0,0,14.9,12c1.62,1.13,5.08,1.54,6.46.52s1.77-4.47,1.27-6.47c-4.75-19.09-13.74-35.44-28.82-48.05C107.28,260,89.6,253.51,71.59,247.65c-18.36-6-36.44-12.42-51.49-24.92-9.86-8.19-17-18.28-19.23-31.46-3.39-20.18,9.74-32.76,29.4-28.08,17.2,4.09,30.41,14.68,41.52,27.61,11.6,13.5,22,28.1,33,42.09A143.7,143.7,0,0,0,117,246.37a5.71,5.71,0,0,0,5.47.69c1.31-.78,2.45-3.67,2.14-5.26A95.26,95.26,0,0,0,120,225c-8-20-21.34-36.27-36.8-50.48C68.84,161.32,53,149.67,38.4,136.7A354.56,354.56,0,0,1,9.87,108.12C3.7,101.24.48,92.42,0,82.76-.73,66.42,12.18,56.41,27.32,61.58a44.7,44.7,0,0,1,22.8,17.81c9.05,13.46,17.61,27.31,25.46,41.54C83.12,134.6,89.34,149,96.46,163a127,127,0,0,0,9.79,15.35,4.66,4.66,0,0,0,4.42,1.27,5.31,5.31,0,0,0,2.29-4.23,98,98,0,0,0-2.24-16.29c-5.61-22-14.21-42.74-24.53-62.79-8.07-15.67-15.64-31.7-22.14-48.14-2.64-6.66-2.37-14.81-2.39-22.33,0-3.94,1.71-8.22,3.53-11.94C73.07-2.24,90.78-4.87,101,8.9c3.93,5.29,7.34,11.83,8.38,18.33a370.6,370.6,0,0,1,4.34,45.19c.45,12.76-1.18,25.66-1.38,38.48-.1,5.85.92,11.68,1.68,17.47.14,1.11,1.62,3,2.16,2.84a6.45,6.45,0,0,0,4-2.54,56.06,56.06,0,0,0,3.5-8.77c5.49-16.06,7.33-32.64,8.59-49.3.55-7.28.7-14.59,1.74-21.82a102.58,102.58,0,0,1,4.27-17.21c3-9.12,9.36-15,18.73-16.3,9.87-1.38,17.09,3.53,22.24,11.34,6.58,10,6.66,21.27,4.09,32.92-3,13.59-10,25.36-17.54,36.86-3.85,5.88-8.17,11.45-12.27,17.17Z"/></g></g></svg>