<?xml version="1.0" encoding="UTF-8"?>
<svg id="Layer_2" data-name="Layer 2" xmlns="http://www.w3.org/2000/svg" viewBox="0 0 180 90">
  <defs>
    <style>
      .cls-1 {
        fill: #fff;
      }
    </style>
  </defs>
  <g id="Layer_1-2" data-name="Layer 1">
    <g>
      <rect class="cls-1" x="45" width="7.5" height="7.5"/>
      <rect class="cls-1" x="22.5" y="7.5" width="7.5" height="15"/>
      <rect class="cls-1" x="105" width="7.5" height="7.5"/>
      <polygon class="cls-1" points="120 45 120 15 135 15 135 7.5 120 7.5 112.5 7.5 112.5 22.5 105 22.5 105 30 112.5 30 112.5 37.5 90 37.5 90 30 82.5 30 82.5 37.5 60 37.5 60 7.5 52.5 7.5 52.5 37.5 30 37.5 30 30 22.5 30 22.5 37.5 0 37.5 0 45 22.5 45 22.5 75 30 75 30 45 60 45 105 45 105 52.5 112.5 52.5 112.5 45 120 45"/>
      <rect class="cls-1" x="82.5" y="7.5" width="7.5" height="15"/>
      <polygon class="cls-1" points="127.5 37.5 127.5 45 165 45 165 52.5 172.5 52.5 172.5 45 172.5 30 165 30 165 37.5 127.5 37.5"/>
      <polygon class="cls-1" points="180 15 180 0 172.5 0 172.5 7.5 157.5 7.5 157.5 30 165 30 165 15 180 15"/>
      <rect class="cls-1" x="82.5" y="52.5" width="7.5" height="15"/>
      <rect class="cls-1" x="142.5" y="67.5" width="7.5" height="7.5"/>
      <polygon class="cls-1" points="165 60 165 67.5 172.5 67.5 172.5 75 165 75 165 82.5 120 82.5 120 52.5 112.5 52.5 112.5 82.5 90 82.5 90 75 82.5 75 82.5 82.5 60 82.5 60 75 52.5 75 52.5 82.5 0 82.5 0 90 60 90 120 90 172.5 90 172.5 82.5 180 82.5 180 52.5 172.5 52.5 172.5 60 165 60"/>
      <rect class="cls-1" x="142.5" y="52.5" width="7.5" height="7.5"/>
    </g>
  </g>
</svg>