<svg xmlns="http://www.w3.org/2000/svg" viewBox="0 0 192.24 184.37"><defs><style>.cls-1{fill:#6f4599;}</style></defs><g id="Layer_2" data-name="Layer 2"><g id="Layer_1-2" data-name="Layer 1"><path class="cls-1" d="M91.27,29.08c0-8.12,0-16.25,0-24.38,0-2.36,0-4.95,3.81-4.68,6.91.5,7.56.9,7.62,5.21.23,15.38-.4,30.76.53,46.13,0,.62-.14,1.25-.09,1.87.08,1-1.53,2.8.76,2.88,1.85.07,3.82,2.33,5.73-.59,8.89-13.55,17.79-27.07,24.62-41.77.74-1.6,1.14-4.07,3.52-3.94,3,.16,5.44,2,7.72,3.83.91.72,0,1.63-.45,2.34a169.88,169.88,0,0,0-11.46,25.59c-2,5.45-5.37,10.16-9,14.74a46.78,46.78,0,0,0-3.31,5c-.76,1.27-1.8,2.74.18,3.85,1.53.86,2.84,2.63,5.06,1,12.78-9.17,26.48-16.93,40.08-24.84.66-.38,1.2-1,1.86-1.33,1.66-.92,2.66-3.86,4.9-2.69,2.5,1.29,3.81,4,4.68,6.65.65,2-1.29,2.84-2.55,3.74q-13,9.34-26,18.54C144.25,70,139,73.82,133.58,77.35c-2,1.32-2.08,2.44-1.31,4.49s1.84,2,3.76,1.76a151.27,151.27,0,0,1,24.9-1.3c6.79.27,13.6.47,20.35-.44,2.74-.37,5.4.21,8.11.17,3.61,0,2.47,3.45,2.75,5.57.23,1.74.27,3.76-2.45,4-15,1.47-30,3-45,4.43-2.47.24-5.33.75-7.42-.16-4.34-1.89-3.45,1.47-4.23,3.29-1.14,2.67.78,3,2.71,3.64a83.91,83.91,0,0,1,20.19,8.8,139.38,139.38,0,0,0,26.84,12.63c3.34,1.21,3.54,2.69,2.31,5.24-.65,1.35-1.5,2.6-2.18,3.94-1,2-2.53,2.2-4.46,1.38-16-6.79-32.57-12.33-47.92-20.56-1.69-.9-2.64-1.25-4,.56-1.16,1.57-1.93,2.4-.3,4.3,11.68,13.61,21.46,28.56,31.7,43.19,1,1.38.79,2-.45,3-5.48,4.49-5.48,4.56-10.21-.72-11-12.22-20.77-25.35-30.71-38.36-1.82-2.38-3.38-2-5.36-1.38-2.35.73-1.53,2.55-1.09,4.06,3.29,11.17,4.19,22.77,6.54,34.11,1.13,5.47,3.79,10.55,4.16,16.25.12,1.89-.14,3-2.07,3.48a45.4,45.4,0,0,1-5.6,1.1c-1.77.17-3.36-.42-3.52-2.5-.79-10.41-4.71-20.1-7.21-30.11a138.29,138.29,0,0,1-3.17-18c-.33-2.89-2.06-2.35-3.92-2.67-2.51-.43-2.84,1-3,2.69-1.73,16.31-8.19,31.57-11.13,47.61-.62,3.42-3.37,4.2-8.46,2.87-3.22-.84-2.25-2.8-1.77-5,1.67-7.55,5.09-14.68,5.93-22.38a166.26,166.26,0,0,1,4.87-27.22c.5-1.77-.41-2.51-1.93-3-1.22-.38-2.48-1.86-3.58.1-5.89,10.5-15.86,17.55-23.6,26.48a87.36,87.36,0,0,0-10,13.68c-1.43,2.49-3.07,3.15-5.5,1.39-.62-.45-1.29-.82-1.93-1.24-4.19-2.7-4.27-3-1.38-6.9,9.85-13.23,19.91-26.3,30.54-38.95,1.5-1.78,3.45-3.64.77-6.09-.94-.86-1.43-1.33-2.83-.58-15.72,8.42-33.64,11.46-49.63,19.2-3.81,1.84-4.8-.92-6-3-1.35-2.33-2-4.92,1.6-6.3,16.3-6.19,30.87-16.13,47.74-21,3.45-1,3-2.73,2.9-5.1C58.74,94.81,56.5,96,55,96c-13.56-.59-26.9-3-40.32-4.79-3.28-.43-6.59-.76-9.89-1-2-.11-3.69-.61-4.15-2.58-.52-2.3-1.29-5.31.57-6.76,1.52-1.18,4.46-1,6.71-.85,6.77.55,13.52,1.06,20.32,1a165.73,165.73,0,0,1,29,2.6c1.62.26,3.24.83,3.5-1.34.21-1.84,2.75-3.64-.6-5.68-13-7.87-24.83-17.18-36.46-26.79A52.89,52.89,0,0,1,19.42,46c-3.74-3.82-2.77-8.22,2.18-10.51a2.42,2.42,0,0,1,3.08.65c8.12,8.77,18.83,14,28.86,20.21a104.26,104.26,0,0,1,12.91,9.38c2.86,2.45,4-.36,5.79-1.28,2-1.05,1.21-2.62.21-3.76-9.63-11-13.64-24.6-18.82-37.68-1.11-2.78-2.23-5.56-3.4-8.32-.95-2.24-.13-3.58,2.11-4.3.24-.08.46-.22.7-.31,6.13-2.48,6-2.4,8.72,3.76A305.74,305.74,0,0,0,81.54,50.91a14.21,14.21,0,0,1,1.7,2.93c.82,2.58,2,3.29,5.05,2.73S91,54.28,91,52.35q0-11.64,0-23.27Z"/></g></g></svg>