<svg xmlns="http://www.w3.org/2000/svg" viewBox="0 0 173.25 166.53"><defs><style>.cls-1{fill:#facb15;}</style></defs><g id="Layer_2" data-name="Layer 2"><g id="Layer_1-2" data-name="Layer 1"><path class="cls-1" d="M100.69,120.72c1.18,14.31-3,27.43-9.26,40.1-1.1,2.22-2.37,5.65-4.4,5.71-2.23.06-3.09-3.5-4.27-5.63-7-12.69-11.2-26-10.53-40.79-1.21,1.9-2.5,3.75-3.63,5.69-7.53,13-20.38,19.43-34,24.87-3,1.17-3.21-.64-3.14-2.73a58,58,0,0,1,10.41-31.32c2.39-3.5,5.07-6.82,8-10.71-5.59,1.29-10.39,3.46-15.58,4.46-10.43,2-20.68.72-30.94-.76-4-.58-4.21-1.78-1.36-4.83C11.52,94.53,23.64,88,37,83.28c1.53-.53,3-1.15,4.79-1.83C25.71,78.14,13.53,69.75,3.9,57.78.44,53.47.86,52.39,6.59,52c13-.86,26-.53,38.48,3.71,1.27.43,2.48,1.23,4.16.8-.42-2.08-2.31-3.1-3.55-4.5-8.74-9.84-13.77-21-13.91-34-.05-4.42.79-4.87,5.11-3.1,10.87,4.44,21.28,9.57,28.3,19C69,39.07,72.25,44.47,76.4,50.7c-2.27-8.25-2.19-15.55-1.72-22.92.64-9.87,5.08-18.28,10.57-26.36,1.86-2.74,3.07-.95,4.19.63,7.7,10.86,12.81,22.49,12.07,35.9-.16,2.85,0,5.71,0,9,2.46-1.81,3.37-4.39,4.57-6.5,6.88-12.06,17.56-19.92,30.36-25.6,5.07-2.25,5.66-1.75,5.46,3.71-.53,15.28-6,28.52-18.06,39.47,2.85.12,4.82-1.2,6.83-2.07,12.34-5.27,25.23-5.22,38.26-3.79,3.79.41,4.08,1.29,1.91,4.08-7.87,10.12-18,17.62-29.94,23a67.57,67.57,0,0,1-7.05,2.19c5.76,2.3,11.16,3.93,16.15,6.47C158.1,92,165.45,97,171.07,104c1.05,1.31,2.76,2.64,2,4.41-.71,1.59-2.79,1.37-4.39,1.63A89.28,89.28,0,0,1,124,106.43a120.29,120.29,0,0,1,9.92,13.81,62.18,62.18,0,0,1,8.23,27.25c.24,3.26-.75,3.94-4,2.7-7.69-2.95-15.23-6-22-10.75C109.15,134.53,105.11,127.66,100.69,120.72Zm-36-37.94A111.63,111.63,0,0,1,83.79,99.11c2.19,2.4,3.8,2.29,6,.26,4.88-4.42,9.74-8.86,14.86-13,2.34-1.91,2.22-3.14.16-5C99.15,76.22,93.55,71,88,65.74c-1.16-1.09-2-1.62-3.22-.1C79.15,72.32,72.34,77.78,64.7,82.78Zm-14.56-26-.24.24.27.24.25-.36Z"/></g></g></svg>