<?xml version="1.0" encoding="UTF-8"?>
<svg id="Layer_1" xmlns="http://www.w3.org/2000/svg" version="1.1" viewBox="0 0 288.1 294.2">
  <!-- Generator: Adobe Illustrator 30.0.0, SVG Export Plug-In . SVG Version: 2.1.1 Build 123)  -->
  <path d="M273.2,168.8c12.2-8.3,16.4-20.4,14.5-34.5-2-14.5-10.5-24.4-23.9-29.8-12-4.8-23.9-1.2-35.5,2-12,3.3-23.4,8.3-35.6,13.9,1.1-3.9,3.2-5.6,5.2-7.3,8-7,15.9-14.3,22.3-22.9,11.4-15.3,19.9-31.7,17.1-51.7-1.9-13.9-14.2-24.5-28.1-25-10.5-.4-20.3,1.5-28.5,8.7-2.8,2.4-4.9,2.6-6.5-1.7-1.5-4.4-3.8-8.4-6.8-11.9C152.8-7.5,121.8.2,114.3,21.8c-4.3,12.5-3.6,25.3-1.9,38.1,1.9,14.1,4.6,28.1,6.9,42.2.2.2.5.3.7.5,0,0,0,0,0,0,0,0,0,0,0,0,0,0-.2.2-.3.4l-.5-.8h0s0,0,0,0c-3.2-2.5-4.9-6.2-7.1-9.4-8.3-12.3-16.4-24.8-28.6-33.9-15.1-11.2-32.1-11.4-47.5-.2-15.1,11-19.7,25.3-12.9,43.8,2.5,6.8,1.1,10.3-4.7,13.6-8,4.3-14.1,11.6-16.9,20.3-6.7,20.7,9.7,44,32.5,46.7,17.2,2,33.5-1.4,49.8-6.4,3.7-1.1,7.4-3.4,12.1-1.9-5.4,6.8-12.2,10.6-18,15.6-12.4,10.5-24.4,21.1-28.1,38.2-3.5,16-.5,29.9,12,40.6,11.9,10.2,25.7,11.1,39.9,4.9,9.2-4,11.3-3.7,16.4,5.3,3,5.6,7.9,9.9,13.9,12.1,22.9,8.5,47.6-5.6,52.6-30,3.1-15.1.1-29.7-4.1-44.1-2.3-7.7-5.3-15.2-8-23.1,2.7.4,3.4,2.4,4.4,3.8,5.4,8,12,15.1,19.5,21.2,13.6,11.1,28,20.4,46.8,19.3,18.1-1,34-16.8,34.9-35,.4-8.9-1.8-17.7-6.3-25.3-2-3.6-2.9-6.8,1.5-9.7ZM176.8,148.4c0,12.7-13.3,26.5-25.9,25.7-17.3-1-26.9-6.4-27.9-26.4,0,0,0,0,0,0,0,0,0,0,0,0,1-16.4,11.1-27.4,28.5-27.6,13.7-.2,25.2,13,25.3,28.3,0,0,0,0,0,0,0,0,0,0,0,0Z"/>
</svg>