<?xml version="1.0" encoding="UTF-8"?>
<svg id="Layer_1" xmlns="http://www.w3.org/2000/svg" version="1.1" viewBox="0 0 273.6 288.3">
  <!-- Generator: Adobe Illustrator 30.0.0, SVG Export Plug-In . SVG Version: 2.1.1 Build 123)  -->
  <g id="Layer_2">
    <g id="Layer_1-2">
      <path d="M141.5,89.9c-1-11.4-1.2-22.9-.8-34.4.3-11.1,2.6-22.1,6.8-32.4,11.6-27.7,44.7-27.4,60.4-15.1.4.3.9.6,1.1,1,3.7,7.9,11,9.5,18.4,12.4,13.1,5.1,17.8,17,18.1,30.1.5,23-11.7,38.7-30.9,49.6-9.5,5.4-20,8.7-30,12.8-4.9,1.9-9.6,4.3-14.1,7.2-2.5,1.6-4.7,3.8-6.3,6.3-3.2,5.2-1.6,8.1,4.5,8.4,4.6.2,8.7-1.8,12.9-3.4,9.8-3.7,18.9-8.5,28.2-13.3,9.8-5,20-8.5,31.3-8.4,20.4,0,35.1,19.5,32.1,40-.1.8-.3,1.6-.6,2.4-4.4,11.4-6.4,23.4-9.3,35.1-4.2,17-15.5,27.9-34,29.1-12.3.8-22.6-4.2-31.7-12-9.3-7.9-16.1-18.1-23.9-27.4-4.3-5.1-8.7-10.1-14.7-13.3-1.3-.7-2.6-1.7-4.1-.7s-1.8,2.5-1.7,4.3c.4,6.8,3.6,12.3,7.8,17.4,9,10.9,19.5,20.5,27.9,31.9,16.9,22.9,7.6,55.4-18.3,64.5-6.8,2.3-14.2,2.5-21.1.5-3.7-1-6.4-.9-9.6,1.6-7.6,6.1-23.3,5.1-32.8-1.5-12.6-8.8-17.5-23.3-14-40.2s12-31,21-45.1c3.9-6.1,7.9-12.3,8.5-19.8.2-2.8,1.2-6.4-2.4-7.9s-5.4,1.5-7.3,3.7c-6.3,7.3-10.7,16-15.2,24.4-5.2,9.8-10,19.8-17.2,28.4-8,9.4-17.5,16.1-30,18.1-20.4,3.3-40.2-14-39.2-34.8.4-4.3-.8-8.6-3.5-11.9-18.2-23.2-1.6-52.6,19-60.7,11.4-4.5,22.7-3.9,34-.2s22.9,7.8,35.2,8.4c7.3.3,11.9-1.3,12.3-5,.5-5.6-4-7.9-8.2-10.1-10.3-5.2-21.8-6.6-32.9-8.9-15.6-3.2-29.3-9.6-38.3-23.4-7.9-12.2-10.2-25.2-4.2-38.8,4-9.2,11.8-14.6,20.7-18.3,3.2-1.1,5.8-3.6,7-6.8,7.9-18.4,36.8-23.9,52.4-10.3,10.7,9.3,15.2,21.6,18,35.1,2.8,14,1.6,28.2,2.8,42.3.5,5.3,2.2,10.4,5,14.9,1,1.6,1.9,4,4,3.8,1.8-.2,2.5-2.4,3.2-4.1,2.8-6.2,3.3-12.8,3.7-19.4,0-2,0-4,0-6ZM186.6,62.5c-13.1,19.3-27.3,38-36.3,59.8,11.2-20.5,25.8-38.9,36.3-59.8ZM136.1,172.3c1.8,18.6,5.1,37,7.9,55.5-.2-18.9-3.2-37.3-7.9-55.5ZM110.5,159.7l-.6-1.4-45.3,21.8c.2.5.4.9.7,1.4,15.6-6.1,30.5-13.8,45.2-21.8ZM205.1,161.3l.4-1.9-45.9-10-.4,1.7c15.1,4.4,30.6,7.2,46,10.2h0ZM119.3,127.3c-7.6-13.2-18.1-24.1-27.3-35.9,7,13.5,17.5,24.5,27.3,35.9Z"/>
    </g>
  </g>
</svg>