<?xml version="1.0" encoding="UTF-8"?>
<svg id="Layer_1" xmlns="http://www.w3.org/2000/svg" version="1.1" viewBox="0 0 300 298.3">
  <!-- Generator: Adobe Illustrator 30.0.0, SVG Export Plug-In . SVG Version: 2.1.1 Build 123)  -->
  <path d="M33,47.7h0s0,0,0,0c0,0,0,0,0,0Z"/>
  <path d="M285,156.7c-2.1-1.5-4.8-2.3-6.3-4.9,3-1.4,5.9-2.6,8.7-4.1,16.2-8.8,16.8-31.5,1.8-41.8s-31.2-10.5-48.1-7.6c-13.1,2.2-24.9,7.5-36,14.9-3.1,2.1-6.2,5-10.9,4.2,2.1-4.2,5.4-6.7,8.4-9.4,7.1-6.7,14.6-13,21.5-20,10.2-10.4,19.5-21.7,21-37.3.7-7.9.6-16.1-5.3-22.6-1.2-.9-2.1-2.2-2.3-3.7l-1.2-1.3h0c-8.9-5.8-17.9-3.4-26.9,0h-.2c-.3.9,0,2.8-1.9,1.2-4.3-2.2-4.1-7.2-6-10.7-6.9-12.7-17.1-17-29.6-10.2-15.5,8.4-22.5,23.2-26,40.2,0,0,0,0,0,.1,0,0,0,0,0-.1,2,5.1,1.3,10.5.7,15.6-1.2,10.8-.8,21.6-1,34,0,0,0,0,0-.1,0,0,0,.1,0,.2-.8-2.4-1.1-3.2-1.4-4.1-1.6,3.2-.3,6.8-1.7,11.7-2.5-16.9-8.5-31-13.7-45.4-6.5-18.2-15.7-34.5-35.1-40.5-16.2-5-30.6-2.3-34.7,18.1-.6,3.2-.3,6.6-.5,9.9,0,0,0,0,0,0,0,0,0,0,0,0-3.2,3.8-6.7-.7-10.2.5-4.1,1.4-8.5,2-12.8,3,0,0,.1,0,.2-.1,0,0-.1,0-.2,0h-.2c0,0,0,.1,0,.1,0,0,0,0,0,0-.1,1.5-1.1,1.6-2.2,1.4,0,.3-.2.7-.3.9-.4.9-1,1.5-2.2,1.5h0s0,0,0,0c0,0,0,0,0,0-.5.8-1,1.7-1.5,2.6-.6,1.3-1.2,2.6-1.9,3.9-.7,1.3-1.5,2.5-2.6,3.5h0c0,.5,0,.9,0,1.3,0,.4-.2.7-.7,1,0,0,0,0,0,0-1.4,4.7-.9,9.4.5,14,3.9,13.2,13.3,21.8,23.3,29.9,12.1,9.9,26.7,14.9,40.7,21,2.3,1,4.7,1.7,6.6,4.6-6.1,1.2-12.4,1.1-18.5-.1-14-2.5-28.1-2.8-41.8.8-11.7,3.1-23.2,7.2-29.3,19.4-.8,5.2-3.1,10-3.6,15.3-.5,6,1,11.7,2.2,17.4v.2c1.5.1,1.4,1.3,1.4,2.4,4.1,8,11.9,8.7,19.3,10.1,0,2.3-1.4,3.7-2.4,5.1-4.9,6.1-5.2,13.2-4.6,20.5.7,8.4,6.2,14.4,14.2,16.3,13.1,3.1,25.3-.6,36.8-6.3,10-4.9,17.8-13.1,25.8-21,5.8-5.8,10.1-13.2,17.3-17.5l.4-.9s0,0,0,0h0c1.1.6.2.8-.3,1h0s0,0,0,0c-4.7,10.7-11.7,20.2-15.8,31.2-6.4,17.1-9.4,34.2-1.3,51.6,3.6,7.8,9.3,13.6,18,13.2,5.1-.2,8.9.9,12.6,4,2.9,2.4,6.5,4,10.1,3.5,10.1-1.2,17.5-6.7,22.3-16.2,4.4-8.6,7.6-17.4,7.4-28.6,4.6,7.9,8,14.7,12.2,20.8,8.3,12.4,24.3,17,38,11,24.7-10.9,33.4-45.3,18-66.1-6-8.1-13.5-14.8-20.8-21.5-5.4-5-10.7-10.3-16.4-15.8,3-1.2,4.3.4,5.9,1.1,12.7,5.7,25.2,11.7,38.6,15.8,14.1,4.3,28.1,5.3,41.7-1.5,16.4-8.2,17.8-29.8,2.9-40.6ZM162.3,164.6c-3.3,3.3-8.1,5.3-13.7,5.3-11.4,0-17.9-5.9-17.8-15.8.1-10.3,9.1-19.9,18.5-19.9,0,0,0,0,0,0,0,0,0,0,0,0,4.6,0,8.7,1.5,11.8,4.1,1.7,1.4,3.1,3.2,4.1,5.2,1.3,2.6,2.1,5.7,2.1,9,0,4.8-1.9,9-5,12.1Z"/>
</svg>