<svg xmlns="http://www.w3.org/2000/svg" viewBox="0 0 188.84 185.91"><defs><style>.cls-1{fill:#6f4599;}</style></defs><g id="Layer_2" data-name="Layer 2"><g id="Layer_1-2" data-name="Layer 1"><path class="cls-1" d="M77.41,149.91c-6.46,9.14-13.81,17.48-24,22.74-17.86,9.2-34.67,1.18-40.34-12.84-4.9-12.14-2.12-23.24,6.78-32.9a116.77,116.77,0,0,1,20-17c-5.52,1.58-11,3.42-16.59,4.66a26.24,26.24,0,0,1-14-.49c-8.35-2.77-11.62-11.18-7.27-18.8A4.53,4.53,0,0,0,2,90.07c-5.29-9.64.76-19.7,12-21,8.05-1,15.11,1.67,22.29,4.29a44.85,44.85,0,0,0,5,1.65c-4.92-3.82-10-7.34-14.57-11.59A45.24,45.24,0,0,1,13.25,40.76C10.65,30,14.4,20.89,22.7,13.88c8.46-7.14,18.47-8,28.81-4.36C60.33,12.67,66.88,18.75,72.42,26a114.62,114.62,0,0,0,9.41,11.1c-1-3.58-1.93-7.16-2.86-10.75-1.41-5.44-1.73-10.83.88-16.08C84.3,1.29,95-2.38,105.06,1.59c8.75,3.44,12.75,13.13,9.32,23.35-1.52,4.54-3.68,8.87-5.64,13.51,7-5.75,11-13.76,17.75-19.44,7.38-6.25,15.57-10.32,25.68-9.91,11.41.47,22.89,10.75,25.25,21.25,2.93,13.06-2.7,22.9-10.72,32.16-4.9,5.65-11,10-16.82,14.93,3.11-1.19,6.17-2.59,9.36-3.52,6.43-1.86,12.89-3.82,19.72-1.83,9.45,2.76,12.88,12.51,7,20.22-1,1.32-1.17,2-.23,3.47,5.75,8.68.1,19.37-11.8,20-7.74.42-14.77-2.46-21.92-4.76-2.15-.7-4.3-1.42-6.54-2,6.85,5.12,14,9.81,20,15.84,9.58,9.57,12.12,20.74,7.79,33.39-3.2,9.36-12.68,16-22.81,16.85-16.14,1.32-26.76-7-35.58-18.7a89.88,89.88,0,0,0-6.19-7.76c.84,2.62,1.73,5.23,2.51,7.87,1.62,5.48,2.13,11,.36,16.56-2.84,8.87-13,14.34-22.67,12.35-9.29-1.9-15.92-10.7-15.25-19.76.4-5.46,2.41-10.39,4.3-15.39.61-.2.85-.81.47-1.1S77.77,149.71,77.41,149.91ZM98.94,87.85a125.61,125.61,0,0,0,16.57-5.12,69.7,69.7,0,0,0,11.3-5.39c5.05-3,9.84-6.37,13-11.41,4.1-6.56,2.91-18.82-9.05-20.33A17.14,17.14,0,0,0,118.49,49C105.23,58.59,101.14,72.55,98.94,87.85Zm-8.63.26c-2.42-11.67-4.74-22.85-10.77-32.83a24.76,24.76,0,0,0-9.28-8.79c-5.34-3-10.68-2.73-16,.25-4.91,2.76-5.94,7.19-5.64,12.18.34,5.74,4,9.59,8.18,13C66.44,79.83,78,83.92,90.31,88.11Zm-1,11C78.7,102,68.54,104.75,59.49,110.3c-4.5,2.75-8.45,6.13-10.71,11-2.46,5.27-2,10.6,2.07,14.65,3.58,3.59,8.37,6.17,13.88,3.79A30.33,30.33,0,0,0,77,130.07C83.89,121,87,110.58,89.31,99.11Zm9.84-.4c2.14,9.94,4.6,19.37,9.8,27.93,2.57,4.24,5.65,8.08,10,10.64,5.16,3,10.63,3.69,16,.53,5.06-3,5.89-8.1,5.07-13.18-1-5.87-5.11-9.92-9.95-13.19C120.81,105.22,110.24,102,99.15,98.71Z"/></g></g></svg>