<svg xmlns="http://www.w3.org/2000/svg" viewBox="0 0 172.31 167.08"><defs><style>.cls-1{fill:#facb15;}</style></defs><g id="Layer_2" data-name="Layer 2"><g id="Layer_1-2" data-name="Layer 1"><path class="cls-1" d="M60.78,54.28c.1-5.38-1.73-9.37-2.89-13.49-1.65-5.86-.23-10.14,3.82-11.42s7.94,1.2,10.47,6.78c2,4.34,1.88,9.26,4.31,13.44.63,1.08.9,3,2.54,2.64,1.44-.29,1.49-2.15,1.64-3.37.88-7.17-1.19-13.7-5.13-19.78-3-4.68-6.05-9.24-5.46-15.24C70.76,7,77.2.63,84.72.07c9.26-.68,16.14,3.44,17.5,10.8.79,4.32-.2,8.58-1.79,12.67-2,5.25-4.35,10.41-6.15,15.73a15.1,15.1,0,0,0,1.83,14.18c2.61-4,3-8.26,3.9-12.35.72-3.21,1.44-6.42,3.23-9.24s4.53-4.4,8-3.41c3.15.9,3.55,3.6,3.77,6.33.33,4.08-1.51,7.66-2.68,11.4-.66,2.11-2,5.1,0,6.09s4.08-1.64,5.47-3.35c4.93-6.05,5-13.08,4.07-20.21-1-8.14,3.73-14.2,11-13.73a18.92,18.92,0,0,1,16.81,11.68c4.81,10.65,1.54,17.91-9.53,23-5.56,2.56-11.4,4.6-16.33,8.32a20,20,0,0,0-6.53,7.47c-1.17,2.56-.91,4.86,1.41,6.74s4.68,1,6.64-.7c3.77-3.26,7.88-6.12,11.54-9.52,9-8.32,24-7.95,31.55.49,2.81,3.13,4.17,6.74,2.74,10.53S166,78.22,162,78.68c-1.54.18-3,.34-3.76,2.11,3.67,1.78,7.62,3,10.4,6.18,5,5.67,4.94,12.22-.35,16.77-6.29,5.4-14.32,5.51-19.59.06-2.32-2.4-4.17-5.21-6.27-7.81-5.16-6.38-12.45-7.79-20.33-7.53-2.35.07-4.32,1.16-4.58,3.74s1.6,3.61,3.57,4.23c3.27,1,6.66,1.69,10,2.49a14.17,14.17,0,0,1,10.72,9.9,61.37,61.37,0,0,0,2.61,7.41c2.6,5.27,8.26,6.68,13,3.07,1.92-1.47,2.5-.9,3.2.69,1.88,4.27,1.93,8.49-1.25,12.21-3.8,4.44-9,5.47-14.63,4.28-5.94-1.26-10.27-4.73-13.76-9.39-4-5.31-6.86-11.36-12.23-15.71a34.28,34.28,0,0,0-5.11-3.3c-1.14-.64-2-.71-2.93.18s-.2,1.62.19,2.46c3,6.6,8.28,11.63,13.06,17,2.93,3.29,5.56,6.83,8.51,10.12a22.8,22.8,0,0,0,7.67,5.87c4.06,1.82,4.27,4.7.44,7.09-4.24,2.66-9.24,2.68-13.64,1.32-12.5-3.87-21.35-11.7-25.86-23.59-1.2-3.17-.73-6.47-.82-9.73,0-2,0-4.29-2.85-4.38-2.48-.09-3.51,1.9-4,3.87-1.23,5.34.55,10.31,2.3,15.29,2.78,8,9.56,12.94,15.23,18.76,1,1.06,2.09,2.09,3,3.21,3.14,3.72,2.67,6.17-1.68,8.51s-8.71,2.42-12.69-.83c-2.49-2-4.2-2.4-6.49.66A7.69,7.69,0,0,1,80,162.63c-1.1-2.19-2.37-2.1-4.21-1-3.63,2.25-7.41,4-12,3.65s-6.26-2.8-4.65-6.92c2.47-6.33,8.64-9.72,12.74-14.75,5.58-6.85,10.33-13.92,10-23-.07-1.73,0-3.72-2.17-4.18s-3.61.82-4.85,2.38c-1.51,1.89-1.64,4.15-2,6.31-1.68,10.07-6.6,18.16-15.89,23.6-5.88,3.43-12.14,4.94-19,3.16-3.91-1-6.21-3.56-6.75-7.17-.5-3.4,2.61-4.78,5.21-5.82,11.13-4.47,18.77-12.16,23.94-22.32a45.26,45.26,0,0,1,3.38-4.92c.73-1,2.2-2.06,1-3.39-1-1.08-2.64-.88-3.91-.4A25.1,25.1,0,0,0,48.58,117c-1.81,2.61-3.28,5.43-5.11,8-4.71,6.66-16.4,10.1-24,7.16-3.46-1.35-5.85-3.54-5.84-7.31s2.23-5.93,6-7a18.17,18.17,0,0,0,11.26-9.16A21.73,21.73,0,0,1,47.4,96.86,7.82,7.82,0,0,0,49,96.59c2.17-.9,5.69-1.18,5.28-4s-3.62-3.88-6.54-3.74c-6.6.32-12.74,2-17.71,6.45C27.55,97.58,25,99.78,22.41,102a14.58,14.58,0,0,1-10.6,3.58c-4.3-.24-8.72-2.9-9.79-6.13C.59,95.05,2,89.22,5.27,86.91c1.53-1.08,2.46-1.64.31-3C.33,80.49-1,77.56.65,72A23.48,23.48,0,0,1,6.54,61.81c4.33-4.31,9.87-3.72,13,1.41,1,1.7,1.7,3.58,2.64,5.32a9.89,9.89,0,0,0,9.74,5.39c2.64-.34,3.48-1.38,1.67-3.63-1.57-2-3.43-3.72-3.61-6.45-.25-3.78,1.49-5.65,5.53-5.46S42.63,61,45.4,63.55a22.64,22.64,0,0,0,7.34,5c1.42.55,2.82.92,3.75-.3s.36-2.36-.76-3.46C50.13,59.28,44.1,54.58,36.21,52c-6.9-2.27-13-6.15-15.6-13.09-2.2-5.83-.49-11.13,4-15.5a32.55,32.55,0,0,1,16.78-8.77,7.37,7.37,0,0,1,9,6.06c1.16,6-.21,12-.41,18C49.69,46.08,54.49,50,60.78,54.28Zm41,27.71c-.09-8.27-6.51-15-14.19-14.91-9.43.12-16.33,7-16.25,16.29.06,8,6.59,14.12,15,14.1A15.06,15.06,0,0,0,101.73,82Z"/></g></g></svg>