<?xml version="1.0" encoding="UTF-8"?>
<svg id="Layer_1" xmlns="http://www.w3.org/2000/svg" version="1.1" viewBox="0 0 225.4 246.3">
  <!-- Generator: Adobe Illustrator 30.0.0, SVG Export Plug-In . SVG Version: 2.1.1 Build 123)  -->
  <path d="M113.2,137.3c-14.5,0-24.8-10.5-25.3-25-.6-15.4,13.5-26,27-26.1s24.3,11.3,24.2,25.2c0,14.2-11.3,25.8-25.5,25.9-.1,0-.3,0-.4,0Z"/>
  <path d="M42.6,192.6c-.4-4.2,1.5-7.7,3.5-11.3,7.3-13.2,17.9-23.4,29.1-33.1,5.4-4.7,11-9.1,16.6-13.6,1.4-1.1,2.9-3,4.8-.3,1.5,2.1,4.5,2.8,2.4,6.7-10.5,20-21.9,39.5-33.2,59-1.8,3-3.3,6.2-4.8,9.2-.6,1.3-1.2,2.2-3,1.6-6.5-1.9-14.9-11.8-15.3-18.3Z"/>
  <g>
    <path d="M208.3,151.9c-5.5-.5-10.9-1.8-16.1-3.6-16.9-5.8-32.9-13.6-49.1-20.8-3-1.3-4.8-2.8-2.9-6.2,1.6-2.7-.2-7.2,6.6-6.5,24.5,2.5,48.7,6.8,73.3,8.4,3.4.2,4.4,1.3,3.6,5.1-1.3,5.6-1.6,11.4-4.4,16.7-2,4.3-6.3,7-11,7Z"/>
    <path d="M201.4,93c13.1-.2,18.9,2.9,22,11.6.3.6.5,1.2.6,1.9,2.8,13.1,2.1,14-11.1,12.8-22.3-2-44.6-4.2-66.9-6.1-6.1-.5-3.3-5.5-4.6-8.3-1.2-2.7.6-3.5,3.2-4.1,14.2-3.2,28.7-5.4,43.2-6.6,4.8-.4,9.5-1.6,13.6-1.1Z"/>
  </g>
  <g>
    <path d="M18,152.4c-7.5.1-11.2-2.1-13.4-9-1.5-4.7-2.2-9.7-3.2-14.6-.7-3.3,1.9-3.1,3.7-3.3,7.6-.9,15.2-1.5,22.8-2.4,16.3-1.9,32.8-3.1,49-5.8,6.8-1.1,10.9,2.4,11.1,9.1,0,1.4-.9,1.6-1.8,2-20.3,7.8-40,17-61,22.9-2.3.5-4.7.8-7.1.9Z"/>
    <path d="M26.2,95.1c13,1,28.8,3.8,44.7,6.5,3.9.7,7.8,1.5,11.7,2.4,4.8,1.1,1.4,4.6,1.9,6.9s-.8,3-3.1,3.2c-24.4,2.6-48.8,5.2-73.2,7.9-1,.1-2,0-3,.2-3.9.8-5.1-.8-5.1-4.7-.2-18.2,4.1-22.5,26.2-22.4Z"/>
  </g>
  <path d="M77.9,217.3c-5.2-.2-9.5-2-13.8-3.8-1.7-.7-1.5-1.7-.7-3.1,13.4-22.4,25.3-45.6,37.6-68.6,2.2-4.2,4.8-.6,7.2-.4,3.9.3,2.6,3.3,2.2,5.3-2.9,13.1-5.8,26.2-9,39.3-1.9,7.8-4.6,15.3-9.4,21.8-3.7,5-8.3,8.5-14.2,9.5Z"/>
  <g>
    <path d="M115.2,52.7c-.6-15.4,1.1-32.2.8-49,0-2.8.7-4,3.6-3.7,4.4.4,9-.7,13.4.9,5.9,2.1,8.4,5.3,8.3,11.5-.2,9.2-2.4,18.1-4.9,26.9-4,13.7-7.9,27.4-13,40.8-.8,2.2-1.3,3.3-4.1,2.6-2.4-.6-4.2-.6-4.1-4,.3-8.1.1-16.3.1-25.9Z"/>
    <path d="M113.1,55.1c0,7.7-.3,15.3,0,23,.3,6.5-4.9,4.3-7.9,5.5-3.8,1.5-3.2-2.1-3.6-3.6-4.7-18.4-9.9-36.6-10.4-55.7,0-4.2.2-8.3.9-12.4,1.2-7.5,8.2-12.6,15.7-11.4,1.1.2,2.1.5,3.1.9,2,.8,1.3,2.5,1.3,3.9,0,16.6,0,33.3,0,49.9h.8Z"/>
  </g>
  <g>
    <path d="M205.3,49c0,5.4-3,9.4-6.5,13-8.8,9.1-20,14.8-30.7,21.1-8.3,4.8-16.8,9.5-25.2,14.2-1.2.7-2.9,3.1-3.8.1-.8-2.6-5.9-4.1-2.2-7.9,3.5-3.6,6.8-7.3,10.3-10.8,14.8-14.8,29.7-29.6,44.3-44.5,2.8-2.8,4.4-2.6,6.5.4,3.2,4.4,7.3,8.4,7.2,14.4Z"/>
    <path d="M177.4,18.9c6,.6,9.6,4.9,13.4,8.8,1.5,1.5-.4,2.7-1.4,3.7-11.3,11.8-22.6,23.5-33.9,35.3-6.5,6.7-13,13.3-19.6,20-2.4,2.4-9.3.5-10.5-2.7-.2-.6-.1-1.3.3-1.8,11.4-17.8,22.6-35.7,36.3-51.8,2.9-3.4,6.5-6.2,9.8-9.2,1.5-1.4,3.4-2.2,5.5-2.2Z"/>
  </g>
  <g>
    <path d="M31.1,33.1c2.7,1.9,5.2,4,7.7,6.2,13,12.9,26,25.7,38.5,39.1,4,4.3,8.2,8.3,12.2,12.5s-1.7,5.7-2.4,8.7-2.5.8-3.8.2c-18-8.6-35.3-18.5-51.9-29.6-2.8-1.8-5.4-3.9-7.6-6.3-5.8-6.6-6.4-13.2-1.4-20.4,2-3,4.5-5.8,6.8-8.6.6-.6,1.3-1.2,2-1.8Z"/>
    <path d="M48.1,22c3.5,0,6,2.1,8.5,4.3,6.5,5.6,11.7,12.3,16.6,19.2,8.5,11.9,17.3,23.6,24.7,36.2,1,1.8,2.8,3.7-.3,5.3-2.5,1.2-4.1,4.8-7.8.9-17.5-18.7-35.2-37.1-53-55.5-2.3-2.4-1.9-3.8.5-5.5,3.2-2.3,6.3-5,10.8-4.9Z"/>
  </g>
  <g>
    <path d="M153.6,213.1c-4.4,0-6.9-1.8-9.2-4.1-6.2-6.2-9.3-14.1-12.1-22.1-4.7-13.6-7.2-27.9-11-41.8-1.2-4.4,1.9-5.6,5-7.3,3.6-2,4.4,1.1,5.7,2.8,14.7,19.6,27,40.7,39.6,61.7.7,1.2,1.5,2.2-.2,3.3-5.9,3.7-11.9,6.8-17.8,7.6Z"/>
    <path d="M185.4,188.5c.2,2.3-1,5-2.7,7.5-4.4,6.6-6.7,6.6-10.9,0-12.6-20-25.4-39.8-39.5-58.7-2.9-3.9,1.7-4.5,2.8-6.6,1.2-2.6,3.1-1.4,4.9,0,10.7,8.3,19.8,18.2,28.9,28.1,4.8,5.3,9.4,10.7,12.9,17.1,2,3.7,3.8,7.4,3.7,12.6Z"/>
  </g>
</svg>