<svg xmlns="http://www.w3.org/2000/svg" viewBox="0 0 200.66 184.68"><defs><style>.cls-1{fill:#fcd314;}</style></defs><g id="Layer_2" data-name="Layer 2"><g id="Layer_1-2" data-name="Layer 1"><path class="cls-1" d="M29,113.65c-9.11-.39-16.16-4.27-22.41-9.66A20.7,20.7,0,0,1,2,98.55c-3.46-6.19-2.49-9.93,3.4-16a31.71,31.71,0,0,1,20.9-10c1.38-.1,2.76-.4,4.59-.68-4.31-4-9-7.36-11.44-12.61-.93-2-2.12-4-2.31-6.3-.9-10.73.86-14.8,15.6-15.58a43.58,43.58,0,0,1,8,.79c2.11.29,2.63-.18,2.1-2.38-2.09-8.55.08-16.25,5.22-23.35,3.35-4.62,8.14-5.16,13.24-4.71,10.08.88,16.78,7.19,23.12,14,.41.43.78.9,1.55,1.8,2.35-8.12,5.64-15.24,11-21.38,2.27-2.6,3.76-3,6.2-.3,5.68,6.3,10,13.19,11.22,21.82l7.85-7.41a38.07,38.07,0,0,1,17.15-9.39c6.15-1.54,15.11,4.1,17.78,11.25,2.39,6.4,2.89,12.87.53,19.4-.21.58-.68,1.19-.18,1.72.68.72,1.39,0,2.08-.16a36,36,0,0,1,16.34-1c7.06,1.27,9.79,5.66,8.57,12.5-1.59,8.83-7.11,15.21-13.53,21.55a56.61,56.61,0,0,1,12.61,3.21c7.52,3.08,12.29,8.76,16.25,15.3a5.6,5.6,0,0,1-.19,6c-5.29,8.64-12.74,14.5-23,16.72a11.85,11.85,0,0,0-2.17.75c-.57.24-1.1.58-1.84,1,4.47,4.5,8.22,9.26,10,15.25a26.66,26.66,0,0,1,.92,5.14c.75,7-2.77,9.43-8.7,10.56a34.54,34.54,0,0,1-14.53-.11c-4.11-1-3.44,1-2.9,3.11a34.17,34.17,0,0,1,0,16.3c-1.87,8.59-8.83,13.9-19.43,11.27-9-2.24-15.23-7.73-21.24-13.91a10.89,10.89,0,0,0-1.93-2c-.92,7.22-4,13.2-8.26,18.69-5.49,7.12-7.46,7-12.57-.44a51.12,51.12,0,0,1-8-20c-3.36,6.91-8.45,11.48-14.55,15.08A21.92,21.92,0,0,1,52.76,176a12.65,12.65,0,0,1-8-7.68C42.34,161.74,41.13,155,43,148.11c.6-2.25.37-2.66-2.28-2.23-5.15.84-10.41,1.37-15.68.45s-7.84-3.58-8.15-8.77c-.53-8.61,4.32-14.86,9.71-20.86.49-.55,1.07-1,1.56-1.55A11.06,11.06,0,0,0,29,113.65Zm42.19,22v6.56a4.18,4.18,0,0,0,2.7,3.79c1.59.78,2.85-.09,4.1-1.13a19.86,19.86,0,0,0,4-5c6.26-9.76,8.49-20.67,9.85-31.88.38-3.1-1-2.69-3-1.9a79.92,79.92,0,0,0-20.13,12.12c-3.78,3-7.22,6.38-9.27,10.8-2.41,5.17.17,8.66,5.92,8.3C67.29,137.19,68.92,136.18,71.18,135.65Zm-.05-89.1c.12,4.59.12,4.59-4.17,2.48-.34-.17-.7-.3-1-.44-4.36-1.71-7.33.41-7.09,5,.14,2.64,1.63,4.7,3.16,6.67,7.11,9.2,16.57,15.31,27.41,19.56,1.86.73,2,.09,2-1.67a71.77,71.77,0,0,0-3.76-20.81,43,43,0,0,0-8.68-15.66c-2.67-2.95-5.73-2.53-7.34.79C71,43.82,71.19,45.2,71.13,46.55Zm58.53,88c1.14.73,1.74,1.13,2.36,1.5,2.73,1.58,5.59,2.83,8.59.9,1.95-1.24,2.11-6.22.54-9.15a9.18,9.18,0,0,0-1.25-1.88c-7.45-8.21-15.85-15.21-26.3-19.56-3.73-1.56-4.32-1.19-3.89,2.72a107.84,107.84,0,0,0,4.88,21.88,34.83,34.83,0,0,0,6.65,12.11c1.27,1.47,2.5,3.37,5,2.57,2.7-.86,3.72-2.76,3.44-5.51C129.52,138.51,129.66,136.88,129.66,134.53Zm-19.86-53a89.37,89.37,0,0,0,27.47-20.13,21.77,21.77,0,0,0,4.19-7A5.32,5.32,0,0,0,139.58,48c-1.71-1.39-3.63-.83-5.39.11-4.6,2.44-4.61,2.45-4.64-2.7,0-1.67,0-3.45-1.91-4.09a4.69,4.69,0,0,0-5,1.1,18.81,18.81,0,0,0-2.55,3.22c-4.31,7-6.82,14.66-9.07,22.44A33.66,33.66,0,0,0,109.8,81.54ZM120,93.05c4.81,3.26,9.19,6.31,14.32,8,6.47,2.15,12.81,5.18,20,3.22,3.67-1,5.17-4.64,2.74-7.48A22.32,22.32,0,0,0,153,93.43c-1.33-1-1.31-1.66,0-2.52a20.25,20.25,0,0,0,2.77-2,4.2,4.2,0,0,0,1.3-4.79c-.68-1.81-2.26-2.51-4.28-2.54a32.06,32.06,0,0,0-9.87,1C135,85,127.69,88.73,120,93.05ZM80.46,93a77.39,77.39,0,0,0-13.35-7c-6-2.39-12-4.92-18.78-4.29-2,.18-3.82.86-4.7,2.71a3.37,3.37,0,0,0,1.18,4.37c4.17,3,3.31,5.19-.22,8.24s-2,6.95,2.61,8c3.73.86,7.34-.41,10.82-1.46C65.86,101.21,72.89,97.12,80.46,93Z"/></g></g></svg>