<svg xmlns="http://www.w3.org/2000/svg" viewBox="0 0 209.21 205.91"><defs><style>.cls-1{fill:#fcd314;}</style></defs><g id="Layer_2" data-name="Layer 2"><g id="Layer_1-2" data-name="Layer 1"><path class="cls-1" d="M71.07,93.62c-4.79-3.49-10.21-5.27-15.77-6.38A40.49,40.49,0,0,1,33.87,75.69C28.29,70,23.3,63.84,18.31,57.67,17,56,16.38,54.29,17.23,52.48S20.19,50.8,22,51C38.31,52.4,53.87,55.7,65.75,68.06c2.87,3,6,5.7,9.1,8.52a11,11,0,0,0,2.37,1.86c1.2.59,2.75,1.1,3.78.08,1.35-1.33.49-2.61-.62-3.89A73.72,73.72,0,0,0,70,64.73C61.52,58.16,58,49,55.65,39.34c-1.59-6.53-2.92-13.16-1.76-20,.56-3.32,1.61-4,4.86-2.77,4.23,1.64,7.48,4.75,11.07,7.31C81.65,32.33,88.4,43.78,91.09,57.76c.67,3.49,1.06,7.16,2.92,10.36.76,1.3,1.71,2.84,3.5,2.22s1.28-2.39,1-3.62c-.88-3.89-1.89-7.77-3.07-11.59-3.19-10.39-2.27-20.76.36-31a125.22,125.22,0,0,1,7.49-21.6c.52-1.12.93-2.59,2.45-2.51,1.23.07,1.65,1.4,2.2,2.39,3,5.43,4.12,11.5,6,17.31,1.15,3.55,2.15,7.15,3.13,10.74,3.09,11.4-.18,22.2-3.37,33a14,14,0,0,0-.79,4.39c0,1.17-.15,2.63,1.83,2.67,1.55,0,2-.61,2.47-2.09,1.91-5.83,3.52-11.72,5-17.65C125.38,38.39,134,30,143.8,22.44a58.27,58.27,0,0,1,7.33-4.77c4.88-2.73,7.26-1.47,7.38,3.92s-.91,10.94-2,16.34c-2.55,13-9.77,23.07-19.82,31.55-2.12,1.79-4,3.86-6,5.84-1.1,1.11-2.21,2.6-.85,3.87s3,.81,4.49-.43c4.35-3.66,9.06-7,13.12-10.91,8.38-8.14,19.09-11.22,30-13.81a72.88,72.88,0,0,1,15.61-1.85c1,0,2.07-.36,2.76.68s-.1,2-.59,2.77C184.41,72.59,171,86.41,149.51,90a32.34,32.34,0,0,0-9.44,3.07c-.89.45-2.11,1-1.85,2.05s1.57,1.51,2.82,1.48a41.52,41.52,0,0,0,12.72-2.54c10.61-3.75,20.85-3.15,31.53,0,6.06,1.78,12.32,3.19,18.47,4.82a8.48,8.48,0,0,1,1.84.52c1.41.75,3.62,1,3.61,2.93,0,1.76-1.75,2.62-3.36,3.2-4.89,1.75-9.77,3.56-14.7,5.21-4.71,1.57-9.44,3.1-14.24,4.41-6.47,1.76-13,.86-19.41-.34-4.39-.82-8.66-2.29-13.17-2.5-1.58-.07-3.84-.65-4.27,1.42s2,2.66,3.5,3.15a110.69,110.69,0,0,0,13.36,3.25c8.05,1.48,14.72,5.52,20.46,11.12a105.67,105.67,0,0,1,17,21.54c1.35,2.28,1.34,3.47-1.78,3.27-18-1.18-35.2-4.7-48.59-17.92a92.35,92.35,0,0,0-11.28-9.5c-1-.69-2-1.66-3-.61a2.78,2.78,0,0,0-.48,3.33,18,18,0,0,0,4.33,5.15c8.64,7.8,16,16.42,19.61,27.65a89.29,89.29,0,0,1,4.6,23c.21,4.22-.79,4.91-4.5,2.9a70.06,70.06,0,0,1-24-21.06c-6.26-8.7-9-18.64-12.18-28.47-.51-1.56-1-3.12-2.69-3-2.13.17-2.32,2-2,3.73,1,4.88,1.92,9.81,3.22,14.63a44.37,44.37,0,0,1-.09,23.27,178.54,178.54,0,0,1-7.9,23.81c-.54,1.28-1.15,2.85-2.65,2.94s-2.18-1.55-2.64-2.84c-3.39-9.4-7.41-18.61-9.75-28.33-1.3-5.37.48-10.66,1.72-15.88a175.54,175.54,0,0,0,3.38-17.27c.15-1.11.93-2.76-.71-3.3s-2.81.32-3.58,1.95c-2.22,4.69-2.21,9.94-4.07,14.71A66.27,66.27,0,0,1,58,190.27c-4.28,2.27-5.8,1.2-5.5-3.55,1.12-18,6.71-34.13,20.53-46.87,2.78-2.55,5.71-5,7.65-8.33.69-1.18,1.27-2.25,0-3.32s-2.44-.45-3.43.44c-3.17,2.87-6.44,5.67-9.41,8.73-9.66,10-21.89,14.83-35.4,17.13-4.65.8-9.27,1.91-14.07,1.55-3.23-.24-4.38-1.55-2.57-3.93,8.79-11.57,16.7-24.05,31.3-29.9,6-2.38,12.3-3.25,18.4-5,2.25-.66,5.75-1.14,5.17-3.71-.54-2.39-4-1.33-6.1-.91-8,1.57-16,3.8-24.28,3.12-10.7-.87-20.65-4.61-30.57-8.31-2.71-1-5.58-1.7-8.07-3.32-2.21-1.45-2.16-2.49.16-3.73,3.44-1.84,7.29-2.23,11-3.22,6.64-1.78,13.25-3.65,19.9-5.37C41.31,89.49,49.6,91.3,58,93.61,62,94.73,66.42,97.66,71.07,93.62Zm18.29,9.87c0,9.22,6.56,16.13,15.57,15.79,9.55-.35,16.56-6.57,16.44-14.48-.15-9.13-7.71-16.63-16-16.4C96.2,88.64,89.39,94.8,89.36,103.49Z"/></g></g></svg>