<?xml version="1.0" encoding="UTF-8"?>
<svg id="Layer_1" xmlns="http://www.w3.org/2000/svg" version="1.1" viewBox="0 0 287.6 279.5">
  <!-- Generator: Adobe Illustrator 30.0.0, SVG Export Plug-In . SVG Version: 2.1.1 Build 123)  -->
  <path d="M284.4,106.9c-5.7-18.5-19.4-26.7-38.7-24-9.1,1.3-17.3,4.7-25.3,9-11,6-20.7,13.7-31.2,20.4-1.6,1.2-3.4,2.1-5.4,2.6-1.5.3-3.3.9-4.3-.6-.9-1.2,0-2.8.7-4,1.6-2.8,4.1-4.9,6.4-7.1,15.1-14.8,27.6-31.4,36.2-50.8,6.6-14.8,3.6-30.9-8.6-39.7-7.8-5.6-16.6-9.6-25.9-11.7-10.7-2.6-18.8,1.4-25.3,9.3-5.3,6.5-9.4,14-12,22-4.8,14.2-5.8,29-6.6,43.8,0,4.8.2,9.5-.1,14.2-.1,2.4-1.4,5.1-4,5.5-2.8.4-3.1-2.6-4-4.5-.5-1.1-.8-2.3-1-3.5-2-10.7-4.8-21.3-8.2-31.7-3.8-12-9.5-22.9-19.7-30.8-10.2-7.9-25.8-9-36.8-2.4-5.4,3.3-10.8,6.7-16,10.2-17.6,11.9-21,31.7-8.3,48.7,6,8.1,14.2,13.9,22.1,20,7.6,5.9,16.3,9.9,24,15.7,2.5,1.8,4.9,3.8,7,6.1,1,1,1.3,2.4.8,3.7-.5,1.2-1.8,1.1-2.9,1.2-2.1.2-4.2,0-6.2-.8-9.6-3.6-19.2-7.1-28.8-10.6-7.5-2.7-15.3-5.2-23.3-5.8-17.2-1.3-35.8,14.3-38.5,32.2-1.5,9.8,1.7,18.8,6.3,27.3,2.1,3.6,3.4,7.7,3.9,11.8,1.2,11.7,10.9,21.6,22.5,23.5,7.9,1.3,15-1.3,21.9-4.5,11.8-5.3,22.5-12.6,33.6-19.2,2.9-1.8,6-3.5,9.5-3.8,3.7-.3,4.7,1,3.6,4.5-1.1,3.7-4.1,6-6.7,8.5-8.9,8.7-17.9,17.1-23.6,28.5-4.5,9-6.9,18.3-5.9,28.4,1.4,14.2,12.7,24.6,28.4,25.9,2.5.2,5,.8,7.4,1.9,19.2,8.3,38.1,0,44.8-19.7,4.3-12.7,4.1-25.8,3.3-39-.4-7-1.8-14-1.3-21.1.2-2.2,0-5.4,2.8-5.8,3.2-.5,4,2.8,4.6,5.2,1.9,7,3.4,14.2,5.1,21.2,2.9,11.5,5.9,22.8,12,33.2,7.2,12.1,22.8,19,36.7,16.1,12.9-2.7,22.2-10.6,29.7-20.6,4.6-6.2,7.5-13.7,7-21.7-.9-12.6-6.2-23.5-16-31.6-9.8-8.2-20.6-15.1-31.5-21.7-1.1-.6-2.1-1.3-3-2.1-.7-.5-1-1.3-.8-2.1.3-1,1.3-1.1,2.2-1.2,2,0,4,.2,5.9.9,15.9,4.6,31.8,8.7,48.6,7.1,15.4-1.5,29.8-12.9,33.9-27.6,3.5-12.8,3.2-26.3-.8-38.9ZM171.7,151.3c-1.5,8.7-10,16.4-18.3,18.2-1.9.4-3.7.7-5.5.8-12.4.8-22.3-5.4-26.8-17.1-3.8-9.7-1.6-19.5,8-29.2,4.5-4.6,9.5-6.9,15-6.7,3.3,0,6.8,1.1,10.6,3,5.7,3,9.6,7.7,12.8,13.1,2.3,3.9,4.1,7.9,4.3,12.2,0,.6,0,1.3,0,1.9,0,1.3,0,2.5-.2,3.8Z"/>
</svg>