<?xml version="1.0" encoding="UTF-8"?>
<svg id="Layer_1" xmlns="http://www.w3.org/2000/svg" version="1.1" viewBox="0 0 302.2 316.8">
  <!-- Generator: Adobe Illustrator 30.0.0, SVG Export Plug-In . SVG Version: 2.1.1 Build 123)  -->
  <g id="Layer_2">
    <g id="Layer_1-2">
      <path d="M128.2,21.7c5.4-11,15.3-14.7,25-18.5,3.8-1.4,7.6-2.4,11.6-2.9,24.1-3.5,39.5,21.9,40.7,43.2,1.6,28.6-7.4,54-19.5,78.5-.6,1.2-1.9,2.1-1.2,4.7,9.5-7.7,18.1-16.1,27.8-22.9,20.8-14.6,43-19.5,66.8-10.7,17.7,6.6,25.7,22.5,22.1,42.7-4.9,27.2-26.1,48.8-51,53.7-16,3.1-31.6,2.4-47.2-1-.8-.7-1.5-.9-2.4-.1l1.5,1.2c8.7,7.5,18,14.1,25.4,23.1,14.4,17.4,22.2,37.7,18.1,61.2-7,39.9-48.5,55.9-78.8,31.1-14.7-12.1-21.3-29-24.1-48.2-1.8-12.4-3.8-24.7-5.1-37.6-3.2,9.1-6.1,18.3-9.5,27.2-7.9,20.3-18.7,38.1-37.9,47.4-23.4,11.2-53.4.1-64.4-23.4-13.5-28.6-6-58.2,19-74.7,10.2-6.8,21.3-11.5,32.7-15.4,4.8-1.7,9.6-3.1,14.8-6.5-3.9-1.4-8.1-2.1-12.2-1.9-14,.4-27.8-1.9-41.2-6C-2.5,153.3-9.8,100.8,11.9,76.8c18.2-20.1,45.3-29.5,70.7-7,14.3,12.6,22.9,29.9,33.8,45.4,1.9,2.7,2.8,6.6,6.7,7.2,2-2.3.9-4.9.5-7.5-3.2-19.8-5.8-39.6-3.6-60,.8-7.2,5.5-13.7,2.9-21.3h0c1.8-1.4,2.8-3.5,2.7-5.8h-.1c3.9-.5,2.5-3.7,2.8-6.1Z"/>
    </g>
  </g>
</svg>