<svg xmlns="http://www.w3.org/2000/svg" viewBox="0 0 218.38 211.9"><defs><style>.cls-1{fill:#fcd314;}</style></defs><g id="Layer_2" data-name="Layer 2"><g id="Layer_1-2" data-name="Layer 1"><path class="cls-1" d="M188.42,125.92c5.77,3.21,11,6.52,15.13,11.21,5.52,6.26,6.43,13.56,4,21.11-2.35,7.25-11.34,11.18-20.56,10-6.52-.83-12.21-3.42-17.73-6.63-.71-.41-1.21-1.34-2.66-.87A28,28,0,0,0,169,165.3c4.8,6.25,5,13.41,5.71,20.87,1.28,13.44-13.89,19.77-24.64,14-7.17-3.83-12.07-9.34-15.81-16.14-.48-.88-1-1.74-1.57-2.58-.09-.14-.43-.13-1.17-.32A38,38,0,0,1,128.13,199c-2.73,6-6.54,10.92-13.62,12.49a15,15,0,0,1-13.82-3.56c-6.42-5.75-10.5-12.79-11.14-21.47-.11-1.49-.39-3-.72-5.34A37.34,37.34,0,0,1,75.91,198C69,203,57.36,204,51.55,199.43c-6.36-5-8.08-11.57-7.62-19,.35-5.65,3.18-10.46,6.25-15.11l3-4.6c-3.74,1.86-6.52,3.39-9.42,4.65-5.71,2.48-11.66,3.77-17.95,2.89-7.32-1-12.3-4.8-15-11.66s0-12.49,4.21-17.6c3.74-4.53,8.77-7.6,14-10.34.86-.45,1.9-.61,2.55-2-5.72-.07-11.15-.47-16.28-2.45s-10.27-4.33-13.29-9c-4.39-6.8-1.43-16.1,6.42-21.41,6.35-4.3,13.19-7.08,21.77-5.66a11,11,0,0,0-4.65-3c-11.73-5-17.91-18.65-13.09-29,3.1-6.66,9.22-9.08,16-10.09,8.64-1.3,16.08,1.79,22.75,7a8.21,8.21,0,0,0,1.19.56c-1.2-4-3.6-7.07-5.21-10.5a28.66,28.66,0,0,1-2-20.09c2.44-9.19,13.21-13.37,23.5-9.26,8.51,3.39,14.89,8.69,17.17,18.11.72-3.27,1.77-6.25,2.22-9.31C89.55,12.68,95.43,5.86,104,1.45c7.31-3.75,16,.08,21.15,8a32.31,32.31,0,0,1,5,21.41c1.64-.78,2-2.12,2.72-3.17,5.64-8.48,13.33-14,23.75-15.42a16.74,16.74,0,0,1,19.36,16c.41,7.27-1.06,13.81-5.88,19.56-1.32,1.58-2.89,3.15-3.67,5.91,2.84-1.48,5.19-2.76,7.6-4,7.2-3.54,14.58-5,22.59-2.6,12.34,3.7,14.7,15,9.19,24.63C202,78.61,196,83.18,189,86.92c4.66.34,9.24.47,13.54,2.45A49,49,0,0,1,213,96.1c8,6.56,6.78,17.87-1.56,23.4-5.82,3.86-12.17,6.34-19.37,6.26C190.84,125.75,189.63,125.86,188.42,125.92ZM99.54,86.41c2.48-1.4,2.6-3.31,2.45-5.32a69.48,69.48,0,0,0-5-22.51c-1.9-4.46-4.63-8.31-9.47-10.29a9.06,9.06,0,0,0-10.15,2.27c-2.55,2.7-2.11,5.84-.5,8.61C82.88,69.56,93,76.71,99.54,86.41Zm.68,40.29c-9.15,8.58-17.87,16.66-23.27,27.51-1.76,3.55-1.55,6.76,1,9.13,3.3,3.08,6.16,3.32,10,1,4.91-3,6.76-7.93,8.57-12.89C99.35,143.66,101.36,135.79,100.22,126.7Zm-49-47.07c-.62,4,1.29,6.83,6.17,9.94,8.33,5.3,18,6.84,27.65,7.89.94.1,2.41,1.18,3-.37a3,3,0,0,0-1.4-3.85,45.88,45.88,0,0,1-8.06-7.45c-4.53-5-9.47-9.44-15.89-12.05S51.22,73.69,51.2,79.63Zm66.67,5.43c7.24-4.47,12.94-10.38,18.13-16.79a32,32,0,0,0,5.51-9.71c1-2.78,1.23-5.71-.95-8.15a7.54,7.54,0,0,0-7.6-2.55,11.51,11.51,0,0,0-7.86,6C120.12,63.61,120,74.47,117.87,85.06Zm1.33,41.78c-.48,5.39.64,10,1.45,14.57,1.34,7.55,4.07,14.64,9.28,20.57,3.1,3.53,7.53,4.56,10.93,2.62,2.88-1.63,3.64-5.37,2-9.78-.27-.7-.59-1.38-.89-2.07C137.23,142,127.67,135.3,119.2,126.84Zm10.86-9.69c3.93,2.49,6.57,6.22,10,9.19,5.24,4.55,10.48,9.08,17.1,11.7,4,1.55,8.28.53,10.25-2.39s1.13-7-2.14-10c-8.78-8.2-20-9.36-31.23-10.13A4.46,4.46,0,0,0,130.06,117.15ZM130,96.58c8.32,1.47,15,.18,21.65-1.81,5.1-1.53,9.55-4,12.88-8.2,2.2-2.76,3.34-6,1.45-9s-5.45-3.9-9.14-3.22a18,18,0,0,0-10.58,6.26C141.46,86.05,137.47,92.24,130,96.58ZM88.76,116.24c-8.72-.31-16.49.34-24,2.87a24.92,24.92,0,0,0-10.67,6.4c-4.22,4.54-3.52,9,1.75,11.58a8.47,8.47,0,0,0,7.07,0C73.48,132.87,80.81,124.82,88.76,116.24ZM101.93,107A7.87,7.87,0,0,0,109.4,115c3.5.16,7.69-3.73,7.9-7.34.25-4.17-3.16-8.1-7.16-8.26A8.1,8.1,0,0,0,101.93,107Z"/></g></g></svg>