<svg xmlns="http://www.w3.org/2000/svg" viewBox="0 0 188.96 186.19"><defs><style>.cls-1{fill:#6f4599;}</style></defs><g id="Layer_2" data-name="Layer 2"><g id="Layer_1-2" data-name="Layer 1"><path class="cls-1" d="M110,66.79c12.38-10.49,15-24,12.88-39.08-.32-2.22-.68-4.43-1-6.65-.64-4.8,1.84-10,5.76-11.26,5.6-1.77,9.86-.94,13.41,3.15,3.78,4.38,4.7,9.53,3.16,15.61,4.08-2.41,8.25-1.31,12.3-1.33a9.84,9.84,0,0,1,9.6,8.62c.36,4.38-1.38,9.2-7.46,10.46a78.3,78.3,0,0,0-30.57,13.22c-4,3-7.46,6.44-7.82,12.4,3.75-3.16,6.94-6.17,10.47-8.75,6.53-4.8,13.21-9.59,21.62-10.63,3.7-.46,7.55.31,11.31.09a33.25,33.25,0,0,1,14.7,2.15c9.77,4.05,13.17,12.26,8.42,21.83-7.44,15-19.57,23.95-37.11,24.95-7.22.42-14.29-.76-21.37-1.82a33.61,33.61,0,0,0-5.93-.34c15.86,8.38,32,10.61,48.28,1.36A16.53,16.53,0,0,1,182.1,99c6.3,1.18,8.74,8.86,5.11,14.92-2.39,4-6,6.45-10.94,6.46H172c1.79,2,3.35,3.42,4.6,5.08,4.93,6.56,3.81,15.13-2.38,18.81s-14.15,1.59-16.71-4.93c-4.36-11.12-12-19.27-22.17-25.47A27.9,27.9,0,0,0,121.51,110c4.46,2.78,8.85,5.64,13.31,8.34,16,9.7,20.94,24.38,20.12,41.66-.46,10-8.51,15.44-19.17,13.4a42.47,42.47,0,0,1-34-36.08c-.7-5.49-.71-11-1-16.47-3.1,7.4-4.66,14.91-2.17,22.93a58.12,58.12,0,0,0,15.6,24.55C119,173,117.65,181.4,114,184c-5,3.63-12.69,2.13-16.38-3.5A50.51,50.51,0,0,1,95.28,176a59.24,59.24,0,0,1-3.52,5.42c-3.82,4.73-10.48,6.15-15.06,3.35a10.63,10.63,0,0,1-4-13.2,22.35,22.35,0,0,1,4-5c7.07-7.62,12.5-16.09,14-26.51.79-5.6-.38-13.73-2.37-17.07-.56,9.17-1.45,18.23-4.91,26.81C78,163.22,63.6,173,49.27,173.15c-8,.07-12.79-3.16-14.2-10.74-2.53-13.58-.21-26.11,10.22-36.31a109.35,109.35,0,0,1,21.9-16.32c-8.44.75-14.95,4.45-20.74,9.56A65.61,65.61,0,0,0,30.9,140.49a9.75,9.75,0,0,1-9.78,6c-4.59-.22-8.25-2.5-10-6.51-2.14-4.85-1.35-9.77,1.72-14.19,1-1.44,2.2-2.75,3.67-4.57A13.43,13.43,0,0,1,5.7,119.06a11.73,11.73,0,0,1-4.22-15.78c1.9-3.6,5.22-5.08,9.58-4.63,5.58.58,10.39,3.25,15.54,5,13.88,4.86,27.33,4.21,40.07-3.55-.09-.16.43-.62-.25-.47l.33.5c-5.54-.7-10.86.83-16.11,1.93C32.12,106,7.85,93.18,2.1,76.25A34,34,0,0,1,.67,67.41C.38,63.3,3.14,60.66,6.44,58.8c9.15-5.18,18.69-6.26,29.31-4.34,7.62,1.37,14.66,3.29,21.27,7A51.42,51.42,0,0,1,67.9,70.23c-.87-5.75-4.1-9.39-8.67-12.05-8.1-4.7-16.95-7.38-26.15-9.16-7.94-1.54-11.87-7-10.48-14.23a10,10,0,0,1,9.53-7.61c9.78.11,9.78.11,13.55,2.18-1.63-4.16-2.36-8.06-.82-12A12.36,12.36,0,0,1,58.68,9.19a8.84,8.84,0,0,1,8.09,9.63c-.28,7.34-1.62,14.61-.36,22,1.79,10.51,6.37,19.41,14.83,26.39-2.73-5.84-5.7-11.59-8.12-17.55-6.93-17-2.87-36.55,13.3-46.8C93.55-1.63,98-.66,103.1,4.5c9.67,9.69,16,20.71,15.7,34.56C118.66,47,115,54,111.76,61c-.78,1.7-1.6,3.39-2.4,5.08-.45.45-.85.92-.41,1.59ZM81.11,91.93c0,7.94,5.67,13.34,14.12,13.34,7.1,0,13.47-6.1,13.55-13a13.86,13.86,0,0,0-13.91-13.9A13.53,13.53,0,0,0,81.11,91.93Zm52.45-8.77c2.53.32,4.34,1.83,6.25,3.21a15.84,15.84,0,0,0,11.51,3c2.71-.35,5.51-1.29,6.25-4.17s-1.06-4.74-3.49-6c-1.33-.7-2.09-1.52-1.21-2.93,1.44-2.33,1.45-4.46-.72-6.35-2.32-2-4.73-1.26-7.11-.1C139.35,72.6,136,77.32,133.56,83.16ZM55.27,84c-2.62-6.39-6.16-11.89-13.19-14.28-1.95-.66-4-1-5.7.68a4.14,4.14,0,0,0-.64,5.5c1.35,2.13.65,3-1.49,4.13-4,2.07-4.11,5.3-.35,7.87,4,2.77,8.23,2.16,12.32,0C49.15,86.44,51.86,84.49,55.27,84Zm18.12,53.07a20.53,20.53,0,0,0-1.47-7.6c-.34-.77-.8-2-1.76-1.62-5.52,2.35-11.94,3-16.08,8-1.68,2-3.06,4.26-1.63,6.81s4.16,1.83,6.48,1.2c1.28-.35,2.31-.76,2.19,1.15-.14,2.24.55,4,3.05,4.44a5.49,5.49,0,0,0,5.93-2.53A19.64,19.64,0,0,0,73.39,137.08Zm42.4,1.12a14.4,14.4,0,0,0,.86,6.65c1.17,2.54,3.15,4.33,6.16,4.3,2.41,0,4.37-.85,4.49-3.77.07-1.66,1.34-1.22,2.22-.74,2.42,1.32,3.95-.35,5.31-1.65,1.59-1.53,1.09-3.49,0-5.16a19.24,19.24,0,0,0-8.31-7.51C117.3,126.38,115.82,127.39,115.79,138.2ZM93.9,53.53c2.27-2.52,4.4-4.67,6.27-7a13.45,13.45,0,0,0,3.27-9.32c-.12-2-.42-3.81-2.6-4.55s-4-.52-5.4,1.48c-.88,1.31-1.5,1.71-2.75.16-1.7-2.1-4.22-2.66-6.43-1A5.72,5.72,0,0,0,84,39.67C85.33,45.62,90.23,48.87,93.9,53.53Z"/></g></g></svg>