<svg xmlns="http://www.w3.org/2000/svg" viewBox="0 0 179.1 171.9"><defs><style>.cls-1{fill:#facb15;}</style></defs><g id="Layer_2" data-name="Layer 2"><g id="Layer_1-2" data-name="Layer 1"><path class="cls-1" d="M38.38,59.5c2.28-3.18,3.12-7,6.42-9.51,3.69-2.79,6.3-3,9.75.16S58.94,57.87,60.34,62a20.65,20.65,0,0,0,4.89,8.08,7.31,7.31,0,0,0,9.08.73c2.89-2,3.39-4.8.53-6.83C68,59.11,63.77,52.48,60,45.45c-2.61-4.83-7.1-7.47-12.63-8.68A33.49,33.49,0,0,1,41,34.91c-4.89-2.15-7.64-5.67-7.93-11-.26-4.71,2.65-7.19,6.27-9.33,9.58-5.65,20.24-3.1,26.24,6.53,2.51,4,4.31,8.45,6.43,12.7a10.16,10.16,0,0,0,1,2.09c1.09,1.37,1.91,4.18,3.71,3.45,2.24-.92,2.19-3.68,1.53-6C76.19,26,76.45,18.62,78.1,11.27,79.63,4.46,83.75.3,88.61,0s9.6,4,12,10.38c2.86,7.71,1.51,15.18-1.07,22.63a20.53,20.53,0,0,0-.81,2.6c-.51,2.76.89,3.37,3.23,2.21a16.76,16.76,0,0,0,6.77-6.21c2.77-4.35,5.39-8.8,8.42-13,5.08-7,13.72-9.16,21.07-5.48,4.22,2.11,6.75,5.42,6.76,10.05s-2.86,7.41-7.13,8.62c-9.13,2.59-15,8.28-19.2,16.12-3.08,5.74-8.18,9.74-14.33,12.56-3.37,1.54-5.07,5.34-3.81,8.19s5.68,4.52,9.13,3.49c5.08-1.53,7.12-5.55,8.87-9.73,1.26-3,2-6.26,3.41-9.24,1.46-3.19,3.45-6,7.94-5.69s7.09,2.76,8.63,6.32c2.15,4.94,3.26,5.85,6.73,4.56,3.77-1.4,4.94-4.67,3.07-8.7-.83-1.8-1.79-3.54-2.62-5.33s-3.06-3.61-.84-5.64c2.4-2.2,5.31-4.13,8.83-3.26a33.73,33.73,0,0,1,10.85,4.78c6.11,4.16,7.35,11.08,3.4,17.82-4.68,8-12.57,11.79-21.23,14.62-2.34.76-4.66,1.59-7,2.46A2.92,2.92,0,0,0,137.76,78c0,1.56,1.71,1.5,2.87,1.65,7.43.93,14.2-1,20.7-4.26,6.67-3.38,12.17-1.92,15.95,4s1.51,16-4.39,19.75a10.65,10.65,0,0,1-10.24,1.11c-4.94-2-9.93-4-14.92-5.89a19.78,19.78,0,0,0-7.76-1c-1.23,0-2.71-.08-3,1.41a2.85,2.85,0,0,0,1.71,3.59c4.22,1.92,8.37,4,12.58,5.92a52.16,52.16,0,0,1,11.84,7.17c9.14,7.65,5.73,19.81-.7,25.33A12,12,0,0,1,149.54,138c-4.14-2.39-5.1-5.73-3-9.93a9,9,0,0,0,1.16-3.72,6.85,6.85,0,0,0-4.29-6.27c-2.5-1.06-3.06,2-4.14,3.45-1.71,2.22-3.11,4.73-5.73,6-4.68,2.32-9.18.42-11.62-4.78-2-4.26-2-9.23-5.1-13.15-.74-.94-1.33-2-2-2.94-1.69-2.27-3.86-3.54-6.7-2s-5,3.81-3.93,7.37c.5,1.63,1,3.45,2.45,4.48,6.61,4.71,10.83,11.46,16.4,17.05,3.32,3.33,7.42,5.22,11.85,6.81,6.76,2.43,10.47,7.57,9.42,12.7-.81,3.95-3.46,6.39-7.35,7.79-10.8,3.88-20.46.19-27.49-10.8-2.28-3.56-3.84-7.51-6-11.11-1.17-1.91-2.6-5.36-5-4.39-3.22,1.3-.33,4.16.41,6.09,2.36,6.1,3.84,12.24,3.22,18.78-.69,7.15-4.74,12.17-10.25,12.4-8.4.35-13.91-3.62-15.4-11.21-1.06-5.4,0-10.65,1.67-15.81.92-2.8,2.69-5.47,1.38-8.94-3.54,2.22-5,5.72-6.83,8.73q-3.45,5.58-7.36,10.84a18.62,18.62,0,0,1-22.53,5.45c-7.22-3.4-8.16-10.7-2-15.63a17.5,17.5,0,0,1,6.1-3.27A18.38,18.38,0,0,0,59.24,131c2.63-6.18,6.27-11.4,12.49-15.09,4.14-2.45,4.6-5.52,2.74-8.33-2.84-4.31-9.22-4.07-12.38.57a19.89,19.89,0,0,0-3.15,9.22c-.35,3.58-2,6.46-3.93,9.31s-4.92,3.73-8.31,3.32-5.11-2.43-6.08-5.23c-.6-1.75-.95-4.19-3-4.24a8,8,0,0,0-6.27,3.44c-1.52,2.07.81,3.58,1.61,5.21,2.39,4.85,1.2,9.07-3.63,10.68a14.39,14.39,0,0,1-9.75-.07c-8.72-3.4-12.24-12.65-8.07-20.63,3.29-6.3,8.77-10.29,15.29-13.26,3.72-1.7,7.44-3.43,11.07-5.31,1.56-.8,3.23-2,2.38-4s-2.65-1.36-4.3-1.15c-6,.77-11.1,3.9-16.86,5.33-8.45,2.09-14.34.22-17.55-6.14A13.64,13.64,0,0,1,5.63,77.27c3.07-2.25,6.26-3.19,10-1.5,2.61,1.19,5.46,2,7.94,3.32A18.51,18.51,0,0,0,38,80.58c1.25-.33,2.42-.61,2.65-2.07.26-1.65-.83-2.22-2.2-2.83-6.74-3-13.54-6-20.13-9.25C9.5,62,6,52.15,10.69,44.79A17.3,17.3,0,0,1,24,36.44c4.56-.46,8,2.35,8.21,6.78a60.92,60.92,0,0,0,.66,8.17C33.5,54.91,35.42,57.29,38.38,59.5Zm61.94,30.68c.08-6.5-4.7-11.11-11.53-11.1-5.87,0-11.61,4.88-11.71,10-.1,4.93,6.86,11.12,12.42,11C94.74,100,100.26,95,100.32,90.18Z"/></g></g></svg>