<svg xmlns="http://www.w3.org/2000/svg" viewBox="0 0 217.1 206.02"><defs><style>.cls-1{fill:#6f4599;}</style></defs><g id="Layer_2" data-name="Layer 2"><g id="Layer_1-2" data-name="Layer 1"><path class="cls-1" d="M129,51.29c4.83-7.69,9.89-15.21,17.38-20.75,10.3-7.61,21.63-9.61,34-5.71a5.27,5.27,0,0,1,3.89,4.08c4.75,17.75-.39,32.62-15.35,43.81-3.12,2.34-6.3,4.61-9.64,7.06,2.29.55,4-.44,5.77-.93,9.3-2.61,18.66-3.1,28-.47,10.88,3.06,17.86,10.74,23.62,19.72.86,1.34.28,2.57-.45,3.83-10.23,17.61-27.46,25.26-47.65,21.17-2.77-.57-5.6-.87-9.22-1.42,5.46,3.65,10.64,6.34,15.12,10,11,9.1,16.29,20.53,15.08,34.67a31,31,0,0,0-.36,6.36c.55,4.39-1.69,6.09-5.68,7.26-17.66,5.17-33.72-.32-45.46-15.75-2.81-3.7-5.21-7.65-8.11-11.51.89,4.11,1.83,8.22,2.67,12.34,3,14.65-5.47,32.6-18.79,40.13a5.45,5.45,0,0,1-5.73,0,38.1,38.1,0,0,1-20.16-42,96.48,96.48,0,0,0,1.72-11.41c-3.57,8.94-9.7,16-17,22.1-11.55,9.62-25,11-39.29,7.52a4,4,0,0,1-3-3.13C26.56,163,26.8,145.14,41.91,132.62a84.13,84.13,0,0,1,14.68-9.43c-6.8,1.6-13.6,1.19-20.42,1.26-16.69.16-27.42-8.64-35.52-21.68a3,3,0,0,1-.18-3.46c6.46-11.19,14.6-20.18,28.69-21.86,9-1.07,17.59.2,26.11,2.73a9.5,9.5,0,0,0,2.66.45C52.47,77.19,47,73.9,42.34,69.39,32.77,60.14,28,49.25,29.11,36c.25-2.91,1.33-5.57,2.21-8.29C32,25.54,34,24.88,36,24.38,53.6,20,67.7,25.55,78.76,39.08c3.8,4.64,7,9.73,10.93,14.49-.71-3-1.53-6-2.11-9C84,25.89,91.17,11.93,105.74,1.07a4.57,4.57,0,0,1,5.34-.39c11.8,6.47,18.23,16.45,19.65,29.44.75,6.9-.86,13.65-2.59,20.33-.27,1.19-1.26,2.25-.79,3.63C128.46,53.4,128.51,52.22,129,51.29ZM85.43,126.51a24.75,24.75,0,0,0,10.33-6.25c2.95-3,6-5.81,9-8.75.67-.66,1.34-1.34,2.29-.85.77.4.51,1.33.43,2-.52,4.33-.14,8.73-1.13,13a163,163,0,0,0-3.68,21.36c-.48,5.1-.73,10.23.61,15.27.73,2.71,2.26,4.73,5.3,5.27s4.93-.95,6.38-3.18a12.57,12.57,0,0,0,1.89-4,44.63,44.63,0,0,0,.34-16c-1-6.54-4-12.62-4.6-19.23-.36-3.72-.74-7.44-1.06-11.17-.12-1.29,0-2.69,1.54-3,1-.23,1.53,1,2.13,1.63,2.08,2.37,4.09,4.81,6.18,7.18,2.83,3.21,6.59,5.06,10.55,6.55.76.28,1.9.72,2.47-.13.28-.44-.16-1.39-.38-2.08-1.78-5.65-5.67-9.66-10.58-12.89-2.12-1.39-4.22-2.81-6.25-4.32-.75-.57-2.07-1.07-1.76-2.2.36-1.29,1.74-.67,2.67-.7a32,32,0,0,1,5,.15c9.63,1.2,19.18,2.9,28.71,4.73,6.57,1.27,13.23,2.07,19.45-1.32,2.75-1.5,5.79-3.12,5.67-6.84s-3.23-5.09-6.11-6.49a10.67,10.67,0,0,0-2.16-.69,36.63,36.63,0,0,0-18.19.45c-10.55,2.87-20.93,6.51-32.07,6.68-.73,0-1.59.64-2.1-.16-.66-1,.39-1.59,1-2.16,1.63-1.59,3.25-3.19,5-4.63a26,26,0,0,0,7.1-8.25C130.52,83.14,133,80,131,78.39s-5,1-7.19,2.79c-4.24,3.41-6.22,8.53-9.92,12.33-.58.59-.78,1.9-1.89,1.55-1.3-.42-.64-1.61-.68-2.57-.4-9.62,3.63-18.56,4.4-28,.55-6.59,1.17-13.24-.57-19.74-.88-3.31-3.33-5.18-7-5.29s-6,1.82-7.21,5a20.33,20.33,0,0,0-1,8.86c.56,8.26,3.69,16,5.16,24.08A110.94,110.94,0,0,1,107.22,98a86.72,86.72,0,0,0-10-12.64c-2.55-2.65-5.41-4.81-9.33-5.48-3.09-.53-3.4.54-2.41,2.88,2.16,5.13,5.85,9,10.43,12.17,2.07,1.43,6.34,2.52,5.3,4.83s-5.26,1.28-8.15,1c-.13,0-.25-.08-.38-.09-9.35-.77-18.11-4.14-27.21-6C57.57,93.1,49.91,93.46,43,98.08c-2.11,1.42-4,3.22-1.8,5.8,4.55,5.39,11.35,7.2,17.68,7.23,7.1,0,14.2-2.47,21.31-3.8,6.78-1.26,13.54-2.83,21.12-1.38C94.93,112.29,85.9,116.16,85.43,126.51Zm-8,9.22c-2.72.92-4.77,1.49-6.72,2.28-4.6,1.87-9.08,4-12.33,7.88-2.69,3.2-2.74,6.28-.2,8.63,2.28,2.12,7,2.26,9.43-.11C72.7,149.32,74.72,142.67,77.39,135.73Zm64,.24A63.5,63.5,0,0,0,145.93,148c1.3,2.43,2.65,4.84,5.29,6.23,3.06,1.61,7.5,1.14,9.58-1.12,2.68-2.91.75-5.44-1-7.69C155.3,139.65,148.71,137.66,141.37,136Zm-1.91-66.68c6-1.73,11.3-3.88,15.77-7.63a9,9,0,0,0,3.36-8c-.23-2.9-1.75-4.07-4.48-3.79-4.09.41-7.62,1.85-9.65,5.71C142.25,59.82,141,64.32,139.46,69.29ZM76.1,69c-1.71-4.24-3-8-4.71-11.53-1.59-3.32-3.87-6.15-7.82-7.17A6,6,0,0,0,57,52.23a4.8,4.8,0,0,0,.25,6.27C61.94,64.27,68.27,67.39,76.1,69Z"/></g></g></svg>