<svg xmlns="http://www.w3.org/2000/svg" viewBox="0 0 176.67 173.54"><defs><style>.cls-1{fill:#54327a;}</style></defs><g id="Layer_2" data-name="Layer 2"><g id="Layer_1-2" data-name="Layer 1"><path class="cls-1" d="M40.56,113.48c2,.37,4.39-.5,6.71,1.28s8.56-1.09,11.74-4.39c2.72-2.84,3.8-8.38,2.25-10.92-2.28-3.74-9-4.38-12.67-1.3a134.28,134.28,0,0,1-10.68,8.67c-16.14,11-31.11,0-36-11.83a25.4,25.4,0,0,1,0-19.43C4.77,68.22,9.8,64.1,18.28,62.07c6.48-1.55,11.74.26,17.43,1.36,2.11.41,3.5,2.41,4.93,4a45.92,45.92,0,0,0,9.74,8.93c4.26,2.69,6.46-1,9.18-2.32a4.76,4.76,0,0,0,2.36-6.72c-3.51-7.48-10.75-11-19.45-9.68C28,59.94,12.83,48.44,18,30.5A21,21,0,0,1,45.61,16.31c12.11,4.39,19.55,13.87,16,28.16-1.35,5.41-.72,10.38,6.21,13.54,1.89.87,2.86,3,5.67,2.75,2.41-.23,4.91,0,6.25-2.15,1.44-2.34.91-4.91-.65-7-2.59-3.54-5.46-6.9-7.58-10.73C66.69,32.15,64.21,23,66.85,13.31,69.54,3.5,81.4-2,91.78.7,100.32,3,106.5,7.38,108.14,15.9c1.21,6.25-1,12.18-4,17.68-2.83,5.23-4.84,10.76-7.13,16.17-1,2.48-1.4,6.08,1.21,8.09,2.31,1.77,5.5,1.23,8.28.17,7.9-3,10.76-9.37,7.48-16.57-4-8.77-2.7-14.31,5.09-21.69,7-6.67,19.29-9.12,27.71-4.32C156,20.66,160.67,26.89,160,39.09c-.41,8-5.86,14.12-14.5,16.66a23.79,23.79,0,0,1-9.4.76c-8.39-.93-14.27,2.16-17.82,9.23-2.41,4.8.44,11.16,5.82,11.38,3.67.15,7.15-2.2,9.65-5.09,2.18-2.51,4.33-5,6.69-7.41,5.29-5.34,11.63-6.39,18.46-4.06,17,5.77,21.26,20.69,15,35.93-3.74,9.11-11.86,12.72-21.68,13.06-5.23.18-9.35-2.67-13.14-5.77-1.67-1.37-3.14-3-4.72-4.42a16.73,16.73,0,0,0-7.78-4.25c-3-.66-6.23-.81-8.52,1.52s-1.54,5.34-.26,8.07c3.82,8.17,7.44,9.78,16.86,8.1,15.39-2.75,33,12.06,27.58,27.73-4.86,14.13-22.42,20.07-33.9,14C117.32,148.66,114,141.73,117.25,130c2.78-10-3.66-17.59-14.64-17.22-3.4.11-5.16,2.4-5.14,5.7,0,6.3,4.73,10,8.43,14.28,5.37,6.2,8.37,13.19,7.47,21.27-1,9-7.18,14.53-15.42,17.65-8.44,3.2-16.66,2.68-23.54-4.16-8.75-8.69-10.27-19.57-3.74-29.85a83,83,0,0,1,7.42-10.36,9.74,9.74,0,0,0,2.85-5.55c.23-2.73.13-5.41-2.69-6.92s-6.18-2.07-9,.09c-6.36,4.95-9,8.18-6.67,15.68,4.72,15.16-7.59,26.89-20.5,28.18-8,.81-14.38-2.63-20-8.26-5.37-5.4-7.33-11.51-6.43-18.42C17.25,120.44,26.72,113.48,40.56,113.48ZM76,86.3c-.58,7.9,7.86,11.91,14.75,12.11,6.53.2,11.85-5.58,11.76-12.1-.12-8.09-6.6-15-14-15C82.69,71.36,75.93,79.44,76,86.3Zm72.35,6c3.67-.75,7.72-.35,9.19-4.44,1.34-3.72-1-6.26-3.63-8.46-2.17-1.81-4.94-1.88-7.65-1.42-4.82.82-8.69,3.61-12.81,5.84-1.62.87-1.27,1.64-.07,3C137.41,91.31,143.42,90.51,148.31,92.25ZM30.19,80c-5.47-.11-9.2,3.15-9.06,7.5.11,3.43,5.53,7.59,9.48,6.66C36.46,92.77,42.19,90.88,47.9,89c1.74-.57,1.91-2,.2-2.86A76.48,76.48,0,0,0,30.19,80Zm58.59,47.64a30.19,30.19,0,0,0-6.11,14c-.57,3.69-1.23,7.34,4.1,9.53a8.35,8.35,0,0,0,6.64-.14c2.58-1.07,5.06-3.7,4.59-6.64A28.63,28.63,0,0,0,88.78,127.62ZM94.5,29.77a23.3,23.3,0,0,0-.86-3.88,6.91,6.91,0,0,0-8.3-4.17c-3.36.78-5.93,3.69-5.41,6.92a53,53,0,0,0,4.59,14.45c1.37,2.86,3.18,2,4.43.28A27.76,27.76,0,0,0,94.5,29.77ZM51.8,40.91c0-4.14-3.17-8.26-6.77-9.06-2.58-.57-6.74,1.81-8.2,4.69-1.57,3.08-.41,6.15,3.55,9.05,1.08.79,2.37,1.3,3.52,2a4.49,4.49,0,0,0,6.47-1.64C51.22,44.29,52,42.63,51.8,40.91Zm.88,90c0-4.06-2-6.79-5.12-6.89-5.69-.19-8.82,2.37-9,7.33-.12,4.74,2.42,8.23,6.09,8.36C49,139.88,52.63,135.89,52.68,130.93Zm74-89c0,3.86,2,6.29,5.08,6.34,3.69,0,8.3-3.57,8.48-6.66.2-3.62-4.81-9.74-8-9.79S126.69,36.13,126.7,41.93ZM142,132.82c-.07-4.42-3.44-8-7.43-7.81-2.61.09-5.48,3.76-5.37,6.87a7.15,7.15,0,0,0,7.32,6.91C140,138.67,142,136.42,142,132.82Z"/></g></g></svg>