<svg xmlns="http://www.w3.org/2000/svg" viewBox="0 0 227.11 227.55"><defs><style>.cls-1{fill:#fcd314;}</style></defs><g id="Layer_2" data-name="Layer 2"><g id="Layer_1-2" data-name="Layer 1"><path class="cls-1" d="M183.11,100c7.46,0,14.69.47,21.52,3.39,7.91,3.38,14.12,9.35,21.52,13.52,1.94,1.1.54,2.25-.64,2.67-5.8,2.07-10.9,5.35-16,8.56a34.48,34.48,0,0,1-21.83,5.37c-2-.18-4,0-7,0,4.21,2.23,7.5,4.24,11,5.8,9.9,4.42,16,12.11,20.17,21.58,1.41,3.18,3.2,6.2,4.79,9.3,1.86,3.63,1.66,4.15-2.64,4.23-11.35.22-22.5-.64-32.91-5.74-6.69-3.28-11.52-8.07-14.29-14.9-1.59-3.92-3.28-7.8-7-10.46s-8.37-3.13-10.87-.73c-2.34,2.25-2.45,7.44-.07,10.84,3.56,5.07,9,8,14,11.46,3.72,2.56,8.09,4.47,9.75,9.14,1.05,2.94,2.49,5.9,2.25,9-.75,9.88,2.12,19,5.56,28.05.38,1,1.3,2.11.19,3.09-.84.74-2,.33-2.92,0-9.52-3.27-18.72-7.15-27.11-12.76-10-6.69-14.43-16.42-15.46-27.57-.91-9.74-5.16-16.92-13.8-22.2-2.13,6.31-.78,12,2.14,17.41,1.82,3.41,4,6.65,5.71,10.1,3.23,6.44,3,13.18.46,19.67-3.89,10-10.19,18.6-16.56,27.16-1.39,1.86-2.75,2.38-4.25,0-6.77-10.85-14.2-21.47-15.92-34.46a23.73,23.73,0,0,1,5.68-19.2c4.4-5.06,7-10.58,6.52-17.35-.17-2.68-.86-3.46-3.35-1.94-7,4.29-10.82,10.58-11.32,18.49-.67,10.45-5.29,18.79-13.14,25.63-9.53,8.31-21.16,12.26-33.28,15.19-.72.18-1.49.66-2.18.08-.94-.8-.17-1.62.13-2.38q2.6-6.63,5.25-13.24c2-5,1.59-10.36,2.16-15.55.9-8.17,5.24-13.74,12.13-17.93,5.73-3.48,11.73-6.66,15.91-12.1,2.48-3.23,3-7.39,1.15-9.3-2.6-2.71-8-3.3-11.36-1.26-3.1,1.86-4.66,4.89-6.18,7.9-2,3.92-4,7.74-7.11,11-5,5.21-11.42,7-18.25,8.5-8.13,1.82-16.3,1.24-24.46,1.44-1.74,0-4.32.06-2.72-2.75,4.57-8,8.19-16.62,15.11-23.21,6.05-5.75,13.37-9.34,21.57-12.26-1.56-1.27-3-.86-4.23-.76-9.52.77-17.81-2.31-25.62-7.35-4.34-2.8-9-5.11-13.58-7.58-1.93-1.06-2.63-2.31-.36-3.51,7.26-3.87,14.12-8.41,21.6-11.94,6.14-2.89,12.66-3.56,19.58-3.85-1.21-2.17-3.38-2.56-5.14-3.24C26.67,88.86,19.73,81,15.2,71c-1.75-3.88-3.91-7.51-5.84-11.28-.79-1.55-1.88-3.65,1.42-3.61,10.6.14,21.26-.15,31.45,3.51,8.36,3,14.29,8.32,17.49,16.57,2,5.12,4.15,10.29,10,12.56,3.35,1.3,6.76,2.11,9.62-.81,2.52-2.57,2.34-7-.27-10.35a27,27,0,0,0-6.82-5.93A90.38,90.38,0,0,1,57.39,59.87c-3.7-3.73-6-8.26-5.43-13.49,1-9.06-2-17.15-5.44-25.24-.85-2-2.61-4.7-1.23-6.18s4.39-.38,6.58.17a64.84,64.84,0,0,1,34.9,22.38c3.47,4.25,4.71,9.59,5.2,15,.21,2.36.63,4.71.7,7.08.31,9.72,7.16,15.2,14.26,21.15.6-7.68.4-14.88-4.22-21C95.1,49.68,94.53,39.17,99.53,28A104.84,104.84,0,0,1,115.77,1.92c2.12-2.47,3.41-2.73,5.33.22a114.26,114.26,0,0,1,13.41,27.58c3.49,10.92-.18,20.51-6.69,29.16-3.76,5-5.67,10.23-5.22,16.34.06.81-.6,1.89.42,2.36s1.92-.28,2.75-.89c6.82-5,11.62-11.53,12.14-19.95.61-10.11,6.14-17.27,13.36-23.48,10.11-8.72,22.65-11.58,35.62-13.15,1.93-.24,2.27.84,1.88,2.26a12.46,12.46,0,0,1-1.48,3.41c-5.12,8.12-7.11,17.23-9,26.39-1.24,5.93-4.75,10.43-9.84,13.7-4.25,2.72-8.76,5-13,7.76-3.49,2.23-6.25,5.15-7.18,9.33-.76,3.42.56,5.83,3.89,7.13a10.5,10.5,0,0,0,12.36-3.29,16.44,16.44,0,0,0,2.5-4.19c3.92-10.61,12-16.55,22.88-19a77.45,77.45,0,0,1,29-1.19c2.66.42,3.43,1,1.49,3.36-4.38,5.38-7.52,11.55-11,17.46-4,6.75-10,10.54-17.45,12.43C188.61,96.51,186,98.4,183.11,100Zm-52.73.59c.34-3.19-.78-3.48-3.71-2.69-4.5,1.22-7.13,4.25-9.41,7.76-1.78,2.74-3.21,3.14-5.26.23a20.71,20.71,0,0,0-9.16-7.75c-1.33-.53-2.69-1.23-3.93-.09s-.82,2.63-.27,4.15a33.12,33.12,0,0,0,7.27,11.68c1.31,1.37,1.48,2.13-.24,3.48-4,3.18-6.42,7.29-6.23,12.59.09,2.66,1.54,3.62,4.07,2.48a19,19,0,0,0,7.81-7c1.79-2.64,3.1-3.2,5.1-.14,2.14,3.27,4.83,6.19,8.69,7.6,1.31.47,3.26.88,4.2.27s.66-2.58.14-3.88c-1.62-4.06-3.17-8.2-6.53-11.28-2.09-1.91-2.72-3.14.06-5.36C126.83,109.56,129.84,105.62,130.38,100.57Zm-61.72,9.5a8.43,8.43,0,0,0-4.1.82c-1.36.63-3.06,1.29-3.19,2.93-.13,1.85,1.5,2.78,3.06,3.38,4.93,1.9,9.71,2.62,14.32-1.07,2-1.58,1.56-2.42-.2-3.56C75.53,110.64,72,110.62,68.66,110.07Zm89.22,2.21c-2.55,0-5.06,0-7.26,1.61-1.7,1.28-1.75,2.14-.09,3.66,3.79,3.48,9.15,2.91,13.29.2,1-.63,2.59-1.22,2.36-2.66-.2-1.21-1.87-1.06-2.78-1.69C161.72,112.24,159.78,112.37,157.88,112.28Z"/></g></g></svg>