<?xml version="1.0" encoding="UTF-8"?>
<svg id="Layer_1" xmlns="http://www.w3.org/2000/svg" version="1.1" viewBox="0 0 269 272.1">
  <!-- Generator: Adobe Illustrator 30.0.0, SVG Export Plug-In . SVG Version: 2.1.1 Build 123)  -->
  <path d="M262.4,87.7c-3.6-7.2-10.3-12.2-18.1-13.7-17.7-3.4-34-.2-48.6,10.8-6.8,5.1-13.5,10.4-21.2,14.1-2.1,1-5,3.4-6.7,1.2-1.6-2,1.2-4.4,2.8-6.3,6-7.6,13.5-13.8,20.2-20.8,12.6-13,19.4-28.1,17.4-46.4-.8-7.6-3.3-14.4-10.5-18.2-6.5-3.4-13.5-5.5-20.6-7.4-6.4-1.7-13.2-.9-19.5-.1-9.3,1.1-16.2,7.6-21.4,15.6-7.2,11-8.5,23.1-8.4,35.8.1,10.5,1.2,20.9,1.6,31.4,0,2.2,1,5.8-1.4,6.2-2.4.5-2.6-3.3-3.5-5.2-5.8-12.7-11.3-25.5-16.9-38.3-1.9-4.4-4.4-8.6-7.5-12.3-11.3-14.1-26.4-19.2-43.4-15.9-14.7,2.8-23.2,13.7-27.7,27.7,0,.1,0,.3,0,.4,0,0,0,0,0,0,0,0,0-.2.1-.3-.8,7.2-1.1,14.5-.7,21.7,0-.1,0-.2,0-.3,0,0,0,0,0,0,0,.2,0,.4,0,.6,4.4,14.4,15.1,23.6,27.1,31.6,10.4,6.9,21.8,12.1,32.6,18.2l.6.3c1,.3,1.6,1.3,1.4,2.3-.2,1.1-1.3,1.8-2.4,1.6-17.3-.2-34.6-3-51.9,1.5-8.4,2.2-16.7,4.2-23.8,9.2-8.8,6.2-13.1,15-11.6,25.9,1.2,9.1,3.4,17.9,7.8,26.1,4.5,8.9,13,15.2,22.8,16.9.3,0,.6,0,.9,0,4.5-1.1,9.3-1.1,13.8,0,.2,0,.4,0,.6,0,4.5-.4,9-1.4,13.2-3.2,15-6.1,27.3-16.2,39.8-26.2l.9-.8c.8-.8,2.1-.9,2.9-.1s.9,2.1.1,2.9h0c-5.1,7.7-10.4,15.2-15.5,22.8-6,9-11.9,18.1-14.8,28.7-3.3,11.9-3,23.6,6.4,32.9,12.2,12,27.5,15.4,43.8,12.7,14.2-2.3,20.3-13.4,23.1-26.3,3.8-17.4.9-34.8-.9-52.1,0,.2,0,.3-.1.5-.2.5-.8.8-.8.3,0-4.2.1-8.3.2-12.5.1,0,.3-.1.4,0,.1,0,.2.2.4.3,4,.7,3.8,4.5,4.8,7.1,7.1,17.6,15.1,34.7,26.6,50.1,11.4,15.2,26.9,20.2,42.4,13.4,6-2.6,11.4-6.3,16-10.9,17.5-17.5,17.7-33.6,2.6-52.1-9.2-11.3-21.6-19.1-34.9-25.4-6.1-2.8-11.7-6.3-16.8-10.6-1-.8-2.2-1.9-1.4-3.4.3-.5.9-.8,1.5-.8,2.8,0,5.5.6,8.1,1.4,15.3,4.7,30.6,9.1,46.9,5.9,15.5-3.2,25.4-11.7,27.9-24.9v-19.8c0-.2,0-.4,0-.6-.6-8-2.9-15.8-6.6-23ZM148.2,150.5c-2.2,1.1-4.9,1.7-8.1,1.5-7,0-12.6-2.9-15.7-7.7-1.5-2.3-2.3-4.9-2.5-7.8-.2-4.1,1.2-7.6,3.5-10.2,3.4-3.9,8.9-6.1,14.4-6.4,8-.4,16.6,8.4,16.2,17-.3,5.9-3,11.1-7.9,13.6Z"/>
</svg>