<?xml version="1.0" encoding="UTF-8"?>
<svg id="Layer_1" xmlns="http://www.w3.org/2000/svg" version="1.1" viewBox="0 0 257.2 272.9">
  <!-- Generator: Adobe Illustrator 30.0.0, SVG Export Plug-In . SVG Version: 2.1.1 Build 123)  -->
  <g id="Layer_2">
    <g id="Layer_1-2">
      <path d="M134,194.5c2,6.6,1.9,13.4,2.6,20.1,1.2,11.7,3.2,23.5-.6,35.1-5.5,17-22.1,26.8-37.2,21.9-16.1-5.2-24-19.5-19.7-35.8,4.2-15.8,13.2-29.3,21.1-43.4,4.9-8.7,10.4-17,14.2-26.3.7-1.8,2.1-3.6-.3-5.8-6,7.4-11.9,14.7-17.9,22-10.3,12.4-20.5,25-32.5,35.9-8,7.3-17.2,12.2-28.5,9.7-19.6-4.3-29.6-27-19.6-44.4,5.7-10,14.6-16.1,25.2-20.1,17.9-6.8,36.1-12.5,54.5-17.9,2.5-.7,4.8-1.9,8.6-3.3-2.6-1.1-5.5-1.6-8.3-1.4-15.8.8-31.4,3.2-47.1,5.3-9.1,1.3-18.3,1.1-27.3-.7C1.5,141.3-2.4,123.5,1.3,110.6c5.2-18.1,22.2-27.3,40.2-21.9,10.8,3.2,20.3,9.2,29.8,15,12.3,7.6,25.2,13.8,39,20.9-4.5-9.5-11.4-14.8-18.3-20.4-6-4.9-12-9.6-18.1-14.4-8.7-6.8-16.5-14.6-21.6-24.5-9.7-19.1-1.1-39.7,19-46.5,12.5-4.2,25.3,1.4,33.1,14.7,6.4,10.9,9.6,23,12.6,35.1,3.1,11.9,5.5,24,7.2,36.2.4,1.7.8,3.4,1.4,5.1,3-14.3,3.6-29.1,1.8-43.6-1.6-13.8-3-27.5.6-41.2,3.3-12.5,10-22.3,23.7-24.7,18.4-3.2,34.5,13.4,31,31.6-3,15.4-10.7,28.9-18,42.5-6.7,12.5-14,24.6-18.7,38-.4,1.1-1.3,2-.6,3.5,2.4-.4,3.8-2.2,5.4-3.8,10.8-11,18.3-24.5,27-37.1,7.9-11.4,15.5-22.9,28-30,15-8.5,32.9-2.8,39.3,12.7.4,1.1.7,2.2.8,3.4,0,.4,0,.8,0,1.1.5,4.9,1.1,7.5-.2,14.8-1.3,7.5-5.9,12.9-11.6,17.5-12.2,10-26.3,16-41,21-9.3,3.2-18.4,6.8-27.4,10.5-2.2.9-6.2,1.6-5.6,4,.8,2.9,4.7,1.5,7.1,1.1,7.3-1.2,14.5-2.5,21.7-4.2,13.6-3.2,27.5-4.5,41.3-5.1,17.6-.7,30.1,15.8,26.6,34.8-3.7,20.2-18.3,27.5-37.7,24.4-13-2-23.6-9.6-34.6-15.9-8.9-5.1-17.8-10.4-27.4-14.1-2-.8-4-1.9-6.6-1.2,6.9,9.6,16.2,16.3,25.4,23,10.1,7.3,20.4,14.5,29,23.6,6.5,6.9,11.7,14.6,12.4,24.4.9,13.9-6.7,25.2-19.4,30s-26.4,1.2-34.9-9.7c-7.4-9.6-11.6-20.9-14.8-32.5-3.4-12.1-6.1-24.5-9.1-36.7-.7-2.9-1.4-5.8-3.9-8.8-1.9,6.5-.3,12.6-1.2,18.5"/>
    </g>
  </g>
</svg>