<?xml version="1.0" encoding="UTF-8"?>
<svg id="Layer_1" xmlns="http://www.w3.org/2000/svg" version="1.1" viewBox="0 0 264.2 272.5">
  <!-- Generator: Adobe Illustrator 30.0.0, SVG Export Plug-In . SVG Version: 2.1.1 Build 123)  -->
  <path d="M52.2,87.4c9.6,7,20,13.1,30.2,19.3,7.7,4.8,15.8,9,23.7,13.7,2.9-3.3,6.3-6,10.2-8-3.2-9-6.3-18.1-10-27-5.3-12.7-10.4-25.5-17.3-37.6-4.3-7.7-9.3-15-16.8-20.4-5.6-4-11.6-6.7-18.9-5.8-8.8,1.2-15.7,5.4-20.1,12.7-5,8.4-4.9,17.3-1.9,26.3,3.7,11.2,11.3,19.7,21,26.7Z"/>
  <path d="M138,110.5c.4,0,.7.1,1.1.2,4.5,1.3,8.2,3.9,11.9,6.6,5.8-4.3,11.4-8.7,16.9-13.3,7.2-6,14-12.4,20.5-19.1,7.1-7.2,13.8-14.9,18.5-23.8,4.9-9.1,7.8-18.6,5.2-28.8-2-7.9-6.8-13.7-15.1-16.3-6.7-2.1-13.2-.7-19.4,2.4-8.5,4.2-14.2,10.9-19.2,18.5-5.9,9-9.4,18.9-12.2,29-4,14.6-6.7,29.6-8.1,44.7Z"/>
  <path d="M263.6,155.5c-1.3-6.1-4.8-10.8-9.8-14.5-9.1-6.9-19.9-9.6-31.2-10.3-8.5-.5-16.9.3-25.3,1.5-8,1.1-15.9,2.4-23.8,3.9-4.3.9-8.6,1.7-13,2.6,0,0,0,0,0,.1,0,0,0,0,0,0-.6-.3-.3-.8-.3-1.2,0-1-.8-2.3-.1-2.9.7-.6,2.1-.4,3.2-.5,5.8-.4,11.5-1.1,17.2-2,9.5-1.4,19-2.9,28.5-4.8,9.1-1.8,17.9-4.2,26.1-8.3,7.3-3.7,13.9-8.3,18.5-15,4-5.8,6.1-12.1,5.2-19-1.1-8-5.9-13.7-13.7-17-7.3-3.1-14.7-2.8-22.3-1-8.7,2-16.1,6.5-23.1,11.7-9.6,7.1-18.1,15.4-26.7,23.6-6.2,5.9-12.1,12.1-17.7,18.5-.3.3-.5,1.1-1.1.3-1.1-1.3-2.2-2.6-3.3-3.9-3.7-2.7-7.4-5.2-11.9-6.6-.4-.1-.7-.2-1.1-.2-1.1-.4-2.3-.6-3.5-.8-1.1,0-1.2-.3-1-1.3,2.4-10.5,5.3-20.9,8-31.3,2.7-10.1,5.4-20.2,6.3-30.6.7-7.6.6-15.2-1.7-22.6-2.3-7.6-5.9-14.6-12.4-19.7-4.8-3.8-10.3-5.2-16.3-3-12.8,4.6-21.6,16.6-22.2,30.2-.3,8.6,1,17.1,3.7,25.2,5.6,17.7,12.8,34.8,19.9,51.9,1,2.4,1,2.4-1.5,3.6-.4.1-.7.3-1,.5-3.9,2-7.3,4.7-10.2,8-.8,1.2-1.6,2.4-2.3,3.6-.3.6-.5.5-1,.2-9.1-6.8-18.5-13.2-28.3-19-11-6.6-22.2-13-35-16.2-7.3-1.9-14.6-3.1-22.2-1.7-9.5,1.8-16.2,8.9-17,18.6-.7,8.4,2.7,15.6,8.6,21.6,6.4,6.5,14.5,10.3,23.6,12,6.4,1.1,12.8,1.8,19.3,2,10.3.3,20.6,0,30.9-.8,5.5-.4,10.9-.8,16.3-1.7.5,0,.8,0,.8.5,0,1.1.2,2.2.3,3.3-2.7,0-5.3.3-8,.3-7.6,0-15.2.3-22.9.7-8.3.5-16.5,1.5-24.6,3-9.3,1.8-18.2,4.5-26.5,9.2-7,3.9-12.8,9-15.9,16.3-2.9,6.9-3.7,14,.6,20.5,6.2,9.4,15.7,13.7,27.3,13.5,6.6-.1,12.9-2.1,18.9-4.8,8-3.6,14.8-8.7,21.6-13.9,12.6-9.8,23.6-21.2,35.2-32,.9.9,1.7,1.8,2.7,2.6.7.5.4.8-.1,1.2-7,5.3-13.9,10.8-20.4,16.6-8.1,7.3-16.4,14.4-23.4,22.8-5.1,6-9.9,12.3-13.1,19.5-3.4,7.5-5,15.3-3.4,23.5,2.3,11.9,14.2,19.9,27.3,15.7,9.9-3.2,17.4-9.4,23.4-17.3,5.5-7.2,8.7-15.4,11.5-23.8,5.1-15.6,7.8-31.7,10.6-47.8.2-.8,0-2,.4-2.5.7-.7,1.7.2,2.6.3.6,0,1.1.2,1.7.3-.8,3.1-1.6,6.3-2.4,9.4-4,15.9-8.4,31.6-9.8,47.9-.7,8-.7,15.9,1.4,23.8,2.1,7.9,5.8,14.8,12.7,19.9,5.5,4.1,11.7,5.9,18.7,4.2,7.2-1.8,12.1-6.4,15.6-12.4,5.2-8.8,5.5-18.3,4.4-28-.9-7.6-3.3-14.8-6.1-21.9-4.5-11.5-10.1-22.6-15.4-33.8-1.8-3.3-3.3-6.8-4.7-10.3l3.4-1.3c5.1,13.5,11,26.8,17.4,39.7,5.3,10.6,11.2,21,19.7,29.8,6,6.2,12.9,11.2,21.5,13.5,6.3,1.7,12.4,1.3,17.8-2.5,9.2-6.5,11.8-15.6,10.4-26-.8-6-3.5-11.3-7-16.2-6.9-9.7-16-17.1-26.2-23.6-12.9-8.2-26.6-15-40.1-22.1-.9-.5-1.8-.9-2.6-1.4.5-.8,1-1.6,1.5-2.3.3-.4.6-.8.8-1.3,0,0,0,0,0,0l10.3,6.3c12.5,7.6,24.9,15.3,38.5,21,10.1,4.2,20.5,7.3,31.7,6.3,8.2-.8,15.4-3.5,20.7-9.8,5-5.9,7.1-12.6,5.5-20.2ZM160.2,141.8c-.7,3-1.3,6-2.6,8.8,1.4-2.8,2-5.8,2.6-8.8.2-.9-.2-1.8,0-2.7-.3.9.1,1.8,0,2.7Z"/>
</svg>