<svg xmlns="http://www.w3.org/2000/svg" viewBox="0 0 189.14 185.28"><defs><style>.cls-1{fill:#6f4599;}</style></defs><g id="Layer_2" data-name="Layer 2"><g id="Layer_1-2" data-name="Layer 1"><path class="cls-1" d="M141.67,152.94c3.4,13.85,2,21-4.51,24-6.23,2.9-13.38-.3-20-9.2-.31,2.7-.62,5.07-.82,7.45-.41,4.69-4.09,9.3-8,9.89-5,.78-8.65-1.41-11-6.72a21,21,0,0,1-2-7.45c-1.69,1.94-1.15,4.24-2,6.13-1.85,4-4.18,7.57-9.16,8.07-6.79.68-11.25-3.47-11.7-10.74-.13-2.23,0-4.48,0-7.5-1.44,2.11-2.45,3.73-3.6,5.23a14.48,14.48,0,0,1-15.66,5c-5.54-1.82-8-5.68-7.84-12.65a19.83,19.83,0,0,1,.76-6.3c.64-1.85,1.09-3.77,1.74-6.06-4.1,3.27-7.88,6.06-12.87,7C25.33,161.1,19,154.6,20.46,145c.87-5.84,4.38-10.27,9.64-14.84-5.53,1.76-10.11,3.18-14.87,2.35-5-.87-8.58-3.74-10.15-8.58-2.4-7.42,2.1-14,13.44-19.59-3.23-1.43-6.75-1.57-9.76-3.18C4.49,98.85.75,96.17.14,91-.66,84.13,2,81.25,8.7,77.72c3.86-2,8.28-2.46,13.08-3.17-3.13-1.64-6.19-2.57-8.54-4.73-4.18-3.85-6.36-8.39-5.47-14,1-6.17,5.21-9.09,11.63-8.92C24.22,47,29,47,33.32,49.65a45.06,45.06,0,0,1-5-7.45,16.5,16.5,0,0,1-.73-13.75c1.86-5.14,6.35-6.4,11.91-5.91,6,.53,10.36,2.84,14.67,7.59-1-5.29-2.59-9.75-1.16-14.42,1.5-4.91,4.4-8.35,9.64-9.65,6.73-1.67,13.62,3.71,18.51,14.8.75-3.67,1.25-7,2.12-10.22,1.27-4.7,4-8.45,8.86-10.11C98.74-1.76,106,3.64,107.26,11.46c.51,3.15.88,6.3,1.22,9.67.76-1.62,1.47-3.25,2.27-4.83,2.55-5,6.22-8.88,12-10.19,6.92-1.57,13.52,3.74,14.38,11.51a17.72,17.72,0,0,1-1.73,10.62c2.25-1.44,4-2.58,5.75-3.69,5-3.16,10.48-1.64,15.73-1.42,2.75.12,4.44,2.68,5.13,5.45a19.79,19.79,0,0,1-2,14.84c-.94,1.7-2,3.34-3.48,5.8a37.8,37.8,0,0,1,14.16-2.45c9.86.19,15.12,10.53,9.12,19.56-2.08,3.12-4,4.46-11.46,8.31,4.21.68,8.19,1.12,11.91,2.77,6.06,2.7,9.44,7.19,8.83,12.23-.81,6.8-5.26,11.77-11.77,13-2.39.44-4.82.63-7.81,1,2.38,1.41,4.51,2.57,6.54,3.88,5.7,3.7,8.94,10.2,7.66,15.2-1.87,7.31-9.81,11.51-18.22,9.6-1.59-.36-3.15-.85-5.22-1.41,2.9,3.83,6.06,6.91,7.44,11.16,1.64,5,1.47,9.75-2.35,13.64s-8.62,4.3-13.8,2.55A39.57,39.57,0,0,1,141.67,152.94ZM105,118.18l-.19,0,.26-.07c0,4.63,1.7,9,2.69,13.4.84,3.76,1.79,7.54,4,10.82,1,1.5,2.19,3.34,4.53,2.61s2.43-2.6,2.49-4.57c.1-4.1-1.56-7.51-4.11-10.6Q109.8,124,105,118.18Zm9.87-5.86-.42-.47-.08.33.55.06a49,49,0,0,0,11,15.79,16.33,16.33,0,0,0,5.87,4.07c2,.73,4.21,1,5.64-.79s.39-3.46-.88-5C130.85,119.27,123,115.63,114.84,112.32Zm-20.19-7.58c6.28,0,11.43-4.76,11.5-10.66S100.84,82.5,94.89,82.55c-5.71,0-11.71,4.77-11.6,11.39A11.27,11.27,0,0,0,94.65,104.74Zm-.47-32.56a104,104,0,0,0,5.84-20c.75-3.71.74-7.74-1.53-11.23-2.44-3.76-5.68-3.71-8,0a12,12,0,0,0-1.55,7.91C89.64,56.62,91.86,64,94.18,72.18Zm9.91,1.18a71.79,71.79,0,0,0,10.08-9,32.24,32.24,0,0,0,8.11-13c.7-2.18,1.1-4.74-1.22-6.14s-5-.59-7,1.26a22,22,0,0,0-4.64,6.79C106.47,59.51,106.08,66.29,104.09,73.36Zm-19.9-1.49C83,63.59,81.54,56.22,77.6,49.55c-2.81-4.76-5.95-6.79-8.24-5.56-2.89,1.56-3.28,6.15-.75,10.78C72.26,61.46,78,66.33,84.19,71.87Zm30.37,7.58a63.86,63.86,0,0,0,22.36-10.31c2.45-1.72,3.53-4.08,2-6.83s-4.35-2.38-6.79-1.6a13.61,13.61,0,0,0-4.46,2.83C122.56,68,118.62,73.33,114.56,79.45ZM75.21,111a114.06,114.06,0,0,0-13.57,6.29c-3.42,2-6.73,4.14-8.92,7.45-1.47,2.22-2.91,4.87-.49,7.14s4.7.56,6.84-.91C66.28,126.05,70.13,118.55,75.21,111ZM68,101.12c-8.24.08-15.62-.65-22.45,2.63-2.89,1.39-5.94,3-5.2,6.92.43,2.28,4.38,3.08,8.52,1.89C56,110.52,61.86,106.43,68,101.12ZM84.75,115.6c-5.53,6.66-10.79,12.57-14.24,19.74a8.23,8.23,0,0,0-1,4.33c.2,2.24.81,4.38,3.2,5,2.21.61,3.5-1.14,4.54-2.72a22.87,22.87,0,0,0,2.07-4A85.86,85.86,0,0,0,84.75,115.6ZM74.12,78.47c-5.07-5.73-8.93-11.53-14.44-15.88-4-3.13-7.93-3.66-9.61-1.6s.07,6.93,3.84,9.19A77.5,77.5,0,0,0,74.12,78.47Zm45.24,10.85c3.87.63,7.09,1.26,10.35,1.67,4.94.63,9.92,1,14.55-1.41,2-1,4.51-2.18,3.61-5s-3.49-3.37-6.27-2.95A70.84,70.84,0,0,0,119.36,89.32Zm.15,12.55c5.89,3.54,11.67,7.09,18,9.54a16.05,16.05,0,0,0,6,.93,3.57,3.57,0,0,0,3.43-1.93,3.41,3.41,0,0,0-.66-3.82,12.23,12.23,0,0,0-9.59-4.67C131,101.75,125.25,101.87,119.51,101.87Zm-25,16.82a59.6,59.6,0,0,0-4.22,17.18c-.37,3.6-.42,7.24,1.32,10.62.65,1.26,1.35,2.51,3,2.49s2.11-1.25,2.64-2.39a12.51,12.51,0,0,0,1.4-5.74C98.44,133.47,96.34,126.44,94.54,118.69ZM67.37,89.1A115.16,115.16,0,0,0,49.71,82c-4.35-1.28-8.72-.67-9.43,1.43-1,2.87,1.82,5.8,6.79,7.09.37.1.73.24,1.1.31C54.49,92.09,60.52,90.56,67.37,89.1Z"/></g></g></svg>