<?xml version="1.0" encoding="UTF-8"?>
<svg id="Layer_1" xmlns="http://www.w3.org/2000/svg" version="1.1" viewBox="0 0 306.3 306.3">
  <!-- Generator: Adobe Illustrator 30.0.0, SVG Export Plug-In . SVG Version: 2.1.1 Build 123)  -->
  <g id="Layer_2">
    <g id="Layer_1-2">
      <path d="M98.2,38.3c.7-7.1,1.8-14,5.1-20.6,8-16,27-22.1,44.8-14.3,18.3,8,24.6,22.8,27.9,39.4,3.7,18.7-.7,36.7-4.7,54.8-2,8.8-3.1,17.7-4.7,26.8,4-.4,4.8-2.7,6-4.5,8.1-12.2,15.7-24.7,24.1-36.7s18.2-23.3,33.4-29.6c10.8-4.4,22.5-5.8,34-4,21.5,3.1,32.1,20.7,23.9,38.9-7.6,16.9-22.2,28.3-38.2,38.7-15.5,10-31.4,19.2-49.3,26.1,1.6,2.5,3.9,1.8,5.6,1.8,13,0,26-.4,39,.1,20.4.8,38.4,6.6,51.3,21.6,4.9,5.7,8.9,11.9,9.6,19.2,1.8,18.4-9.3,30.7-30,33.5-17.1,2.3-32.4-2.6-47-9.6-13-6.1-23.4-15.4-34.8-23.4-3.9-2.8-7.9-5.4-13.6-9.2,6.2,13.6,11.7,25.5,17.1,37.4,6.1,13.4,11.2,27.1,9.7,41.8-1.1,11.2-5.1,21.4-14,29.7-16.1,15-39.5,13.2-52.7-4.1-11.9-15.6-14.3-33.1-12-51.3,1.8-14.5,3.8-29,7.2-43.3.4-1.6,1-3.5-.7-6.2-7.4,9.8-14.6,19-21.5,28.4-8.4,11.4-16.2,23.1-28.8,31.4-7.2,4.8-14.8,8.7-24,9.6-8.8.8-16.2-1.5-21.5-8.1-7.2-8.9-9.2-18.8-6.2-29.4,7.4-26.2,25.9-43.6,53.7-53.5,4.5-1.6,8.8-3.8,14.1-6-7.5-2.8-14.7-3.5-21.7-4.8-20.2-3.7-40-8.2-56.8-19.6-9.3-6.3-16.8-13.8-20.8-23.6-4.8-11.9-.7-22.5,11.7-28.5,21.5-10.4,42.4-8.7,62.4,3.6,13.1,8,23,19,33.8,29.2,5.4,5.4,11.3,10.4,17.5,14.8,1.7-4.5.4-7.7-1.5-11-10.7-19.4-22-38.7-26.8-60.2-.4-2-1.3-3.9-.9-6,2-6.3,1.9-13,0-19.3Z"/>
    </g>
  </g>
</svg>