<?xml version="1.0" encoding="UTF-8"?>
<svg id="Layer_1" xmlns="http://www.w3.org/2000/svg" version="1.1" viewBox="0 0 275.5 313">
  <!-- Generator: Adobe Illustrator 30.0.0, SVG Export Plug-In . SVG Version: 2.1.1 Build 123)  -->
  <g id="Layer_2">
    <g id="Layer_1-2">
      <path d="M141,165.1c-1.6,10.1-3.3,20.1-4.8,30-2.8,18.8-7.2,37.2-14.3,54.8-5.9,14.7-15.6,26.7-27.5,36.9-7.7,6.6-15.7,12.9-22.8,20.2-4,4.1-6.2,3.9-9.7-.8-3.1-4.2-5.1-9-5.9-14.1-4.6-26.7,4.4-48,25.6-64.4,8.3-6.4,17-12.3,24.9-19.2,11.9-10.1,20.1-23.9,23.3-39.1.7-2.8.8-5.7.3-8.5-6.9,6.4-13.3,13.3-19.2,20.8-15.9,20.6-37.1,31.4-63.1,32.2-13.6.4-27.2.7-40.6,3.8-5.6,1.3-7.3-.6-7.2-6.1.6-19.7,17.2-51.4,46.6-55.3,9.9-1.3,19.6.2,29.2,2.1,16.2,3.2,32.1,4.2,46.7-5.4,1.3-.9,3.6-1.1,3.2-3.2s-2.5-2.5-4.3-2.8c-10.7-1.5-21.4-2.6-32-5-29.1-6.5-52.5-20.7-64.9-49-3.6-8.4-6.3-17.2-7.9-26.2-.5-2.7-.2-5,2.5-6.3,19.3-9.2,38.5-11.5,57.3,1.1,9.7,6.5,14.5,16.2,17.7,26.9,3.5,11.7,7.3,23.2,15.1,32.9,5.5,6.8,11.6,13.1,20.9,16.5-1-5.7-3.6-10-5.2-14.6-6.2-18.1-12-36.2-10-55.9,2.8-27.2,23.5-61,56.2-66.9,8.6-1.5,12.9.9,13.6,9.8,1.6,19.3-1.1,37.5-13.8,53.2-6.3,7.8-12.6,15.5-18.4,23.6-9.3,12.9-14,27.4-13.5,43.5,0,3.1.8,6.1,2.6,8.6,4.2-5.3,7-11.3,10.2-17,7.3-12.9,14.4-25.9,25.6-36.1,16.8-15.3,36-24.5,59.4-22,15.2,1.6,27.1,9.4,36.7,20.9,2.8,3.3,2.3,6.8-.4,10-12.7,15-28.6,23.9-48.2,26.3-13.2,1.6-26.3-1.2-39.4,0-16.1,1.3-27.8,9-34.9,23.7-.6.8-.6,1.9,0,2.7,10.3-1.4,20.6-3.8,31.2-4.9,17.4-1.7,34,.8,49.3,9.1,14.4,7.8,22,21.3,27,36.4,3.5,10.7,6.4,21.6,10,32.4,1.5,4.4-.5,6.3-4,7.4-8.7,2.8-17.4,1.8-26.1-.2-20.1-4.8-32.5-18.6-42.1-35.7-4.9-8.8-10.4-17-18.1-23.7-7-6.3-15.8-10.1-25.1-11-1.4-.1-3.3-.8-4.3.6-1.2,1.7,0,3.6,1,5,6.8,9.2,13.3,18.7,20.6,27.6,13,15.8,23.7,32.6,27.4,53,4.3,23.8.3,46-14.5,65.7-3.7,4.9-5.1,5.1-10.2,1.3-15.1-11.6-22.5-27.7-25.8-45.8-2.9-15.8.2-31.5,1.4-47.2,1.2-16,1.6-31.9-3.9-47.3q-.9-2.5-3.5-4.8Z"/>
    </g>
  </g>
</svg>