<svg xmlns="http://www.w3.org/2000/svg" viewBox="0 0 169 161.82"><defs><style>.cls-1{fill:#54327a;}</style></defs><g id="Layer_2" data-name="Layer 2"><g id="Layer_1-2" data-name="Layer 1"><path class="cls-1" d="M107.85,93c2.28,3,4.87,4.53,7.25,6.2,6.74,4.71,13.1,9.87,19.63,14.81,4.66,3.53,7.93,8.45,13.37,11.17,2,1,4.19,2.91,3.29,5.73a4.68,4.68,0,0,1-4.74,3.21c-2.24,0-4-1.54-5.74-2.85q-17.49-13.23-35-26.43a9.8,9.8,0,0,0-6.9-2.4c6.66,13.79,13.45,27.23,20.68,40.47,1.19,2.17,2.45,4.37,2.74,6.9.22,2-.54,3-2.5,3.91-2.18,1-3.11-.23-4.08-1.45-4.89-6.18-7.7-13.44-11.6-20.14C99.52,124,94.9,115.8,90.19,107.64a11.07,11.07,0,0,0-1.71-1.73c-1.21,4.8-.91,9.19-1,13.53-.17,12.16.26,24.34-.75,36.49-.09,1.16.12,2.34-.56,3.44-.79,1.27-1.51,2.49-3.39,2.45a3.94,3.94,0,0,1-3.85-2.4,9.82,9.82,0,0,1-.68-4.57c-.11-14.78.1-29.57-.76-44.34-.08-1.39.43-2.93-1.26-4.26-4.57,7.44-9.16,14.82-13.64,22.24-3.57,5.91-7,11.91-10.55,17.82-.59,1-1.77,1.61-2.55,2.5-1.21,1.35-3,2.17-4.28,1.08a3.55,3.55,0,0,1-1.06-4.36c3-5.85,5.7-11.84,9-17.55a125.41,125.41,0,0,0,6.2-11.75c2.1-4.79,4.85-9.32,7.26-14,.18-.35.81-.82-.12-1.6-6.27,3.28-12.07,7.42-17.94,11.42-8,5.42-15.82,11-23.73,16.45-1,.69-2.1,1.24-3.14,1.88-2.61,1.61-5.17,1.18-6.73-1.07-1.34-1.92.92-3.34,2.24-4.44,4.76-4,9.61-7.88,14.58-11.62,7.46-5.61,15.08-11,22.59-16.59C56,95.42,57.5,94,59.66,92.08c-6.86-.54-12.37,1.74-18.11,2.46C31.31,95.81,21.43,99,11,99.39c-1.88.07-4,1.15-6.13,1.59-2.95.61-4-.71-4.67-3-.76-2.6.82-3.62,3-4.14,11.47-2.7,23-5.1,34.57-7.37C43.86,85.26,50.24,85,56.54,82c-6.24-3.34-12.65-4.35-18.68-6.26-11-3.49-22.33-6.2-33.28-10C2.32,65,.32,64.26,1.2,61.44,2,58.88,3.84,59.1,6.14,59.5c6.64,1.15,13.23,2.49,19.71,4.24,7.29,2,14.71,3.64,21.71,6.29,4.25,1.61,8.27,2.83,13.4,2.31-2.62-2.56-4.74-5.2-7.43-7.15A239.53,239.53,0,0,1,31.76,47.78c-4-3.71-8.42-7-12.38-10.73-2.1-2-3.08-4.28-1-6.56s4.6-2.29,7.49-.17c12.8,9.42,24,20.54,36.41,30.34l2.53,2a7.91,7.91,0,0,0-.43-6.56C59.71,45.73,54.89,35.4,50.25,25c-1.58-3.56-3.82-6.9-4.37-10.83-.3-2.17-.23-4.27,2.43-5.2s4.06.87,4.95,2.54a177.57,177.57,0,0,1,8.5,17.16c4,10,9.38,19.41,15.38,29.76C79,45.83,78.2,34.24,79,22.73c.4-6,0-12,.2-18.06.14-4.2,1.35-5,5.61-4.57,1.5.16,2.45.55,2.87,2.19.6,2.33.32,4.59.33,6.91,0,15.43.26,30.87.44,46.3a1.83,1.83,0,0,0,.87,1.76c1.44-.68,1.67-2.2,2.42-3.37C98.14,43.81,101.84,32.57,107.09,22c2.41-4.84,5.72-9.18,8.18-14a3,3,0,0,1,3.35-1.76c1.87.36,1.44,1.83,1.53,2.8.43,5.08-1.88,9.65-3.73,14.16-3.92,9.52-8.51,18.79-12.63,28.24-1.56,3.57-2.61,7.34-4.11,11.64,3-1.38,5.47-2.38,7.53-4.21,11.45-10.16,23.54-19.61,35.69-29a8.28,8.28,0,0,1,2.43-1.46A4.76,4.76,0,0,1,150.49,30c1.36,1.47.25,2.64-.71,3.78-5,6-11.06,11-17.07,16C125,56.2,117.14,62.45,110,69.66c2.69,1.44,5.13,1.2,7.87.46,14.65-4,29.48-7.3,44.43-10.14a8.3,8.3,0,0,1,1.65-.15c2,.05,4.35-.72,5,2.13.53,2.41-1,3.42-3,4.46-5.84,3-12.33,4.26-18.62,5.89-9.77,2.52-19.7,4.49-29.56,6.7-.26.06-.5.23-.76.3-2,.56-5.64-.72-5.48,2.52.08,1.74,3.38,1.87,5.42,2.41,12.63,3.3,25.66,4.78,38.37,7.7q5.1,1.17,10.09,2.76c1.15.36,3,.65,2.59,2.46s-.28,4-3.14,4.49c-4.78.83-9.36-.37-13.88-1.28-12.42-2.5-25-4.13-37.33-7.29C112.08,92.69,110.35,93,107.85,93Z"/></g></g></svg>