<svg xmlns="http://www.w3.org/2000/svg" viewBox="0 0 206.32 194.39"><defs><style>.cls-1{fill:#6f4599;}</style></defs><g id="Layer_2" data-name="Layer 2"><g id="Layer_1-2" data-name="Layer 1"><path class="cls-1" d="M48.93,40.3c-2.8-5.45-4.29-11-3.56-17.3C46.68,11.88,57.27,5.39,68,9.5c7.42,2.84,12.49,8,15.87,15.84.93-4.06,1.57-7.38,2.45-10.63A19.41,19.41,0,0,1,97.61,1.37c7.56-3.35,16-.39,20.58,7.24,3,5.07,4.2,10.62,4.48,17.62,3.11-7,7.32-11.86,13.4-14.9a17.89,17.89,0,0,1,18.85,1.07c8.88,5.78,9.76,15.77,2.46,30.63,2.41-1.14,4.4-2.15,6.44-3a26.57,26.57,0,0,1,19.11-.82c10.08,3.25,14.51,15.74,9,24.66A29.71,29.71,0,0,1,180.37,75c-.8.42-1.94.74-1.44,1.77s1.39.26,2.25,0c7.79-1.93,20.79,5.1,24,12.87,3.37,8.25-.74,18.22-9.51,22.87a42.46,42.46,0,0,1-8.17,3.14c-2.72.78-5.5.57-9.17.76,4.08,2.78,7.58,5,10.22,8.18,5.4,6.46,7.56,13.62,4.05,21.57-2.14,4.84-5.9,8.14-11.64,8.37-2,.08-3.18,1.57-5.25,1.7-7.19.48-12.73-2.85-18.74-7,1.49,3,2.93,5.46,3.93,8.06,5.13,13.24-.42,26-14.2,28.41-4.17.75-7.8-1-11.18-3-5.78-3.37-9.47-8.55-12.31-14.55-.66,4.47-1.24,8.81-2.83,13a20.15,20.15,0,0,1-7.92,10.26c-8.21,5.26-17.84,3.27-23.34-4.91-2.83-4.2-4.64-9.6-5.37-16.43-1.31,1.83-2.31,3.31-3.39,4.73-5.06,6.6-11.55,10.43-20.28,10-9.54-.52-15.93-7.74-16-18-.07-5.9,2.13-11.14,4.38-16.8-1.76,1-3.5,2.13-5.3,3.09-10.35,5.52-26.36,2.81-30-10.14-2.35-8.37.78-15.13,7.1-20.78,2.64-2.36,5.76-4.06,8.83-6.21-6,.14-11.82-.47-17.28-3.17C-1.19,106.37-4,91.53,6.13,82.45a25.72,25.72,0,0,1,13-5.92C22,76,24.9,75.67,28.3,75.17c-3.55-2.64-6.87-4.74-9.48-7.68-8.44-9.55-7.38-22.9,2.34-28.28,8.35-4.62,16.61-4,24.74.57.78.44,1.51.94,2.25,1.41a3,3,0,0,0,2.33,1.35Zm54,45.3c-6.3.12-11.22,5.64-11.11,12.45.11,6.58,4.91,11,11.93,10.89,6.74-.08,12.55-5.5,12.54-11.72C116.23,90.79,110.1,85.46,102.88,85.6ZM75.22,98.14C67.54,94.06,60.06,90.58,51.84,89c-4.93-.94-9.7-.57-13.81,2.7a6.29,6.29,0,0,0-1.59,8.39c1.91,3.13,8.8,6.36,12.42,5.75,1.74-.29,3.21-1.29,5-1.66A152.68,152.68,0,0,0,75.22,98.14Zm29-27.94c.77-1.53,1.25-2.4,1.66-3.32,3.93-8.79,6.68-17.8,5-27.54-.54-3.22-1.87-6.22-5.53-6.85s-6.39,1.57-8,4.63a13.22,13.22,0,0,0-1.68,8C96.84,53.8,100.08,61.86,104.21,70.2ZM79.94,110.74c-8.76,2.06-16.92,2.75-24.58,5.65a20.73,20.73,0,0,0-8.09,4.87c-2.12,2.26-3.22,5.06-2.11,7.93s4.13,3.52,7,3.58a18.57,18.57,0,0,0,12-4.26C70.26,123.82,75,118,79.94,110.74Zm37.13,11.5c1.22,5.84,2.2,11,3.37,16a24.44,24.44,0,0,0,9,14.32c2.44,1.89,4.94,2.64,7.7.89s4.05-4.13,3.4-7.31a22.48,22.48,0,0,0-6.14-11.77C129.52,129.52,123.1,126.8,117.07,122.24Zm11.27-12.85c4,4.83,7,9.45,10.38,13.78,4.32,5.56,9.94,9.75,17.88,8.92,5.54-.57,7.77-5.21,4.75-9.69a17.33,17.33,0,0,0-8.82-6.81C144.9,112.84,136.87,111.69,128.34,109.39Zm.27-24.12a137.78,137.78,0,0,0,26.85-8.12,16.77,16.77,0,0,0,6.57-5c1.73-2.14,2.25-4.55,1-7a6.75,6.75,0,0,0-6.3-3.54,14,14,0,0,0-7.85,2.59C140.53,69.45,134.48,76.78,128.61,85.27ZM117.83,73.63c5.84-4.13,11.08-8.06,15.47-12.95a29.4,29.4,0,0,0,6.53-10.44c1.42-4.41.17-8.69-2.74-10-3.25-1.42-7.55.18-10.26,3.83a10.46,10.46,0,0,0-.82,1.26C121.28,54,119.23,63.41,117.83,73.63Zm15,23.85c7.32,2.47,13.71,4.94,20.42,6.41a22.18,22.18,0,0,0,11.38-.22c3.09-.93,5.16-2.73,5.59-5.92.47-3.44-1.39-5.88-4.29-7.28a16.83,16.83,0,0,0-10.81-1.58C147.38,90.48,140.33,93.63,132.78,97.48ZM89,121.15c-5,4.43-9.44,8.1-13.54,12.13-3.6,3.53-6.72,7.54-8,12.5-1.44,5.59,2.69,9.95,8.19,8.81,2.41-.5,4-2.24,5.19-4.12C86.43,141.77,88.38,132.1,89,121.15Zm-11.15-38c-5.61-3.65-7.75-8.94-11-13.46-3.81-5.3-9.47-7.88-16.12-8.09-3.94-.12-5.25,1.34-5.11,5.23s2.76,6.64,5.57,9C58.54,81.93,67.22,84,77.84,83.16Zm26,41c-1.85,4.11-3.64,7.43-4.87,10.94-2.24,6.33-4.71,12.73-2.61,19.62,1,3.42,4.31,6,7.1,5.77,3.13-.22,6.3-3.57,6.71-7.17a27.11,27.11,0,0,0,.11-3.37C110.22,141.11,107.33,132.93,103.81,124.18ZM89.55,71.36A95.57,95.57,0,0,0,86,51.85c-1.16-3.79-2.77-7.54-5.93-10.31a7.18,7.18,0,0,0-7.5-1.47c-2.65,1-3,3.38-3.16,5.87-.19,3.66,1.14,6.81,3,9.84C76.55,62.34,82.41,67,89.55,71.36Z"/></g></g></svg>