<svg xmlns="http://www.w3.org/2000/svg" viewBox="0 0 180.12 175.02"><defs><style>.cls-1{fill:#facb15;}</style></defs><g id="Layer_2" data-name="Layer 2"><g id="Layer_1-2" data-name="Layer 1"><path class="cls-1" d="M46.68,64.34c-5-5-10.77-9.34-14.38-15.56-5.43-9.34-4.79-19.1-2.76-29,.42-2.05,2-2.15,3.81-2.08,11.06.4,19.8,5.25,27,12.78,4.92,5.11,9.71,10.34,14.28,15.87-2.09-6.83-3.15-13.7-2.15-20.72C73.76,16.84,78,9.3,84,2.61,87-.82,90.61-.81,94,2.29A36.63,36.63,0,0,1,105.92,24.6c1.25,8.27.83,16.33-3,24.11,3.74-5.35,7.46-10.56,11.49-15.58,8.41-10.46,20.24-14,33.34-15,3.1-.24,4.08,2,4.33,4.29,1.1,10.28-.14,20.14-6.88,28.71-3.59,4.57-7.52,8.89-11.93,14.08,5.12-1,8.83-3,13-3.84,13.29-2.56,23.32,3.12,32.66,10.86,1.48,1.22,1.67,2.88.36,4.2-6.19,6.26-11.62,13.35-20.33,16.93-4.82,2-9.87,2.34-15.51,2.24,2.34,2.58,5.44,3.37,8.09,4.67a26,26,0,0,1,11.39,10.48,81.15,81.15,0,0,1,7,14.15c2.39,7-.29,10.16-8,10.74-13.19,1-24.87-2.19-35.22-9.93a2.45,2.45,0,0,0-2.56-.69c1.84,4,4.29,7.74,5.63,11.94,3.48,10.83,2.45,21.43-1.23,32-1,3-2.67,4.07-6.22,3-14.68-4.56-24.09-13.72-28.09-27.84a52.12,52.12,0,0,0-2.51-7.51c-.84,3.89-.8,7.86-2.29,11.61-4.28,10.75-11.19,19.44-21.69,25.38-4.13,2.34-5.14,2-7.45-1.94-7.23-12.38-8.25-25-1.53-37.85,1.33-2.55,2.32-5.25,3.74-8.5-3.54,1.69-5.44,4.27-7.86,6.2-11.46,9.16-24.24,12.64-38.92,8.58-5.43-1.5-6.46-3-5.34-8.28,3.17-15.06,11.71-25.93,27.4-31.17a12.34,12.34,0,0,0,1.73-1c-2.52-1.53-5.17-1.3-7.58-1.68C17.59,95.68,7.53,88.17.67,76.32c-1.12-1.94-.79-3.07.69-4.38,5.41-4.8,11.88-7.41,19.13-8.69a53,53,0,0,1,25.32,1.86,1.94,1.94,0,0,0,1.74.73.78.78,0,0,0,1.23.18l-.73-.73Zm72.5,41A67.75,67.75,0,0,0,108.34,95c-1-.79-2.55-1.54-2.12-3.08.47-1.7,2.15-1.76,3.7-2a28.13,28.13,0,0,0,10.52-3.33c1.09-.62,3.11-1,2.78-2.52-.39-1.82-2.43-1.91-4.08-2-3.88-.11-7.76,0-11.63-.18s-4.28-1.31-2.24-4.36c2.59-3.85,5.77-7.34,7.77-11.53,1.19-2.51,0-3.43-2.65-3.13a6.92,6.92,0,0,0-3.63,1.78c-3.34,2.74-6.64,5.53-10,8.2-1.08.85-1.88,2.85-3.61,2-1.51-.79-.64-2.61-.67-4-.09-5,.69-9.94-.45-14.86-.25-1.07-.68-2.59-2.06-2.68-1.53-.1-1.74,1.47-2.07,2.54C86.41,60.7,85,65.48,83.62,70.25c-.4,1.36-.36,3.31-2,3.63s-2.44-1.41-3.46-2.42a44.88,44.88,0,0,0-11.73-8c-.79-.39-1.74-1-2.7-.27A2.34,2.34,0,0,0,63.07,66a19.18,19.18,0,0,0,3.28,6.28c2.67,3.4,5.87,6.47,8.05,10.82a30.88,30.88,0,0,0-16.3.27c-1.48.44-3.2,1.14-3.47,2.5-.34,1.73,1.7,2.09,3,2.74a28.45,28.45,0,0,0,14,2.94c1.1,0,2.42,0,2.88,1.09s-.79,1.52-1.43,2.17a90.31,90.31,0,0,0-9.43,11.37c-.67,1-1,1.9-.09,2.86s1.74.22,2.63,0c4-1.18,6.66-4.14,9.9-6.34.91-.62,1.57-2.28,3-1.43,1.25.73.49,2.16.46,3.28-.1,4.42-.92,8.88,1.26,13.14.41.81.42,1.91,1.55,2,1.43.17,1.71-1.07,2.2-2,2-3.79,2.59-8,3.62-12,.28-1.09.17-2.66,1.78-2.72,1.41,0,1.3,1.51,1.67,2.4a56.22,56.22,0,0,0,7.83,13.31c.84,1.05,1.88,2.14,3.47,1.44s.9-1.94.65-3.1q-1.44-6.51-2.75-13c-.18-.88-.47-2,.31-2.62.93-.72,1.77.25,2.6.63C108.43,104.2,113,106.81,119.18,105.31Z"/><path class="cls-1" d="M87.48,79c6.53.17,11.79,4.4,11.66,9.35s-5.35,9.15-11,9c-6-.17-9.2-3.6-9-9.74C79.3,82.25,82.59,78.86,87.48,79Z"/></g></g></svg>