<svg xmlns="http://www.w3.org/2000/svg" viewBox="0 0 187.16 180.43"><defs><style>.cls-1{fill:#6f4599;}</style></defs><g id="Layer_2" data-name="Layer 2"><g id="Layer_1-2" data-name="Layer 1"><path class="cls-1" d="M187.16,89.94c.06-6.42-5.41-11.33-14.66-13.08.51-1.31,1.87-1.64,2.86-2.22,12.19-7.18,8.77-27.69-1.93-32.55-6.8-3.09-13.28-2.13-19.56.31-7.78,3-14.41,8-20.29,13.89a172.28,172.28,0,0,1-21.53,18.64c-.49.35-1,.68-1.46,1s-.72.48-1.36,1c-.24.18-.5.34-.75.52l-.84.57c-.75.51-1,.61-1.84,1.14a3.5,3.5,0,0,1-1.11.51c-.23,0-.5-.14-.42-.4a2.75,2.75,0,0,1,.71-.91c4.84-5.85,8.85-11,13.25-15.92,6-6.65,12.58-12.83,18.46-19.59,5.68-6.54,9.05-14.12,8.05-23-.94-8.26-6.63-15-15-16.39-7.36-1.18-15.89.54-20.56,8.43-.47.8-.61,2-1.85,2.18C104.93,4.24,101.25.3,94.23,0S83.75,3,80.48,13.36a8.36,8.36,0,0,1-.94-1.26c-3.94-8.73-12-9.89-20.11-9.4-9.77.6-17.34,10.71-16,20.34C45,34.74,50.58,44.66,59.2,52.68S75.06,70,82.53,79c.34.4,1,.89.13,1.51A166.56,166.56,0,0,1,56.87,59.35C49,51.44,40.27,44.44,29.19,41.14,21.5,38.84,14.26,40,8.94,46.29S2.37,59.93,6.1,67.62c2,4,5.33,6.76,9.57,9C5.25,78.59.33,82.94,0,90.16-.26,96.2,3.7,99.64,15,103c-1.06.66-2,1.17-2.89,1.8-6.12,4.5-10.13,10.34-8.69,18,1.53,8.1,5.6,14.93,14.83,16.69,8.21,1.56,15.54-.92,22.51-5.24,10.51-6.51,18.8-15.39,27.63-23.73,4.21-4,8.43-8.08,14.68-11.09-.84,1.45-1.17,2.08-1.55,2.69-5.92,9.46-14,17.13-21.52,25.33-7,7.64-13.47,15.7-16.45,25.83-2.37,8.1,1.85,19.22,10.22,22.68,9.23,3.81,18.85,1.38,24.64-6.74.48-.68.78-1.58,1.85-1.64,2.08,8.36,5.75,12.43,11.55,12.87a13.79,13.79,0,0,0,10-2.95c2.92-2.35,4.32-5.58,5-9.49,5.53,8.93,11.94,11.83,21.4,10,7.56-1.44,13.46-8,15.16-16.48,1.27-6.28-.91-11.76-3.53-17.23-4.66-9.74-12.59-16.91-20.21-24.31a83.79,83.79,0,0,1-15.88-20.61,73.69,73.69,0,0,1,8.35,5.91c8.78,7.48,17.35,15.19,26.2,22.6,6.93,5.81,14.34,10.66,24,11.52,12,1.07,22.2-9.28,20.42-21-1-6.83-4.6-11.71-11.32-15.32C181.65,101.43,187.09,96.74,187.16,89.94ZM50.77,100.66c-4.82.42-9.22-1-11.22-5.45-1.81-4.09-2.88-8.81.63-12.7A12.21,12.21,0,0,1,53.7,78.79c9.42,3,18.56,6.8,28.66,11.06C71.39,93.87,62,99.68,50.77,100.66Zm51.5,37.71c-2.52,4-5.61,5.16-11.27,4.21a10.24,10.24,0,0,1-8.58-8,17.53,17.53,0,0,1,.3-8.16c2.52-8.62,6.63-16.6,10.8-25,3.36,8.32,7.49,15.39,9.71,23.2C104.55,129.27,105,134,102.27,138.37Zm1.4-85.3c-2,8.79-6,16.95-10.56,25.6C89.63,69.05,85,60.6,82.79,51.28c-1-4.34,1.38-10.37,5.2-12.44a10.25,10.25,0,0,1,11.2.46C104,42.72,104.86,48,103.67,53.07Zm44.26,41.05a8.7,8.7,0,0,1-6.22,5.59c-2.46.58-4.49,1.42-7.65.51-9.41-2.71-18.44-6.33-27.65-9.52-.32-.11-.56-.44-1-.79,9.48-4.17,18.61-8.74,28.62-11.2,4.5-1.1,8.84-.62,12,2.85S149.8,89.55,147.93,94.12Z"/></g></g></svg>