<svg xmlns="http://www.w3.org/2000/svg" viewBox="0 0 175.39 174.42"><defs><style>.cls-1{fill:#54327a;}</style></defs><g id="Layer_2" data-name="Layer 2"><g id="Layer_1-2" data-name="Layer 1"><path class="cls-1" d="M114.84,78.84a9.2,9.2,0,0,0,6-.19c6.25-1.91,12.1-4.81,18.63-6.12,4.43-.88,8.8.57,12.95-.41,4.74-1.11,8.68.32,12.54,2.17,8.73,4.19,12.21,12.38,9.53,22.33-2.93,10.89-13.46,17.17-26.11,14.56-9.73-2-18.26-6.83-27.36-10.33-1.24-.48-2.51-.91-3.74-1.4-.9-.35-2-.93-2.57.07a2.51,2.51,0,0,0,.69,3.23,19.81,19.81,0,0,0,5.08,2.54c11,4,21.9,8.21,30,16.69,4.59,4.8,7.59,10.61,6.43,17.28-2.12,12.32-15.1,19-27.9,14.29-7.66-2.81-12.42-8.76-16.81-15-4.54-6.41-7-13.76-10.33-20.71-.56-1.17-.8-2.91-2.62-2.21s-.68,2-.29,3.28c3,9.58,7.8,18.58,9.83,28.48,2.12,10.34-4.9,23.63-15.25,26.21-15.23,3.8-28.73-7-27.36-22,.78-8.58,4.27-16.36,7.56-24.22,1.26-3,2.53-6,3.6-9.12.3-.86.92-2.27-.41-2.78s-1.93.8-2.51,1.59c-2.92,4-4.53,8.7-6.86,13-2.53,4.69-5,9.37-8,13.87-4.55,6.93-11.55,10.06-19.43,11.7-7,1.46-15.52-2.58-19.06-8.44-6.34-10.48-2.64-23.23,8.08-29.83a126.51,126.51,0,0,1,24.32-11.52,25.84,25.84,0,0,0,6.77-3.73c.75-.55,1.68-1.11,1.23-2.22-.54-1.3-1.8-1.14-2.84-.9-1.33.3-2.55,1-3.87,1.29-10,2.57-19.23,7.49-29.52,9.39C16,111.45,6.06,107,1.9,99.21-1.26,93.26-.93,80.54,6.35,74.63,15.53,67.16,24.18,66,35.57,71A14.85,14.85,0,0,0,40,72.3c6.2.63,11.85,3,17.57,5.12,1,.39,2.63,1.35,3.32,0s-.71-2.32-2-3a108.62,108.62,0,0,0-15-6.85c-5.75-2.07-11.53-4.22-16.33-7.91-7-5.4-11.13-12-10.38-21.2C18.16,27.54,34.78,18.64,46.61,24S63.34,38.54,67.72,48.83c2,4.66,4,9.29,6.12,13.92.68,1.5,1.87,2.92,3.67,2.42s.82-2.29.81-3.46c0-4.48-2.53-8.28-4.34-12.19C69.58,40,66.36,30.34,67.4,19.69c1-9.76,8.81-17.19,21.25-19.4,8.61-1.53,18.45,3.15,21.77,10.89,3.49,8.11,2.59,16.38-.46,24.47-3.27,8.64-7.48,17-9.52,26-.3,1.3-1.37,3.23.44,3.75,1.51.44,2.15-1.61,2.88-2.83,3.47-5.77,5.84-12,9-17.94,4.53-8.44,9.92-15.09,20.17-18.2,10.09-3.05,21.54.55,25.79,9.76,5,10.76-2.48,25.09-14.54,28.31-2.54.68-4.71,2.38-7,3.62-3.9,2.09-8.31,3.34-12.49,5C121.28,74.49,117.64,75.47,114.84,78.84Zm-39,11.68C75,96.33,81.06,101.38,89.11,102c5.09.38,11.55-5.89,11.44-11.26-.16-7.6-2.65-12.64-12.24-12.89C80.21,77.62,76.13,81.82,75.87,90.52Z"/></g></g></svg>