<?xml version="1.0" encoding="UTF-8"?>
<svg id="Layer_1" xmlns="http://www.w3.org/2000/svg" version="1.1" viewBox="0 0 275.3 288.1">
  <!-- Generator: Adobe Illustrator 30.0.0, SVG Export Plug-In . SVG Version: 2.1.1 Build 123)  -->
  <g id="Layer_2">
    <g id="Layer_1-2">
      <path d="M78.7,245.1c0-9.4,1.3-18.8,2.8-28.1,2.5-15.1,10.4-27.5,21.4-38,.8-.8,1.9-1.3,2.4-2.1,1.4-2.7,6.4-4.1,4.4-7.7-1.9-3.4-6.5-3.3-10.1-2.6-15.6,3.2-34,13.2-37.9,35.7-1.3,6.7-2.1,13.5-2.5,20.4-.7,16.3-11.4,22.7-26.7,16.1-12.5-5.3-22.7-13.8-27.9-25.9-8-18.7-6.5-42.5,13.2-57.3,16.3-12.2,34.5-16.4,54.4-15.7,5.2,0,10.4-.5,15.5-1.4,6.3-1,7.9-4.6,5-10.1-4.8-9.1-13.6-11.3-22.8-12.6-4.1-.6-8.2-.7-12.3-1.3-18.6-2.8-25.6-11.3-26.4-31.4-.6-13.8,7-23.6,18.7-30,7.9-4.5,16.7-7.3,25.8-8.1,13.1-1,27.9,8.7,34.2,22.8,5.6,12.5,10.6,25.3,16,37.8,1.8,4.3,3.5,9.7,9.2,9.7,5.3,0,6-5.7,7.4-9.5,3-8.1,2.1-16.2-.8-24.3-4.9-13.2-10.2-26.3-11-40.7C129.2,12.2,144,1.5,168.4.1c35-2,45.1,25.6,39.9,50.1-3,14.1-11.6,25.9-18.5,38.4-5.6,10.2-13.2,19.4-17.2,30.4-1.5,4-4.4,9.1.2,12.4,4.4,3.2,8-1.4,11.4-3.7,19.6-13.2,33.4-30.3,37.2-54.2.8-5.2,3.4-9.9,6.6-14.2,2.9-3.9,10.6-5.7,16.2-3,19.1,9,31.1,21.4,31.1,44.1,0,19.9-8.8,35.6-27.9,45.1-16.6,8.3-34.3,10.3-52.3,11.3-3.7.2-7.4-.2-10.9,1.2-2.6,1-5.9,1.4-6.1,4.8s1.3,6.2,4.2,8.2c9.2,6.6,19.4,8.1,30.4,6.3,4.9-.8,9.8-1.8,14.7-2.5,18.1-2.7,26.4,3.5,27.9,21.4,2.1,24.4-5.6,38-28.7,51.7-9.7,5.8-20.6,3-30.9-1-19.7-7.6-31.6-21.7-37.2-41.5-1.8-6.4-3.1-12.9-7.8-18.1-4.4-4.9-7.5-4.4-10.8,1.4-8.9,15.8-3.1,29.9,5.5,43.3,5.1,8,10.5,15.6,11.4,25.5,1.2,13.6-6.9,25.8-20.3,28.9-17.8,4.2-34.1.1-48.7-10.4-7.2-5.2-7.9-13.4-9-21.3-.4-3.1,0-6.4,0-9.6Z"/>
    </g>
  </g>
</svg>