<svg xmlns="http://www.w3.org/2000/svg" viewBox="0 0 175.96 169.16"><defs><style>.cls-1{fill:#facb15;}</style></defs><g id="Layer_2" data-name="Layer 2"><g id="Layer_1-2" data-name="Layer 1"><path class="cls-1" d="M55.9,93.29a23.72,23.72,0,0,0-9.71,1.09C35.8,97.26,25.4,99.32,14.38,97.92,6.55,96.92,2.13,90.73.75,85.48A28.53,28.53,0,0,1,0,79.64c-.44-8.85,3.53-14,12.64-16.23,8.48-2.1,16.67-1.6,24.52,2.46,4.23,2.18,8.64,4.06,13,6.07.62.28,1.27.51,1.91.75,1.61.63,3.61,1.08,4.58-.35s-1-2.49-1.95-3.38c-4.94-4.5-11.28-7-16.93-10.53C30.14,53.69,23.43,48,20.36,39.62,16.91,30.15,20,21,27.75,16.31s18.28-3.42,26,3.28A32.45,32.45,0,0,1,62.19,32c2.74,6.53,5.44,13.07,8.17,19.61A6.59,6.59,0,0,0,71.05,53c1.36,1.82,2.36,5.19,5.1,4,2.38-1,1.24-4.31.56-6.47A116,116,0,0,0,71.93,37.6c-2.71-6.05-3.34-12.3-3.17-18.77C69.07,6.94,79.93-1.9,92.16.35c7.31,1.35,9.51,7.32,11.58,13.11,3.51,9.89.79,19.34-2.21,28.8-1.23,3.88-2.19,7.83-3.24,11.76-.37,1.39-.93,3.37.7,3.84s2.28-1.66,2.78-2.88c2.53-6.18,3.64-12.92,7-18.74,5.7-9.75,12.44-18.69,25.37-20.59,7.24-1.06,13.46.76,18,6.36,4.34,5.33,4.67,11.36,2.39,17.47a28.72,28.72,0,0,1-12,14.59c-7.58,4.77-15.05,9.7-22.46,14.71-1.53,1-4.43,2.32-3,4.32,1,1.35,3.46-.44,5-1.44a64.55,64.55,0,0,1,26.41-9.52c6.57-.94,12.61.48,18.4,3.23,7.89,3.74,9.72,11.17,8.72,18.75-1.21,9.18-10.47,16-21,16.7a61.89,61.89,0,0,1-19.27-2.16c-5.21-1.31-10.38-2.74-15.82-2.93-.86,0-1.85-.19-2.16.67s.61,1.45,1.26,1.78c2,1,4,1.86,6,2.68,8.92,3.58,17.82,7.24,24.93,13.68s9.4,14.59,6.65,23.39c-4.63,14.81-23,17.73-34.35,7.56-7.38-6.64-11.76-15-15.76-23.67-1.17-2.52-2.19-5.11-4.47-7-.7-.56-1.35-1.6-2.44-1s-.74,1.66-.51,2.5c1.4,5.19,2.76,10.39,4.38,15.51a37.55,37.55,0,0,1,.67,22c-3.37,12-15.82,18-28.58,14.18-9.53-2.84-14.52-13.8-12.66-24.92,1.39-8.35,5.19-15.89,8.53-23.59.87-2,2.63-4.7.11-5.85-2.67-1.21-3.64,2-4.8,3.79-4.63,7.1-8.43,14.73-14.37,21a34.82,34.82,0,0,1-16.22,9.71c-9.28,2.6-16.32.53-22.29-6.75-4.59-5.59-4.55-14-.07-21,5-7.88,13-12.32,21.25-16.31,3.93-1.89,8.13-3.27,12.21-4.88C50.14,97.93,53.41,96.65,55.9,93.29ZM71.25,83.16c.06,8.82,6.83,16.92,14,16.76,8.67-.2,15.75-7,15.76-15.09,0-9.11-6-14.85-15.33-14.72C77.39,70.23,71.2,75.82,71.25,83.16Z"/></g></g></svg>