<?xml version="1.0" encoding="UTF-8"?>
<svg id="Layer_1" xmlns="http://www.w3.org/2000/svg" version="1.1" viewBox="0 0 288.1 263.4">
  <!-- Generator: Adobe Illustrator 30.0.0, SVG Export Plug-In . SVG Version: 2.1.1 Build 123)  -->
  <g id="Layer_2">
    <g id="Layer_1-2">
      <path d="M179.9,145c8.8,3.8,17.5,7.1,26.8,9.2,16.5,3.6,30.3,12,39.3,26.7,5.8,9.5,8.5,19.9,6.6,31-1.6,9.5-7.8,15.7-15.4,20.6-2.8,1.8-5.1,3.7-6.5,6.9-2.7,6-7.8,7.9-14.3,5.9-.9-.3-1.8-.4-2.7-.5-16.8-.4-29.6-8.3-38.9-21.9-9.5-13.8-16.2-29.1-23.9-43.8-.3-.7-.9-1.2-1.7-1.4.2,2.4.4,4.9.6,7.3,1.3,15.8,2.8,31.6-.5,47.2-2.7,12.6-9,23.6-21.8,28.6-8.2,3.2-16.8,3.1-25.4,1.3-2.2-.5-4-2.1-4.8-4.2-.6-1.6-1.7-2-3.4-1.7-22,4-35.3-12.9-31.2-34.1,2.8-14.4,10.5-26.2,19.4-37.4,7.3-9.2,15.7-17.4,23.5-26.1.5-.5.8-1.1.9-1.8-7.7,4.1-15.6,7.6-23,12.3-20.3,12.9-41.8,17.8-65.3,10.1-4.2-1.3-8.2-3.3-11.7-6.1-6.9-5.7-8.5-13.5-3.9-21.2,1.2-1.7,1.3-3.9.2-5.6-4-8.1-1.9-15.5,3.4-22.2,9.1-11.4,21.4-15.5,35.5-15.9,13.4-.4,25.9,3.3,38.5,7.5,7.7,2.6,15.7,4.2,23.7,4.9-5.5-4.7-11.2-9.1-17.3-13.1-15.8-10.1-31.2-20.7-44-34.7-9.4-10.3-12.9-30.5-5.1-41.9,5.1-7.4,11-15.2,21-17.6,10.4-2.5,20-1.2,29,5.1,9.8,6.8,16.8,15.7,22.4,26.2,5.2,9.7,9.1,19.8,13.3,29.8,3.1,7.6,5.6,15.4,7.5,23.4.2.8,0,1.9,1.5,2.3.3-7.8-1.1-15.3-1.2-22.9-.2-14.6-.6-29.3,2.8-43.6,2.9-12.2,8.9-22.7,20.2-29.4,8.4-4.9,16.9-5.5,25.7-1.1,1,.6,2.1,1,3.3.9,9.5-1.2,16.1,2.7,19.8,11.6,6.6,16.1,4.6,32-2.1,47.5-5.3,12-12,23.4-19.9,34-2,2.7-4.4,5.3-5.7,9.5,5.1-3.9,9-8.1,13.1-12.1,12.2-12,24.9-23.2,40.9-30.2,8.1-3.6,16.1-4.8,24.7-3,9.9,2,19.1,5.4,26.1,13,8.5,9.1,9.9,19.9,6.2,31.3-7.9,24.2-26.4,34-50.2,35.9-17.5,1.4-35.1,2.3-52.6,3.4l-3.4.2Z"/>
    </g>
  </g>
</svg>